<svg width="333" height="258" viewBox="0 0 333 258" fill="none" xmlns="http://www.w3.org/2000/svg">
<g clip-path="url(#clip0)">
<rect width="333" height="258" fill="#FAFAFA"/>
<rect x="-2.5" y="-47.5" width="1126" height="432" rx="5.5" fill="white" stroke="#CCCCCC"/>
<line x1="332.5" y1="-2.11866e-08" x2="332.5" y2="385" stroke="#CCCCCC"/>
<path d="M64.222 67H67.238C70.072 67 72.074 65.141 72.074 62.528C72.074 59.915 70.072 58.069 67.238 58.069H64.222V67ZM65.236 66.077V58.992H67.238C69.474 58.992 71.047 60.461 71.047 62.528C71.047 64.608 69.474 66.077 67.238 66.077H65.236ZM78.1543 67.156C79.3893 67.156 80.5333 66.623 81.3653 65.791L80.6763 65.089C80.0263 65.778 79.1293 66.22 78.1543 66.22C76.2303 66.22 74.6053 64.53 74.6053 62.528C74.6053 60.539 76.2303 58.849 78.1543 58.849C79.1293 58.849 80.0263 59.291 80.6763 59.98L81.3653 59.278C80.5333 58.433 79.3893 57.913 78.1543 57.913C75.6843 57.913 73.5783 60.019 73.5783 62.528C73.5783 65.037 75.6843 67.156 78.1543 67.156ZM82.4663 63.945H85.8333V62.996H82.4663V63.945ZM90.3975 67H91.4635V63.36L95.0515 58.069H93.8295L90.9305 62.398L88.0575 58.069H86.7965L90.3975 63.36V67ZM97.8158 66.285C96.4898 66.285 95.5668 65.323 95.4238 64.01H100.923C100.923 61.657 99.7658 60.123 97.7378 60.123C95.9308 60.123 94.4228 61.618 94.4228 63.62C94.4228 65.687 96.0348 67.156 97.8288 67.156C98.7648 67.156 99.9478 66.753 100.533 66.116L99.9348 65.479C99.5188 65.934 98.6088 66.285 97.8158 66.285ZM97.7768 60.994C99.1158 60.994 99.8308 61.93 99.9608 63.139H95.4368C95.6188 61.839 96.5808 60.994 97.7768 60.994ZM103.584 61.592V60.279H102.609V67H103.584V63.243C103.584 61.93 104.663 60.994 106.184 60.994V60.123C104.949 60.123 103.987 60.695 103.584 61.592ZM110.562 66.285C109.236 66.285 108.313 65.323 108.17 64.01H113.669C113.669 61.657 112.512 60.123 110.484 60.123C108.677 60.123 107.169 61.618 107.169 63.62C107.169 65.687 108.781 67.156 110.575 67.156C111.511 67.156 112.694 66.753 113.279 66.116L112.681 65.479C112.265 65.934 111.355 66.285 110.562 66.285ZM110.523 60.994C111.862 60.994 112.577 61.93 112.707 63.139H108.183C108.365 61.839 109.327 60.994 110.523 60.994ZM117.487 67H118.423L121.244 60.279H120.152L117.955 65.856L115.719 60.279H114.627L117.487 67ZM124.799 60.123C124.149 60.123 123.343 60.292 122.381 60.773L122.771 61.566C123.382 61.254 124.058 60.955 124.734 60.955C126.19 60.955 126.554 61.995 126.554 62.905V63.152C125.865 62.931 125.098 62.775 124.37 62.775C122.927 62.775 121.731 63.672 121.731 65.011C121.731 66.337 122.771 67.156 124.188 67.156C125.072 67.156 126.073 66.74 126.554 65.947V67H127.529V62.905C127.529 61.28 126.632 60.123 124.799 60.123ZM124.357 66.298C123.408 66.298 122.68 65.804 122.68 64.972C122.68 64.166 123.525 63.594 124.526 63.594C125.254 63.594 125.943 63.698 126.554 63.867V64.894C126.294 65.843 125.241 66.298 124.357 66.298ZM132.719 60.123C131.77 60.123 130.899 60.643 130.509 61.358V60.279H129.534V67H130.509V62.723C130.509 61.787 131.458 60.994 132.589 60.994C133.577 60.994 134.266 61.761 134.266 62.853V67H135.241V62.723C135.241 61.202 134.201 60.123 132.719 60.123ZM136.955 63.945H140.322V62.996H136.955V63.945ZM143.391 67H144.405V58.069H143.586L141.389 59.564L141.831 60.318L143.391 59.304V67ZM149.56 57.913C147.701 57.913 146.414 59.213 146.414 60.864C146.414 62.632 147.779 63.646 149.404 63.646C150.457 63.646 151.38 63.139 151.926 62.281V62.398C151.926 64.543 150.795 66.233 149.365 66.233C148.507 66.233 147.922 65.843 147.363 65.297L146.804 66.09C147.467 66.727 148.247 67.156 149.339 67.156C151.367 67.156 152.953 65.063 152.953 62.398C152.953 59.876 151.978 57.913 149.56 57.913ZM149.586 62.775C148.39 62.775 147.441 62.034 147.441 60.812C147.441 59.824 148.234 58.784 149.573 58.784C150.821 58.784 151.549 59.759 151.809 61.111C151.588 62.099 150.717 62.775 149.586 62.775Z" fill="#565656"/>
<path fill-rule="evenodd" clip-rule="evenodd" d="M42.06 55.5H48.94C49.5254 55.5 50 55.9746 50 56.56V70.5H41V56.56C41 55.9746 41.4746 55.5 42.06 55.5ZM47 58H48V59H47V58ZM53.5 60.5H52.5V61.5H53.5V60.5ZM53.5 63H52.5V64H53.5V63ZM50.5 65.5H51.5V66.5H50.5V65.5ZM52.5 65.5H53.5V66.5H52.5V65.5ZM50.5 63H51.5V64H50.5V63ZM50.5 60.5H51.5V61.5H50.5V60.5ZM48 65.5H47V66.5H48V65.5ZM45 65.5H46V66.5H45V65.5ZM44 65.5H43V66.5H44V65.5ZM47 63H48V64H47V63ZM46 63H45V64H46V63ZM43 63H44V64H43V63ZM48 60.5H47V61.5H48V60.5ZM45 60.5H46V61.5H45V60.5ZM44 60.5H43V61.5H44V60.5ZM46 58H45V59H46V58ZM43 58H44V59H43V58ZM49 69.5H47.5V68H43.5V69.5H42V56.56C42 56.5441 42.0063 56.5288 42.0176 56.5176C42.0288 56.5063 42.0441 56.5 42.06 56.5H48.94C48.9559 56.5 48.9712 56.5063 48.9824 56.5176C48.9937 56.5288 49 56.5441 49 56.56V69.5ZM50.5 58H54.5C55.0523 58 55.5 58.4477 55.5 59V70.5H50.5V69.5H54.5V59H50.5V58Z" fill="#737373"/>
<path d="M18.2401 60.7402L24.0001 66.7002L29.7601 60.7402C30.0859 60.4019 30.0759 59.8635 29.7376 59.5377C29.3993 59.2118 28.8609 59.2219 28.5351 59.5602L24.0001 64.2552L19.4601 59.5602C19.1343 59.2219 18.5959 59.2118 18.2576 59.5377C17.9193 59.8635 17.9093 60.4019 18.2351 60.7402L18.2401 60.7402Z" fill="#737373"/>
<path d="M45.211 88.8628H46.147L48.968 82.1418H47.876L45.679 87.7188L43.443 82.1418H42.351L45.211 88.8628ZM53.4332 89.0188C54.3692 89.0188 55.2272 88.6288 55.8642 87.9918L55.1882 87.3288C54.7332 87.8358 54.1092 88.1478 53.4332 88.1478C52.0942 88.1478 50.9762 86.9388 50.9762 85.4958C50.9762 84.0658 52.0942 82.8568 53.4332 82.8568C54.0962 82.8568 54.7072 83.1558 55.1492 83.6368L55.8252 82.9738C55.1882 82.3628 54.3432 81.9858 53.4332 81.9858C51.5482 81.9858 49.9492 83.5848 49.9492 85.4958C49.9492 87.4068 51.5482 89.0188 53.4332 89.0188ZM56.3451 90.7088H64.0931V89.8378H56.3451V90.7088ZM68.0815 88.1478C66.7555 88.1478 65.8325 87.1858 65.6895 85.8728H71.1885C71.1885 83.5198 70.0315 81.9858 68.0035 81.9858C66.1965 81.9858 64.6885 83.4808 64.6885 85.4828C64.6885 87.5498 66.3005 89.0188 68.0945 89.0188C69.0305 89.0188 70.2135 88.6158 70.7985 87.9788L70.2005 87.3418C69.7845 87.7968 68.8745 88.1478 68.0815 88.1478ZM68.0425 82.8568C69.3815 82.8568 70.0965 83.7928 70.2265 85.0018H65.7025C65.8845 83.7018 66.8465 82.8568 68.0425 82.8568ZM75.1629 89.0188C76.5539 89.0188 77.6199 88.2258 77.6199 86.9908C77.6199 85.7168 76.5019 85.3528 75.4229 85.0148C74.1749 84.6118 73.6809 84.4298 73.6809 83.8448C73.6809 83.1948 74.3049 82.8568 75.0589 82.8568C75.6569 82.8568 76.3199 83.0648 76.9959 83.4938L77.4639 82.7398C76.7489 82.2718 75.8909 81.9858 75.0589 81.9858C73.7199 81.9858 72.7059 82.7398 72.7059 83.9618C72.7059 84.9238 73.3299 85.4048 74.9549 85.8728C75.8649 86.1328 76.6449 86.3668 76.6449 87.0948C76.6449 87.7318 76.0469 88.1478 75.1629 88.1478C74.4219 88.1478 73.6549 87.8618 72.8879 87.3028L72.3809 88.0178C73.1869 88.6678 74.2269 89.0188 75.1629 89.0188ZM82.3531 89.0188C84.2381 89.0188 85.8241 87.4068 85.8241 85.4958C85.8241 83.5848 84.2381 81.9858 82.3531 81.9858C80.4681 81.9858 78.8691 83.5848 78.8691 85.4958C78.8691 87.4068 80.4681 89.0188 82.3531 89.0188ZM82.3531 88.1478C81.0141 88.1478 79.8961 86.9388 79.8961 85.4958C79.8961 84.0658 81.0141 82.8568 82.3531 82.8568C83.6791 82.8568 84.7971 84.0658 84.7971 85.4958C84.7971 86.9388 83.6791 88.1478 82.3531 88.1478ZM87.1743 85.8078H90.5413V84.8588H87.1743V85.8078ZM95.2095 87.8748C95.0665 88.0308 94.8065 88.1478 94.5075 88.1478C94.1175 88.1478 93.7795 87.7968 93.7795 87.3028V83.0128H95.4305V82.1418H93.7795V80.2958H92.8045V82.1418H91.7515V83.0128H92.8045V87.3028C92.8045 88.3038 93.4805 89.0188 94.4425 89.0188C94.8975 89.0188 95.3395 88.8628 95.6905 88.5898L95.2095 87.8748ZM104.337 81.9858C103.323 81.9858 102.439 82.5448 102.166 83.4158C101.802 82.5448 101.009 81.9858 99.995 81.9858C99.111 81.9858 98.383 82.4278 98.045 83.1298V82.1418H97.07V88.8628H98.045V84.5858C98.045 83.5718 98.799 82.8568 99.865 82.8568C100.775 82.8568 101.412 83.6238 101.412 84.7158V88.8628H102.387V84.5858C102.387 83.5718 103.141 82.8568 104.207 82.8568C105.117 82.8568 105.754 83.6238 105.754 84.7158V88.8628H106.729V84.5858C106.729 83.0648 105.741 81.9858 104.337 81.9858ZM112.209 81.9858C111.13 81.9858 110.272 82.5188 109.765 83.4028V82.1418H108.79V91.0988H109.765V87.6018C110.272 88.4858 111.13 89.0188 112.209 89.0188C113.977 89.0188 115.303 87.5628 115.303 85.4958C115.303 83.4418 113.977 81.9858 112.209 81.9858ZM112.027 88.1478C110.701 88.1478 109.765 87.0428 109.765 85.4958C109.765 83.9488 110.701 82.8568 112.027 82.8568C113.34 82.8568 114.276 83.9488 114.276 85.4958C114.276 87.0428 113.34 88.1478 112.027 88.1478ZM116.729 85.8078H120.096V84.8588H116.729V85.8078ZM124.036 88.8628H124.972L127.793 82.1418H126.701L124.504 87.7188L122.268 82.1418H121.176L124.036 88.8628ZM133.402 89.0188C134.637 89.0188 135.781 88.4858 136.613 87.6538L135.924 86.9518C135.274 87.6408 134.377 88.0828 133.402 88.0828C131.478 88.0828 129.853 86.3928 129.853 84.3908C129.853 82.4018 131.478 80.7118 133.402 80.7118C134.377 80.7118 135.274 81.1538 135.924 81.8428L136.613 81.1408C135.781 80.2958 134.637 79.7758 133.402 79.7758C130.932 79.7758 128.826 81.8818 128.826 84.3908C128.826 86.8998 130.932 89.0188 133.402 89.0188ZM140.86 89.0188C142.693 89.0188 144.032 87.8488 144.032 86.0808C144.032 84.3128 142.693 83.2988 141.081 83.2988C140.262 83.2988 139.651 83.5718 139.17 83.8968L139.261 80.8938H143.551V79.9318H138.273L138.143 84.5208L138.884 84.8848C139.443 84.4688 140.106 84.1958 140.873 84.1958C142.121 84.1958 143.005 84.9758 143.005 86.1198C143.005 87.2508 142.134 88.1088 140.899 88.1088C139.911 88.1088 139.066 87.6148 138.377 86.8608L137.714 87.6018C138.442 88.4338 139.482 89.0188 140.86 89.0188ZM148.643 89.0188C150.476 89.0188 151.815 87.8488 151.815 86.0808C151.815 84.3128 150.476 83.2988 148.864 83.2988C148.045 83.2988 147.434 83.5718 146.953 83.8968L147.044 80.8938H151.334V79.9318H146.056L145.926 84.5208L146.667 84.8848C147.226 84.4688 147.889 84.1958 148.656 84.1958C149.904 84.1958 150.788 84.9758 150.788 86.1198C150.788 87.2508 149.917 88.1088 148.682 88.1088C147.694 88.1088 146.849 87.6148 146.16 86.8608L145.497 87.6018C146.225 88.4338 147.265 89.0188 148.643 89.0188ZM154.215 89.0188C154.592 89.0188 154.904 88.6938 154.904 88.3038C154.904 87.9398 154.592 87.6148 154.215 87.6148C153.812 87.6148 153.5 87.9398 153.5 88.3038C153.5 88.6938 153.812 89.0188 154.215 89.0188ZM159.856 88.1478C158.53 88.1478 157.607 87.1858 157.464 85.8728H162.963C162.963 83.5198 161.806 81.9858 159.778 81.9858C157.971 81.9858 156.463 83.4808 156.463 85.4828C156.463 87.5498 158.075 89.0188 159.869 89.0188C160.805 89.0188 161.988 88.6158 162.573 87.9788L161.975 87.3418C161.559 87.7968 160.649 88.1478 159.856 88.1478ZM159.817 82.8568C161.156 82.8568 161.871 83.7928 162.001 85.0018H157.477C157.659 83.7018 158.621 82.8568 159.817 82.8568ZM167.756 81.9858C166.807 81.9858 165.936 82.5058 165.546 83.2208V82.1418H164.571V88.8628H165.546V84.5858C165.546 83.6498 166.495 82.8568 167.626 82.8568C168.614 82.8568 169.303 83.6238 169.303 84.7158V88.8628H170.278V84.5858C170.278 83.0648 169.238 81.9858 167.756 81.9858ZM177.478 82.1418V83.2988C176.958 82.4798 176.1 81.9858 175.034 81.9858C173.227 81.9858 171.94 83.2988 171.94 85.1708C171.94 87.0428 173.227 88.3688 175.034 88.3688C176.1 88.3688 176.958 87.8748 177.478 87.0558V88.1478C177.478 89.4608 176.568 90.2278 175.021 90.2278C174.189 90.2278 173.383 89.9288 172.863 89.4348L172.434 90.2018C173.045 90.7218 174.059 91.0988 175.151 91.0988C177.088 91.0988 178.453 89.8768 178.453 88.1478V82.1418H177.478ZM175.216 87.4978C173.903 87.4978 172.967 86.5358 172.967 85.1708C172.967 83.8188 173.903 82.8568 175.216 82.8568C176.542 82.8568 177.478 83.8188 177.478 85.1708C177.478 86.5358 176.542 87.4978 175.216 87.4978ZM181.192 89.0188C181.569 89.0188 181.881 88.6938 181.881 88.3038C181.881 87.9398 181.569 87.6148 181.192 87.6148C180.789 87.6148 180.477 87.9398 180.477 88.3038C180.477 88.6938 180.789 89.0188 181.192 89.0188ZM186.027 88.8628H186.963L189.784 82.1418H188.692L186.495 87.7188L184.259 82.1418H183.167L186.027 88.8628ZM198.397 81.9858C197.383 81.9858 196.499 82.5448 196.226 83.4158C195.862 82.5448 195.069 81.9858 194.055 81.9858C193.171 81.9858 192.443 82.4278 192.105 83.1298V82.1418H191.13V88.8628H192.105V84.5858C192.105 83.5718 192.859 82.8568 193.925 82.8568C194.835 82.8568 195.472 83.6238 195.472 84.7158V88.8628H196.447V84.5858C196.447 83.5718 197.201 82.8568 198.267 82.8568C199.177 82.8568 199.814 83.6238 199.814 84.7158V88.8628H200.789V84.5858C200.789 83.0648 199.801 81.9858 198.397 81.9858ZM204.475 88.8628H205.398L207.205 83.4938L208.986 88.8628H209.909L212.171 82.1418H211.131L209.454 87.5628L207.621 82.1418H206.776L204.943 87.5628L203.266 82.1418H202.226L204.475 88.8628ZM216.318 81.9858C215.668 81.9858 214.862 82.1548 213.9 82.6358L214.29 83.4288C214.901 83.1168 215.577 82.8178 216.253 82.8178C217.709 82.8178 218.073 83.8578 218.073 84.7678V85.0148C217.384 84.7938 216.617 84.6378 215.889 84.6378C214.446 84.6378 213.25 85.5348 213.25 86.8738C213.25 88.1998 214.29 89.0188 215.707 89.0188C216.591 89.0188 217.592 88.6028 218.073 87.8098V88.8628H219.048V84.7678C219.048 83.1428 218.151 81.9858 216.318 81.9858ZM215.876 88.1608C214.927 88.1608 214.199 87.6668 214.199 86.8348C214.199 86.0288 215.044 85.4568 216.045 85.4568C216.773 85.4568 217.462 85.5608 218.073 85.7298V86.7568C217.813 87.7058 216.76 88.1608 215.876 88.1608ZM222.106 83.4548V82.1418H221.131V88.8628H222.106V85.1058C222.106 83.7928 223.185 82.8568 224.706 82.8568V81.9858C223.471 81.9858 222.509 82.5578 222.106 83.4548ZM229.083 88.1478C227.757 88.1478 226.834 87.1858 226.691 85.8728H232.19C232.19 83.5198 231.033 81.9858 229.005 81.9858C227.198 81.9858 225.69 83.4808 225.69 85.4828C225.69 87.5498 227.302 89.0188 229.096 89.0188C230.032 89.0188 231.215 88.6158 231.8 87.9788L231.202 87.3418C230.786 87.7968 229.876 88.1478 229.083 88.1478ZM229.044 82.8568C230.383 82.8568 231.098 83.7928 231.228 85.0018H226.704C226.886 83.7018 227.848 82.8568 229.044 82.8568Z" fill="#737373"/>
<path d="M98.436 173.031V172.069H92.027V181H98.436V180.038H93.054V176.931H97.903V175.969H93.054V173.031H98.436ZM103.271 181.143C105.351 181.143 106.417 179.986 106.417 178.569C106.417 176.996 105.195 176.385 103.492 175.982C101.971 175.618 101.087 175.293 101.087 174.37C101.087 173.551 101.893 172.823 102.998 172.823C103.934 172.823 104.818 173.252 105.559 173.967L106.183 173.174C105.364 172.42 104.376 171.9 103.05 171.9C101.334 171.9 100.06 173.018 100.06 174.448C100.06 175.995 101.191 176.554 102.985 176.97C104.545 177.334 105.39 177.711 105.39 178.66C105.39 179.466 104.688 180.22 103.31 180.22C102.062 180.22 101.139 179.687 100.385 178.933L99.7484 179.726C100.645 180.61 101.802 181.143 103.271 181.143ZM112.375 181.156C114.858 181.156 116.938 179.037 116.938 176.528C116.938 174.019 114.858 171.913 112.375 171.913C109.905 171.913 107.799 174.019 107.799 176.528C107.799 179.037 109.905 181.156 112.375 181.156ZM112.375 180.22C110.451 180.22 108.826 178.53 108.826 176.528C108.826 174.539 110.451 172.849 112.375 172.849C114.299 172.849 115.911 174.539 115.911 176.528C115.911 178.53 114.299 180.22 112.375 180.22ZM118.337 177.945H121.704V176.996H118.337V177.945ZM129.87 173.031V172.069H123.461V181H129.87V180.038H124.488V176.931H129.337V175.969H124.488V173.031H129.87ZM138.878 172.069L135.498 179.752L132.105 172.069H131L134.939 181H136.044L139.983 172.069H138.878ZM141.619 181H142.633V173.733L148.171 181H149.185V172.069H148.171V179.336L142.633 172.069H141.619V181ZM151.129 177.945H154.496V176.996H151.129V177.945ZM160.478 181.156C161.713 181.156 162.857 180.623 163.689 179.791L163 179.089C162.35 179.778 161.453 180.22 160.478 180.22C158.554 180.22 156.929 178.53 156.929 176.528C156.929 174.539 158.554 172.849 160.478 172.849C161.453 172.849 162.35 173.291 163 173.98L163.689 173.278C162.857 172.433 161.713 171.913 160.478 171.913C158.008 171.913 155.902 174.019 155.902 176.528C155.902 179.037 158.008 181.156 160.478 181.156ZM165.05 181H166.025V171.913H165.05V181ZM172.727 174.279V178.556C172.727 179.492 171.778 180.285 170.647 180.285C169.659 180.285 168.97 179.518 168.97 178.426V174.279H167.995V178.556C167.995 180.077 169.035 181.156 170.517 181.156C171.466 181.156 172.337 180.636 172.727 179.921V181H173.702V174.279H172.727ZM178.067 181.156C179.458 181.156 180.524 180.363 180.524 179.128C180.524 177.854 179.406 177.49 178.327 177.152C177.079 176.749 176.585 176.567 176.585 175.982C176.585 175.332 177.209 174.994 177.963 174.994C178.561 174.994 179.224 175.202 179.9 175.631L180.368 174.877C179.653 174.409 178.795 174.123 177.963 174.123C176.624 174.123 175.61 174.877 175.61 176.099C175.61 177.061 176.234 177.542 177.859 178.01C178.769 178.27 179.549 178.504 179.549 179.232C179.549 179.869 178.951 180.285 178.067 180.285C177.326 180.285 176.559 179.999 175.792 179.44L175.285 180.155C176.091 180.805 177.131 181.156 178.067 181.156ZM185.088 180.012C184.945 180.168 184.685 180.285 184.386 180.285C183.996 180.285 183.658 179.934 183.658 179.44V175.15H185.309V174.279H183.658V172.433H182.683V174.279H181.63V175.15H182.683V179.44C182.683 180.441 183.359 181.156 184.321 181.156C184.776 181.156 185.218 181 185.569 180.727L185.088 180.012ZM189.978 180.285C188.652 180.285 187.729 179.323 187.586 178.01H193.085C193.085 175.657 191.928 174.123 189.9 174.123C188.093 174.123 186.585 175.618 186.585 177.62C186.585 179.687 188.197 181.156 189.991 181.156C190.927 181.156 192.11 180.753 192.695 180.116L192.097 179.479C191.681 179.934 190.771 180.285 189.978 180.285ZM189.939 174.994C191.278 174.994 191.993 175.93 192.123 177.139H187.599C187.781 175.839 188.743 174.994 189.939 174.994ZM195.746 175.592V174.279H194.771V181H195.746V177.243C195.746 175.93 196.825 174.994 198.346 174.994V174.123C197.111 174.123 196.149 174.695 195.746 175.592ZM199.344 181H205.506V180.038H200.969L203.309 178.01C204.817 176.71 205.415 175.748 205.415 174.539C205.415 172.94 204.115 171.913 202.568 171.913C201.164 171.913 200.163 172.576 199.422 173.629L200.137 174.214C200.748 173.382 201.489 172.823 202.529 172.823C203.478 172.823 204.388 173.46 204.388 174.552C204.388 175.436 203.868 176.294 202.607 177.373L199.344 180.155V181ZM213.656 183.21L214.176 182.651C212.759 181.208 211.979 179.674 211.979 177.555C211.979 175.423 212.759 173.902 214.176 172.446L213.656 171.9C211.914 173.356 210.939 175.306 210.939 177.555C210.939 179.791 211.914 181.754 213.656 183.21ZM215.416 181H221.578V180.038H217.041L219.381 178.01C220.889 176.71 221.487 175.748 221.487 174.539C221.487 172.94 220.187 171.913 218.64 171.913C217.236 171.913 216.235 172.576 215.494 173.629L216.209 174.214C216.82 173.382 217.561 172.823 218.601 172.823C219.55 172.823 220.46 173.46 220.46 174.552C220.46 175.436 219.94 176.294 218.679 177.373L215.416 180.155V181ZM227.544 181H228.558V178.829H229.897V177.906H228.558V172.069H227.388L222.955 177.984L223.085 178.829H227.544V181ZM224.112 177.906L227.544 173.291V177.906H224.112ZM242.599 172.069L239.219 179.752L235.826 172.069H234.721L238.66 181H239.765L243.704 172.069H242.599ZM245.34 181H246.354V174.253L249.669 180.48L252.984 174.253V181H253.998V172.069H252.984L249.669 178.296L246.354 172.069H245.34V181ZM258.581 181.156C259.972 181.156 261.038 180.363 261.038 179.128C261.038 177.854 259.92 177.49 258.841 177.152C257.593 176.749 257.099 176.567 257.099 175.982C257.099 175.332 257.723 174.994 258.477 174.994C259.075 174.994 259.738 175.202 260.414 175.631L260.882 174.877C260.167 174.409 259.309 174.123 258.477 174.123C257.138 174.123 256.124 174.877 256.124 176.099C256.124 177.061 256.748 177.542 258.373 178.01C259.283 178.27 260.063 178.504 260.063 179.232C260.063 179.869 259.465 180.285 258.581 180.285C257.84 180.285 257.073 179.999 256.306 179.44L255.799 180.155C256.605 180.805 257.645 181.156 258.581 181.156ZM262.781 183.21C264.523 181.754 265.498 179.791 265.498 177.555C265.498 175.306 264.523 173.356 262.781 171.9L262.261 172.446C263.678 173.902 264.458 175.423 264.458 177.555C264.458 179.674 263.678 181.208 262.261 182.651L262.781 183.21Z" fill="#565656"/>
<rect x="41.5" y="169.5" width="15" height="15" rx="2.5" stroke="#747474" stroke-linecap="square"/>
<path fill-rule="evenodd" clip-rule="evenodd" d="M72.8401 170H79.1601C79.624 170 80.0001 170.376 80.0001 170.84V184H72.0001V170.84C72.0001 170.376 72.3761 170 72.8401 170ZM78.2501 172.605H73.7501V173.405H78.2501V172.605ZM79.0001 183H73.0001V171H79.0001V183ZM80.7501 172H82.6801C82.8997 172.001 83.1098 172.09 83.2637 172.247C83.4177 172.404 83.5027 172.615 83.5001 172.835V184H80.7501V183H82.5001V173H80.7501V172ZM69.5001 173H71.2501V172H69.3201C69.1004 172.001 68.8903 172.09 68.7364 172.247C68.5824 172.404 68.4974 172.615 68.5001 172.835V184H71.2501V183H69.5001V173ZM76.9051 180.995C76.9051 181.489 76.5021 181.89 76.0051 181.89C75.508 181.89 75.1051 181.489 75.1051 180.995C75.1051 180.501 75.508 180.1 76.0051 180.1C76.5021 180.1 76.9051 180.501 76.9051 180.995Z" fill="#737373"/>
<path d="M94.718 234.123C94.068 234.123 93.262 234.292 92.3 234.773L92.69 235.566C93.301 235.254 93.977 234.955 94.653 234.955C96.109 234.955 96.473 235.995 96.473 236.905V237.152C95.784 236.931 95.017 236.775 94.289 236.775C92.846 236.775 91.65 237.672 91.65 239.011C91.65 240.337 92.69 241.156 94.107 241.156C94.991 241.156 95.992 240.74 96.473 239.947V241H97.448V236.905C97.448 235.28 96.551 234.123 94.718 234.123ZM94.276 240.298C93.327 240.298 92.599 239.804 92.599 238.972C92.599 238.166 93.444 237.594 94.445 237.594C95.173 237.594 95.862 237.698 96.473 237.867V238.894C96.213 239.843 95.16 240.298 94.276 240.298ZM100.506 235.592V234.279H99.5311V241H100.506V237.243C100.506 235.93 101.585 234.994 103.106 234.994V234.123C101.871 234.123 100.909 234.695 100.506 235.592ZM111.722 234.123C110.708 234.123 109.824 234.682 109.551 235.553C109.187 234.682 108.394 234.123 107.38 234.123C106.496 234.123 105.768 234.565 105.43 235.267V234.279H104.455V241H105.43V236.723C105.43 235.709 106.184 234.994 107.25 234.994C108.16 234.994 108.797 235.761 108.797 236.853V241H109.772V236.723C109.772 235.709 110.526 234.994 111.592 234.994C112.502 234.994 113.139 235.761 113.139 236.853V241H114.114V236.723C114.114 235.202 113.126 234.123 111.722 234.123ZM115.824 237.945H119.191V236.996H115.824V237.945ZM126.16 231.913V235.54C125.653 234.656 124.795 234.123 123.716 234.123C121.948 234.123 120.622 235.579 120.622 237.633C120.622 239.7 121.948 241.156 123.716 241.156C124.795 241.156 125.653 240.623 126.16 239.739V241H127.135V231.913H126.16ZM123.898 240.285C122.585 240.285 121.649 239.18 121.649 237.633C121.649 236.086 122.585 234.994 123.898 234.994C125.224 234.994 126.16 236.086 126.16 237.633C126.16 239.18 125.224 240.285 123.898 240.285ZM132.227 240.285C130.901 240.285 129.978 239.323 129.835 238.01H135.334C135.334 235.657 134.177 234.123 132.149 234.123C130.342 234.123 128.834 235.618 128.834 237.62C128.834 239.687 130.446 241.156 132.24 241.156C133.176 241.156 134.359 240.753 134.944 240.116L134.346 239.479C133.93 239.934 133.02 240.285 132.227 240.285ZM132.188 234.994C133.527 234.994 134.242 235.93 134.372 237.139H129.848C130.03 235.839 130.992 234.994 132.188 234.994ZM139.152 241H140.088L142.909 234.279H141.817L139.62 239.856L137.384 234.279H136.292L139.152 241ZM143.995 237.945H147.362V236.996H143.995V237.945ZM152.199 241.156C154.084 241.156 155.67 239.544 155.67 237.633C155.67 235.722 154.084 234.123 152.199 234.123C150.314 234.123 148.715 235.722 148.715 237.633C148.715 239.544 150.314 241.156 152.199 241.156ZM152.199 240.285C150.86 240.285 149.742 239.076 149.742 237.633C149.742 236.203 150.86 234.994 152.199 234.994C153.525 234.994 154.643 236.203 154.643 237.633C154.643 239.076 153.525 240.285 152.199 240.285ZM160.478 234.123C159.529 234.123 158.658 234.643 158.268 235.358V234.279H157.293V241H158.268V236.723C158.268 235.787 159.217 234.994 160.348 234.994C161.336 234.994 162.025 235.761 162.025 236.853V241H163V236.723C163 235.202 161.96 234.123 160.478 234.123ZM164.713 237.945H168.08V236.996H164.713V237.945ZM173.308 234.123C172.229 234.123 171.371 234.656 170.864 235.54V234.279H169.889V243.236H170.864V239.739C171.371 240.623 172.229 241.156 173.308 241.156C175.076 241.156 176.402 239.7 176.402 237.633C176.402 235.579 175.076 234.123 173.308 234.123ZM173.126 240.285C171.8 240.285 170.864 239.18 170.864 237.633C170.864 236.086 171.8 234.994 173.126 234.994C174.439 234.994 175.375 236.086 175.375 237.633C175.375 239.18 174.439 240.285 173.126 240.285ZM179.154 235.592V234.279H178.179V241H179.154V237.243C179.154 235.93 180.233 234.994 181.754 234.994V234.123C180.519 234.123 179.557 234.695 179.154 235.592ZM186.131 240.285C184.805 240.285 183.882 239.323 183.739 238.01H189.238C189.238 235.657 188.081 234.123 186.053 234.123C184.246 234.123 182.738 235.618 182.738 237.62C182.738 239.687 184.35 241.156 186.144 241.156C187.08 241.156 188.263 240.753 188.848 240.116L188.25 239.479C187.834 239.934 186.924 240.285 186.131 240.285ZM186.092 234.994C187.431 234.994 188.146 235.93 188.276 237.139H183.752C183.934 235.839 184.896 234.994 186.092 234.994ZM198.101 234.123C197.087 234.123 196.203 234.682 195.93 235.553C195.566 234.682 194.773 234.123 193.759 234.123C192.875 234.123 192.147 234.565 191.809 235.267V234.279H190.834V241H191.809V236.723C191.809 235.709 192.563 234.994 193.629 234.994C194.539 234.994 195.176 235.761 195.176 236.853V241H196.151V236.723C196.151 235.709 196.905 234.994 197.971 234.994C198.881 234.994 199.518 235.761 199.518 236.853V241H200.493V236.723C200.493 235.202 199.505 234.123 198.101 234.123ZM208.768 243.21L209.288 242.651C207.871 241.208 207.091 239.674 207.091 237.555C207.091 235.423 207.871 233.902 209.288 232.446L208.768 231.9C207.026 233.356 206.051 235.306 206.051 237.555C206.051 239.791 207.026 241.754 208.768 243.21ZM214.221 235.423C213.168 235.423 212.245 235.93 211.699 236.788V236.671C211.699 234.526 212.83 232.836 214.26 232.836C215.118 232.836 215.703 233.226 216.262 233.772L216.821 232.979C216.158 232.342 215.378 231.913 214.286 231.913C212.258 231.913 210.672 234.006 210.672 236.671C210.672 239.193 211.647 241.156 214.065 241.156C215.924 241.156 217.211 239.856 217.211 238.205C217.211 236.437 215.846 235.423 214.221 235.423ZM214.052 240.285C212.804 240.285 212.076 239.31 211.816 237.958C212.037 236.97 212.908 236.294 214.039 236.294C215.235 236.294 216.184 237.035 216.184 238.257C216.184 239.245 215.391 240.285 214.052 240.285ZM221.93 241.156C223.763 241.156 225.193 240.181 225.193 238.66C225.193 237.542 224.309 236.749 223.23 236.385C224.153 236.047 224.972 235.384 224.972 234.292C224.972 232.823 223.529 231.913 221.93 231.913C220.383 231.913 218.901 232.797 218.901 234.279C218.901 235.306 219.629 235.995 220.643 236.385C219.551 236.736 218.667 237.542 218.667 238.66C218.667 240.168 220.084 241.156 221.93 241.156ZM221.93 235.982C221.085 235.93 219.928 235.423 219.928 234.383C219.928 233.486 220.812 232.836 221.93 232.836C223.048 232.836 223.945 233.486 223.945 234.383C223.945 235.397 222.801 235.93 221.93 235.982ZM221.93 240.233C220.695 240.233 219.694 239.57 219.694 238.595C219.694 237.516 221.007 236.892 221.93 236.866C222.866 236.892 224.166 237.516 224.166 238.595C224.166 239.57 223.165 240.233 221.93 240.233ZM237.94 232.069L234.56 239.752L231.167 232.069H230.062L234.001 241H235.106L239.045 232.069H237.94ZM240.681 241H241.695V234.253L245.01 240.48L248.325 234.253V241H249.339V232.069H248.325L245.01 238.296L241.695 232.069H240.681V241ZM253.922 241.156C255.313 241.156 256.379 240.363 256.379 239.128C256.379 237.854 255.261 237.49 254.182 237.152C252.934 236.749 252.44 236.567 252.44 235.982C252.44 235.332 253.064 234.994 253.818 234.994C254.416 234.994 255.079 235.202 255.755 235.631L256.223 234.877C255.508 234.409 254.65 234.123 253.818 234.123C252.479 234.123 251.465 234.877 251.465 236.099C251.465 237.061 252.089 237.542 253.714 238.01C254.624 238.27 255.404 238.504 255.404 239.232C255.404 239.869 254.806 240.285 253.922 240.285C253.181 240.285 252.414 239.999 251.647 239.44L251.14 240.155C251.946 240.805 252.986 241.156 253.922 241.156ZM258.122 243.21C259.864 241.754 260.839 239.791 260.839 237.555C260.839 235.306 259.864 233.356 258.122 231.9L257.602 232.446C259.019 233.902 259.799 235.423 259.799 237.555C259.799 239.674 259.019 241.208 257.602 242.651L258.122 243.21Z" fill="#565656"/>
<rect x="41.5" y="229.5" width="15" height="15" rx="2.5" stroke="#747474" stroke-linecap="square"/>
<path fill-rule="evenodd" clip-rule="evenodd" d="M72.8401 230H79.1601C79.624 230 80.0001 230.376 80.0001 230.84V244H72.0001V230.84C72.0001 230.376 72.3761 230 72.8401 230ZM78.2501 232.605H73.7501V233.405H78.2501V232.605ZM79.0001 243H73.0001V231H79.0001V243ZM80.7501 232H82.6801C82.8997 232.001 83.1098 232.09 83.2637 232.247C83.4177 232.404 83.5027 232.615 83.5001 232.835V244H80.7501V243H82.5001V233H80.7501V232ZM69.5001 233H71.2501V232H69.3201C69.1004 232.001 68.8903 232.09 68.7364 232.247C68.5824 232.404 68.4974 232.615 68.5001 232.835V244H71.2501V243H69.5001V233ZM76.9051 240.995C76.9051 241.489 76.5021 241.89 76.0051 241.89C75.508 241.89 75.1051 241.489 75.1051 240.995C75.1051 240.501 75.508 240.1 76.0051 240.1C76.5021 240.1 76.9051 240.501 76.9051 240.995Z" fill="#737373"/>
<path d="M94.718 204.123C94.068 204.123 93.262 204.292 92.3 204.773L92.69 205.566C93.301 205.254 93.977 204.955 94.653 204.955C96.109 204.955 96.473 205.995 96.473 206.905V207.152C95.784 206.931 95.017 206.775 94.289 206.775C92.846 206.775 91.65 207.672 91.65 209.011C91.65 210.337 92.69 211.156 94.107 211.156C94.991 211.156 95.992 210.74 96.473 209.947V211H97.448V206.905C97.448 205.28 96.551 204.123 94.718 204.123ZM94.276 210.298C93.327 210.298 92.599 209.804 92.599 208.972C92.599 208.166 93.444 207.594 94.445 207.594C95.173 207.594 95.862 207.698 96.473 207.867V208.894C96.213 209.843 95.16 210.298 94.276 210.298ZM100.506 205.592V204.279H99.5311V211H100.506V207.243C100.506 205.93 101.585 204.994 103.106 204.994V204.123C101.871 204.123 100.909 204.695 100.506 205.592ZM111.722 204.123C110.708 204.123 109.824 204.682 109.551 205.553C109.187 204.682 108.394 204.123 107.38 204.123C106.496 204.123 105.768 204.565 105.43 205.267V204.279H104.455V211H105.43V206.723C105.43 205.709 106.184 204.994 107.25 204.994C108.16 204.994 108.797 205.761 108.797 206.853V211H109.772V206.723C109.772 205.709 110.526 204.994 111.592 204.994C112.502 204.994 113.139 205.761 113.139 206.853V211H114.114V206.723C114.114 205.202 113.126 204.123 111.722 204.123ZM115.824 207.945H119.191V206.996H115.824V207.945ZM126.16 201.913V205.54C125.653 204.656 124.795 204.123 123.716 204.123C121.948 204.123 120.622 205.579 120.622 207.633C120.622 209.7 121.948 211.156 123.716 211.156C124.795 211.156 125.653 210.623 126.16 209.739V211H127.135V201.913H126.16ZM123.898 210.285C122.585 210.285 121.649 209.18 121.649 207.633C121.649 206.086 122.585 204.994 123.898 204.994C125.224 204.994 126.16 206.086 126.16 207.633C126.16 209.18 125.224 210.285 123.898 210.285ZM132.227 210.285C130.901 210.285 129.978 209.323 129.835 208.01H135.334C135.334 205.657 134.177 204.123 132.149 204.123C130.342 204.123 128.834 205.618 128.834 207.62C128.834 209.687 130.446 211.156 132.24 211.156C133.176 211.156 134.359 210.753 134.944 210.116L134.346 209.479C133.93 209.934 133.02 210.285 132.227 210.285ZM132.188 204.994C133.527 204.994 134.242 205.93 134.372 207.139H129.848C130.03 205.839 130.992 204.994 132.188 204.994ZM139.152 211H140.088L142.909 204.279H141.817L139.62 209.856L137.384 204.279H136.292L139.152 211ZM143.995 207.945H147.362V206.996H143.995V207.945ZM152.199 211.156C153.135 211.156 153.993 210.766 154.63 210.129L153.954 209.466C153.499 209.973 152.875 210.285 152.199 210.285C150.86 210.285 149.742 209.076 149.742 207.633C149.742 206.203 150.86 204.994 152.199 204.994C152.862 204.994 153.473 205.293 153.915 205.774L154.591 205.111C153.954 204.5 153.109 204.123 152.199 204.123C150.314 204.123 148.715 205.722 148.715 207.633C148.715 209.544 150.314 211.156 152.199 211.156ZM156.125 211H157.1V201.913H156.125V211ZM162.19 211.156C164.075 211.156 165.661 209.544 165.661 207.633C165.661 205.722 164.075 204.123 162.19 204.123C160.305 204.123 158.706 205.722 158.706 207.633C158.706 209.544 160.305 211.156 162.19 211.156ZM162.19 210.285C160.851 210.285 159.733 209.076 159.733 207.633C159.733 206.203 160.851 204.994 162.19 204.994C163.516 204.994 164.634 206.203 164.634 207.633C164.634 209.076 163.516 210.285 162.19 210.285ZM172.003 204.279V208.556C172.003 209.492 171.054 210.285 169.923 210.285C168.935 210.285 168.246 209.518 168.246 208.426V204.279H167.271V208.556C167.271 210.077 168.311 211.156 169.793 211.156C170.742 211.156 171.613 210.636 172.003 209.921V211H172.978V204.279H172.003ZM180.217 201.913V205.54C179.71 204.656 178.852 204.123 177.773 204.123C176.005 204.123 174.679 205.579 174.679 207.633C174.679 209.7 176.005 211.156 177.773 211.156C178.852 211.156 179.71 210.623 180.217 209.739V211H181.192V201.913H180.217ZM177.955 210.285C176.642 210.285 175.706 209.18 175.706 207.633C175.706 206.086 176.642 204.994 177.955 204.994C179.281 204.994 180.217 206.086 180.217 207.633C180.217 209.18 179.281 210.285 177.955 210.285ZM189.56 213.21L190.08 212.651C188.663 211.208 187.883 209.674 187.883 207.555C187.883 205.423 188.663 203.902 190.08 202.446L189.56 201.9C187.818 203.356 186.843 205.306 186.843 207.555C186.843 209.791 187.818 211.754 189.56 213.21ZM195.013 205.423C193.96 205.423 193.037 205.93 192.491 206.788V206.671C192.491 204.526 193.622 202.836 195.052 202.836C195.91 202.836 196.495 203.226 197.054 203.772L197.613 202.979C196.95 202.342 196.17 201.913 195.078 201.913C193.05 201.913 191.464 204.006 191.464 206.671C191.464 209.193 192.439 211.156 194.857 211.156C196.716 211.156 198.003 209.856 198.003 208.205C198.003 206.437 196.638 205.423 195.013 205.423ZM194.844 210.285C193.596 210.285 192.868 209.31 192.608 207.958C192.829 206.97 193.7 206.294 194.831 206.294C196.027 206.294 196.976 207.035 196.976 208.257C196.976 209.245 196.183 210.285 194.844 210.285ZM199.42 211H205.582V210.038H201.045L203.385 208.01C204.893 206.71 205.491 205.748 205.491 204.539C205.491 202.94 204.191 201.913 202.644 201.913C201.24 201.913 200.239 202.576 199.498 203.629L200.213 204.214C200.824 203.382 201.565 202.823 202.605 202.823C203.554 202.823 204.464 203.46 204.464 204.552C204.464 205.436 203.944 206.294 202.683 207.373L199.42 210.155V211ZM218.503 202.069L215.123 209.752L211.73 202.069H210.625L214.564 211H215.669L219.608 202.069H218.503ZM221.244 211H222.258V204.253L225.573 210.48L228.888 204.253V211H229.902V202.069H228.888L225.573 208.296L222.258 202.069H221.244V211ZM234.485 211.156C235.876 211.156 236.942 210.363 236.942 209.128C236.942 207.854 235.824 207.49 234.745 207.152C233.497 206.749 233.003 206.567 233.003 205.982C233.003 205.332 233.627 204.994 234.381 204.994C234.979 204.994 235.642 205.202 236.318 205.631L236.786 204.877C236.071 204.409 235.213 204.123 234.381 204.123C233.042 204.123 232.028 204.877 232.028 206.099C232.028 207.061 232.652 207.542 234.277 208.01C235.187 208.27 235.967 208.504 235.967 209.232C235.967 209.869 235.369 210.285 234.485 210.285C233.744 210.285 232.977 209.999 232.21 209.44L231.703 210.155C232.509 210.805 233.549 211.156 234.485 211.156ZM238.685 213.21C240.427 211.754 241.402 209.791 241.402 207.555C241.402 205.306 240.427 203.356 238.685 201.9L238.165 202.446C239.582 203.902 240.362 205.423 240.362 207.555C240.362 209.674 239.582 211.208 238.165 212.651L238.685 213.21Z" fill="#565656"/>
<rect x="41.5" y="199.5" width="15" height="15" rx="2.5" stroke="#747474" stroke-linecap="square"/>
<path fill-rule="evenodd" clip-rule="evenodd" d="M72.8401 200H79.1601C79.624 200 80.0001 200.376 80.0001 200.84V214H72.0001V200.84C72.0001 200.376 72.3761 200 72.8401 200ZM78.2501 202.605H73.7501V203.405H78.2501V202.605ZM79.0001 213H73.0001V201H79.0001V213ZM80.7501 202H82.6801C82.8997 202.001 83.1098 202.09 83.2637 202.247C83.4177 202.404 83.5027 202.615 83.5001 202.835V214H80.7501V213H82.5001V203H80.7501V202ZM69.5001 203H71.2501V202H69.3201C69.1004 202.001 68.8903 202.09 68.7364 202.247C68.5824 202.404 68.4974 202.615 68.5001 202.835V214H71.2501V213H69.5001V203ZM76.9051 210.995C76.9051 211.489 76.5021 211.89 76.0051 211.89C75.508 211.89 75.1051 211.489 75.1051 210.995C75.1051 210.501 75.508 210.1 76.0051 210.1C76.5021 210.1 76.9051 210.501 76.9051 210.995Z" fill="#737373"/>
<path d="M72.121 121.143C74.201 121.143 75.267 119.986 75.267 118.569C75.267 116.996 74.045 116.385 72.342 115.982C70.821 115.618 69.937 115.293 69.937 114.37C69.937 113.551 70.743 112.823 71.848 112.823C72.784 112.823 73.668 113.252 74.409 113.967L75.033 113.174C74.214 112.42 73.226 111.9 71.9 111.9C70.184 111.9 68.91 113.018 68.91 114.448C68.91 115.995 70.041 116.554 71.835 116.97C73.395 117.334 74.24 117.711 74.24 118.66C74.24 119.466 73.538 120.22 72.16 120.22C70.912 120.22 69.989 119.687 69.235 118.933L68.598 119.726C69.495 120.61 70.652 121.143 72.121 121.143ZM79.9897 120.285C78.6637 120.285 77.7407 119.323 77.5977 118.01H83.0967C83.0967 115.657 81.9397 114.123 79.9117 114.123C78.1047 114.123 76.5967 115.618 76.5967 117.62C76.5967 119.687 78.2087 121.156 80.0027 121.156C80.9387 121.156 82.1217 120.753 82.7067 120.116L82.1087 119.479C81.6927 119.934 80.7827 120.285 79.9897 120.285ZM79.9507 114.994C81.2897 114.994 82.0047 115.93 82.1347 117.139H77.6107C77.7927 115.839 78.7547 114.994 79.9507 114.994ZM84.6921 121H85.6671V111.913H84.6921V121ZM90.6664 120.285C89.3404 120.285 88.4174 119.323 88.2744 118.01H93.7734C93.7734 115.657 92.6164 114.123 90.5884 114.123C88.7814 114.123 87.2734 115.618 87.2734 117.62C87.2734 119.687 88.8854 121.156 90.6794 121.156C91.6154 121.156 92.7984 120.753 93.3834 120.116L92.7854 119.479C92.3694 119.934 91.4594 120.285 90.6664 120.285ZM90.6274 114.994C91.9664 114.994 92.6814 115.93 92.8114 117.139H88.2874C88.4694 115.839 89.4314 114.994 90.6274 114.994ZM98.4889 121.156C99.4249 121.156 100.283 120.766 100.92 120.129L100.244 119.466C99.7889 119.973 99.1649 120.285 98.4889 120.285C97.1499 120.285 96.0319 119.076 96.0319 117.633C96.0319 116.203 97.1499 114.994 98.4889 114.994C99.1519 114.994 99.7629 115.293 100.205 115.774L100.881 115.111C100.244 114.5 99.3989 114.123 98.4889 114.123C96.6039 114.123 95.0049 115.722 95.0049 117.633C95.0049 119.544 96.6039 121.156 98.4889 121.156ZM105.366 120.012C105.223 120.168 104.963 120.285 104.664 120.285C104.274 120.285 103.936 119.934 103.936 119.44V115.15H105.587V114.279H103.936V112.433H102.961V114.279H101.908V115.15H102.961V119.44C102.961 120.441 103.637 121.156 104.599 121.156C105.054 121.156 105.496 121 105.847 120.727L105.366 120.012ZM118.303 121H119.408L115.469 112.069H114.364L110.425 121H111.53L112.427 118.972H117.406L118.303 121ZM112.843 118.01L114.923 113.317L116.99 118.01H112.843ZM120.81 121H121.785V111.913H120.81V121ZM123.756 121H124.731V111.913H123.756V121ZM134.735 121.156C135.97 121.156 137.114 120.623 137.946 119.791L137.257 119.089C136.607 119.778 135.71 120.22 134.735 120.22C132.811 120.22 131.186 118.53 131.186 116.528C131.186 114.539 132.811 112.849 134.735 112.849C135.71 112.849 136.607 113.291 137.257 113.98L137.946 113.278C137.114 112.433 135.97 111.913 134.735 111.913C132.265 111.913 130.159 114.019 130.159 116.528C130.159 119.037 132.265 121.156 134.735 121.156ZM139.307 121H140.282V111.913H139.307V121ZM146.985 114.279V118.556C146.985 119.492 146.036 120.285 144.905 120.285C143.917 120.285 143.228 119.518 143.228 118.426V114.279H142.253V118.556C142.253 120.077 143.293 121.156 144.775 121.156C145.724 121.156 146.595 120.636 146.985 119.921V121H147.96V114.279H146.985ZM152.325 121.156C153.716 121.156 154.782 120.363 154.782 119.128C154.782 117.854 153.664 117.49 152.585 117.152C151.337 116.749 150.843 116.567 150.843 115.982C150.843 115.332 151.467 114.994 152.221 114.994C152.819 114.994 153.482 115.202 154.158 115.631L154.626 114.877C153.911 114.409 153.053 114.123 152.221 114.123C150.882 114.123 149.868 114.877 149.868 116.099C149.868 117.061 150.492 117.542 152.117 118.01C153.027 118.27 153.807 118.504 153.807 119.232C153.807 119.869 153.209 120.285 152.325 120.285C151.584 120.285 150.817 119.999 150.05 119.44L149.543 120.155C150.349 120.805 151.389 121.156 152.325 121.156ZM159.346 120.012C159.203 120.168 158.943 120.285 158.644 120.285C158.254 120.285 157.916 119.934 157.916 119.44V115.15H159.567V114.279H157.916V112.433H156.941V114.279H155.888V115.15H156.941V119.44C156.941 120.441 157.617 121.156 158.579 121.156C159.034 121.156 159.476 121 159.827 120.727L159.346 120.012ZM164.236 120.285C162.91 120.285 161.987 119.323 161.844 118.01H167.343C167.343 115.657 166.186 114.123 164.158 114.123C162.351 114.123 160.843 115.618 160.843 117.62C160.843 119.687 162.455 121.156 164.249 121.156C165.185 121.156 166.368 120.753 166.953 120.116L166.355 119.479C165.939 119.934 165.029 120.285 164.236 120.285ZM164.197 114.994C165.536 114.994 166.251 115.93 166.381 117.139H161.857C162.039 115.839 163.001 114.994 164.197 114.994ZM170.004 115.592V114.279H169.029V121H170.004V117.243C170.004 115.93 171.083 114.994 172.604 114.994V114.123C171.369 114.123 170.407 114.695 170.004 115.592ZM176.332 121.156C177.723 121.156 178.789 120.363 178.789 119.128C178.789 117.854 177.671 117.49 176.592 117.152C175.344 116.749 174.85 116.567 174.85 115.982C174.85 115.332 175.474 114.994 176.228 114.994C176.826 114.994 177.489 115.202 178.165 115.631L178.633 114.877C177.918 114.409 177.06 114.123 176.228 114.123C174.889 114.123 173.875 114.877 173.875 116.099C173.875 117.061 174.499 117.542 176.124 118.01C177.034 118.27 177.814 118.504 177.814 119.232C177.814 119.869 177.216 120.285 176.332 120.285C175.591 120.285 174.824 119.999 174.057 119.44L173.55 120.155C174.356 120.805 175.396 121.156 176.332 121.156Z" fill="#565656"/>
<rect x="41.5" y="109.5" width="15" height="15" rx="2.5" stroke="#747474" stroke-linecap="square"/>
<path d="M98.436 143.031V142.069H92.027V151H98.436V150.038H93.054V146.931H97.903V145.969H93.054V143.031H98.436ZM103.271 151.143C105.351 151.143 106.417 149.986 106.417 148.569C106.417 146.996 105.195 146.385 103.492 145.982C101.971 145.618 101.087 145.293 101.087 144.37C101.087 143.551 101.893 142.823 102.998 142.823C103.934 142.823 104.818 143.252 105.559 143.967L106.183 143.174C105.364 142.42 104.376 141.9 103.05 141.9C101.334 141.9 100.06 143.018 100.06 144.448C100.06 145.995 101.191 146.554 102.985 146.97C104.545 147.334 105.39 147.711 105.39 148.66C105.39 149.466 104.688 150.22 103.31 150.22C102.062 150.22 101.139 149.687 100.385 148.933L99.7484 149.726C100.645 150.61 101.802 151.143 103.271 151.143ZM112.375 151.156C114.858 151.156 116.938 149.037 116.938 146.528C116.938 144.019 114.858 141.913 112.375 141.913C109.905 141.913 107.799 144.019 107.799 146.528C107.799 149.037 109.905 151.156 112.375 151.156ZM112.375 150.22C110.451 150.22 108.826 148.53 108.826 146.528C108.826 144.539 110.451 142.849 112.375 142.849C114.299 142.849 115.911 144.539 115.911 146.528C115.911 148.53 114.299 150.22 112.375 150.22ZM118.337 147.945H121.704V146.996H118.337V147.945ZM129.87 143.031V142.069H123.461V151H129.87V150.038H124.488V146.931H129.337V145.969H124.488V143.031H129.87ZM138.878 142.069L135.498 149.752L132.105 142.069H131L134.939 151H136.044L139.983 142.069H138.878ZM141.619 151H142.633V143.733L148.171 151H149.185V142.069H148.171V149.336L142.633 142.069H141.619V151ZM151.129 147.945H154.496V146.996H151.129V147.945ZM160.478 151.156C161.713 151.156 162.857 150.623 163.689 149.791L163 149.089C162.35 149.778 161.453 150.22 160.478 150.22C158.554 150.22 156.929 148.53 156.929 146.528C156.929 144.539 158.554 142.849 160.478 142.849C161.453 142.849 162.35 143.291 163 143.98L163.689 143.278C162.857 142.433 161.713 141.913 160.478 141.913C158.008 141.913 155.902 144.019 155.902 146.528C155.902 149.037 158.008 151.156 160.478 151.156ZM165.05 151H166.025V141.913H165.05V151ZM172.727 144.279V148.556C172.727 149.492 171.778 150.285 170.647 150.285C169.659 150.285 168.97 149.518 168.97 148.426V144.279H167.995V148.556C167.995 150.077 169.035 151.156 170.517 151.156C171.466 151.156 172.337 150.636 172.727 149.921V151H173.702V144.279H172.727ZM178.067 151.156C179.458 151.156 180.524 150.363 180.524 149.128C180.524 147.854 179.406 147.49 178.327 147.152C177.079 146.749 176.585 146.567 176.585 145.982C176.585 145.332 177.209 144.994 177.963 144.994C178.561 144.994 179.224 145.202 179.9 145.631L180.368 144.877C179.653 144.409 178.795 144.123 177.963 144.123C176.624 144.123 175.61 144.877 175.61 146.099C175.61 147.061 176.234 147.542 177.859 148.01C178.769 148.27 179.549 148.504 179.549 149.232C179.549 149.869 178.951 150.285 178.067 150.285C177.326 150.285 176.559 149.999 175.792 149.44L175.285 150.155C176.091 150.805 177.131 151.156 178.067 151.156ZM185.088 150.012C184.945 150.168 184.685 150.285 184.386 150.285C183.996 150.285 183.658 149.934 183.658 149.44V145.15H185.309V144.279H183.658V142.433H182.683V144.279H181.63V145.15H182.683V149.44C182.683 150.441 183.359 151.156 184.321 151.156C184.776 151.156 185.218 151 185.569 150.727L185.088 150.012ZM189.978 150.285C188.652 150.285 187.729 149.323 187.586 148.01H193.085C193.085 145.657 191.928 144.123 189.9 144.123C188.093 144.123 186.585 145.618 186.585 147.62C186.585 149.687 188.197 151.156 189.991 151.156C190.927 151.156 192.11 150.753 192.695 150.116L192.097 149.479C191.681 149.934 190.771 150.285 189.978 150.285ZM189.939 144.994C191.278 144.994 191.993 145.93 192.123 147.139H187.599C187.781 145.839 188.743 144.994 189.939 144.994ZM195.746 145.592V144.279H194.771V151H195.746V147.243C195.746 145.93 196.825 144.994 198.346 144.994V144.123C197.111 144.123 196.149 144.695 195.746 145.592ZM201.047 151H202.061V142.069H201.242L199.045 143.564L199.487 144.318L201.047 143.304V151ZM210.584 153.21L211.104 152.651C209.687 151.208 208.907 149.674 208.907 147.555C208.907 145.423 209.687 143.902 211.104 142.446L210.584 141.9C208.842 143.356 207.867 145.306 207.867 147.555C207.867 149.791 208.842 151.754 210.584 153.21ZM216.816 151H217.83V148.829H219.169V147.906H217.83V142.069H216.66L212.227 147.984L212.357 148.829H216.816V151ZM213.384 147.906L216.816 143.291V147.906H213.384ZM221.601 151H222.771L226.619 142.836V142.069H220.574V143.031H225.41L221.601 151ZM239.666 142.069L236.286 149.752L232.893 142.069H231.788L235.727 151H236.832L240.771 142.069H239.666ZM242.408 151H243.422V144.253L246.737 150.48L250.052 144.253V151H251.066V142.069H250.052L246.737 148.296L243.422 142.069H242.408V151ZM255.648 151.156C257.039 151.156 258.105 150.363 258.105 149.128C258.105 147.854 256.987 147.49 255.908 147.152C254.66 146.749 254.166 146.567 254.166 145.982C254.166 145.332 254.79 144.994 255.544 144.994C256.142 144.994 256.805 145.202 257.481 145.631L257.949 144.877C257.234 144.409 256.376 144.123 255.544 144.123C254.205 144.123 253.191 144.877 253.191 146.099C253.191 147.061 253.815 147.542 255.44 148.01C256.35 148.27 257.13 148.504 257.13 149.232C257.13 149.869 256.532 150.285 255.648 150.285C254.907 150.285 254.14 149.999 253.373 149.44L252.866 150.155C253.672 150.805 254.712 151.156 255.648 151.156ZM259.848 153.21C261.59 151.754 262.565 149.791 262.565 147.555C262.565 145.306 261.59 143.356 259.848 141.9L259.328 142.446C260.745 143.902 261.525 145.423 261.525 147.555C261.525 149.674 260.745 151.208 259.328 152.651L259.848 153.21Z" fill="#565656"/>
<rect x="41.5" y="139.5" width="15" height="15" rx="2.5" stroke="#747474" stroke-linecap="square"/>
<path fill-rule="evenodd" clip-rule="evenodd" d="M72.8401 140H79.1601C79.624 140 80.0001 140.376 80.0001 140.84V154H72.0001V140.84C72.0001 140.376 72.3761 140 72.8401 140ZM78.2501 142.605H73.7501V143.405H78.2501V142.605ZM79.0001 153H73.0001V141H79.0001V153ZM80.7501 142H82.6801C82.8997 142.001 83.1098 142.09 83.2637 142.247C83.4177 142.404 83.5027 142.615 83.5001 142.835V154H80.7501V153H82.5001V143H80.7501V142ZM69.5001 143H71.2501V142H69.3201C69.1004 142.001 68.8903 142.09 68.7364 142.247C68.5824 142.404 68.4974 142.615 68.5001 142.835V154H71.2501V153H69.5001V143ZM76.9051 150.995C76.9051 151.489 76.5021 151.89 76.0051 151.89C75.508 151.89 75.1051 151.489 75.1051 150.995C75.1051 150.501 75.508 150.1 76.0051 150.1C76.5021 150.1 76.9051 150.501 76.9051 150.995Z" fill="#737373"/>
<rect x="320" y="48" width="6" height="225" rx="3" fill="#DDDDDD"/>
<path d="M20.072 35.176C22.632 35.176 23.944 33.752 23.944 32.008C23.944 30.072 22.44 29.32 20.344 28.824C18.472 28.376 17.384 27.976 17.384 26.84C17.384 25.832 18.376 24.936 19.736 24.936C20.888 24.936 21.976 25.464 22.888 26.344L23.656 25.368C22.648 24.44 21.432 23.8 19.8 23.8C17.688 23.8 16.12 25.176 16.12 26.936C16.12 28.84 17.512 29.528 19.72 30.04C21.64 30.488 22.68 30.952 22.68 32.12C22.68 33.112 21.816 34.04 20.12 34.04C18.584 34.04 17.448 33.384 16.52 32.456L15.736 33.432C16.84 34.52 18.264 35.176 20.072 35.176ZM29.7565 34.12C28.1245 34.12 26.9885 32.936 26.8125 31.32H33.5805C33.5805 28.424 32.1565 26.536 29.6605 26.536C27.4365 26.536 25.5805 28.376 25.5805 30.84C25.5805 33.384 27.5645 35.192 29.7725 35.192C30.9245 35.192 32.3805 34.696 33.1005 33.912L32.3645 33.128C31.8525 33.688 30.7325 34.12 29.7565 34.12ZM29.7085 27.608C31.3565 27.608 32.2365 28.76 32.3965 30.248H26.8285C27.0525 28.648 28.2365 27.608 29.7085 27.608ZM35.5441 35H36.7441V23.816H35.5441V35ZM42.8971 34.12C41.2651 34.12 40.1291 32.936 39.9531 31.32H46.7211C46.7211 28.424 45.2971 26.536 42.8011 26.536C40.5771 26.536 38.7211 28.376 38.7211 30.84C38.7211 33.384 40.7051 35.192 42.9131 35.192C44.0651 35.192 45.5211 34.696 46.2411 33.912L45.5051 33.128C44.9931 33.688 43.8731 34.12 42.8971 34.12ZM42.8491 27.608C44.4971 27.608 45.3771 28.76 45.5371 30.248H39.9691C40.1931 28.648 41.3771 27.608 42.8491 27.608ZM52.5248 35.192C53.6768 35.192 54.7328 34.712 55.5168 33.928L54.6848 33.112C54.1248 33.736 53.3568 34.12 52.5248 34.12C50.8768 34.12 49.5008 32.632 49.5008 30.856C49.5008 29.096 50.8768 27.608 52.5248 27.608C53.3408 27.608 54.0928 27.976 54.6368 28.568L55.4688 27.752C54.6848 27 53.6448 26.536 52.5248 26.536C50.2048 26.536 48.2368 28.504 48.2368 30.856C48.2368 33.208 50.2048 35.192 52.5248 35.192ZM60.9886 33.784C60.8126 33.976 60.4926 34.12 60.1246 34.12C59.6446 34.12 59.2286 33.688 59.2286 33.08V27.8H61.2606V26.728H59.2286V24.456H58.0286V26.728H56.7326V27.8H58.0286V33.08C58.0286 34.312 58.8606 35.192 60.0446 35.192C60.6046 35.192 61.1486 35 61.5806 34.664L60.9886 33.784ZM73.1671 35.192C74.6871 35.192 76.0951 34.536 77.1191 33.512L76.2711 32.648C75.4711 33.496 74.3671 34.04 73.1671 34.04C70.7991 34.04 68.7991 31.96 68.7991 29.496C68.7991 27.048 70.7991 24.968 73.1671 24.968C74.3671 24.968 75.4711 25.512 76.2711 26.36L77.1191 25.496C76.0951 24.456 74.6871 23.816 73.1671 23.816C70.1271 23.816 67.5351 26.408 67.5351 29.496C67.5351 32.584 70.1271 35.192 73.1671 35.192ZM78.7941 35H79.9941V23.816H78.7941V35ZM88.2431 26.728V31.992C88.2431 33.144 87.0751 34.12 85.6831 34.12C84.4671 34.12 83.6191 33.176 83.6191 31.832V26.728H82.4191V31.992C82.4191 33.864 83.6991 35.192 85.5231 35.192C86.6911 35.192 87.7631 34.552 88.2431 33.672V35H89.4431V26.728H88.2431ZM94.8159 35.192C96.5279 35.192 97.8399 34.216 97.8399 32.696C97.8399 31.128 96.4639 30.68 95.1359 30.264C93.5999 29.768 92.9919 29.544 92.9919 28.824C92.9919 28.024 93.7599 27.608 94.6879 27.608C95.4239 27.608 96.2399 27.864 97.0719 28.392L97.6479 27.464C96.7679 26.888 95.7119 26.536 94.6879 26.536C93.0399 26.536 91.7919 27.464 91.7919 28.968C91.7919 30.152 92.5599 30.744 94.5599 31.32C95.6799 31.64 96.6399 31.928 96.6399 32.824C96.6399 33.608 95.9039 34.12 94.8159 34.12C93.9039 34.12 92.9599 33.768 92.0159 33.08L91.3919 33.96C92.3839 34.76 93.6639 35.192 94.8159 35.192ZM103.457 33.784C103.281 33.976 102.961 34.12 102.593 34.12C102.113 34.12 101.697 33.688 101.697 33.08V27.8H103.729V26.728H101.697V24.456H100.497V26.728H99.2014V27.8H100.497V33.08C100.497 34.312 101.329 35.192 102.513 35.192C103.073 35.192 103.617 35 104.049 34.664L103.457 33.784ZM109.475 34.12C107.843 34.12 106.707 32.936 106.531 31.32H113.299C113.299 28.424 111.875 26.536 109.379 26.536C107.155 26.536 105.299 28.376 105.299 30.84C105.299 33.384 107.283 35.192 109.491 35.192C110.643 35.192 112.099 34.696 112.819 33.912L112.083 33.128C111.571 33.688 110.451 34.12 109.475 34.12ZM109.427 27.608C111.075 27.608 111.955 28.76 112.115 30.248H106.547C106.771 28.648 107.955 27.608 109.427 27.608ZM116.575 28.344V26.728H115.375V35H116.575V30.376C116.575 28.76 117.903 27.608 119.775 27.608V26.536C118.255 26.536 117.071 27.24 116.575 28.344ZM124.363 35.192C126.075 35.192 127.387 34.216 127.387 32.696C127.387 31.128 126.011 30.68 124.683 30.264C123.147 29.768 122.539 29.544 122.539 28.824C122.539 28.024 123.307 27.608 124.235 27.608C124.971 27.608 125.787 27.864 126.619 28.392L127.195 27.464C126.315 26.888 125.259 26.536 124.235 26.536C122.587 26.536 121.339 27.464 121.339 28.968C121.339 30.152 122.107 30.744 124.107 31.32C125.227 31.64 126.187 31.928 126.187 32.824C126.187 33.608 125.451 34.12 124.363 34.12C123.451 34.12 122.507 33.768 121.563 33.08L120.939 33.96C121.931 34.76 123.211 35.192 124.363 35.192Z" fill="#565656"/>
<path d="M219.489 35.192C222.161 35.192 224.049 32.84 224.049 29.496C224.049 26.168 222.161 23.816 219.489 23.816C216.801 23.816 214.913 26.168 214.913 29.496C214.913 32.84 216.801 35.192 219.489 35.192ZM219.489 34.04C217.553 34.04 216.177 32.152 216.177 29.496C216.177 26.84 217.553 24.968 219.489 24.968C221.425 24.968 222.785 26.84 222.785 29.496C222.785 32.152 221.425 34.04 219.489 34.04Z" fill="#565656"/>
<path d="M235.07 34.132C236.99 34.132 237.974 33.064 237.974 31.756C237.974 30.304 236.846 29.74 235.274 29.368C233.87 29.032 233.054 28.732 233.054 27.88C233.054 27.124 233.798 26.452 234.818 26.452C235.682 26.452 236.498 26.848 237.182 27.508L237.758 26.776C237.002 26.08 236.09 25.6 234.866 25.6C233.282 25.6 232.106 26.632 232.106 27.952C232.106 29.38 233.15 29.896 234.806 30.28C236.246 30.616 237.026 30.964 237.026 31.84C237.026 32.584 236.378 33.28 235.106 33.28C233.954 33.28 233.102 32.788 232.406 32.092L231.818 32.824C232.646 33.64 233.714 34.132 235.07 34.132ZM242.333 33.34C241.109 33.34 240.257 32.452 240.125 31.24H245.201C245.201 29.068 244.133 27.652 242.261 27.652C240.593 27.652 239.201 29.032 239.201 30.88C239.201 32.788 240.689 34.144 242.345 34.144C243.209 34.144 244.301 33.772 244.841 33.184L244.289 32.596C243.905 33.016 243.065 33.34 242.333 33.34ZM242.297 28.456C243.533 28.456 244.193 29.32 244.313 30.436H240.137C240.305 29.236 241.193 28.456 242.297 28.456ZM246.674 34H247.574V25.612H246.674V34ZM252.188 33.34C250.964 33.34 250.112 32.452 249.98 31.24H255.056C255.056 29.068 253.988 27.652 252.116 27.652C250.448 27.652 249.056 29.032 249.056 30.88C249.056 32.788 250.544 34.144 252.2 34.144C253.064 34.144 254.156 33.772 254.696 33.184L254.144 32.596C253.76 33.016 252.92 33.34 252.188 33.34ZM252.152 28.456C253.388 28.456 254.048 29.32 254.168 30.436H249.992C250.16 29.236 251.048 28.456 252.152 28.456ZM259.409 34.144C260.273 34.144 261.065 33.784 261.653 33.196L261.029 32.584C260.609 33.052 260.033 33.34 259.409 33.34C258.173 33.34 257.141 32.224 257.141 30.892C257.141 29.572 258.173 28.456 259.409 28.456C260.021 28.456 260.585 28.732 260.993 29.176L261.617 28.564C261.029 28 260.249 27.652 259.409 27.652C257.669 27.652 256.193 29.128 256.193 30.892C256.193 32.656 257.669 34.144 259.409 34.144ZM265.757 33.088C265.625 33.232 265.385 33.34 265.109 33.34C264.749 33.34 264.437 33.016 264.437 32.56V28.6H265.961V27.796H264.437V26.092H263.537V27.796H262.565V28.6H263.537V32.56C263.537 33.484 264.161 34.144 265.049 34.144C265.469 34.144 265.877 34 266.201 33.748L265.757 33.088ZM270.271 33.34C269.047 33.34 268.195 32.452 268.062 31.24H273.139C273.139 29.068 272.071 27.652 270.199 27.652C268.531 27.652 267.139 29.032 267.139 30.88C267.139 32.788 268.627 34.144 270.283 34.144C271.147 34.144 272.239 33.772 272.779 33.184L272.227 32.596C271.843 33.016 271.003 33.34 270.271 33.34ZM270.235 28.456C271.471 28.456 272.131 29.32 272.251 30.436H268.075C268.243 29.236 269.131 28.456 270.235 28.456ZM279.459 25.612V28.96C278.991 28.144 278.199 27.652 277.203 27.652C275.571 27.652 274.347 28.996 274.347 30.892C274.347 32.8 275.571 34.144 277.203 34.144C278.199 34.144 278.991 33.652 279.459 32.836V34H280.359V25.612H279.459ZM277.371 33.34C276.159 33.34 275.295 32.32 275.295 30.892C275.295 29.464 276.159 28.456 277.371 28.456C278.595 28.456 279.459 29.464 279.459 30.892C279.459 32.32 278.595 33.34 277.371 33.34ZM288.144 34H289.08V26.644H291.852V25.756H285.372V26.644H288.144V34ZM296.183 34.144C297.923 34.144 299.387 32.656 299.387 30.892C299.387 29.128 297.923 27.652 296.183 27.652C294.443 27.652 292.967 29.128 292.967 30.892C292.967 32.656 294.443 34.144 296.183 34.144ZM296.183 33.34C294.947 33.34 293.915 32.224 293.915 30.892C293.915 29.572 294.947 28.456 296.183 28.456C297.407 28.456 298.439 29.572 298.439 30.892C298.439 32.224 297.407 33.34 296.183 33.34ZM303.597 33.088C303.465 33.232 303.225 33.34 302.949 33.34C302.589 33.34 302.277 33.016 302.277 32.56V28.6H303.801V27.796H302.277V26.092H301.377V27.796H300.405V28.6H301.377V32.56C301.377 33.484 302.001 34.144 302.889 34.144C303.309 34.144 303.717 34 304.041 33.748L303.597 33.088ZM307.834 27.652C307.234 27.652 306.49 27.808 305.602 28.252L305.962 28.984C306.526 28.696 307.15 28.42 307.774 28.42C309.118 28.42 309.454 29.38 309.454 30.22V30.448C308.818 30.244 308.11 30.1 307.438 30.1C306.106 30.1 305.002 30.928 305.002 32.164C305.002 33.388 305.962 34.144 307.27 34.144C308.086 34.144 309.01 33.76 309.454 33.028V34H310.354V30.22C310.354 28.72 309.526 27.652 307.834 27.652ZM307.426 33.352C306.55 33.352 305.878 32.896 305.878 32.128C305.878 31.384 306.658 30.856 307.582 30.856C308.254 30.856 308.89 30.952 309.454 31.108V32.056C309.214 32.932 308.242 33.352 307.426 33.352ZM312.193 34H313.093V25.612H312.193V34Z" fill="#565656"/>
</g>
<defs>
<clipPath id="clip0">
<rect width="333" height="258" fill="white"/>
</clipPath>
</defs>
</svg>
