<svg width="1156" height="476" viewBox="0 0 1156 476" fill="none" xmlns="http://www.w3.org/2000/svg">
<g clip-path="url(#clip0)">
<rect width="1156" height="476" fill="#FAFAFA"/>
<g filter="url(#filter0_d)">
<path fill-rule="evenodd" clip-rule="evenodd" d="M17 17C17 15.3432 18.3431 14 20 14H1138C1139.66 14 1141 15.3431 1141 17V455C1141 456.657 1139.66 458 1138 458H20C18.3431 458 17 456.657 17 455V17Z" fill="white"/>
<path d="M20 14.5H1138C1139.38 14.5 1140.5 15.6193 1140.5 17V455C1140.5 456.381 1139.38 457.5 1138 457.5H20C18.6193 457.5 17.5 456.381 17.5 455V17C17.5 15.6193 18.6193 14.5 20 14.5Z" stroke="#D7D7D7"/>
</g>
<path d="M41.512 56H42.986V49.84L49.08 40.886H47.364L42.238 48.454L37.156 40.886H35.396L41.512 49.84V56ZM53.9188 56.264C57.1088 56.264 59.7928 53.536 59.7928 50.302C59.7928 47.068 57.1088 44.362 53.9188 44.362C50.7288 44.362 48.0228 47.068 48.0228 50.302C48.0228 53.536 50.7288 56.264 53.9188 56.264ZM53.9188 55.01C51.4768 55.01 49.4528 52.876 49.4528 50.302C49.4528 47.75 51.4768 45.616 53.9188 45.616C56.3388 45.616 58.3628 47.75 58.3628 50.302C58.3628 52.876 56.3388 55.01 53.9188 55.01ZM70.5257 44.626V51.864C70.5257 53.624 68.9637 55.01 66.9617 55.01C65.1577 55.01 63.8817 53.668 63.8817 51.754V44.626H62.5177V51.93C62.5177 54.46 64.2777 56.264 66.7857 56.264C68.4577 56.264 69.9097 55.384 70.5257 54.13V56H71.8897V44.626H70.5257ZM76.7759 46.958V44.626H75.4119V56H76.7759V49.642C76.7759 47.288 78.6019 45.616 81.1759 45.616V44.362C79.0859 44.362 77.4139 45.418 76.7759 46.958ZM93.3218 56.264C96.0718 56.264 98.0078 54.13 98.0078 51.138V40.886H96.5998V51.138C96.5998 53.382 95.2358 54.966 93.3218 54.966C91.8698 54.966 90.4178 54.042 89.7358 52.722L88.7458 53.756C89.6698 55.23 91.5178 56.264 93.3218 56.264ZM106.856 56.264C110.046 56.264 112.73 53.536 112.73 50.302C112.73 47.068 110.046 44.362 106.856 44.362C103.666 44.362 100.96 47.068 100.96 50.302C100.96 53.536 103.666 56.264 106.856 56.264ZM106.856 55.01C104.414 55.01 102.39 52.876 102.39 50.302C102.39 47.75 104.414 45.616 106.856 45.616C109.276 45.616 111.3 47.75 111.3 50.302C111.3 52.876 109.276 55.01 106.856 55.01ZM121.219 44.362C119.349 44.362 117.853 45.308 116.973 46.848V40.622H115.609V56H116.973V53.778C117.853 55.318 119.349 56.264 121.219 56.264C124.145 56.264 126.411 53.712 126.411 50.302C126.411 46.914 124.145 44.362 121.219 44.362ZM120.977 55.01C118.623 55.01 116.973 53.052 116.973 50.302C116.973 47.552 118.623 45.616 120.977 45.616C123.265 45.616 125.003 47.618 125.003 50.302C125.003 52.986 123.265 55.01 120.977 55.01ZM133.296 56.264C135.584 56.264 137.388 54.922 137.388 52.986C137.388 51.006 135.76 50.28 133.67 49.62C131.448 48.894 130.568 48.432 130.568 47.398C130.568 46.298 131.734 45.616 133.12 45.616C134.176 45.616 135.364 45.99 136.508 46.694L137.19 45.638C135.98 44.846 134.506 44.362 133.12 44.362C130.92 44.362 129.204 45.66 129.204 47.552C129.204 49.158 130.282 50.016 133.01 50.808C134.814 51.358 136.024 51.886 136.024 53.118C136.024 54.218 134.858 55.01 133.296 55.01C132.02 55.01 130.634 54.504 129.314 53.558L128.588 54.57C129.93 55.648 131.69 56.264 133.296 56.264Z" fill="black"/>
<path d="M497.078 113H507.44V111.658H499.278L503.678 107.852C506.142 105.74 507.198 104.046 507.198 102.066C507.198 99.492 505.13 97.622 502.468 97.622C500.29 97.622 498.508 98.678 497.21 100.526L498.222 101.34C499.322 99.822 500.73 98.898 502.446 98.898C504.272 98.898 505.768 100.24 505.768 102.088C505.768 103.584 504.866 105.102 502.71 106.95L497.078 111.768V113ZM516.041 103.562C514.083 103.562 512.389 104.574 511.619 106.114V105.674C511.619 101.846 513.577 98.92 516.129 98.92C517.559 98.92 518.703 99.58 519.671 100.526L520.463 99.426C519.319 98.326 517.911 97.622 516.173 97.622C512.785 97.622 510.211 101.098 510.211 105.674C510.211 110.118 511.971 113.264 515.799 113.264C518.769 113.264 520.969 111.042 520.969 108.27C520.969 105.432 518.703 103.562 516.041 103.562ZM515.777 112.01C513.599 112.01 512.279 110.338 511.817 107.852C512.191 106.092 513.775 104.816 515.777 104.816C517.845 104.816 519.539 106.246 519.539 108.358C519.539 110.206 518.021 112.01 515.777 112.01Z" fill="#314351"/>
<path d="M656.078 113H666.44V111.658H658.278L662.678 107.852C665.142 105.74 666.198 104.046 666.198 102.066C666.198 99.492 664.13 97.622 661.468 97.622C659.29 97.622 657.508 98.678 656.21 100.526L657.222 101.34C658.322 99.822 659.73 98.898 661.446 98.898C663.272 98.898 664.768 100.24 664.768 102.088C664.768 103.584 663.866 105.102 661.71 106.95L656.078 111.768V113ZM671.125 113H672.731L679.353 98.964V97.886H669.189V99.228H677.659L671.125 113Z" fill="#314351"/>
<path d="M815.078 113H825.44V111.658H817.278L821.678 107.852C824.142 105.74 825.198 104.046 825.198 102.066C825.198 99.492 823.13 97.622 820.468 97.622C818.29 97.622 816.508 98.678 815.21 100.526L816.222 101.34C817.322 99.822 818.73 98.898 820.446 98.898C822.272 98.898 823.768 100.24 823.768 102.088C823.768 103.584 822.866 105.102 820.71 106.95L815.078 111.768V113ZM833.403 113.264C836.373 113.264 838.771 111.526 838.771 109.062C838.771 107.236 837.319 105.806 835.449 105.19C837.055 104.64 838.397 103.386 838.397 101.626C838.397 99.25 836.043 97.622 833.403 97.622C830.807 97.622 828.431 99.228 828.431 101.604C828.431 103.276 829.663 104.574 831.357 105.19C829.487 105.784 828.035 107.214 828.035 109.062C828.035 111.526 830.411 113.264 833.403 113.264ZM833.403 104.596C831.687 104.508 829.861 103.496 829.861 101.758C829.861 100.152 831.445 98.92 833.403 98.92C835.361 98.92 836.967 100.152 836.967 101.758C836.967 103.474 835.141 104.508 833.403 104.596ZM833.403 111.966C831.225 111.966 829.465 110.69 829.465 108.974C829.465 107.126 831.533 105.96 833.403 105.916C835.295 105.96 837.341 107.126 837.341 108.974C837.341 110.69 835.559 111.966 833.403 111.966Z" fill="#314351"/>
<path d="M974.078 113H984.44V111.658H976.278L980.678 107.852C983.142 105.74 984.198 104.046 984.198 102.066C984.198 99.492 982.13 97.622 979.468 97.622C977.29 97.622 975.508 98.678 974.21 100.526L975.222 101.34C976.322 99.822 977.73 98.898 979.446 98.898C981.272 98.898 982.768 100.24 982.768 102.088C982.768 103.584 981.866 105.102 979.71 106.95L974.078 111.768V113ZM992.381 97.622C989.411 97.622 987.211 99.844 987.211 102.616C987.211 105.454 989.477 107.324 992.139 107.324C994.097 107.324 995.791 106.312 996.561 104.772V105.212C996.561 109.04 994.603 111.966 992.051 111.966C990.621 111.966 989.477 111.306 988.509 110.36L987.717 111.46C988.861 112.56 990.269 113.264 992.007 113.264C995.395 113.264 997.969 109.788 997.969 105.212C997.969 100.768 996.209 97.622 992.381 97.622ZM992.403 106.07C990.335 106.07 988.641 104.64 988.641 102.528C988.641 100.68 990.159 98.876 992.403 98.876C994.581 98.876 995.901 100.548 996.363 103.034C995.989 104.794 994.405 106.07 992.403 106.07Z" fill="#314351"/>
<path d="M531.808 111H532.886L535.574 102.81L538.248 111H539.326L542.616 101.382H541.384L538.724 109.166L536.176 101.382H534.958L532.41 109.166L529.75 101.382H528.518L531.808 111ZM546.695 110.23C545.267 110.23 544.273 109.194 544.119 107.78H550.041C550.041 105.246 548.795 103.594 546.611 103.594C544.665 103.594 543.041 105.204 543.041 107.36C543.041 109.586 544.777 111.168 546.709 111.168C547.717 111.168 548.991 110.734 549.621 110.048L548.977 109.362C548.529 109.852 547.549 110.23 546.695 110.23ZM546.653 104.532C548.095 104.532 548.865 105.54 549.005 106.842H544.133C544.329 105.442 545.365 104.532 546.653 104.532ZM557.415 101.214V105.12C556.869 104.168 555.945 103.594 554.783 103.594C552.879 103.594 551.451 105.162 551.451 107.374C551.451 109.6 552.879 111.168 554.783 111.168C555.945 111.168 556.869 110.594 557.415 109.642V111H558.465V101.214H557.415ZM554.979 110.23C553.565 110.23 552.557 109.04 552.557 107.374C552.557 105.708 553.565 104.532 554.979 104.532C556.407 104.532 557.415 105.708 557.415 107.374C557.415 109.04 556.407 110.23 554.979 110.23Z" fill="#495A67"/>
<path d="M690.864 111H691.956V102.418H695.19V101.382H687.63V102.418H690.864V111ZM700.326 103.594C699.304 103.594 698.366 104.154 697.946 104.924V101.214H696.896V111H697.946V106.394C697.946 105.386 698.968 104.532 700.186 104.532C701.25 104.532 701.992 105.358 701.992 106.534V111H703.042V106.394C703.042 104.756 701.922 103.594 700.326 103.594ZM710.264 103.762V108.368C710.264 109.376 709.242 110.23 708.024 110.23C706.96 110.23 706.218 109.404 706.218 108.228V103.762H705.168V108.368C705.168 110.006 706.288 111.168 707.884 111.168C708.906 111.168 709.844 110.608 710.264 109.838V111H711.314V103.762H710.264Z" fill="#495A67"/>
<path d="M854.008 102.418V101.382H847.106V111H848.212V106.618H853.434V105.582H848.212V102.418H854.008ZM856.743 105.176V103.762H855.693V111H856.743V106.954C856.743 105.54 857.905 104.532 859.543 104.532V103.594C858.213 103.594 857.177 104.21 856.743 105.176ZM861.514 102.446C861.892 102.446 862.2 102.124 862.2 101.746C862.2 101.382 861.892 101.06 861.514 101.06C861.122 101.06 860.814 101.382 860.814 101.746C860.814 102.124 861.122 102.446 861.514 102.446ZM860.982 111H862.032V103.762H860.982V111Z" fill="#495A67"/>
<path d="M1009.44 111.154C1011.68 111.154 1012.83 109.908 1012.83 108.382C1012.83 106.688 1011.51 106.03 1009.68 105.596C1008.04 105.204 1007.09 104.854 1007.09 103.86C1007.09 102.978 1007.95 102.194 1009.14 102.194C1010.15 102.194 1011.1 102.656 1011.9 103.426L1012.57 102.572C1011.69 101.76 1010.63 101.2 1009.2 101.2C1007.35 101.2 1005.98 102.404 1005.98 103.944C1005.98 105.61 1007.2 106.212 1009.13 106.66C1010.81 107.052 1011.72 107.458 1011.72 108.48C1011.72 109.348 1010.96 110.16 1009.48 110.16C1008.14 110.16 1007.14 109.586 1006.33 108.774L1005.64 109.628C1006.61 110.58 1007.86 111.154 1009.44 111.154ZM1017.59 103.594C1016.89 103.594 1016.02 103.776 1014.99 104.294L1015.41 105.148C1016.06 104.812 1016.79 104.49 1017.52 104.49C1019.09 104.49 1019.48 105.61 1019.48 106.59V106.856C1018.74 106.618 1017.91 106.45 1017.13 106.45C1015.57 106.45 1014.29 107.416 1014.29 108.858C1014.29 110.286 1015.41 111.168 1016.93 111.168C1017.88 111.168 1018.96 110.72 1019.48 109.866V111H1020.53V106.59C1020.53 104.84 1019.56 103.594 1017.59 103.594ZM1017.11 110.244C1016.09 110.244 1015.31 109.712 1015.31 108.816C1015.31 107.948 1016.22 107.332 1017.3 107.332C1018.08 107.332 1018.82 107.444 1019.48 107.626V108.732C1019.2 109.754 1018.07 110.244 1017.11 110.244ZM1025.85 109.936C1025.7 110.104 1025.42 110.23 1025.1 110.23C1024.68 110.23 1024.31 109.852 1024.31 109.32V104.7H1026.09V103.762H1024.31V101.774H1023.26V103.762H1022.13V104.7H1023.26V109.32C1023.26 110.398 1023.99 111.168 1025.03 111.168C1025.52 111.168 1025.99 111 1026.37 110.706L1025.85 109.936Z" fill="#495A67"/>
<line x1="330.5" y1="108" x2="327.5" y2="454" stroke="#D9E4EA"/>
<line x1="489.5" y1="108" x2="486.5" y2="454" stroke="#D9E4EA"/>
<line x1="648.5" y1="79" x2="645.5" y2="457" stroke="#D9E4EA"/>
<line x1="807.5" y1="79" x2="804.5" y2="457" stroke="#D9E4EA"/>
<line x1="966.5" y1="79" x2="963.5" y2="457" stroke="#D9E4EA"/>
<rect x="331" y="49" width="158" height="408" fill="url(#paint0_linear)"/>
<path d="M338.078 113H348.44V111.658H340.278L344.678 107.852C347.142 105.74 348.198 104.046 348.198 102.066C348.198 99.492 346.13 97.622 343.468 97.622C341.29 97.622 339.508 98.678 338.21 100.526L339.222 101.34C340.322 99.822 341.73 98.898 343.446 98.898C345.272 98.898 346.768 100.24 346.768 102.088C346.768 103.584 345.866 105.102 343.71 106.95L338.078 111.768V113ZM356.469 113.264C359.417 113.264 361.661 111.196 361.661 108.292C361.661 105.476 359.439 103.65 356.799 103.65C355.413 103.65 354.269 104.112 353.433 104.728L353.587 99.228H360.935V97.886H352.201L352.003 105.608L353.103 106.136C354.093 105.41 355.259 104.926 356.491 104.926C358.625 104.926 360.231 106.378 360.231 108.358C360.231 110.382 358.625 111.966 356.513 111.966C354.775 111.966 353.235 111.152 352.047 109.832L351.123 110.866C352.377 112.318 354.225 113.264 356.469 113.264Z" fill="#314351"/>
<path d="M372.864 111H373.956V102.418H377.19V101.382H369.63V102.418H372.864V111ZM383.978 103.762V108.368C383.978 109.376 382.956 110.23 381.738 110.23C380.674 110.23 379.932 109.404 379.932 108.228V103.762H378.882V108.368C378.882 110.006 380.002 111.168 381.598 111.168C382.62 111.168 383.558 110.608 383.978 109.838V111H385.028V103.762H383.978ZM390.43 110.23C389.002 110.23 388.008 109.194 387.854 107.78H393.776C393.776 105.246 392.53 103.594 390.346 103.594C388.4 103.594 386.776 105.204 386.776 107.36C386.776 109.586 388.512 111.168 390.444 111.168C391.452 111.168 392.726 110.734 393.356 110.048L392.712 109.362C392.264 109.852 391.284 110.23 390.43 110.23ZM390.388 104.532C391.83 104.532 392.6 105.54 392.74 106.842H387.868C388.064 105.442 389.1 104.532 390.388 104.532ZM398.056 111.168C399.554 111.168 400.702 110.314 400.702 108.984C400.702 107.612 399.498 107.22 398.336 106.856C396.992 106.422 396.46 106.226 396.46 105.596C396.46 104.896 397.132 104.532 397.944 104.532C398.588 104.532 399.302 104.756 400.03 105.218L400.534 104.406C399.764 103.902 398.84 103.594 397.944 103.594C396.502 103.594 395.41 104.406 395.41 105.722C395.41 106.758 396.082 107.276 397.832 107.78C398.812 108.06 399.652 108.312 399.652 109.096C399.652 109.782 399.008 110.23 398.056 110.23C397.258 110.23 396.432 109.922 395.606 109.32L395.06 110.09C395.928 110.79 397.048 111.168 398.056 111.168Z" fill="#495A67"/>
<rect x="18" y="79" width="312" height="378" fill="#FAFAFA"/>
<line x1="171.5" y1="79" x2="168.5" y2="458" stroke="#D9E4EA"/>
<line x1="330.5" y1="79" x2="327.5" y2="458" stroke="#D9E4EA"/>
<line x1="489.5" y1="79" x2="486.5" y2="458" stroke="#D9E4EA"/>
<path opacity="0.6" d="M36.078 113H46.44V111.658H38.278L42.678 107.852C45.142 105.74 46.198 104.046 46.198 102.066C46.198 99.492 44.13 97.622 41.468 97.622C39.29 97.622 37.508 98.678 36.21 100.526L37.222 101.34C38.322 99.822 39.73 98.898 41.446 98.898C43.272 98.898 44.768 100.24 44.768 102.088C44.768 103.584 43.866 105.102 41.71 106.95L36.078 111.768V113ZM54.1606 113.264C57.1306 113.264 59.2646 111.372 59.2646 108.908C59.2646 106.818 57.7686 105.63 56.1626 105.256C57.7246 104.794 58.9346 103.606 58.9346 101.736C58.9346 99.36 56.8446 97.622 54.0946 97.622C51.8946 97.622 50.2446 98.7 49.0126 100.35L49.9586 101.23C51.1026 99.778 52.3566 98.92 54.0066 98.92C55.9646 98.92 57.5046 100.218 57.5046 101.89C57.5046 103.694 56.0086 104.706 53.8086 104.706L52.2686 104.684V106.004H53.7866C56.2946 106.004 57.8346 106.994 57.8346 108.82C57.8346 110.624 56.2946 111.966 54.1606 111.966C52.2906 111.966 50.7946 111.086 49.7606 109.634L48.7706 110.558C50.0026 112.186 51.8286 113.264 54.1606 113.264Z" fill="#314351"/>
<path opacity="0.6" d="M179.078 113H189.44V111.658H181.278L185.678 107.852C188.142 105.74 189.198 104.046 189.198 102.066C189.198 99.492 187.13 97.622 184.468 97.622C182.29 97.622 180.508 98.678 179.21 100.526L180.222 101.34C181.322 99.822 182.73 98.898 184.446 98.898C186.272 98.898 187.768 100.24 187.768 102.088C187.768 103.584 186.866 105.102 184.71 106.95L179.078 111.768V113ZM199.537 113H200.945V109.194H203.299V107.896H200.945V97.886H199.251L191.771 107.962L191.969 109.194H199.537V113ZM193.399 107.896L199.537 99.58V107.896H193.399Z" fill="#314351"/>
<path opacity="0.6" d="M71.438 111.154C73.678 111.154 74.826 109.908 74.826 108.382C74.826 106.688 73.51 106.03 71.676 105.596C70.038 105.204 69.086 104.854 69.086 103.86C69.086 102.978 69.954 102.194 71.144 102.194C72.152 102.194 73.104 102.656 73.902 103.426L74.574 102.572C73.692 101.76 72.628 101.2 71.2 101.2C69.352 101.2 67.98 102.404 67.98 103.944C67.98 105.61 69.198 106.212 71.13 106.66C72.81 107.052 73.72 107.458 73.72 108.48C73.72 109.348 72.964 110.16 71.48 110.16C70.136 110.16 69.142 109.586 68.33 108.774L67.644 109.628C68.61 110.58 69.856 111.154 71.438 111.154ZM81.7459 103.762V108.368C81.7459 109.376 80.7239 110.23 79.5059 110.23C78.4419 110.23 77.6999 109.404 77.6999 108.228V103.762H76.6499V108.368C76.6499 110.006 77.7699 111.168 79.3659 111.168C80.3879 111.168 81.3259 110.608 81.7459 109.838V111H82.7959V103.762H81.7459ZM88.3791 103.594C87.3571 103.594 86.4191 104.154 85.9991 104.924V103.762H84.9491V111H85.9991V106.394C85.9991 105.386 87.0211 104.532 88.2391 104.532C89.3031 104.532 90.0451 105.358 90.0451 106.534V111H91.0951V106.394C91.0951 104.756 89.9751 103.594 88.3791 103.594Z" fill="#495A67"/>
<path opacity="0.6" d="M211.316 111H212.408V103.734L215.978 110.44L219.548 103.734V111H220.64V101.382H219.548L215.978 108.088L212.408 101.382H211.316V111ZM226.373 111.168C228.403 111.168 230.111 109.432 230.111 107.374C230.111 105.316 228.403 103.594 226.373 103.594C224.343 103.594 222.621 105.316 222.621 107.374C222.621 109.432 224.343 111.168 226.373 111.168ZM226.373 110.23C224.931 110.23 223.727 108.928 223.727 107.374C223.727 105.834 224.931 104.532 226.373 104.532C227.801 104.532 229.005 105.834 229.005 107.374C229.005 108.928 227.801 110.23 226.373 110.23ZM235.289 103.594C234.267 103.594 233.329 104.154 232.909 104.924V103.762H231.859V111H232.909V106.394C232.909 105.386 233.931 104.532 235.149 104.532C236.213 104.532 236.955 105.358 236.955 106.534V111H238.005V106.394C238.005 104.756 236.885 103.594 235.289 103.594Z" fill="#495A67"/>
<line x1="18" y1="124.5" x2="1141" y2="124.5" stroke="#C1CDD4"/>
<rect x="589" y="62" width="91" height="1" fill="#9A9A9A"/>
<path d="M665.8 49.7444L669 53.0555L672.2 49.7444C672.381 49.5565 672.375 49.2574 672.187 49.0764C671.999 48.8953 671.7 48.9009 671.519 49.0889L669 51.6972L666.478 49.0889C666.297 48.9009 665.997 48.8953 665.81 49.0764C665.622 49.2574 665.616 49.5565 665.797 49.7444H665.8Z" fill="black"/>
<mask id="mask0" mask-type="alpha" maskUnits="userSpaceOnUse" x="665" y="48" width="8" height="6">
<path d="M665.8 49.7444L669 53.0555L672.2 49.7444C672.381 49.5565 672.375 49.2574 672.187 49.0764C671.999 48.8953 671.7 48.9009 671.519 49.0889L669 51.6972L666.478 49.0889C666.297 48.9009 665.997 48.8953 665.81 49.0764C665.622 49.2574 665.616 49.5565 665.797 49.7444H665.8Z" fill="white"/>
</mask>
<g mask="url(#mask0)">
<rect x="674" y="56" width="10" height="10" transform="rotate(-180 674 56)" fill="#737373"/>
</g>
<path d="M598.536 53H599.537L602.033 45.395L604.516 53H605.517L608.572 44.069H607.428L604.958 51.297L602.592 44.069H601.461L599.095 51.297L596.625 44.069H595.481L598.536 53ZM612.36 52.285C611.034 52.285 610.111 51.323 609.968 50.01H615.467C615.467 47.657 614.31 46.123 612.282 46.123C610.475 46.123 608.967 47.618 608.967 49.62C608.967 51.687 610.579 53.156 612.373 53.156C613.309 53.156 614.492 52.753 615.077 52.116L614.479 51.479C614.063 51.934 613.153 52.285 612.36 52.285ZM612.321 46.994C613.66 46.994 614.375 47.93 614.505 49.139H609.981C610.163 47.839 611.125 46.994 612.321 46.994ZM620.091 52.285C618.765 52.285 617.842 51.323 617.699 50.01H623.198C623.198 47.657 622.041 46.123 620.013 46.123C618.206 46.123 616.698 47.618 616.698 49.62C616.698 51.687 618.31 53.156 620.104 53.156C621.04 53.156 622.223 52.753 622.808 52.116L622.21 51.479C621.794 51.934 620.884 52.285 620.091 52.285ZM620.052 46.994C621.391 46.994 622.106 47.93 622.236 49.139H617.712C617.894 47.839 618.856 46.994 620.052 46.994ZM630.683 46.279H629.435L625.756 49.997V43.913H624.781V53H625.756V51.219L626.965 50.023L629.292 53H630.514L627.654 49.36L630.683 46.279Z" fill="black"/>
<path d="M194.593 56.44L201 50L194.593 43.56C194.435 43.3525 194.171 43.2562 193.916 43.3136C193.662 43.3709 193.464 43.5714 193.411 43.8266C193.357 44.0819 193.457 44.345 193.667 44.5L198.46 49.3334L185.707 49.3334C185.338 49.3334 185.04 49.6318 185.04 50C185.04 50.3682 185.338 50.6667 185.707 50.6667L198.46 50.6667L193.667 55.5C193.407 55.7615 193.409 56.1838 193.67 56.4434C193.931 56.7029 194.354 56.7015 194.613 56.44L194.593 56.44Z" fill="#0079B8"/>
<path d="M161.407 43.56L155 50L161.407 56.44C161.565 56.6475 161.829 56.7438 162.084 56.6864C162.338 56.6291 162.536 56.4286 162.589 56.1734C162.643 55.9181 162.543 55.655 162.333 55.5L157.54 50.6666L170.293 50.6666C170.662 50.6666 170.96 50.3682 170.96 50C170.96 49.6318 170.662 49.3333 170.293 49.3333L157.54 49.3333L162.333 44.5C162.593 44.2385 162.591 43.8162 162.33 43.5566C162.069 43.2971 161.646 43.2985 161.387 43.56L161.407 43.56Z" fill="#0079B8"/>
<path d="M532.121 53.143C534.201 53.143 535.267 51.986 535.267 50.569C535.267 48.996 534.045 48.385 532.342 47.982C530.821 47.618 529.937 47.293 529.937 46.37C529.937 45.551 530.743 44.823 531.848 44.823C532.784 44.823 533.668 45.252 534.409 45.967L535.033 45.174C534.214 44.42 533.226 43.9 531.9 43.9C530.184 43.9 528.91 45.018 528.91 46.448C528.91 47.995 530.041 48.554 531.835 48.97C533.395 49.334 534.24 49.711 534.24 50.66C534.24 51.466 533.538 52.22 532.16 52.22C530.912 52.22 529.989 51.687 529.235 50.933L528.598 51.726C529.495 52.61 530.652 53.143 532.121 53.143ZM540.159 46.123C539.21 46.123 538.339 46.643 537.949 47.358V43.913H536.974V53H537.949V48.723C537.949 47.787 538.898 46.994 540.029 46.994C541.017 46.994 541.706 47.761 541.706 48.853V53H542.681V48.723C542.681 47.202 541.641 46.123 540.159 46.123ZM547.774 53.156C549.659 53.156 551.245 51.544 551.245 49.633C551.245 47.722 549.659 46.123 547.774 46.123C545.889 46.123 544.29 47.722 544.29 49.633C544.29 51.544 545.889 53.156 547.774 53.156ZM547.774 52.285C546.435 52.285 545.317 51.076 545.317 49.633C545.317 48.203 546.435 46.994 547.774 46.994C549.1 46.994 550.218 48.203 550.218 49.633C550.218 51.076 549.1 52.285 547.774 52.285ZM554.317 53H555.24L557.047 47.631L558.828 53H559.751L562.013 46.279H560.973L559.296 51.7L557.463 46.279H556.618L554.785 51.7L553.108 46.279H552.068L554.317 53ZM567.435 53H571.686C573.233 53 574.338 51.986 574.338 50.556C574.338 49.581 573.74 48.775 572.713 48.255C573.519 47.787 573.987 47.241 573.987 46.292C573.987 44.992 572.973 44.069 571.53 44.069H567.435V53ZM568.449 47.852V44.992H571.27C572.258 44.992 572.96 45.59 572.96 46.422C572.96 47.254 572.258 47.852 571.27 47.852H568.449ZM568.449 52.077V48.775H571.426C572.531 48.775 573.311 49.464 573.311 50.426C573.311 51.388 572.531 52.077 571.426 52.077H568.449ZM577.063 55.34C577.986 55.327 578.636 54.898 579.104 53.754L582.172 46.279H581.119L578.896 51.869L576.543 46.279H575.464L578.389 53.026L577.999 53.858C577.739 54.313 577.453 54.456 577.024 54.456C576.738 54.456 576.465 54.404 576.231 54.287L575.997 55.119C576.309 55.262 576.673 55.34 577.063 55.34Z" fill="#314351"/>
<path d="M722.438 52.154C724.678 52.154 725.826 50.908 725.826 49.382C725.826 47.688 724.51 47.03 722.676 46.596C721.038 46.204 720.086 45.854 720.086 44.86C720.086 43.978 720.954 43.194 722.144 43.194C723.152 43.194 724.104 43.656 724.902 44.426L725.574 43.572C724.692 42.76 723.628 42.2 722.2 42.2C720.352 42.2 718.98 43.404 718.98 44.944C718.98 46.61 720.198 47.212 722.13 47.66C723.81 48.052 724.72 48.458 724.72 49.48C724.72 50.348 723.964 51.16 722.48 51.16C721.136 51.16 720.142 50.586 719.33 49.774L718.644 50.628C719.61 51.58 720.856 52.154 722.438 52.154ZM730.912 51.23C729.484 51.23 728.49 50.194 728.336 48.78H734.258C734.258 46.246 733.012 44.594 730.828 44.594C728.882 44.594 727.258 46.204 727.258 48.36C727.258 50.586 728.994 52.168 730.926 52.168C731.934 52.168 733.208 51.734 733.838 51.048L733.194 50.362C732.746 50.852 731.766 51.23 730.912 51.23ZM730.87 45.532C732.312 45.532 733.082 46.54 733.222 47.842H728.35C728.546 46.442 729.582 45.532 730.87 45.532ZM738.916 44.594C738.216 44.594 737.348 44.776 736.312 45.294L736.732 46.148C737.39 45.812 738.118 45.49 738.846 45.49C740.414 45.49 740.806 46.61 740.806 47.59V47.856C740.064 47.618 739.238 47.45 738.454 47.45C736.9 47.45 735.612 48.416 735.612 49.858C735.612 51.286 736.732 52.168 738.258 52.168C739.21 52.168 740.288 51.72 740.806 50.866V52H741.856V47.59C741.856 45.84 740.89 44.594 738.916 44.594ZM738.44 51.244C737.418 51.244 736.634 50.712 736.634 49.816C736.634 48.948 737.544 48.332 738.622 48.332C739.406 48.332 740.148 48.444 740.806 48.626V49.732C740.526 50.754 739.392 51.244 738.44 51.244ZM745.15 46.176V44.762H744.1V52H745.15V47.954C745.15 46.54 746.312 45.532 747.95 45.532V44.594C746.62 44.594 745.584 45.21 745.15 46.176ZM752.762 52.168C753.77 52.168 754.694 51.748 755.38 51.062L754.652 50.348C754.162 50.894 753.49 51.23 752.762 51.23C751.32 51.23 750.116 49.928 750.116 48.374C750.116 46.834 751.32 45.532 752.762 45.532C753.476 45.532 754.134 45.854 754.61 46.372L755.338 45.658C754.652 45 753.742 44.594 752.762 44.594C750.732 44.594 749.01 46.316 749.01 48.374C749.01 50.432 750.732 52.168 752.762 52.168ZM760.434 44.594C759.412 44.594 758.474 45.154 758.054 45.924V42.214H757.004V52H758.054V47.394C758.054 46.386 759.076 45.532 760.294 45.532C761.358 45.532 762.1 46.358 762.1 47.534V52H763.15V47.394C763.15 45.756 762.03 44.594 760.434 44.594ZM769.853 43.446C770.231 43.446 770.539 43.124 770.539 42.746C770.539 42.382 770.231 42.06 769.853 42.06C769.461 42.06 769.153 42.382 769.153 42.746C769.153 43.124 769.461 43.446 769.853 43.446ZM768.607 54.492C769.643 54.492 770.371 53.722 770.371 52.644V44.762H769.321V52.644C769.321 53.176 768.999 53.554 768.537 53.554C768.243 53.554 767.865 53.484 767.641 53.4L767.473 54.268C767.753 54.394 768.215 54.492 768.607 54.492ZM775.84 52.168C777.87 52.168 779.578 50.432 779.578 48.374C779.578 46.316 777.87 44.594 775.84 44.594C773.81 44.594 772.088 46.316 772.088 48.374C772.088 50.432 773.81 52.168 775.84 52.168ZM775.84 51.23C774.398 51.23 773.194 49.928 773.194 48.374C773.194 46.834 774.398 45.532 775.84 45.532C777.268 45.532 778.472 46.834 778.472 48.374C778.472 49.928 777.268 51.23 775.84 51.23ZM785.092 44.594C783.93 44.594 783.006 45.168 782.46 46.12V42.214H781.41V52H782.46V50.642C783.006 51.594 783.93 52.168 785.092 52.168C786.996 52.168 788.424 50.6 788.424 48.374C788.424 46.162 786.996 44.594 785.092 44.594ZM784.896 51.23C783.468 51.23 782.46 50.04 782.46 48.374C782.46 46.708 783.468 45.532 784.896 45.532C786.31 45.532 787.318 46.708 787.318 48.374C787.318 50.04 786.31 51.23 784.896 51.23ZM797.744 44.594C796.722 44.594 795.784 45.154 795.364 45.924V44.762H794.314V52H795.364V47.394C795.364 46.386 796.386 45.532 797.604 45.532C798.668 45.532 799.41 46.358 799.41 47.534V52H800.46V47.394C800.46 45.756 799.34 44.594 797.744 44.594ZM805.525 44.594C804.825 44.594 803.957 44.776 802.921 45.294L803.341 46.148C803.999 45.812 804.727 45.49 805.455 45.49C807.023 45.49 807.415 46.61 807.415 47.59V47.856C806.673 47.618 805.847 47.45 805.063 47.45C803.509 47.45 802.221 48.416 802.221 49.858C802.221 51.286 803.341 52.168 804.867 52.168C805.819 52.168 806.897 51.72 807.415 50.866V52H808.465V47.59C808.465 45.84 807.499 44.594 805.525 44.594ZM805.049 51.244C804.027 51.244 803.243 50.712 803.243 49.816C803.243 48.948 804.153 48.332 805.231 48.332C806.015 48.332 806.757 48.444 807.415 48.626V49.732C807.135 50.754 806.001 51.244 805.049 51.244ZM818.437 44.594C817.345 44.594 816.393 45.196 816.099 46.134C815.707 45.196 814.853 44.594 813.761 44.594C812.809 44.594 812.025 45.07 811.661 45.826V44.762H810.611V52H811.661V47.394C811.661 46.302 812.473 45.532 813.621 45.532C814.601 45.532 815.287 46.358 815.287 47.534V52H816.337V47.394C816.337 46.302 817.149 45.532 818.297 45.532C819.277 45.532 819.963 46.358 819.963 47.534V52H821.013V47.394C821.013 45.756 819.949 44.594 818.437 44.594ZM826.396 51.23C824.968 51.23 823.974 50.194 823.82 48.78H829.742C829.742 46.246 828.496 44.594 826.312 44.594C824.366 44.594 822.742 46.204 822.742 48.36C822.742 50.586 824.478 52.168 826.41 52.168C827.418 52.168 828.692 51.734 829.322 51.048L828.678 50.362C828.23 50.852 827.25 51.23 826.396 51.23ZM826.354 45.532C827.796 45.532 828.566 46.54 828.706 47.842H823.834C824.03 46.442 825.066 45.532 826.354 45.532Z" fill="#737373"/>
<path fill-rule="evenodd" clip-rule="evenodd" d="M701.665 40C698.075 40 695.165 42.9101 695.165 46.5C695.165 50.0899 698.075 53 701.665 53C705.255 53 708.165 50.0899 708.165 46.5C708.165 42.9101 705.255 40 701.665 40ZM701.665 41.025C703.88 41.023 705.878 42.3556 706.727 44.4013C707.576 46.447 707.109 48.8028 705.543 50.3696C703.978 51.9365 701.622 52.4058 699.576 51.5587C697.53 50.7116 696.195 48.7149 696.195 46.5C696.209 43.4839 698.649 41.0414 701.665 41.025ZM707.315 51.435L711 55.145C711.126 55.2718 711.175 55.4562 711.128 55.6287C711.081 55.8012 710.946 55.9355 710.773 55.9812C710.6 56.0268 710.416 55.9768 710.29 55.85L706.605 52.14L707.315 51.435Z" fill="#0079B8"/>
<line x1="694" y1="62.5" x2="1038" y2="62.5" stroke="#919FA8"/>
<path fill-rule="evenodd" clip-rule="evenodd" d="M1063.67 39.3333C1064.03 39.3333 1064.33 39.0349 1064.33 38.6667V34.6667C1064.33 34.2985 1064.03 34 1063.67 34C1063.3 34 1063 34.2985 1063 34.6667V38.6667C1063 39.0349 1063.3 39.3333 1063.67 39.3333ZM1075 38.6667C1075 39.0349 1074.7 39.3333 1074.33 39.3333C1073.96 39.3333 1073.67 39.0349 1073.67 38.6667V34.6667C1073.67 34.2985 1073.96 34 1074.33 34C1074.7 34 1075 34.2985 1075 34.6667V38.6667ZM1072.33 36.6667H1065.67V38H1072.33V36.6667ZM1075.67 48.6667H1074.33V50H1075.67V48.6667ZM1070.33 48.6667H1071.67V50H1070.33V48.6667ZM1067.67 48.6667H1066.33V50H1067.67V48.6667ZM1062.33 48.6667H1063.67V50H1062.33V48.6667ZM1075.67 45.3333H1074.33V46.6667H1075.67V45.3333ZM1070.33 45.3333H1071.67V46.6667H1070.33V45.3333ZM1067.67 45.3333H1066.33V46.6667H1067.67V45.3333ZM1062.33 45.3333H1063.67V46.6667H1062.33V45.3333ZM1075.67 42H1074.33V43.3333H1075.67V42ZM1070.33 42H1071.67V43.3333H1070.33V42ZM1067.67 42H1066.33V43.3333H1067.67V42ZM1062.33 42H1063.67V43.3333H1062.33V42ZM1076.33 36.6667H1078.5C1078.81 36.6719 1079.11 36.802 1079.33 37.0283C1079.55 37.2546 1079.67 37.5586 1079.67 37.8733V52.7933C1079.67 53.1081 1079.55 53.412 1079.33 53.6383C1079.11 53.8646 1078.81 53.9947 1078.5 54H1059.5C1059.19 53.9947 1058.89 53.8646 1058.67 53.6383C1058.45 53.412 1058.33 53.1081 1058.33 52.7933V37.8733C1058.33 37.5586 1058.45 37.2546 1058.67 37.0283C1058.89 36.802 1059.19 36.6719 1059.5 36.6667H1061.67V38H1059.67V52.6667H1078.33V38H1076.33V36.6667Z" fill="#007CBB"/>
<path fill-rule="evenodd" clip-rule="evenodd" d="M1097.81 38.78C1097.81 39.5164 1097.21 40.1133 1096.47 40.1133C1095.74 40.1133 1095.14 39.5164 1095.14 38.78C1095.14 38.0436 1095.74 37.4467 1096.47 37.4467C1097.21 37.4467 1097.81 38.0436 1097.81 38.78ZM1097.81 44.1133C1097.81 44.8497 1097.21 45.4467 1096.47 45.4467C1095.74 45.4467 1095.14 44.8497 1095.14 44.1133C1095.14 43.3769 1095.74 42.78 1096.47 42.78C1097.21 42.78 1097.81 43.3769 1097.81 44.1133ZM1096.47 50.78C1097.21 50.78 1097.81 50.183 1097.81 49.4467C1097.81 48.7103 1097.21 48.1133 1096.47 48.1133C1095.74 48.1133 1095.14 48.7103 1095.14 49.4467C1095.14 50.183 1095.74 50.78 1096.47 50.78ZM1113.95 38C1114.31 38 1114.61 38.2985 1114.61 38.6667C1114.61 39.0348 1114.31 39.3333 1113.95 39.3333H1099.67V38H1113.95ZM1113.95 43.3333H1099.67V44.6667H1113.95C1114.31 44.6667 1114.61 44.3682 1114.61 44C1114.61 43.6318 1114.31 43.3333 1113.95 43.3333ZM1099.67 48.6667H1113.95C1114.31 48.6667 1114.61 48.9651 1114.61 49.3333C1114.61 49.7015 1114.31 50 1113.95 50H1099.67V48.6667Z" fill="#007CBB" fill-opacity="0.3"/>
<rect x="178" y="137" width="147" height="74" rx="6" fill="#EEEEEE"/>
<path d="M189.899 170.72C189.899 170.265 190.185 169.94 190.562 169.94C190.835 169.94 191.082 170.044 191.225 170.187L191.68 169.173C191.303 168.848 190.757 168.64 190.25 168.64C189.132 168.64 188.352 169.446 188.352 170.577V171.279H187.377V172.592H188.352V178H189.899V172.592H191.42V171.279H189.899V170.72ZM196.037 176.557C195.894 176.7 195.647 176.804 195.374 176.804C194.997 176.804 194.711 176.479 194.711 176.024V172.592H196.232V171.279H194.711V169.433H193.164V171.279H192.189V172.592H193.164V176.219C193.164 177.35 193.944 178.156 195.062 178.156C195.569 178.156 196.115 177.948 196.492 177.623L196.037 176.557ZM202.832 168.913V172.319C202.299 171.565 201.493 171.123 200.505 171.123C198.724 171.123 197.424 172.579 197.424 174.633C197.424 176.7 198.724 178.156 200.505 178.156C201.493 178.156 202.299 177.714 202.832 176.96V178H204.418V168.913H202.832ZM200.934 176.804C199.803 176.804 198.997 175.894 198.997 174.633C198.997 173.372 199.803 172.475 200.934 172.475C202.052 172.475 202.832 173.372 202.832 174.633C202.832 175.894 202.052 176.804 200.934 176.804ZM209.44 178.156C210.506 178.156 211.403 177.714 212.053 177.025L210.987 176.102C210.61 176.531 210.038 176.804 209.453 176.804C208.348 176.804 207.425 175.816 207.425 174.633C207.425 173.463 208.348 172.475 209.453 172.475C210.025 172.475 210.584 172.748 210.948 173.151L212.014 172.215C211.377 171.552 210.48 171.123 209.466 171.123C207.503 171.123 205.852 172.722 205.852 174.633C205.852 176.544 207.503 178.156 209.44 178.156ZM213.066 175.127H216.563V173.736H213.066V175.127ZM225.72 171.123C224.719 171.123 223.913 171.578 223.38 172.345V171.279H221.794V180.236H223.38V176.934C223.913 177.701 224.719 178.156 225.72 178.156C227.501 178.156 228.801 176.7 228.801 174.633C228.801 172.579 227.501 171.123 225.72 171.123ZM225.291 176.804C224.173 176.804 223.393 175.894 223.393 174.633C223.393 173.372 224.173 172.475 225.291 172.475C226.422 172.475 227.228 173.372 227.228 174.633C227.228 175.894 226.422 176.804 225.291 176.804ZM231.86 172.579V171.279H230.274V178H231.86V174.607C231.86 173.333 232.822 172.475 234.265 172.475V171.123C233.16 171.123 232.289 171.682 231.86 172.579ZM238.525 178.156C240.475 178.156 242.126 176.544 242.126 174.633C242.126 172.722 240.475 171.123 238.525 171.123C236.575 171.123 234.924 172.722 234.924 174.633C234.924 176.544 236.575 178.156 238.525 178.156ZM238.525 176.804C237.407 176.804 236.471 175.816 236.471 174.633C236.471 173.463 237.407 172.475 238.525 172.475C239.63 172.475 240.566 173.463 240.566 174.633C240.566 175.816 239.63 176.804 238.525 176.804ZM248.611 168.913V172.319C248.078 171.565 247.272 171.123 246.284 171.123C244.503 171.123 243.203 172.579 243.203 174.633C243.203 176.7 244.503 178.156 246.284 178.156C247.272 178.156 248.078 177.714 248.611 176.96V178H250.197V168.913H248.611ZM246.713 176.804C245.582 176.804 244.776 175.894 244.776 174.633C244.776 173.372 245.582 172.475 246.713 172.475C247.831 172.475 248.611 173.372 248.611 174.633C248.611 175.894 247.831 176.804 246.713 176.804ZM256.532 171.279V175.53C256.428 176.245 255.739 176.804 254.907 176.804C254.075 176.804 253.49 176.154 253.49 175.244V171.279H251.956V175.556C251.956 177.077 252.983 178.156 254.452 178.156C255.336 178.156 256.116 177.727 256.532 177.103V178H258.118V171.279H256.532ZM263.103 178.156C264.169 178.156 265.066 177.714 265.716 177.025L264.65 176.102C264.273 176.531 263.701 176.804 263.116 176.804C262.011 176.804 261.088 175.816 261.088 174.633C261.088 173.463 262.011 172.475 263.116 172.475C263.688 172.475 264.247 172.748 264.611 173.151L265.677 172.215C265.04 171.552 264.143 171.123 263.129 171.123C261.166 171.123 259.515 172.722 259.515 174.633C259.515 176.544 261.166 178.156 263.103 178.156ZM270.317 176.557C270.174 176.7 269.927 176.804 269.654 176.804C269.277 176.804 268.991 176.479 268.991 176.024V172.592H270.512V171.279H268.991V169.433H267.444V171.279H266.469V172.592H267.444V176.219C267.444 177.35 268.224 178.156 269.342 178.156C269.849 178.156 270.395 177.948 270.772 177.623L270.317 176.557ZM272.809 170.265C273.303 170.265 273.706 169.836 273.706 169.355C273.706 168.874 273.303 168.458 272.809 168.458C272.302 168.458 271.899 168.874 271.899 169.355C271.899 169.836 272.302 170.265 272.809 170.265ZM272.003 178H273.589V171.279H272.003V178ZM278.592 178.156C280.542 178.156 282.193 176.544 282.193 174.633C282.193 172.722 280.542 171.123 278.592 171.123C276.642 171.123 274.991 172.722 274.991 174.633C274.991 176.544 276.642 178.156 278.592 178.156ZM278.592 176.804C277.474 176.804 276.538 175.816 276.538 174.633C276.538 173.463 277.474 172.475 278.592 172.475C279.697 172.475 280.633 173.463 280.633 174.633C280.633 175.816 279.697 176.804 278.592 176.804ZM287.234 171.123C286.35 171.123 285.57 171.552 285.154 172.176V171.279H283.568V178H285.154V173.749C285.258 173.034 285.947 172.475 286.779 172.475C287.611 172.475 288.196 173.125 288.196 174.035V178H289.73V173.723C289.73 172.202 288.703 171.123 287.234 171.123ZM191.108 196.156C192.174 196.156 193.071 195.714 193.721 195.025L192.655 194.102C192.278 194.531 191.706 194.804 191.121 194.804C190.016 194.804 189.093 193.816 189.093 192.633C189.093 191.463 190.016 190.475 191.121 190.475C191.693 190.475 192.252 190.748 192.616 191.151L193.682 190.215C193.045 189.552 192.148 189.123 191.134 189.123C189.171 189.123 187.52 190.722 187.52 192.633C187.52 194.544 189.171 196.156 191.108 196.156ZM194.968 196H196.554V186.913H194.968V196ZM202.857 189.279V193.53C202.753 194.245 202.064 194.804 201.232 194.804C200.4 194.804 199.815 194.154 199.815 193.244V189.279H198.281V193.556C198.281 195.077 199.308 196.156 200.777 196.156C201.661 196.156 202.441 195.727 202.857 195.103V196H204.443V189.279H202.857ZM208.673 196.156C210.246 196.156 211.312 195.324 211.312 194.037C211.312 192.633 210.09 192.243 208.959 191.931C207.932 191.632 207.581 191.502 207.581 191.073C207.581 190.696 208.01 190.475 208.569 190.475C209.154 190.475 209.843 190.683 210.48 191.086L211.143 189.929C210.415 189.448 209.492 189.123 208.569 189.123C207.074 189.123 206.034 189.981 206.034 191.242C206.047 192.438 206.97 192.854 208.426 193.231C209.193 193.439 209.778 193.608 209.778 194.128C209.778 194.544 209.336 194.817 208.699 194.817C207.854 194.817 207.1 194.505 206.45 194.037L205.735 195.142C206.541 195.792 207.646 196.156 208.673 196.156ZM216.044 194.557C215.901 194.7 215.654 194.804 215.381 194.804C215.004 194.804 214.718 194.479 214.718 194.024V190.592H216.239V189.279H214.718V187.433H213.171V189.279H212.196V190.592H213.171V194.219C213.171 195.35 213.951 196.156 215.069 196.156C215.576 196.156 216.122 195.948 216.499 195.623L216.044 194.557ZM220.863 194.752C219.901 194.752 219.199 194.102 219.004 193.179H224.074C224.074 190.696 222.865 189.123 220.785 189.123C218.874 189.123 217.366 190.605 217.366 192.62C217.366 194.687 218.952 196.156 220.876 196.156C221.851 196.156 223.021 195.74 223.606 195.116L222.605 194.076C222.228 194.466 221.487 194.752 220.863 194.752ZM220.85 190.527C221.799 190.527 222.371 191.125 222.553 191.97H219.017C219.251 191.086 219.966 190.527 220.85 190.527ZM227.074 190.579V189.279H225.488V196H227.074V192.607C227.074 191.333 228.036 190.475 229.479 190.475V189.123C228.374 189.123 227.503 189.682 227.074 190.579ZM236.819 196.156C238.392 196.156 239.458 195.324 239.458 194.037C239.458 192.633 238.236 192.243 237.105 191.931C236.078 191.632 235.727 191.502 235.727 191.073C235.727 190.696 236.156 190.475 236.715 190.475C237.3 190.475 237.989 190.683 238.626 191.086L239.289 189.929C238.561 189.448 237.638 189.123 236.715 189.123C235.22 189.123 234.18 189.981 234.18 191.242C234.193 192.438 235.116 192.854 236.572 193.231C237.339 193.439 237.924 193.608 237.924 194.128C237.924 194.544 237.482 194.817 236.845 194.817C236 194.817 235.246 194.505 234.596 194.037L233.881 195.142C234.687 195.792 235.792 196.156 236.819 196.156ZM244.502 189.123C243.618 189.123 242.838 189.552 242.422 190.176V189.279H240.836V196H242.422V191.749C242.526 191.034 243.215 190.475 244.047 190.475C244.879 190.475 245.464 191.125 245.464 192.035V196H246.998V191.723C246.998 190.202 245.971 189.123 244.502 189.123ZM251.645 189.123C250.8 189.123 249.916 189.357 248.967 189.825L249.513 190.93C250.085 190.644 250.696 190.423 251.333 190.423C252.555 190.423 252.984 191.177 252.984 191.957V192.139C252.373 191.905 251.71 191.775 251.099 191.775C249.591 191.775 248.356 192.685 248.356 194.011C248.356 195.311 249.435 196.156 250.865 196.156C251.645 196.156 252.49 195.818 252.984 195.194V196H254.531V191.957C254.531 190.254 253.426 189.123 251.645 189.123ZM251.216 194.999C250.462 194.999 249.903 194.596 249.903 193.959C249.903 193.322 250.54 192.88 251.333 192.88C251.931 192.88 252.49 192.971 252.984 193.14V193.894C252.802 194.609 251.983 194.999 251.216 194.999ZM260.213 189.123C259.212 189.123 258.406 189.578 257.873 190.345V189.279H256.287V198.236H257.873V194.934C258.406 195.701 259.212 196.156 260.213 196.156C261.994 196.156 263.294 194.7 263.294 192.633C263.294 190.579 261.994 189.123 260.213 189.123ZM259.784 194.804C258.666 194.804 257.886 193.894 257.886 192.633C257.886 191.372 258.666 190.475 259.784 190.475C260.915 190.475 261.721 191.372 261.721 192.633C261.721 193.894 260.915 194.804 259.784 194.804ZM267.211 196.156C268.784 196.156 269.85 195.324 269.85 194.037C269.85 192.633 268.628 192.243 267.497 191.931C266.47 191.632 266.119 191.502 266.119 191.073C266.119 190.696 266.548 190.475 267.107 190.475C267.692 190.475 268.381 190.683 269.018 191.086L269.681 189.929C268.953 189.448 268.03 189.123 267.107 189.123C265.612 189.123 264.572 189.981 264.572 191.242C264.585 192.438 265.508 192.854 266.964 193.231C267.731 193.439 268.316 193.608 268.316 194.128C268.316 194.544 267.874 194.817 267.237 194.817C266.392 194.817 265.638 194.505 264.988 194.037L264.273 195.142C265.079 195.792 266.184 196.156 267.211 196.156ZM274.894 189.123C273.997 189.123 273.204 189.552 272.801 190.202V186.913H271.215V196H272.801V191.931C272.801 191.125 273.542 190.475 274.439 190.475C275.271 190.475 275.856 191.125 275.856 192.035V196H277.39V191.723C277.39 190.202 276.363 189.123 274.894 189.123ZM282.362 196.156C284.312 196.156 285.963 194.544 285.963 192.633C285.963 190.722 284.312 189.123 282.362 189.123C280.412 189.123 278.761 190.722 278.761 192.633C278.761 194.544 280.412 196.156 282.362 196.156ZM282.362 194.804C281.244 194.804 280.308 193.816 280.308 192.633C280.308 191.463 281.244 190.475 282.362 190.475C283.467 190.475 284.403 191.463 284.403 192.633C284.403 193.816 283.467 194.804 282.362 194.804ZM290.693 194.557C290.55 194.7 290.303 194.804 290.03 194.804C289.653 194.804 289.367 194.479 289.367 194.024V190.592H290.888V189.279H289.367V187.433H287.82V189.279H286.845V190.592H287.82V194.219C287.82 195.35 288.6 196.156 289.718 196.156C290.225 196.156 290.771 195.948 291.148 195.623L290.693 194.557Z" fill="#61717D"/>
<path d="M193.721 152.863C193.721 151.444 192.5 150.443 190.938 150.443H187.869V158H188.727V155.283H190.729L192.643 158H193.622L191.664 155.206C192.863 154.953 193.721 154.051 193.721 152.863ZM188.727 151.257H190.784C192.016 151.257 192.852 151.851 192.852 152.863C192.852 153.875 192.016 154.469 190.784 154.469H188.727V151.257ZM198.994 152.313V155.932C198.994 156.724 198.191 157.395 197.234 157.395C196.398 157.395 195.815 156.746 195.815 155.822V152.313H194.99V155.932C194.99 157.219 195.87 158.132 197.124 158.132C197.927 158.132 198.664 157.692 198.994 157.087V158H199.819V152.313H198.994ZM204.206 152.181C203.403 152.181 202.666 152.621 202.336 153.226V152.313H201.511V158H202.336V154.381C202.336 153.589 203.139 152.918 204.096 152.918C204.932 152.918 205.515 153.567 205.515 154.491V158H206.34V154.381C206.34 153.094 205.46 152.181 204.206 152.181ZM213.51 152.181C212.96 152.181 212.278 152.324 211.464 152.731L211.794 153.402C212.311 153.138 212.883 152.885 213.455 152.885C214.687 152.885 214.995 153.765 214.995 154.535V154.744C214.412 154.557 213.763 154.425 213.147 154.425C211.926 154.425 210.914 155.184 210.914 156.317C210.914 157.439 211.794 158.132 212.993 158.132C213.741 158.132 214.588 157.78 214.995 157.109V158H215.82V154.535C215.82 153.16 215.061 152.181 213.51 152.181ZM213.136 157.406C212.333 157.406 211.717 156.988 211.717 156.284C211.717 155.602 212.432 155.118 213.279 155.118C213.895 155.118 214.478 155.206 214.995 155.349V156.218C214.775 157.021 213.884 157.406 213.136 157.406ZM220.003 157.164C219.882 157.296 219.662 157.395 219.409 157.395C219.079 157.395 218.793 157.098 218.793 156.68V153.05H220.19V152.313H218.793V150.751H217.968V152.313H217.077V153.05H217.968V156.68C217.968 157.527 218.54 158.132 219.354 158.132C219.739 158.132 220.113 158 220.41 157.769L220.003 157.164ZM227.21 158.132C228.761 158.132 229.894 157.142 229.894 155.646C229.894 154.15 228.761 153.292 227.397 153.292C226.704 153.292 226.187 153.523 225.78 153.798L225.857 151.257H229.487V150.443H225.021L224.911 154.326L225.538 154.634C226.011 154.282 226.572 154.051 227.221 154.051C228.277 154.051 229.025 154.711 229.025 155.679C229.025 156.636 228.288 157.362 227.243 157.362C226.407 157.362 225.692 156.944 225.109 156.306L224.548 156.933C225.164 157.637 226.044 158.132 227.21 158.132ZM234.323 152.181C233.41 152.181 232.684 152.632 232.255 153.38V152.313H231.43V159.892H232.255V156.933C232.684 157.681 233.41 158.132 234.323 158.132C235.819 158.132 236.941 156.9 236.941 155.151C236.941 153.413 235.819 152.181 234.323 152.181ZM234.169 157.395C233.047 157.395 232.255 156.46 232.255 155.151C232.255 153.842 233.047 152.918 234.169 152.918C235.28 152.918 236.072 153.842 236.072 155.151C236.072 156.46 235.28 157.395 234.169 157.395ZM244.516 152.181C243.658 152.181 242.91 152.654 242.679 153.391C242.371 152.654 241.7 152.181 240.842 152.181C240.094 152.181 239.478 152.555 239.192 153.149V152.313H238.367V158H239.192V154.381C239.192 153.523 239.83 152.918 240.732 152.918C241.502 152.918 242.041 153.567 242.041 154.491V158H242.866V154.381C242.866 153.523 243.504 152.918 244.406 152.918C245.176 152.918 245.715 153.567 245.715 154.491V158H246.54V154.381C246.54 153.094 245.704 152.181 244.516 152.181Z" fill="#798893"/>
<rect x="178" y="137" width="147" height="74" rx="6" stroke="#004D8A"/>
<rect x="655.5" y="137.5" width="146" height="73" rx="5.5" fill="white"/>
<path d="M668.537 171.123C667.64 171.123 666.847 171.552 666.444 172.202V168.913H664.858V178H666.444V173.931C666.444 173.125 667.185 172.475 668.082 172.475C668.914 172.475 669.499 173.125 669.499 174.035V178H671.033V173.723C671.033 172.202 670.006 171.123 668.537 171.123ZM674.38 172.579V171.279H672.794V178H674.38V174.607C674.38 173.333 675.342 172.475 676.785 172.475V171.123C675.68 171.123 674.809 171.682 674.38 172.579ZM677.726 175.127H681.223V173.736H677.726V175.127ZM687.842 168.913V172.319C687.309 171.565 686.503 171.123 685.515 171.123C683.734 171.123 682.434 172.579 682.434 174.633C682.434 176.7 683.734 178.156 685.515 178.156C686.503 178.156 687.309 177.714 687.842 176.96V178H689.428V168.913H687.842ZM685.944 176.804C684.813 176.804 684.007 175.894 684.007 174.633C684.007 173.372 684.813 172.475 685.944 172.475C687.062 172.475 687.842 173.372 687.842 174.633C687.842 175.894 687.062 176.804 685.944 176.804ZM694.347 176.752C693.385 176.752 692.683 176.102 692.488 175.179H697.558C697.558 172.696 696.349 171.123 694.269 171.123C692.358 171.123 690.85 172.605 690.85 174.62C690.85 176.687 692.436 178.156 694.36 178.156C695.335 178.156 696.505 177.74 697.09 177.116L696.089 176.076C695.712 176.466 694.971 176.752 694.347 176.752ZM694.334 172.527C695.283 172.527 695.855 173.125 696.037 173.97H692.501C692.735 173.086 693.45 172.527 694.334 172.527ZM701.182 178H702.677L705.524 171.279H703.834L701.923 176.167L699.973 171.279H698.296L701.182 178ZM714.858 171.279V175.53C714.754 176.245 714.065 176.804 713.233 176.804C712.401 176.804 711.816 176.154 711.816 175.244V171.279H710.282V175.556C710.282 177.077 711.309 178.156 712.778 178.156C713.662 178.156 714.442 177.727 714.858 177.103V178H716.444V171.279H714.858ZM722.156 171.123C721.155 171.123 720.349 171.578 719.816 172.345V171.279H718.23V180.236H719.816V176.934C720.349 177.701 721.155 178.156 722.156 178.156C723.937 178.156 725.237 176.7 725.237 174.633C725.237 172.579 723.937 171.123 722.156 171.123ZM721.727 176.804C720.609 176.804 719.829 175.894 719.829 174.633C719.829 173.372 720.609 172.475 721.727 172.475C722.858 172.475 723.664 173.372 723.664 174.633C723.664 175.894 722.858 176.804 721.727 176.804ZM729.155 178.156C730.728 178.156 731.794 177.324 731.794 176.037C731.794 174.633 730.572 174.243 729.441 173.931C728.414 173.632 728.063 173.502 728.063 173.073C728.063 172.696 728.492 172.475 729.051 172.475C729.636 172.475 730.325 172.683 730.962 173.086L731.625 171.929C730.897 171.448 729.974 171.123 729.051 171.123C727.556 171.123 726.516 171.981 726.516 173.242C726.529 174.438 727.452 174.854 728.908 175.231C729.675 175.439 730.26 175.608 730.26 176.128C730.26 176.544 729.818 176.817 729.181 176.817C728.336 176.817 727.582 176.505 726.932 176.037L726.217 177.142C727.023 177.792 728.128 178.156 729.155 178.156ZM733.978 170.265C734.472 170.265 734.875 169.836 734.875 169.355C734.875 168.874 734.472 168.458 733.978 168.458C733.471 168.458 733.068 168.874 733.068 169.355C733.068 169.836 733.471 170.265 733.978 170.265ZM733.172 178H734.758V171.279H733.172V178ZM736.238 178H741.919V176.609H738.305L741.88 172.436L741.893 171.279H736.316V172.67H739.8L736.238 176.843V178ZM744.159 170.265C744.653 170.265 745.056 169.836 745.056 169.355C745.056 168.874 744.653 168.458 744.159 168.458C743.652 168.458 743.249 168.874 743.249 169.355C743.249 169.836 743.652 170.265 744.159 170.265ZM743.353 178H744.939V171.279H743.353V178ZM750.358 171.123C749.474 171.123 748.694 171.552 748.278 172.176V171.279H746.692V178H748.278V173.749C748.382 173.034 749.071 172.475 749.903 172.475C750.735 172.475 751.32 173.125 751.32 174.035V178H752.854V173.723C752.854 172.202 751.827 171.123 750.358 171.123ZM759.581 171.279V172.28C759.1 171.565 758.229 171.123 757.28 171.123C755.538 171.123 754.251 172.436 754.251 174.308C754.251 176.18 755.538 177.506 757.28 177.506C758.242 177.506 759.048 177.077 759.581 176.362V177.233C759.581 178.247 758.749 178.884 757.423 178.884C756.63 178.884 755.824 178.611 755.356 178.182L754.771 179.339C755.434 179.859 756.5 180.236 757.657 180.236C759.711 180.236 761.167 179.014 761.167 177.285V171.279H759.581ZM757.735 176.154C756.669 176.154 755.902 175.387 755.902 174.308C755.902 173.242 756.669 172.475 757.735 172.475C758.814 172.475 759.581 173.242 759.581 174.308C759.581 175.387 758.814 176.154 757.735 176.154ZM672.632 189.123C671.631 189.123 670.786 189.617 670.461 190.397C670.045 189.604 669.265 189.123 668.316 189.123C667.471 189.123 666.782 189.539 666.444 190.189V189.279H664.858V196H666.444V191.879C666.444 191.06 667.055 190.475 667.913 190.475C668.693 190.475 669.226 191.099 669.226 191.983V196H670.773V191.879C670.773 191.06 671.371 190.475 672.242 190.475C673.009 190.475 673.542 191.099 673.542 191.983V196H675.089V191.723C675.089 190.202 674.036 189.123 672.632 189.123ZM679.73 189.123C678.885 189.123 678.001 189.357 677.052 189.825L677.598 190.93C678.17 190.644 678.781 190.423 679.418 190.423C680.64 190.423 681.069 191.177 681.069 191.957V192.139C680.458 191.905 679.795 191.775 679.184 191.775C677.676 191.775 676.441 192.685 676.441 194.011C676.441 195.311 677.52 196.156 678.95 196.156C679.73 196.156 680.575 195.818 681.069 195.194V196H682.616V191.957C682.616 190.254 681.511 189.123 679.73 189.123ZM679.301 194.999C678.547 194.999 677.988 194.596 677.988 193.959C677.988 193.322 678.625 192.88 679.418 192.88C680.016 192.88 680.575 192.971 681.069 193.14V193.894C680.887 194.609 680.068 194.999 679.301 194.999ZM685.139 188.265C685.633 188.265 686.036 187.836 686.036 187.355C686.036 186.874 685.633 186.458 685.139 186.458C684.632 186.458 684.229 186.874 684.229 187.355C684.229 187.836 684.632 188.265 685.139 188.265ZM684.333 196H685.919V189.279H684.333V196ZM691.338 189.123C690.454 189.123 689.674 189.552 689.258 190.176V189.279H687.672V196H689.258V191.749C689.362 191.034 690.051 190.475 690.883 190.475C691.715 190.475 692.3 191.125 692.3 192.035V196H693.834V191.723C693.834 190.202 692.807 189.123 691.338 189.123ZM698.91 194.557C698.767 194.7 698.52 194.804 698.247 194.804C697.87 194.804 697.584 194.479 697.584 194.024V190.592H699.105V189.279H697.584V187.433H696.037V189.279H695.062V190.592H696.037V194.219C696.037 195.35 696.817 196.156 697.935 196.156C698.442 196.156 698.988 195.948 699.365 195.623L698.91 194.557ZM703.729 194.752C702.767 194.752 702.065 194.102 701.87 193.179H706.94C706.94 190.696 705.731 189.123 703.651 189.123C701.74 189.123 700.232 190.605 700.232 192.62C700.232 194.687 701.818 196.156 703.742 196.156C704.717 196.156 705.887 195.74 706.472 195.116L705.471 194.076C705.094 194.466 704.353 194.752 703.729 194.752ZM703.716 190.527C704.665 190.527 705.237 191.125 705.419 191.97H701.883C702.117 191.086 702.832 190.527 703.716 190.527ZM711.98 189.123C711.096 189.123 710.316 189.552 709.9 190.176V189.279H708.314V196H709.9V191.749C710.004 191.034 710.693 190.475 711.525 190.475C712.357 190.475 712.942 191.125 712.942 192.035V196H714.476V191.723C714.476 190.202 713.449 189.123 711.98 189.123ZM719.123 189.123C718.278 189.123 717.394 189.357 716.445 189.825L716.991 190.93C717.563 190.644 718.174 190.423 718.811 190.423C720.033 190.423 720.462 191.177 720.462 191.957V192.139C719.851 191.905 719.188 191.775 718.577 191.775C717.069 191.775 715.834 192.685 715.834 194.011C715.834 195.311 716.913 196.156 718.343 196.156C719.123 196.156 719.968 195.818 720.462 195.194V196H722.009V191.957C722.009 190.254 720.904 189.123 719.123 189.123ZM718.694 194.999C717.94 194.999 717.381 194.596 717.381 193.959C717.381 193.322 718.018 192.88 718.811 192.88C719.409 192.88 719.968 192.971 720.462 193.14V193.894C720.28 194.609 719.461 194.999 718.694 194.999ZM727.392 189.123C726.508 189.123 725.728 189.552 725.312 190.176V189.279H723.726V196H725.312V191.749C725.416 191.034 726.105 190.475 726.937 190.475C727.769 190.475 728.354 191.125 728.354 192.035V196H729.888V191.723C729.888 190.202 728.861 189.123 727.392 189.123ZM734.847 196.156C735.913 196.156 736.81 195.714 737.46 195.025L736.394 194.102C736.017 194.531 735.445 194.804 734.86 194.804C733.755 194.804 732.832 193.816 732.832 192.633C732.832 191.463 733.755 190.475 734.86 190.475C735.432 190.475 735.991 190.748 736.355 191.151L737.421 190.215C736.784 189.552 735.887 189.123 734.873 189.123C732.91 189.123 731.259 190.722 731.259 192.633C731.259 194.544 732.91 196.156 734.847 196.156ZM741.84 194.752C740.878 194.752 740.176 194.102 739.981 193.179H745.051C745.051 190.696 743.842 189.123 741.762 189.123C739.851 189.123 738.343 190.605 738.343 192.62C738.343 194.687 739.929 196.156 741.853 196.156C742.828 196.156 743.998 195.74 744.583 195.116L743.582 194.076C743.205 194.466 742.464 194.752 741.84 194.752ZM741.827 190.527C742.776 190.527 743.348 191.125 743.53 191.97H739.994C740.228 191.086 740.943 190.527 741.827 190.527Z" fill="#495A67"/>
<path d="M667.487 158.121C669.247 158.121 670.149 157.142 670.149 155.943C670.149 154.612 669.115 154.095 667.674 153.754C666.387 153.446 665.639 153.171 665.639 152.39C665.639 151.697 666.321 151.081 667.256 151.081C668.048 151.081 668.796 151.444 669.423 152.049L669.951 151.378C669.258 150.74 668.422 150.3 667.3 150.3C665.848 150.3 664.77 151.246 664.77 152.456C664.77 153.765 665.727 154.238 667.245 154.59C668.565 154.898 669.28 155.217 669.28 156.02C669.28 156.702 668.686 157.34 667.52 157.34C666.464 157.34 665.683 156.889 665.045 156.251L664.506 156.922C665.265 157.67 666.244 158.121 667.487 158.121ZM674.222 158.132C675.014 158.132 675.74 157.802 676.279 157.263L675.707 156.702C675.322 157.131 674.794 157.395 674.222 157.395C673.089 157.395 672.143 156.372 672.143 155.151C672.143 153.941 673.089 152.918 674.222 152.918C674.783 152.918 675.3 153.171 675.674 153.578L676.246 153.017C675.707 152.5 674.992 152.181 674.222 152.181C672.627 152.181 671.274 153.534 671.274 155.151C671.274 156.768 672.627 158.132 674.222 158.132ZM680.25 152.181C679.447 152.181 678.71 152.621 678.38 153.226V150.311H677.555V158H678.38V154.381C678.38 153.589 679.183 152.918 680.14 152.918C680.976 152.918 681.559 153.567 681.559 154.491V158H682.384V154.381C682.384 153.094 681.504 152.181 680.25 152.181ZM686.617 157.395C685.495 157.395 684.714 156.581 684.593 155.47H689.246C689.246 153.479 688.267 152.181 686.551 152.181C685.022 152.181 683.746 153.446 683.746 155.14C683.746 156.889 685.11 158.132 686.628 158.132C687.42 158.132 688.421 157.791 688.916 157.252L688.41 156.713C688.058 157.098 687.288 157.395 686.617 157.395ZM686.584 152.918C687.717 152.918 688.322 153.71 688.432 154.733H684.604C684.758 153.633 685.572 152.918 686.584 152.918ZM695.04 150.311V153.38C694.611 152.632 693.885 152.181 692.972 152.181C691.476 152.181 690.354 153.413 690.354 155.151C690.354 156.9 691.476 158.132 692.972 158.132C693.885 158.132 694.611 157.681 695.04 156.933V158H695.865V150.311H695.04ZM693.126 157.395C692.015 157.395 691.223 156.46 691.223 155.151C691.223 153.842 692.015 152.918 693.126 152.918C694.248 152.918 695.04 153.842 695.04 155.151C695.04 156.46 694.248 157.395 693.126 157.395ZM701.614 152.313V155.932C701.614 156.724 700.811 157.395 699.854 157.395C699.018 157.395 698.435 156.746 698.435 155.822V152.313H697.61V155.932C697.61 157.219 698.49 158.132 699.744 158.132C700.547 158.132 701.284 157.692 701.614 157.087V158H702.439V152.313H701.614ZM704.12 158H704.945V150.311H704.12V158ZM709.175 157.395C708.053 157.395 707.272 156.581 707.151 155.47H711.804C711.804 153.479 710.825 152.181 709.109 152.181C707.58 152.181 706.304 153.446 706.304 155.14C706.304 156.889 707.668 158.132 709.186 158.132C709.978 158.132 710.979 157.791 711.474 157.252L710.968 156.713C710.616 157.098 709.846 157.395 709.175 157.395ZM709.142 152.918C710.275 152.918 710.88 153.71 710.99 154.733H707.162C707.316 153.633 708.13 152.918 709.142 152.918ZM717.598 150.311V153.38C717.169 152.632 716.443 152.181 715.53 152.181C714.034 152.181 712.912 153.413 712.912 155.151C712.912 156.9 714.034 158.132 715.53 158.132C716.443 158.132 717.169 157.681 717.598 156.933V158H718.423V150.311H717.598ZM715.684 157.395C714.573 157.395 713.781 156.46 713.781 155.151C713.781 153.842 714.573 152.918 715.684 152.918C716.806 152.918 717.598 153.842 717.598 155.151C717.598 156.46 716.806 157.395 715.684 157.395ZM725.669 152.181C725.119 152.181 724.437 152.324 723.623 152.731L723.953 153.402C724.47 153.138 725.042 152.885 725.614 152.885C726.846 152.885 727.154 153.765 727.154 154.535V154.744C726.571 154.557 725.922 154.425 725.306 154.425C724.085 154.425 723.073 155.184 723.073 156.317C723.073 157.439 723.953 158.132 725.152 158.132C725.9 158.132 726.747 157.78 727.154 157.109V158H727.979V154.535C727.979 153.16 727.22 152.181 725.669 152.181ZM725.295 157.406C724.492 157.406 723.876 156.988 723.876 156.284C723.876 155.602 724.591 155.118 725.438 155.118C726.054 155.118 726.637 155.206 727.154 155.349V156.218C726.934 157.021 726.043 157.406 725.295 157.406ZM732.162 157.164C732.041 157.296 731.821 157.395 731.568 157.395C731.238 157.395 730.952 157.098 730.952 156.68V153.05H732.349V152.313H730.952V150.751H730.127V152.313H729.236V153.05H730.127V156.68C730.127 157.527 730.699 158.132 731.513 158.132C731.898 158.132 732.272 158 732.569 157.769L732.162 157.164ZM739.369 158.132C740.92 158.132 742.053 157.142 742.053 155.646C742.053 154.15 740.92 153.292 739.556 153.292C738.863 153.292 738.346 153.523 737.939 153.798L738.016 151.257H741.646V150.443H737.18L737.07 154.326L737.697 154.634C738.17 154.282 738.731 154.051 739.38 154.051C740.436 154.051 741.184 154.711 741.184 155.679C741.184 156.636 740.447 157.362 739.402 157.362C738.566 157.362 737.851 156.944 737.268 156.306L736.707 156.933C737.323 157.637 738.203 158.132 739.369 158.132ZM746.482 152.181C745.569 152.181 744.843 152.632 744.414 153.38V152.313H743.589V159.892H744.414V156.933C744.843 157.681 745.569 158.132 746.482 158.132C747.978 158.132 749.1 156.9 749.1 155.151C749.1 153.413 747.978 152.181 746.482 152.181ZM746.328 157.395C745.206 157.395 744.414 156.46 744.414 155.151C744.414 153.842 745.206 152.918 746.328 152.918C747.439 152.918 748.231 153.842 748.231 155.151C748.231 156.46 747.439 157.395 746.328 157.395ZM756.675 152.181C755.817 152.181 755.069 152.654 754.838 153.391C754.53 152.654 753.859 152.181 753.001 152.181C752.253 152.181 751.637 152.555 751.351 153.149V152.313H750.526V158H751.351V154.381C751.351 153.523 751.989 152.918 752.891 152.918C753.661 152.918 754.2 153.567 754.2 154.491V158H755.025V154.381C755.025 153.523 755.663 152.918 756.565 152.918C757.335 152.918 757.874 153.567 757.874 154.491V158H758.699V154.381C758.699 153.094 757.863 152.181 756.675 152.181Z" fill="#495A67"/>
<rect x="655.5" y="137.5" width="146" height="73" rx="5.5" stroke="#004D8A"/>
<rect x="655.5" y="309.5" width="146" height="73" rx="5.5" fill="white"/>
<path d="M668.836 343.123C667.835 343.123 667.029 343.578 666.496 344.345V343.279H664.91V352.236H666.496V348.934C667.029 349.701 667.835 350.156 668.836 350.156C670.617 350.156 671.917 348.7 671.917 346.633C671.917 344.579 670.617 343.123 668.836 343.123ZM668.407 348.804C667.289 348.804 666.509 347.894 666.509 346.633C666.509 345.372 667.289 344.475 668.407 344.475C669.538 344.475 670.344 345.372 670.344 346.633C670.344 347.894 669.538 348.804 668.407 348.804ZM674.976 344.579V343.279H673.39V350H674.976V346.607C674.976 345.333 675.938 344.475 677.381 344.475V343.123C676.276 343.123 675.405 343.682 674.976 344.579ZM681.642 350.156C683.592 350.156 685.243 348.544 685.243 346.633C685.243 344.722 683.592 343.123 681.642 343.123C679.692 343.123 678.041 344.722 678.041 346.633C678.041 348.544 679.692 350.156 681.642 350.156ZM681.642 348.804C680.524 348.804 679.588 347.816 679.588 346.633C679.588 345.463 680.524 344.475 681.642 344.475C682.747 344.475 683.683 345.463 683.683 346.633C683.683 347.816 682.747 348.804 681.642 348.804ZM691.727 340.913V344.319C691.194 343.565 690.388 343.123 689.4 343.123C687.619 343.123 686.319 344.579 686.319 346.633C686.319 348.7 687.619 350.156 689.4 350.156C690.388 350.156 691.194 349.714 691.727 348.96V350H693.313V340.913H691.727ZM689.829 348.804C688.698 348.804 687.892 347.894 687.892 346.633C687.892 345.372 688.698 344.475 689.829 344.475C690.947 344.475 691.727 345.372 691.727 346.633C691.727 347.894 690.947 348.804 689.829 348.804ZM694.865 347.127H698.362V345.736H694.865V347.127ZM703.109 350.156C704.175 350.156 705.072 349.714 705.722 349.025L704.656 348.102C704.279 348.531 703.707 348.804 703.122 348.804C702.017 348.804 701.094 347.816 701.094 346.633C701.094 345.463 702.017 344.475 703.122 344.475C703.694 344.475 704.253 344.748 704.617 345.151L705.683 344.215C705.046 343.552 704.149 343.123 703.135 343.123C701.172 343.123 699.521 344.722 699.521 346.633C699.521 348.544 701.172 350.156 703.109 350.156ZM710.079 350.156C712.029 350.156 713.68 348.544 713.68 346.633C713.68 344.722 712.029 343.123 710.079 343.123C708.129 343.123 706.478 344.722 706.478 346.633C706.478 348.544 708.129 350.156 710.079 350.156ZM710.079 348.804C708.961 348.804 708.025 347.816 708.025 346.633C708.025 345.463 708.961 344.475 710.079 344.475C711.184 344.475 712.12 345.463 712.12 346.633C712.12 347.816 711.184 348.804 710.079 348.804ZM718.722 343.123C717.838 343.123 717.058 343.552 716.642 344.176V343.279H715.056V350H716.642V345.749C716.746 345.034 717.435 344.475 718.267 344.475C719.099 344.475 719.684 345.125 719.684 346.035V350H721.218V345.723C721.218 344.202 720.191 343.123 718.722 343.123ZM725.422 350.156C726.995 350.156 728.061 349.324 728.061 348.037C728.061 346.633 726.839 346.243 725.708 345.931C724.681 345.632 724.33 345.502 724.33 345.073C724.33 344.696 724.759 344.475 725.318 344.475C725.903 344.475 726.592 344.683 727.229 345.086L727.892 343.929C727.164 343.448 726.241 343.123 725.318 343.123C723.823 343.123 722.783 343.981 722.783 345.242C722.796 346.438 723.719 346.854 725.175 347.231C725.942 347.439 726.527 347.608 726.527 348.128C726.527 348.544 726.085 348.817 725.448 348.817C724.603 348.817 723.849 348.505 723.199 348.037L722.484 349.142C723.29 349.792 724.395 350.156 725.422 350.156ZM732.572 348.752C731.61 348.752 730.908 348.102 730.713 347.179H735.783C735.783 344.696 734.574 343.123 732.494 343.123C730.583 343.123 729.075 344.605 729.075 346.62C729.075 348.687 730.661 350.156 732.585 350.156C733.56 350.156 734.73 349.74 735.315 349.116L734.314 348.076C733.937 348.466 733.196 348.752 732.572 348.752ZM732.559 344.527C733.508 344.527 734.08 345.125 734.262 345.97H730.726C730.96 345.086 731.675 344.527 732.559 344.527ZM738.783 344.579V343.279H737.197V350H738.783V346.607C738.783 345.333 739.745 344.475 741.188 344.475V343.123C740.083 343.123 739.212 343.682 738.783 344.579ZM744.612 350H746.107L748.954 343.279H747.264L745.353 348.167L743.403 343.279H741.726L744.612 350ZM752.512 343.123C751.667 343.123 750.783 343.357 749.834 343.825L750.38 344.93C750.952 344.644 751.563 344.423 752.2 344.423C753.422 344.423 753.851 345.177 753.851 345.957V346.139C753.24 345.905 752.577 345.775 751.966 345.775C750.458 345.775 749.223 346.685 749.223 348.011C749.223 349.311 750.302 350.156 751.732 350.156C752.512 350.156 753.357 349.818 753.851 349.194V350H755.398V345.957C755.398 344.254 754.293 343.123 752.512 343.123ZM752.083 348.999C751.329 348.999 750.77 348.596 750.77 347.959C750.77 347.322 751.407 346.88 752.2 346.88C752.798 346.88 753.357 346.971 753.851 347.14V347.894C753.669 348.609 752.85 348.999 752.083 348.999ZM760.469 348.557C760.326 348.7 760.079 348.804 759.806 348.804C759.429 348.804 759.143 348.479 759.143 348.024V344.592H760.664V343.279H759.143V341.433H757.596V343.279H756.621V344.592H757.596V348.219C757.596 349.35 758.376 350.156 759.494 350.156C760.001 350.156 760.547 349.948 760.924 349.623L760.469 348.557ZM762.961 342.265C763.455 342.265 763.858 341.836 763.858 341.355C763.858 340.874 763.455 340.458 762.961 340.458C762.454 340.458 762.051 340.874 762.051 341.355C762.051 341.836 762.454 342.265 762.961 342.265ZM762.155 350H763.741V343.279H762.155V350ZM767.743 350H769.238L772.085 343.279H770.395L768.484 348.167L766.534 343.279H764.857L767.743 350ZM775.889 348.752C774.927 348.752 774.225 348.102 774.03 347.179H779.1C779.1 344.696 777.891 343.123 775.811 343.123C773.9 343.123 772.392 344.605 772.392 346.62C772.392 348.687 773.978 350.156 775.902 350.156C776.877 350.156 778.047 349.74 778.632 349.116L777.631 348.076C777.254 348.466 776.513 348.752 775.889 348.752ZM775.876 344.527C776.825 344.527 777.397 345.125 777.579 345.97H774.043C774.277 345.086 774.992 344.527 775.876 344.527ZM669.98 358.913V362.319C669.447 361.565 668.641 361.123 667.653 361.123C665.872 361.123 664.572 362.579 664.572 364.633C664.572 366.7 665.872 368.156 667.653 368.156C668.641 368.156 669.447 367.714 669.98 366.96V368H671.566V358.913H669.98ZM668.082 366.804C666.951 366.804 666.145 365.894 666.145 364.633C666.145 363.372 666.951 362.475 668.082 362.475C669.2 362.475 669.98 363.372 669.98 364.633C669.98 365.894 669.2 366.804 668.082 366.804ZM676.601 368.156C678.551 368.156 680.202 366.544 680.202 364.633C680.202 362.722 678.551 361.123 676.601 361.123C674.651 361.123 673 362.722 673 364.633C673 366.544 674.651 368.156 676.601 368.156ZM676.601 366.804C675.483 366.804 674.547 365.816 674.547 364.633C674.547 363.463 675.483 362.475 676.601 362.475C677.706 362.475 678.642 363.463 678.642 364.633C678.642 365.816 677.706 366.804 676.601 366.804ZM682.989 368H684.432L685.862 363.398L687.305 368H688.748L691.01 361.279H689.424L688.033 365.868L686.525 361.279H685.199L683.704 365.868L682.3 361.279H680.714L682.989 368ZM695.845 361.123C694.961 361.123 694.181 361.552 693.765 362.176V361.279H692.179V368H693.765V363.749C693.869 363.034 694.558 362.475 695.39 362.475C696.222 362.475 696.807 363.125 696.807 364.035V368H698.341V363.723C698.341 362.202 697.314 361.123 695.845 361.123ZM702.545 368.156C704.118 368.156 705.184 367.324 705.184 366.037C705.184 364.633 703.962 364.243 702.831 363.931C701.804 363.632 701.453 363.502 701.453 363.073C701.453 362.696 701.882 362.475 702.441 362.475C703.026 362.475 703.715 362.683 704.352 363.086L705.015 361.929C704.287 361.448 703.364 361.123 702.441 361.123C700.946 361.123 699.906 361.981 699.906 363.242C699.919 364.438 700.842 364.854 702.298 365.231C703.065 365.439 703.65 365.608 703.65 366.128C703.65 366.544 703.208 366.817 702.571 366.817C701.726 366.817 700.972 366.505 700.322 366.037L699.607 367.142C700.413 367.792 701.518 368.156 702.545 368.156ZM707.368 360.265C707.862 360.265 708.265 359.836 708.265 359.355C708.265 358.874 707.862 358.458 707.368 358.458C706.861 358.458 706.458 358.874 706.458 359.355C706.458 359.836 706.861 360.265 707.368 360.265ZM706.562 368H708.148V361.279H706.562V368ZM709.628 368H715.309V366.609H711.695L715.27 362.436L715.283 361.279H709.706V362.67H713.19L709.628 366.843V368ZM717.55 360.265C718.044 360.265 718.447 359.836 718.447 359.355C718.447 358.874 718.044 358.458 717.55 358.458C717.043 358.458 716.64 358.874 716.64 359.355C716.64 359.836 717.043 360.265 717.55 360.265ZM716.744 368H718.33V361.279H716.744V368ZM723.749 361.123C722.865 361.123 722.085 361.552 721.669 362.176V361.279H720.083V368H721.669V363.749C721.773 363.034 722.462 362.475 723.294 362.475C724.126 362.475 724.711 363.125 724.711 364.035V368H726.245V363.723C726.245 362.202 725.218 361.123 723.749 361.123ZM732.972 361.279V362.28C732.491 361.565 731.62 361.123 730.671 361.123C728.929 361.123 727.642 362.436 727.642 364.308C727.642 366.18 728.929 367.506 730.671 367.506C731.633 367.506 732.439 367.077 732.972 366.362V367.233C732.972 368.247 732.14 368.884 730.814 368.884C730.021 368.884 729.215 368.611 728.747 368.182L728.162 369.339C728.825 369.859 729.891 370.236 731.048 370.236C733.102 370.236 734.558 369.014 734.558 367.285V361.279H732.972ZM731.126 366.154C730.06 366.154 729.293 365.387 729.293 364.308C729.293 363.242 730.06 362.475 731.126 362.475C732.205 362.475 732.972 363.242 732.972 364.308C732.972 365.387 732.205 366.154 731.126 366.154Z" fill="#495A67"/>
<path d="M667.487 330.121C669.247 330.121 670.149 329.142 670.149 327.943C670.149 326.612 669.115 326.095 667.674 325.754C666.387 325.446 665.639 325.171 665.639 324.39C665.639 323.697 666.321 323.081 667.256 323.081C668.048 323.081 668.796 323.444 669.423 324.049L669.951 323.378C669.258 322.74 668.422 322.3 667.3 322.3C665.848 322.3 664.77 323.246 664.77 324.456C664.77 325.765 665.727 326.238 667.245 326.59C668.565 326.898 669.28 327.217 669.28 328.02C669.28 328.702 668.686 329.34 667.52 329.34C666.464 329.34 665.683 328.889 665.045 328.251L664.506 328.922C665.265 329.67 666.244 330.121 667.487 330.121ZM674.222 330.132C675.014 330.132 675.74 329.802 676.279 329.263L675.707 328.702C675.322 329.131 674.794 329.395 674.222 329.395C673.089 329.395 672.143 328.372 672.143 327.151C672.143 325.941 673.089 324.918 674.222 324.918C674.783 324.918 675.3 325.171 675.674 325.578L676.246 325.017C675.707 324.5 674.992 324.181 674.222 324.181C672.627 324.181 671.274 325.534 671.274 327.151C671.274 328.768 672.627 330.132 674.222 330.132ZM680.25 324.181C679.447 324.181 678.71 324.621 678.38 325.226V322.311H677.555V330H678.38V326.381C678.38 325.589 679.183 324.918 680.14 324.918C680.976 324.918 681.559 325.567 681.559 326.491V330H682.384V326.381C682.384 325.094 681.504 324.181 680.25 324.181ZM686.617 329.395C685.495 329.395 684.714 328.581 684.593 327.47H689.246C689.246 325.479 688.267 324.181 686.551 324.181C685.022 324.181 683.746 325.446 683.746 327.14C683.746 328.889 685.11 330.132 686.628 330.132C687.42 330.132 688.421 329.791 688.916 329.252L688.41 328.713C688.058 329.098 687.288 329.395 686.617 329.395ZM686.584 324.918C687.717 324.918 688.322 325.71 688.432 326.733H684.604C684.758 325.633 685.572 324.918 686.584 324.918ZM695.04 322.311V325.38C694.611 324.632 693.885 324.181 692.972 324.181C691.476 324.181 690.354 325.413 690.354 327.151C690.354 328.9 691.476 330.132 692.972 330.132C693.885 330.132 694.611 329.681 695.04 328.933V330H695.865V322.311H695.04ZM693.126 329.395C692.015 329.395 691.223 328.46 691.223 327.151C691.223 325.842 692.015 324.918 693.126 324.918C694.248 324.918 695.04 325.842 695.04 327.151C695.04 328.46 694.248 329.395 693.126 329.395ZM701.614 324.313V327.932C701.614 328.724 700.811 329.395 699.854 329.395C699.018 329.395 698.435 328.746 698.435 327.822V324.313H697.61V327.932C697.61 329.219 698.49 330.132 699.744 330.132C700.547 330.132 701.284 329.692 701.614 329.087V330H702.439V324.313H701.614ZM704.12 330H704.945V322.311H704.12V330ZM709.175 329.395C708.053 329.395 707.272 328.581 707.151 327.47H711.804C711.804 325.479 710.825 324.181 709.109 324.181C707.58 324.181 706.304 325.446 706.304 327.14C706.304 328.889 707.668 330.132 709.186 330.132C709.978 330.132 710.979 329.791 711.474 329.252L710.968 328.713C710.616 329.098 709.846 329.395 709.175 329.395ZM709.142 324.918C710.275 324.918 710.88 325.71 710.99 326.733H707.162C707.316 325.633 708.13 324.918 709.142 324.918ZM717.598 322.311V325.38C717.169 324.632 716.443 324.181 715.53 324.181C714.034 324.181 712.912 325.413 712.912 327.151C712.912 328.9 714.034 330.132 715.53 330.132C716.443 330.132 717.169 329.681 717.598 328.933V330H718.423V322.311H717.598ZM715.684 329.395C714.573 329.395 713.781 328.46 713.781 327.151C713.781 325.842 714.573 324.918 715.684 324.918C716.806 324.918 717.598 325.842 717.598 327.151C717.598 328.46 716.806 329.395 715.684 329.395ZM725.669 324.181C725.119 324.181 724.437 324.324 723.623 324.731L723.953 325.402C724.47 325.138 725.042 324.885 725.614 324.885C726.846 324.885 727.154 325.765 727.154 326.535V326.744C726.571 326.557 725.922 326.425 725.306 326.425C724.085 326.425 723.073 327.184 723.073 328.317C723.073 329.439 723.953 330.132 725.152 330.132C725.9 330.132 726.747 329.78 727.154 329.109V330H727.979V326.535C727.979 325.16 727.22 324.181 725.669 324.181ZM725.295 329.406C724.492 329.406 723.876 328.988 723.876 328.284C723.876 327.602 724.591 327.118 725.438 327.118C726.054 327.118 726.637 327.206 727.154 327.349V328.218C726.934 329.021 726.043 329.406 725.295 329.406ZM732.162 329.164C732.041 329.296 731.821 329.395 731.568 329.395C731.238 329.395 730.952 329.098 730.952 328.68V325.05H732.349V324.313H730.952V322.751H730.127V324.313H729.236V325.05H730.127V328.68C730.127 329.527 730.699 330.132 731.513 330.132C731.898 330.132 732.272 330 732.569 329.769L732.162 329.164ZM739.369 330.132C740.92 330.132 742.053 329.142 742.053 327.646C742.053 326.15 740.92 325.292 739.556 325.292C738.863 325.292 738.346 325.523 737.939 325.798L738.016 323.257H741.646V322.443H737.18L737.07 326.326L737.697 326.634C738.17 326.282 738.731 326.051 739.38 326.051C740.436 326.051 741.184 326.711 741.184 327.679C741.184 328.636 740.447 329.362 739.402 329.362C738.566 329.362 737.851 328.944 737.268 328.306L736.707 328.933C737.323 329.637 738.203 330.132 739.369 330.132ZM746.482 324.181C745.569 324.181 744.843 324.632 744.414 325.38V324.313H743.589V331.892H744.414V328.933C744.843 329.681 745.569 330.132 746.482 330.132C747.978 330.132 749.1 328.9 749.1 327.151C749.1 325.413 747.978 324.181 746.482 324.181ZM746.328 329.395C745.206 329.395 744.414 328.46 744.414 327.151C744.414 325.842 745.206 324.918 746.328 324.918C747.439 324.918 748.231 325.842 748.231 327.151C748.231 328.46 747.439 329.395 746.328 329.395ZM756.675 324.181C755.817 324.181 755.069 324.654 754.838 325.391C754.53 324.654 753.859 324.181 753.001 324.181C752.253 324.181 751.637 324.555 751.351 325.149V324.313H750.526V330H751.351V326.381C751.351 325.523 751.989 324.918 752.891 324.918C753.661 324.918 754.2 325.567 754.2 326.491V330H755.025V326.381C755.025 325.523 755.663 324.918 756.565 324.918C757.335 324.918 757.874 325.567 757.874 326.491V330H758.699V326.381C758.699 325.094 757.863 324.181 756.675 324.181Z" fill="#495A67"/>
<rect x="655.5" y="309.5" width="146" height="73" rx="5.5" stroke="#004D8A"/>
<rect x="655.5" y="223.5" width="146" height="73" rx="5.5" fill="white"/>
<path d="M667.354 264.156C668.927 264.156 669.993 263.324 669.993 262.037C669.993 260.633 668.771 260.243 667.64 259.931C666.613 259.632 666.262 259.502 666.262 259.073C666.262 258.696 666.691 258.475 667.25 258.475C667.835 258.475 668.524 258.683 669.161 259.086L669.824 257.929C669.096 257.448 668.173 257.123 667.25 257.123C665.755 257.123 664.715 257.981 664.715 259.242C664.728 260.438 665.651 260.854 667.107 261.231C667.874 261.439 668.459 261.608 668.459 262.128C668.459 262.544 668.017 262.817 667.38 262.817C666.535 262.817 665.781 262.505 665.131 262.037L664.416 263.142C665.222 263.792 666.327 264.156 667.354 264.156ZM674.725 262.557C674.582 262.7 674.335 262.804 674.062 262.804C673.685 262.804 673.399 262.479 673.399 262.024V258.592H674.92V257.279H673.399V255.433H671.852V257.279H670.877V258.592H671.852V262.219C671.852 263.35 672.632 264.156 673.75 264.156C674.257 264.156 674.803 263.948 675.18 263.623L674.725 262.557ZM681.416 257.279V258.28C680.935 257.565 680.064 257.123 679.115 257.123C677.373 257.123 676.086 258.436 676.086 260.308C676.086 262.18 677.373 263.506 679.115 263.506C680.077 263.506 680.883 263.077 681.416 262.362V263.233C681.416 264.247 680.584 264.884 679.258 264.884C678.465 264.884 677.659 264.611 677.191 264.182L676.606 265.339C677.269 265.859 678.335 266.236 679.492 266.236C681.546 266.236 683.002 265.014 683.002 263.285V257.279H681.416ZM679.57 262.154C678.504 262.154 677.737 261.387 677.737 260.308C677.737 259.242 678.504 258.475 679.57 258.475C680.649 258.475 681.416 259.242 681.416 260.308C681.416 261.387 680.649 262.154 679.57 262.154ZM688.459 264H690.045V254.913H688.459V264ZM692.604 256.265C693.098 256.265 693.501 255.836 693.501 255.355C693.501 254.874 693.098 254.458 692.604 254.458C692.097 254.458 691.694 254.874 691.694 255.355C691.694 255.836 692.097 256.265 692.604 256.265ZM691.798 264H693.384V257.279H691.798V264ZM700.142 257.279V258.28C699.661 257.565 698.79 257.123 697.841 257.123C696.099 257.123 694.812 258.436 694.812 260.308C694.812 262.18 696.099 263.506 697.841 263.506C698.803 263.506 699.609 263.077 700.142 262.362V263.233C700.142 264.247 699.31 264.884 697.984 264.884C697.191 264.884 696.385 264.611 695.917 264.182L695.332 265.339C695.995 265.859 697.061 266.236 698.218 266.236C700.272 266.236 701.728 265.014 701.728 263.285V257.279H700.142ZM698.296 262.154C697.23 262.154 696.463 261.387 696.463 260.308C696.463 259.242 697.23 258.475 698.296 258.475C699.375 258.475 700.142 259.242 700.142 260.308C700.142 261.387 699.375 262.154 698.296 262.154ZM707.169 257.123C706.272 257.123 705.479 257.552 705.076 258.202V254.913H703.49V264H705.076V259.931C705.076 259.125 705.817 258.475 706.714 258.475C707.546 258.475 708.131 259.125 708.131 260.035V264H709.665V259.723C709.665 258.202 708.638 257.123 707.169 257.123ZM714.741 262.557C714.598 262.7 714.351 262.804 714.078 262.804C713.701 262.804 713.415 262.479 713.415 262.024V258.592H714.936V257.279H713.415V255.433H711.868V257.279H710.893V258.592H711.868V262.219C711.868 263.35 712.648 264.156 713.766 264.156C714.273 264.156 714.819 263.948 715.196 263.623L714.741 262.557ZM725.217 254.913V258.319C724.684 257.565 723.878 257.123 722.89 257.123C721.109 257.123 719.809 258.579 719.809 260.633C719.809 262.7 721.109 264.156 722.89 264.156C723.878 264.156 724.684 263.714 725.217 262.96V264H726.803V254.913H725.217ZM723.319 262.804C722.188 262.804 721.382 261.894 721.382 260.633C721.382 259.372 722.188 258.475 723.319 258.475C724.437 258.475 725.217 259.372 725.217 260.633C725.217 261.894 724.437 262.804 723.319 262.804ZM731.839 264.156C733.789 264.156 735.44 262.544 735.44 260.633C735.44 258.722 733.789 257.123 731.839 257.123C729.889 257.123 728.238 258.722 728.238 260.633C728.238 262.544 729.889 264.156 731.839 264.156ZM731.839 262.804C730.721 262.804 729.785 261.816 729.785 260.633C729.785 259.463 730.721 258.475 731.839 258.475C732.944 258.475 733.88 259.463 733.88 260.633C733.88 261.816 732.944 262.804 731.839 262.804ZM738.227 264H739.67L741.1 259.398L742.543 264H743.986L746.248 257.279H744.662L743.271 261.868L741.763 257.279H740.437L738.942 261.868L737.538 257.279H735.952L738.227 264ZM751.082 257.123C750.198 257.123 749.418 257.552 749.002 258.176V257.279H747.416V264H749.002V259.749C749.106 259.034 749.795 258.475 750.627 258.475C751.459 258.475 752.044 259.125 752.044 260.035V264H753.578V259.723C753.578 258.202 752.551 257.123 751.082 257.123ZM757.783 264.156C759.356 264.156 760.422 263.324 760.422 262.037C760.422 260.633 759.2 260.243 758.069 259.931C757.042 259.632 756.691 259.502 756.691 259.073C756.691 258.696 757.12 258.475 757.679 258.475C758.264 258.475 758.953 258.683 759.59 259.086L760.253 257.929C759.525 257.448 758.602 257.123 757.679 257.123C756.184 257.123 755.144 257.981 755.144 259.242C755.157 260.438 756.08 260.854 757.536 261.231C758.303 261.439 758.888 261.608 758.888 262.128C758.888 262.544 758.446 262.817 757.809 262.817C756.964 262.817 756.21 262.505 755.56 262.037L754.845 263.142C755.651 263.792 756.756 264.156 757.783 264.156ZM762.606 256.265C763.1 256.265 763.503 255.836 763.503 255.355C763.503 254.874 763.1 254.458 762.606 254.458C762.099 254.458 761.696 254.874 761.696 255.355C761.696 255.836 762.099 256.265 762.606 256.265ZM761.8 264H763.386V257.279H761.8V264ZM764.866 264H770.547V262.609H766.933L770.508 258.436L770.521 257.279H764.944V258.67H768.428L764.866 262.843V264ZM772.787 256.265C773.281 256.265 773.684 255.836 773.684 255.355C773.684 254.874 773.281 254.458 772.787 254.458C772.28 254.458 771.877 254.874 771.877 255.355C771.877 255.836 772.28 256.265 772.787 256.265ZM771.981 264H773.567V257.279H771.981V264ZM778.986 257.123C778.102 257.123 777.322 257.552 776.906 258.176V257.279H775.32V264H776.906V259.749C777.01 259.034 777.699 258.475 778.531 258.475C779.363 258.475 779.948 259.125 779.948 260.035V264H781.482V259.723C781.482 258.202 780.455 257.123 778.986 257.123ZM788.209 257.279V258.28C787.728 257.565 786.857 257.123 785.908 257.123C784.166 257.123 782.879 258.436 782.879 260.308C782.879 262.18 784.166 263.506 785.908 263.506C786.87 263.506 787.676 263.077 788.209 262.362V263.233C788.209 264.247 787.377 264.884 786.051 264.884C785.258 264.884 784.452 264.611 783.984 264.182L783.399 265.339C784.062 265.859 785.128 266.236 786.285 266.236C788.339 266.236 789.795 265.014 789.795 263.285V257.279H788.209ZM786.363 262.154C785.297 262.154 784.53 261.387 784.53 260.308C784.53 259.242 785.297 258.475 786.363 258.475C787.442 258.475 788.209 259.242 788.209 260.308C788.209 261.387 787.442 262.154 786.363 262.154ZM666.587 282H668.03L669.46 277.398L670.903 282H672.346L674.608 275.279H673.022L671.631 279.868L670.123 275.279H668.797L667.302 279.868L665.898 275.279H664.312L666.587 282ZM678.722 282.156C680.672 282.156 682.323 280.544 682.323 278.633C682.323 276.722 680.672 275.123 678.722 275.123C676.772 275.123 675.121 276.722 675.121 278.633C675.121 280.544 676.772 282.156 678.722 282.156ZM678.722 280.804C677.604 280.804 676.668 279.816 676.668 278.633C676.668 277.463 677.604 276.475 678.722 276.475C679.827 276.475 680.763 277.463 680.763 278.633C680.763 279.816 679.827 280.804 678.722 280.804ZM685.323 276.579V275.279H683.737V282H685.323V278.607C685.323 277.333 686.285 276.475 687.728 276.475V275.123C686.623 275.123 685.752 275.682 685.323 276.579ZM695.247 275.279H693.375L690.463 278.464V272.913H688.877V282H690.463V280.323L691.412 279.322L693.31 282H695.156L692.478 278.282L695.247 275.279ZM696.203 282H697.789V272.913H696.203V282ZM702.792 282.156C704.742 282.156 706.393 280.544 706.393 278.633C706.393 276.722 704.742 275.123 702.792 275.123C700.842 275.123 699.191 276.722 699.191 278.633C699.191 280.544 700.842 282.156 702.792 282.156ZM702.792 280.804C701.674 280.804 700.738 279.816 700.738 278.633C700.738 277.463 701.674 276.475 702.792 276.475C703.897 276.475 704.833 277.463 704.833 278.633C704.833 279.816 703.897 280.804 702.792 280.804ZM710.693 275.123C709.848 275.123 708.964 275.357 708.015 275.825L708.561 276.93C709.133 276.644 709.744 276.423 710.381 276.423C711.603 276.423 712.032 277.177 712.032 277.957V278.139C711.421 277.905 710.758 277.775 710.147 277.775C708.639 277.775 707.404 278.685 707.404 280.011C707.404 281.311 708.483 282.156 709.913 282.156C710.693 282.156 711.538 281.818 712.032 281.194V282H713.579V277.957C713.579 276.254 712.474 275.123 710.693 275.123ZM710.264 280.999C709.51 280.999 708.951 280.596 708.951 279.959C708.951 279.322 709.588 278.88 710.381 278.88C710.979 278.88 711.538 278.971 712.032 279.14V279.894C711.85 280.609 711.031 280.999 710.264 280.999ZM720.406 272.913V276.319C719.873 275.565 719.067 275.123 718.079 275.123C716.298 275.123 714.998 276.579 714.998 278.633C714.998 280.7 716.298 282.156 718.079 282.156C719.067 282.156 719.873 281.714 720.406 280.96V282H721.992V272.913H720.406ZM718.508 280.804C717.377 280.804 716.571 279.894 716.571 278.633C716.571 277.372 717.377 276.475 718.508 276.475C719.626 276.475 720.406 277.372 720.406 278.633C720.406 279.894 719.626 280.804 718.508 280.804ZM726.26 282.156C727.833 282.156 728.899 281.324 728.899 280.037C728.899 278.633 727.677 278.243 726.546 277.931C725.519 277.632 725.168 277.502 725.168 277.073C725.168 276.696 725.597 276.475 726.156 276.475C726.741 276.475 727.43 276.683 728.067 277.086L728.73 275.929C728.002 275.448 727.079 275.123 726.156 275.123C724.661 275.123 723.621 275.981 723.621 277.242C723.634 278.438 724.557 278.854 726.013 279.231C726.78 279.439 727.365 279.608 727.365 280.128C727.365 280.544 726.923 280.817 726.286 280.817C725.441 280.817 724.687 280.505 724.037 280.037L723.322 281.142C724.128 281.792 725.233 282.156 726.26 282.156Z" fill="#495A67"/>
<path d="M667.487 244.121C669.247 244.121 670.149 243.142 670.149 241.943C670.149 240.612 669.115 240.095 667.674 239.754C666.387 239.446 665.639 239.171 665.639 238.39C665.639 237.697 666.321 237.081 667.256 237.081C668.048 237.081 668.796 237.444 669.423 238.049L669.951 237.378C669.258 236.74 668.422 236.3 667.3 236.3C665.848 236.3 664.77 237.246 664.77 238.456C664.77 239.765 665.727 240.238 667.245 240.59C668.565 240.898 669.28 241.217 669.28 242.02C669.28 242.702 668.686 243.34 667.52 243.34C666.464 243.34 665.683 242.889 665.045 242.251L664.506 242.922C665.265 243.67 666.244 244.121 667.487 244.121ZM674.222 244.132C675.014 244.132 675.74 243.802 676.279 243.263L675.707 242.702C675.322 243.131 674.794 243.395 674.222 243.395C673.089 243.395 672.143 242.372 672.143 241.151C672.143 239.941 673.089 238.918 674.222 238.918C674.783 238.918 675.3 239.171 675.674 239.578L676.246 239.017C675.707 238.5 674.992 238.181 674.222 238.181C672.627 238.181 671.274 239.534 671.274 241.151C671.274 242.768 672.627 244.132 674.222 244.132ZM680.25 238.181C679.447 238.181 678.71 238.621 678.38 239.226V236.311H677.555V244H678.38V240.381C678.38 239.589 679.183 238.918 680.14 238.918C680.976 238.918 681.559 239.567 681.559 240.491V244H682.384V240.381C682.384 239.094 681.504 238.181 680.25 238.181ZM686.617 243.395C685.495 243.395 684.714 242.581 684.593 241.47H689.246C689.246 239.479 688.267 238.181 686.551 238.181C685.022 238.181 683.746 239.446 683.746 241.14C683.746 242.889 685.11 244.132 686.628 244.132C687.42 244.132 688.421 243.791 688.916 243.252L688.41 242.713C688.058 243.098 687.288 243.395 686.617 243.395ZM686.584 238.918C687.717 238.918 688.322 239.71 688.432 240.733H684.604C684.758 239.633 685.572 238.918 686.584 238.918ZM695.04 236.311V239.38C694.611 238.632 693.885 238.181 692.972 238.181C691.476 238.181 690.354 239.413 690.354 241.151C690.354 242.9 691.476 244.132 692.972 244.132C693.885 244.132 694.611 243.681 695.04 242.933V244H695.865V236.311H695.04ZM693.126 243.395C692.015 243.395 691.223 242.46 691.223 241.151C691.223 239.842 692.015 238.918 693.126 238.918C694.248 238.918 695.04 239.842 695.04 241.151C695.04 242.46 694.248 243.395 693.126 243.395ZM701.614 238.313V241.932C701.614 242.724 700.811 243.395 699.854 243.395C699.018 243.395 698.435 242.746 698.435 241.822V238.313H697.61V241.932C697.61 243.219 698.49 244.132 699.744 244.132C700.547 244.132 701.284 243.692 701.614 243.087V244H702.439V238.313H701.614ZM704.12 244H704.945V236.311H704.12V244ZM709.175 243.395C708.053 243.395 707.272 242.581 707.151 241.47H711.804C711.804 239.479 710.825 238.181 709.109 238.181C707.58 238.181 706.304 239.446 706.304 241.14C706.304 242.889 707.668 244.132 709.186 244.132C709.978 244.132 710.979 243.791 711.474 243.252L710.968 242.713C710.616 243.098 709.846 243.395 709.175 243.395ZM709.142 238.918C710.275 238.918 710.88 239.71 710.99 240.733H707.162C707.316 239.633 708.13 238.918 709.142 238.918ZM717.598 236.311V239.38C717.169 238.632 716.443 238.181 715.53 238.181C714.034 238.181 712.912 239.413 712.912 241.151C712.912 242.9 714.034 244.132 715.53 244.132C716.443 244.132 717.169 243.681 717.598 242.933V244H718.423V236.311H717.598ZM715.684 243.395C714.573 243.395 713.781 242.46 713.781 241.151C713.781 239.842 714.573 238.918 715.684 238.918C716.806 238.918 717.598 239.842 717.598 241.151C717.598 242.46 716.806 243.395 715.684 243.395ZM725.669 238.181C725.119 238.181 724.437 238.324 723.623 238.731L723.953 239.402C724.47 239.138 725.042 238.885 725.614 238.885C726.846 238.885 727.154 239.765 727.154 240.535V240.744C726.571 240.557 725.922 240.425 725.306 240.425C724.085 240.425 723.073 241.184 723.073 242.317C723.073 243.439 723.953 244.132 725.152 244.132C725.9 244.132 726.747 243.78 727.154 243.109V244H727.979V240.535C727.979 239.16 727.22 238.181 725.669 238.181ZM725.295 243.406C724.492 243.406 723.876 242.988 723.876 242.284C723.876 241.602 724.591 241.118 725.438 241.118C726.054 241.118 726.637 241.206 727.154 241.349V242.218C726.934 243.021 726.043 243.406 725.295 243.406ZM732.162 243.164C732.041 243.296 731.821 243.395 731.568 243.395C731.238 243.395 730.952 243.098 730.952 242.68V239.05H732.349V238.313H730.952V236.751H730.127V238.313H729.236V239.05H730.127V242.68C730.127 243.527 730.699 244.132 731.513 244.132C731.898 244.132 732.272 244 732.569 243.769L732.162 243.164ZM739.369 244.132C740.92 244.132 742.053 243.142 742.053 241.646C742.053 240.15 740.92 239.292 739.556 239.292C738.863 239.292 738.346 239.523 737.939 239.798L738.016 237.257H741.646V236.443H737.18L737.07 240.326L737.697 240.634C738.17 240.282 738.731 240.051 739.38 240.051C740.436 240.051 741.184 240.711 741.184 241.679C741.184 242.636 740.447 243.362 739.402 243.362C738.566 243.362 737.851 242.944 737.268 242.306L736.707 242.933C737.323 243.637 738.203 244.132 739.369 244.132ZM746.482 238.181C745.569 238.181 744.843 238.632 744.414 239.38V238.313H743.589V245.892H744.414V242.933C744.843 243.681 745.569 244.132 746.482 244.132C747.978 244.132 749.1 242.9 749.1 241.151C749.1 239.413 747.978 238.181 746.482 238.181ZM746.328 243.395C745.206 243.395 744.414 242.46 744.414 241.151C744.414 239.842 745.206 238.918 746.328 238.918C747.439 238.918 748.231 239.842 748.231 241.151C748.231 242.46 747.439 243.395 746.328 243.395ZM756.675 238.181C755.817 238.181 755.069 238.654 754.838 239.391C754.53 238.654 753.859 238.181 753.001 238.181C752.253 238.181 751.637 238.555 751.351 239.149V238.313H750.526V244H751.351V240.381C751.351 239.523 751.989 238.918 752.891 238.918C753.661 238.918 754.2 239.567 754.2 240.491V244H755.025V240.381C755.025 239.523 755.663 238.918 756.565 238.918C757.335 238.918 757.874 239.567 757.874 240.491V244H758.699V240.381C758.699 239.094 757.863 238.181 756.675 238.181Z" fill="#495A67"/>
<rect x="784.5" y="218.938" width="21" height="17.2456" rx="5.5" fill="#FAFAFA" stroke="#0079B8"/>
<path fill-rule="evenodd" clip-rule="evenodd" d="M792.057 224.901C791.476 224.901 791.004 225.435 791 226.098V227.611L790.333 228.417V226.098C790.337 225.016 791.107 224.14 792.057 224.14H798.467L797.04 222.415C796.958 222.315 796.929 222.174 796.964 222.044C796.998 221.914 797.091 221.815 797.207 221.784C797.323 221.753 797.445 221.795 797.527 221.894L799.697 224.52L797.527 227.147C797.445 227.246 797.323 227.288 797.207 227.257C797.091 227.226 796.998 227.127 796.964 226.997C796.929 226.867 796.958 226.725 797.04 226.626L798.467 224.901H792.057ZM797.943 230.222C798.524 230.222 798.996 229.687 799 229.025V227.512L799.667 226.706V229.025C799.663 230.107 798.892 230.982 797.943 230.982H791.533L792.96 232.708C793.041 232.807 793.07 232.949 793.036 233.079C793.001 233.209 792.909 233.308 792.793 233.339C792.677 233.37 792.555 233.328 792.473 233.229L790.303 230.602L792.473 227.976C792.555 227.877 792.677 227.835 792.793 227.866C792.909 227.897 793.001 227.996 793.036 228.126C793.07 228.256 793.041 228.397 792.96 228.496L791.533 230.222H797.943Z" fill="#0079B8"/>
<rect x="655.5" y="223.5" width="146" height="73" rx="5.5" stroke="#004D8A"/>
<path d="M659.438 439.154C661.678 439.154 662.826 437.908 662.826 436.382C662.826 434.688 661.51 434.03 659.676 433.596C658.038 433.204 657.086 432.854 657.086 431.86C657.086 430.978 657.954 430.194 659.144 430.194C660.152 430.194 661.104 430.656 661.902 431.426L662.574 430.572C661.692 429.76 660.628 429.2 659.2 429.2C657.352 429.2 655.98 430.404 655.98 431.944C655.98 433.61 657.198 434.212 659.13 434.66C660.81 435.052 661.72 435.458 661.72 436.48C661.72 437.348 660.964 438.16 659.48 438.16C658.136 438.16 657.142 437.586 656.33 436.774L655.644 437.628C656.61 438.58 657.856 439.154 659.438 439.154ZM668.094 431.594C667.072 431.594 666.134 432.154 665.714 432.924V429.214H664.664V439H665.714V434.394C665.714 433.386 666.736 432.532 667.954 432.532C669.018 432.532 669.76 433.358 669.76 434.534V439H670.81V434.394C670.81 432.756 669.69 431.594 668.094 431.594ZM676.295 439.168C678.325 439.168 680.033 437.432 680.033 435.374C680.033 433.316 678.325 431.594 676.295 431.594C674.265 431.594 672.543 433.316 672.543 435.374C672.543 437.432 674.265 439.168 676.295 439.168ZM676.295 438.23C674.853 438.23 673.649 436.928 673.649 435.374C673.649 433.834 674.853 432.532 676.295 432.532C677.723 432.532 678.927 433.834 678.927 435.374C678.927 436.928 677.723 438.23 676.295 438.23ZM683.342 439H684.336L686.282 433.218L688.2 439H689.194L691.63 431.762H690.51L688.704 437.6L686.73 431.762H685.82L683.846 437.6L682.04 431.762H680.92L683.342 439ZM700.212 439.168C702.214 439.168 703.558 438.006 703.558 436.396C703.558 435.01 702.466 434.296 701.486 434.072C702.48 433.778 703.348 433.05 703.348 431.818C703.348 430.278 702.004 429.214 700.17 429.214C698.672 429.214 697.608 429.942 696.88 430.908L697.608 431.566C698.294 430.74 699.05 430.208 700.114 430.208C701.318 430.208 702.242 430.936 702.242 431.944C702.242 433.036 701.276 433.652 699.988 433.638L698.952 433.624V434.632H699.974C701.486 434.632 702.452 435.206 702.452 436.34C702.452 437.432 701.556 438.174 700.212 438.174C699.036 438.174 698.098 437.614 697.468 436.802L696.712 437.516C697.412 438.44 698.63 439.168 700.212 439.168ZM709.732 439H710.824V431.734L714.394 438.44L717.964 431.734V439H719.056V429.382H717.964L714.394 436.088L710.824 429.382H709.732V439ZM724.789 439.168C726.819 439.168 728.527 437.432 728.527 435.374C728.527 433.316 726.819 431.594 724.789 431.594C722.759 431.594 721.037 433.316 721.037 435.374C721.037 437.432 722.759 439.168 724.789 439.168ZM724.789 438.23C723.347 438.23 722.143 436.928 722.143 435.374C722.143 433.834 723.347 432.532 724.789 432.532C726.217 432.532 727.421 433.834 727.421 435.374C727.421 436.928 726.217 438.23 724.789 438.23ZM731.409 433.176V431.762H730.359V439H731.409V434.954C731.409 433.54 732.571 432.532 734.209 432.532V431.594C732.879 431.594 731.843 432.21 731.409 433.176ZM738.924 438.23C737.496 438.23 736.502 437.194 736.348 435.78H742.27C742.27 433.246 741.024 431.594 738.84 431.594C736.894 431.594 735.27 433.204 735.27 435.36C735.27 437.586 737.006 439.168 738.938 439.168C739.946 439.168 741.22 438.734 741.85 438.048L741.206 437.362C740.758 437.852 739.778 438.23 738.924 438.23ZM738.882 432.532C740.324 432.532 741.094 433.54 741.234 434.842H736.362C736.558 433.442 737.594 432.532 738.882 432.532Z" fill="#0079B8"/>
<path d="M757.74 440.76L763.7 435L757.74 429.24C757.402 428.914 756.864 428.924 756.538 429.263C756.212 429.601 756.222 430.139 756.56 430.465L761.255 435L756.56 439.54C756.222 439.866 756.212 440.404 756.538 440.743C756.864 441.081 757.402 441.091 757.74 440.765L757.74 440.76Z" fill="#737373"/>
</g>
<defs>
<filter id="filter0_d" x="17" y="14" width="1124" height="447" filterUnits="userSpaceOnUse" color-interpolation-filters="sRGB">
<feFlood flood-opacity="0" result="BackgroundImageFix"/>
<feColorMatrix in="SourceAlpha" type="matrix" values="0 0 0 0 0 0 0 0 0 0 0 0 0 0 0 0 0 0 127 0"/>
<feOffset dy="3"/>
<feColorMatrix type="matrix" values="0 0 0 0 0.843137 0 0 0 0 0.843137 0 0 0 0 0.843137 0 0 0 1 0"/>
<feBlend mode="normal" in2="BackgroundImageFix" result="effect1_dropShadow"/>
<feBlend mode="normal" in="SourceGraphic" in2="effect1_dropShadow" result="shape"/>
</filter>
<linearGradient id="paint0_linear" x1="415" y1="457" x2="409.409" y2="57.4109" gradientUnits="userSpaceOnUse">
<stop stop-color="#F3F6FA"/>
<stop offset="1" stop-color="#F3F6FA" stop-opacity="0"/>
</linearGradient>
<clipPath id="clip0">
<rect width="1156" height="476" fill="white"/>
</clipPath>
</defs>
</svg>
