<svg width="782" height="258" viewBox="0 0 782 258" fill="none" xmlns="http://www.w3.org/2000/svg">
<g clip-path="url(#clip0)">
<rect width="782" height="258" fill="#FAFAFA"/>
<rect x="-335.5" y="-47.5" width="1126" height="432" rx="5.5" fill="white" stroke="#CCCCCC"/>
<path d="M22.072 35.176C24.632 35.176 25.944 33.752 25.944 32.008C25.944 30.072 24.44 29.32 22.344 28.824C20.472 28.376 19.384 27.976 19.384 26.84C19.384 25.832 20.376 24.936 21.736 24.936C22.888 24.936 23.976 25.464 24.888 26.344L25.656 25.368C24.648 24.44 23.432 23.8 21.8 23.8C19.688 23.8 18.12 25.176 18.12 26.936C18.12 28.84 19.512 29.528 21.72 30.04C23.64 30.488 24.68 30.952 24.68 32.12C24.68 33.112 23.816 34.04 22.12 34.04C20.584 34.04 19.448 33.384 18.52 32.456L17.736 33.432C18.84 34.52 20.264 35.176 22.072 35.176ZM31.7565 34.12C30.1245 34.12 28.9885 32.936 28.8125 31.32H35.5805C35.5805 28.424 34.1565 26.536 31.6605 26.536C29.4365 26.536 27.5805 28.376 27.5805 30.84C27.5805 33.384 29.5645 35.192 31.7725 35.192C32.9245 35.192 34.3805 34.696 35.1005 33.912L34.3645 33.128C33.8525 33.688 32.7325 34.12 31.7565 34.12ZM31.7085 27.608C33.3565 27.608 34.2365 28.76 34.3965 30.248H28.8285C29.0525 28.648 30.2365 27.608 31.7085 27.608ZM41.1761 33.784C41.0001 33.976 40.6801 34.12 40.3121 34.12C39.8321 34.12 39.4161 33.688 39.4161 33.08V27.8H41.4481V26.728H39.4161V24.456H38.2161V26.728H36.9201V27.8H38.2161V33.08C38.2161 34.312 39.0481 35.192 40.2321 35.192C40.7921 35.192 41.3361 35 41.7681 34.664L41.1761 33.784ZM57.0986 35H58.4586L53.6106 24.008H52.2506L47.4026 35H48.7626L49.8666 32.504H55.9946L57.0986 35ZM50.3786 31.32L52.9386 25.544L55.4826 31.32H50.3786ZM66.0088 26.728V31.992C66.0088 33.144 64.8408 34.12 63.4488 34.12C62.2328 34.12 61.3848 33.176 61.3848 31.832V26.728H60.1848V31.992C60.1848 33.864 61.4648 35.192 63.2888 35.192C64.4568 35.192 65.5288 34.552 66.0088 33.672V35H67.2088V26.728H66.0088ZM73.2855 33.784C73.1095 33.976 72.7895 34.12 72.4215 34.12C71.9415 34.12 71.5255 33.688 71.5255 33.08V27.8H73.5575V26.728H71.5255V24.456H70.3255V26.728H69.0295V27.8H70.3255V33.08C70.3255 34.312 71.1575 35.192 72.3415 35.192C72.9015 35.192 73.4455 35 73.8775 34.664L73.2855 33.784ZM79.4154 35.192C81.7354 35.192 83.6874 33.208 83.6874 30.856C83.6874 28.504 81.7354 26.536 79.4154 26.536C77.0954 26.536 75.1274 28.504 75.1274 30.856C75.1274 33.208 77.0954 35.192 79.4154 35.192ZM79.4154 34.12C77.7674 34.12 76.3914 32.632 76.3914 30.856C76.3914 29.096 77.7674 27.608 79.4154 27.608C81.0474 27.608 82.4234 29.096 82.4234 30.856C82.4234 32.632 81.0474 34.12 79.4154 34.12ZM94.6131 26.536C93.3651 26.536 92.2771 27.224 91.9411 28.296C91.4931 27.224 90.5171 26.536 89.2691 26.536C88.1811 26.536 87.2851 27.08 86.8691 27.944V26.728H85.6691V35H86.8691V29.736C86.8691 28.488 87.7971 27.608 89.1091 27.608C90.2291 27.608 91.0131 28.552 91.0131 29.896V35H92.2131V29.736C92.2131 28.488 93.1411 27.608 94.4531 27.608C95.5731 27.608 96.3571 28.552 96.3571 29.896V35H97.5571V29.736C97.5571 27.864 96.3411 26.536 94.6131 26.536ZM103.342 26.536C102.542 26.536 101.55 26.744 100.366 27.336L100.846 28.312C101.598 27.928 102.43 27.56 103.262 27.56C105.054 27.56 105.502 28.84 105.502 29.96V30.264C104.654 29.992 103.71 29.8 102.814 29.8C101.038 29.8 99.5656 30.904 99.5656 32.552C99.5656 34.184 100.846 35.192 102.59 35.192C103.678 35.192 104.91 34.68 105.502 33.704V35H106.702V29.96C106.702 27.96 105.598 26.536 103.342 26.536ZM102.798 34.136C101.63 34.136 100.734 33.528 100.734 32.504C100.734 31.512 101.774 30.808 103.006 30.808C103.902 30.808 104.75 30.936 105.502 31.144V32.408C105.182 33.576 103.886 34.136 102.798 34.136ZM112.786 33.784C112.61 33.976 112.29 34.12 111.922 34.12C111.442 34.12 111.026 33.688 111.026 33.08V27.8H113.058V26.728H111.026V24.456H109.826V26.728H108.53V27.8H109.826V33.08C109.826 34.312 110.658 35.192 111.842 35.192C112.402 35.192 112.946 35 113.378 34.664L112.786 33.784ZM115.667 25.224C116.099 25.224 116.451 24.856 116.451 24.424C116.451 24.008 116.099 23.64 115.667 23.64C115.219 23.64 114.867 24.008 114.867 24.424C114.867 24.856 115.219 25.224 115.667 25.224ZM115.059 35H116.259V26.728H115.059V35ZM122.509 35.192C124.829 35.192 126.781 33.208 126.781 30.856C126.781 28.504 124.829 26.536 122.509 26.536C120.189 26.536 118.221 28.504 118.221 30.856C118.221 33.208 120.189 35.192 122.509 35.192ZM122.509 34.12C120.861 34.12 119.485 32.632 119.485 30.856C119.485 29.096 120.861 27.608 122.509 27.608C124.141 27.608 125.517 29.096 125.517 30.856C125.517 32.632 124.141 34.12 122.509 34.12ZM132.699 26.536C131.531 26.536 130.459 27.176 129.979 28.056V26.728H128.779V35H129.979V29.736C129.979 28.584 131.147 27.608 132.539 27.608C133.755 27.608 134.603 28.552 134.603 29.896V35H135.803V29.736C135.803 27.864 134.523 26.536 132.699 26.536ZM148.12 35.192C149.64 35.192 151.048 34.536 152.072 33.512L151.224 32.648C150.424 33.496 149.32 34.04 148.12 34.04C145.752 34.04 143.752 31.96 143.752 29.496C143.752 27.048 145.752 24.968 148.12 24.968C149.32 24.968 150.424 25.512 151.224 26.36L152.072 25.496C151.048 24.456 149.64 23.816 148.12 23.816C145.08 23.816 142.488 26.408 142.488 29.496C142.488 32.584 145.08 35.192 148.12 35.192ZM157.587 35.192C159.907 35.192 161.859 33.208 161.859 30.856C161.859 28.504 159.907 26.536 157.587 26.536C155.267 26.536 153.299 28.504 153.299 30.856C153.299 33.208 155.267 35.192 157.587 35.192ZM157.587 34.12C155.939 34.12 154.563 32.632 154.563 30.856C154.563 29.096 155.939 27.608 157.587 27.608C159.219 27.608 160.595 29.096 160.595 30.856C160.595 32.632 159.219 34.12 157.587 34.12ZM167.777 26.536C166.609 26.536 165.537 27.176 165.057 28.056V26.728H163.857V35H165.057V29.736C165.057 28.584 166.225 27.608 167.617 27.608C168.833 27.608 169.681 28.552 169.681 29.896V35H170.881V29.736C170.881 27.864 169.601 26.536 167.777 26.536ZM179.774 23.816V28.28C179.15 27.192 178.094 26.536 176.766 26.536C174.59 26.536 172.958 28.328 172.958 30.856C172.958 33.4 174.59 35.192 176.766 35.192C178.094 35.192 179.15 34.536 179.774 33.448V35H180.974V23.816H179.774ZM176.99 34.12C175.374 34.12 174.222 32.76 174.222 30.856C174.222 28.952 175.374 27.608 176.99 27.608C178.622 27.608 179.774 28.952 179.774 30.856C179.774 32.76 178.622 34.12 176.99 34.12ZM184.105 25.224C184.537 25.224 184.889 24.856 184.889 24.424C184.889 24.008 184.537 23.64 184.105 23.64C183.657 23.64 183.305 24.008 183.305 24.424C183.305 24.856 183.657 25.224 184.105 25.224ZM183.497 35H184.697V26.728H183.497V35ZM190.739 33.784C190.563 33.976 190.243 34.12 189.875 34.12C189.395 34.12 188.979 33.688 188.979 33.08V27.8H191.011V26.728H188.979V24.456H187.779V26.728H186.483V27.8H187.779V33.08C187.779 34.312 188.611 35.192 189.795 35.192C190.355 35.192 190.899 35 191.331 34.664L190.739 33.784ZM193.621 25.224C194.053 25.224 194.405 24.856 194.405 24.424C194.405 24.008 194.053 23.64 193.621 23.64C193.173 23.64 192.821 24.008 192.821 24.424C192.821 24.856 193.173 25.224 193.621 25.224ZM193.013 35H194.213V26.728H193.013V35ZM200.462 35.192C202.782 35.192 204.734 33.208 204.734 30.856C204.734 28.504 202.782 26.536 200.462 26.536C198.142 26.536 196.174 28.504 196.174 30.856C196.174 33.208 198.142 35.192 200.462 35.192ZM200.462 34.12C198.814 34.12 197.438 32.632 197.438 30.856C197.438 29.096 198.814 27.608 200.462 27.608C202.094 27.608 203.47 29.096 203.47 30.856C203.47 32.632 202.094 34.12 200.462 34.12ZM210.652 26.536C209.484 26.536 208.412 27.176 207.932 28.056V26.728H206.732V35H207.932V29.736C207.932 28.584 209.1 27.608 210.492 27.608C211.708 27.608 212.556 28.552 212.556 29.896V35H213.756V29.736C213.756 27.864 212.476 26.536 210.652 26.536ZM219.113 35.192C220.825 35.192 222.137 34.216 222.137 32.696C222.137 31.128 220.761 30.68 219.433 30.264C217.897 29.768 217.289 29.544 217.289 28.824C217.289 28.024 218.057 27.608 218.985 27.608C219.721 27.608 220.537 27.864 221.369 28.392L221.945 27.464C221.065 26.888 220.009 26.536 218.985 26.536C217.337 26.536 216.089 27.464 216.089 28.968C216.089 30.152 216.857 30.744 218.857 31.32C219.977 31.64 220.937 31.928 220.937 32.824C220.937 33.608 220.201 34.12 219.113 34.12C218.201 34.12 217.257 33.768 216.313 33.08L215.689 33.96C216.681 34.76 217.961 35.192 219.113 35.192Z" fill="#565656"/>
<path fill-rule="evenodd" clip-rule="evenodd" d="M244 22C239.582 22 236 25.5817 236 30C236 34.4183 239.582 38 244 38C248.418 38 252 34.4183 252 30C252 27.8783 251.157 25.8434 249.657 24.3431C248.157 22.8429 246.122 22 244 22ZM244 37C240.134 37 237 33.866 237 30C237 26.134 240.134 23 244 23C247.866 23 251 26.134 251 30C251 31.8565 250.263 33.637 248.95 34.9497C247.637 36.2625 245.857 37 244 37ZM244.5 29.5H248.085C248.361 29.5 248.585 29.7239 248.585 30C248.585 30.2761 248.361 30.5 248.085 30.5H244.5V34.085C244.5 34.3611 244.276 34.585 244 34.585C243.724 34.585 243.5 34.3611 243.5 34.085V30.5H239.915C239.639 30.5 239.415 30.2761 239.415 30C239.415 29.7239 239.639 29.5 239.915 29.5H243.5V25.915C243.5 25.6389 243.724 25.415 244 25.415C244.276 25.415 244.5 25.6389 244.5 25.915V29.5Z" fill="#0079B8"/>
<path d="M267.294 34H268.399L264.46 25.069H263.355L259.416 34H260.521L261.418 31.972H266.397L267.294 34ZM261.834 31.01L263.914 26.317L265.981 31.01H261.834ZM275.053 24.913V28.54C274.546 27.656 273.688 27.123 272.609 27.123C270.841 27.123 269.515 28.579 269.515 30.633C269.515 32.7 270.841 34.156 272.609 34.156C273.688 34.156 274.546 33.623 275.053 32.739V34H276.028V24.913H275.053ZM272.791 33.285C271.478 33.285 270.542 32.18 270.542 30.633C270.542 29.086 271.478 27.994 272.791 27.994C274.117 27.994 275.053 29.086 275.053 30.633C275.053 32.18 274.117 33.285 272.791 33.285ZM283.344 24.913V28.54C282.837 27.656 281.979 27.123 280.9 27.123C279.132 27.123 277.806 28.579 277.806 30.633C277.806 32.7 279.132 34.156 280.9 34.156C281.979 34.156 282.837 33.623 283.344 32.739V34H284.319V24.913H283.344ZM281.082 33.285C279.769 33.285 278.833 32.18 278.833 30.633C278.833 29.086 279.769 27.994 281.082 27.994C282.408 27.994 283.344 29.086 283.344 30.633C283.344 32.18 282.408 33.285 281.082 33.285ZM290.386 34H291.4V26.733L296.938 34H297.952V25.069H296.938V32.336L291.4 25.069H290.386V34ZM303.185 33.285C301.859 33.285 300.936 32.323 300.793 31.01H306.292C306.292 28.657 305.135 27.123 303.107 27.123C301.3 27.123 299.792 28.618 299.792 30.62C299.792 32.687 301.404 34.156 303.198 34.156C304.134 34.156 305.317 33.753 305.902 33.116L305.304 32.479C304.888 32.934 303.978 33.285 303.185 33.285ZM303.146 27.994C304.485 27.994 305.2 28.93 305.33 30.139H300.806C300.988 28.839 301.95 27.994 303.146 27.994ZM309.273 34H310.196L312.003 28.631L313.784 34H314.707L316.969 27.279H315.929L314.252 32.7L312.419 27.279H311.574L309.741 32.7L308.064 27.279H307.024L309.273 34ZM326.421 34.156C327.656 34.156 328.8 33.623 329.632 32.791L328.943 32.089C328.293 32.778 327.396 33.22 326.421 33.22C324.497 33.22 322.872 31.53 322.872 29.528C322.872 27.539 324.497 25.849 326.421 25.849C327.396 25.849 328.293 26.291 328.943 26.98L329.632 26.278C328.8 25.433 327.656 24.913 326.421 24.913C323.951 24.913 321.845 27.019 321.845 29.528C321.845 32.037 323.951 34.156 326.421 34.156ZM334.113 34.156C335.998 34.156 337.584 32.544 337.584 30.633C337.584 28.722 335.998 27.123 334.113 27.123C332.228 27.123 330.629 28.722 330.629 30.633C330.629 32.544 332.228 34.156 334.113 34.156ZM334.113 33.285C332.774 33.285 331.656 32.076 331.656 30.633C331.656 29.203 332.774 27.994 334.113 27.994C335.439 27.994 336.557 29.203 336.557 30.633C336.557 32.076 335.439 33.285 334.113 33.285ZM342.392 27.123C341.443 27.123 340.572 27.643 340.182 28.358V27.279H339.207V34H340.182V29.723C340.182 28.787 341.131 27.994 342.262 27.994C343.25 27.994 343.939 28.761 343.939 29.853V34H344.914V29.723C344.914 28.202 343.874 27.123 342.392 27.123ZM352.139 24.913V28.54C351.632 27.656 350.774 27.123 349.695 27.123C347.927 27.123 346.601 28.579 346.601 30.633C346.601 32.7 347.927 34.156 349.695 34.156C350.774 34.156 351.632 33.623 352.139 32.739V34H353.114V24.913H352.139ZM349.877 33.285C348.564 33.285 347.628 32.18 347.628 30.633C347.628 29.086 348.564 27.994 349.877 27.994C351.203 27.994 352.139 29.086 352.139 30.633C352.139 32.18 351.203 33.285 349.877 33.285ZM355.658 26.057C356.009 26.057 356.295 25.758 356.295 25.407C356.295 25.069 356.009 24.77 355.658 24.77C355.294 24.77 355.008 25.069 355.008 25.407C355.008 25.758 355.294 26.057 355.658 26.057ZM355.164 34H356.139V27.279H355.164V34ZM361.048 33.012C360.905 33.168 360.645 33.285 360.346 33.285C359.956 33.285 359.618 32.934 359.618 32.44V28.15H361.269V27.279H359.618V25.433H358.643V27.279H357.59V28.15H358.643V32.44C358.643 33.441 359.319 34.156 360.281 34.156C360.736 34.156 361.178 34 361.529 33.727L361.048 33.012ZM363.39 26.057C363.741 26.057 364.027 25.758 364.027 25.407C364.027 25.069 363.741 24.77 363.39 24.77C363.026 24.77 362.74 25.069 362.74 25.407C362.74 25.758 363.026 26.057 363.39 26.057ZM362.896 34H363.871V27.279H362.896V34ZM368.949 34.156C370.834 34.156 372.42 32.544 372.42 30.633C372.42 28.722 370.834 27.123 368.949 27.123C367.064 27.123 365.465 28.722 365.465 30.633C365.465 32.544 367.064 34.156 368.949 34.156ZM368.949 33.285C367.61 33.285 366.492 32.076 366.492 30.633C366.492 29.203 367.61 27.994 368.949 27.994C370.275 27.994 371.393 29.203 371.393 30.633C371.393 32.076 370.275 33.285 368.949 33.285ZM377.228 27.123C376.279 27.123 375.408 27.643 375.018 28.358V27.279H374.043V34H375.018V29.723C375.018 28.787 375.967 27.994 377.098 27.994C378.086 27.994 378.775 28.761 378.775 29.853V34H379.75V29.723C379.75 28.202 378.71 27.123 377.228 27.123Z" fill="#0079B8"/>
<path d="M201.487 139.121C203.247 139.121 204.149 138.142 204.149 136.943C204.149 135.612 203.115 135.095 201.674 134.754C200.387 134.446 199.639 134.171 199.639 133.39C199.639 132.697 200.321 132.081 201.256 132.081C202.048 132.081 202.796 132.444 203.423 133.049L203.951 132.378C203.258 131.74 202.422 131.3 201.3 131.3C199.848 131.3 198.77 132.246 198.77 133.456C198.77 134.765 199.727 135.238 201.245 135.59C202.565 135.898 203.28 136.217 203.28 137.02C203.28 137.702 202.686 138.34 201.52 138.34C200.464 138.34 199.683 137.889 199.045 137.251L198.506 137.922C199.265 138.67 200.244 139.121 201.487 139.121ZM208.145 138.395C207.023 138.395 206.242 137.581 206.121 136.47H210.774C210.774 134.479 209.795 133.181 208.079 133.181C206.55 133.181 205.274 134.446 205.274 136.14C205.274 137.889 206.638 139.132 208.156 139.132C208.948 139.132 209.949 138.791 210.444 138.252L209.938 137.713C209.586 138.098 208.816 138.395 208.145 138.395ZM208.112 133.918C209.245 133.918 209.85 134.71 209.96 135.733H206.132C206.286 134.633 207.1 133.918 208.112 133.918ZM212.124 139H212.949V131.311H212.124V139ZM217.179 138.395C216.057 138.395 215.276 137.581 215.155 136.47H219.808C219.808 134.479 218.829 133.181 217.113 133.181C215.584 133.181 214.308 134.446 214.308 136.14C214.308 137.889 215.672 139.132 217.19 139.132C217.982 139.132 218.983 138.791 219.478 138.252L218.972 137.713C218.62 138.098 217.85 138.395 217.179 138.395ZM217.146 133.918C218.279 133.918 218.884 134.71 218.994 135.733H215.166C215.32 134.633 216.134 133.918 217.146 133.918ZM223.798 139.132C224.59 139.132 225.316 138.802 225.855 138.263L225.283 137.702C224.898 138.131 224.37 138.395 223.798 138.395C222.665 138.395 221.719 137.372 221.719 136.151C221.719 134.941 222.665 133.918 223.798 133.918C224.359 133.918 224.876 134.171 225.25 134.578L225.822 134.017C225.283 133.5 224.568 133.181 223.798 133.181C222.203 133.181 220.85 134.534 220.85 136.151C220.85 137.768 222.203 139.132 223.798 139.132ZM229.617 138.164C229.496 138.296 229.276 138.395 229.023 138.395C228.693 138.395 228.407 138.098 228.407 137.68V134.05H229.804V133.313H228.407V131.751H227.582V133.313H226.691V134.05H227.582V137.68C227.582 138.527 228.154 139.132 228.968 139.132C229.353 139.132 229.727 139 230.024 138.769L229.617 138.164ZM234.415 139H235.273V136.283H237.484C239.046 136.283 240.267 135.282 240.267 133.863C240.267 132.444 239.046 131.443 237.484 131.443H234.415V139ZM235.273 135.469V132.257H237.33C238.562 132.257 239.398 132.851 239.398 133.863C239.398 134.875 238.562 135.469 237.33 135.469H235.273ZM242.363 134.424V133.313H241.538V139H242.363V135.821C242.363 134.71 243.276 133.918 244.563 133.918V133.181C243.518 133.181 242.704 133.665 242.363 134.424ZM248.162 139.132C249.757 139.132 251.099 137.768 251.099 136.151C251.099 134.534 249.757 133.181 248.162 133.181C246.567 133.181 245.214 134.534 245.214 136.151C245.214 137.768 246.567 139.132 248.162 139.132ZM248.162 138.395C247.029 138.395 246.083 137.372 246.083 136.151C246.083 134.941 247.029 133.918 248.162 133.918C249.284 133.918 250.23 134.941 250.23 136.151C250.23 137.372 249.284 138.395 248.162 138.395ZM255.431 133.181C254.518 133.181 253.792 133.632 253.363 134.38V133.313H252.538V140.892H253.363V137.933C253.792 138.681 254.518 139.132 255.431 139.132C256.927 139.132 258.049 137.9 258.049 136.151C258.049 134.413 256.927 133.181 255.431 133.181ZM255.277 138.395C254.155 138.395 253.363 137.46 253.363 136.151C253.363 134.842 254.155 133.918 255.277 133.918C256.388 133.918 257.18 134.842 257.18 136.151C257.18 137.46 256.388 138.395 255.277 138.395ZM262.039 138.395C260.917 138.395 260.136 137.581 260.015 136.47H264.668C264.668 134.479 263.689 133.181 261.973 133.181C260.444 133.181 259.168 134.446 259.168 136.14C259.168 137.889 260.532 139.132 262.05 139.132C262.842 139.132 263.843 138.791 264.338 138.252L263.832 137.713C263.48 138.098 262.71 138.395 262.039 138.395ZM262.006 133.918C263.139 133.918 263.744 134.71 263.854 135.733H260.026C260.18 134.633 260.994 133.918 262.006 133.918ZM266.92 134.424V133.313H266.095V139H266.92V135.821C266.92 134.71 267.833 133.918 269.12 133.918V133.181C268.075 133.181 267.261 133.665 266.92 134.424ZM272.758 138.164C272.637 138.296 272.417 138.395 272.164 138.395C271.834 138.395 271.548 138.098 271.548 137.68V134.05H272.945V133.313H271.548V131.751H270.723V133.313H269.832V134.05H270.723V137.68C270.723 138.527 271.295 139.132 272.109 139.132C272.494 139.132 272.868 139 273.165 138.769L272.758 138.164ZM275.179 140.98C275.96 140.969 276.51 140.606 276.906 139.638L279.502 133.313H278.611L276.73 138.043L274.739 133.313H273.826L276.301 139.022L275.971 139.726C275.751 140.111 275.509 140.232 275.146 140.232C274.904 140.232 274.673 140.188 274.475 140.089L274.277 140.793C274.541 140.914 274.849 140.98 275.179 140.98Z" fill="#737373"/>
<rect x="198" y="123" width="144" height="1" fill="#9A9A9A"/>
<path d="M327.8 110.745L331 114.056L334.2 110.745C334.381 110.557 334.375 110.258 334.187 110.076C333.999 109.895 333.7 109.901 333.519 110.089L331 112.697L328.478 110.089C328.297 109.901 327.997 109.895 327.81 110.076C327.622 110.258 327.616 110.557 327.797 110.745H327.8Z" fill="black"/>
<mask id="mask0" mask-type="alpha" maskUnits="userSpaceOnUse" x="327" y="109" width="8" height="6">
<path d="M327.8 110.745L331 114.056L334.2 110.745C334.381 110.557 334.375 110.258 334.187 110.076C333.999 109.895 333.7 109.901 333.519 110.089L331 112.697L328.478 110.089C328.297 109.901 327.997 109.895 327.81 110.076C327.622 110.258 327.616 110.557 327.797 110.745H327.8Z" fill="white"/>
</mask>
<g mask="url(#mask0)">
<rect x="336" y="117" width="10" height="10" transform="rotate(-180 336 117)" fill="#737373"/>
</g>
<path d="M208.121 114.143C210.201 114.143 211.267 112.986 211.267 111.569C211.267 109.996 210.045 109.385 208.342 108.982C206.821 108.618 205.937 108.293 205.937 107.37C205.937 106.551 206.743 105.823 207.848 105.823C208.784 105.823 209.668 106.252 210.409 106.967L211.033 106.174C210.214 105.42 209.226 104.9 207.9 104.9C206.184 104.9 204.91 106.018 204.91 107.448C204.91 108.995 206.041 109.554 207.835 109.97C209.395 110.334 210.24 110.711 210.24 111.66C210.24 112.466 209.538 113.22 208.16 113.22C206.912 113.22 205.989 112.687 205.235 111.933L204.598 112.726C205.495 113.61 206.652 114.143 208.121 114.143ZM215.99 113.285C214.664 113.285 213.741 112.323 213.598 111.01H219.097C219.097 108.657 217.94 107.123 215.912 107.123C214.105 107.123 212.597 108.618 212.597 110.62C212.597 112.687 214.209 114.156 216.003 114.156C216.939 114.156 218.122 113.753 218.707 113.116L218.109 112.479C217.693 112.934 216.783 113.285 215.99 113.285ZM215.951 107.994C217.29 107.994 218.005 108.93 218.135 110.139H213.611C213.793 108.839 214.755 107.994 215.951 107.994ZM221.758 108.592V107.279H220.783V114H221.758V110.243C221.758 108.93 222.837 107.994 224.358 107.994V107.123C223.123 107.123 222.161 107.695 221.758 108.592ZM227.93 114H228.866L231.687 107.279H230.595L228.398 112.856L226.162 107.279H225.07L227.93 114ZM233.513 106.057C233.864 106.057 234.15 105.758 234.15 105.407C234.15 105.069 233.864 104.77 233.513 104.77C233.149 104.77 232.863 105.069 232.863 105.407C232.863 105.758 233.149 106.057 233.513 106.057ZM233.019 114H233.994V107.279H233.019V114ZM239.072 114.156C240.008 114.156 240.866 113.766 241.503 113.129L240.827 112.466C240.372 112.973 239.748 113.285 239.072 113.285C237.733 113.285 236.615 112.076 236.615 110.633C236.615 109.203 237.733 107.994 239.072 107.994C239.735 107.994 240.346 108.293 240.788 108.774L241.464 108.111C240.827 107.5 239.982 107.123 239.072 107.123C237.187 107.123 235.588 108.722 235.588 110.633C235.588 112.544 237.187 114.156 239.072 114.156ZM246.027 113.285C244.701 113.285 243.778 112.323 243.635 111.01H249.134C249.134 108.657 247.977 107.123 245.949 107.123C244.142 107.123 242.634 108.618 242.634 110.62C242.634 112.687 244.246 114.156 246.04 114.156C246.976 114.156 248.159 113.753 248.744 113.116L248.146 112.479C247.73 112.934 246.82 113.285 246.027 113.285ZM245.988 107.994C247.327 107.994 248.042 108.93 248.172 110.139H243.648C243.83 108.839 244.792 107.994 245.988 107.994ZM250.963 114H251.977V106.733L257.515 114H258.529V105.069H257.515V112.336L251.977 105.069H250.963V114ZM263.853 114.156C265.738 114.156 267.324 112.544 267.324 110.633C267.324 108.722 265.738 107.123 263.853 107.123C261.968 107.123 260.369 108.722 260.369 110.633C260.369 112.544 261.968 114.156 263.853 114.156ZM263.853 113.285C262.514 113.285 261.396 112.076 261.396 110.633C261.396 109.203 262.514 107.994 263.853 107.994C265.179 107.994 266.297 109.203 266.297 110.633C266.297 112.076 265.179 113.285 263.853 113.285ZM270.396 114H271.319L273.126 108.631L274.907 114H275.83L278.092 107.279H277.052L275.375 112.7L273.542 107.279H272.697L270.864 112.7L269.187 107.279H268.147L270.396 114Z" fill="black"/>
<path d="M24.292 132.257V131.443H18.869V139H19.738V135.557H23.841V134.743H19.738V132.257H24.292ZM25.9461 132.279C26.2431 132.279 26.4851 132.026 26.4851 131.729C26.4851 131.443 26.2431 131.19 25.9461 131.19C25.6381 131.19 25.3961 131.443 25.3961 131.729C25.3961 132.026 25.6381 132.279 25.9461 132.279ZM25.5281 139H26.3531V133.313H25.5281V139ZM28.0098 139H28.8348V131.311H28.0098V139ZM32.999 138.164C32.878 138.296 32.658 138.395 32.405 138.395C32.075 138.395 31.789 138.098 31.789 137.68V134.05H33.186V133.313H31.789V131.751H30.964V133.313H30.073V134.05H30.964V137.68C30.964 138.527 31.536 139.132 32.35 139.132C32.735 139.132 33.109 139 33.406 138.769L32.999 138.164ZM37.1363 138.395C36.0143 138.395 35.2333 137.581 35.1123 136.47H39.7653C39.7653 134.479 38.7863 133.181 37.0703 133.181C35.5413 133.181 34.2653 134.446 34.2653 136.14C34.2653 137.889 35.6293 139.132 37.1473 139.132C37.9393 139.132 38.9403 138.791 39.4353 138.252L38.9293 137.713C38.5773 138.098 37.8073 138.395 37.1363 138.395ZM37.1033 133.918C38.2363 133.918 38.8413 134.71 38.9513 135.733H35.1233C35.2773 134.633 36.0913 133.918 37.1033 133.918ZM42.0173 134.424V133.313H41.1923V139H42.0173V135.821C42.0173 134.71 42.9303 133.918 44.2173 133.918V133.181C43.1723 133.181 42.3583 133.665 42.0173 134.424ZM52.1569 139.132C53.2019 139.132 54.1699 138.681 54.8739 137.977L54.2909 137.383C53.7409 137.966 52.9819 138.34 52.1569 138.34C50.5289 138.34 49.1539 136.91 49.1539 135.216C49.1539 133.533 50.5289 132.103 52.1569 132.103C52.9819 132.103 53.7409 132.477 54.2909 133.06L54.8739 132.466C54.1699 131.751 53.2019 131.311 52.1569 131.311C50.0669 131.311 48.2849 133.093 48.2849 135.216C48.2849 137.339 50.0669 139.132 52.1569 139.132ZM56.9275 134.424V133.313H56.1025V139H56.9275V135.821C56.9275 134.71 57.8405 133.918 59.1275 133.918V133.181C58.0825 133.181 57.2685 133.665 56.9275 134.424ZM60.6756 132.279C60.9726 132.279 61.2146 132.026 61.2146 131.729C61.2146 131.443 60.9726 131.19 60.6756 131.19C60.3676 131.19 60.1256 131.443 60.1256 131.729C60.1256 132.026 60.3676 132.279 60.6756 132.279ZM60.2576 139H61.0826V133.313H60.2576V139ZM65.2363 138.164C65.1153 138.296 64.8953 138.395 64.6423 138.395C64.3123 138.395 64.0263 138.098 64.0263 137.68V134.05H65.4233V133.313H64.0263V131.751H63.2013V133.313H62.3103V134.05H63.2013V137.68C63.2013 138.527 63.7733 139.132 64.5873 139.132C64.9723 139.132 65.3463 139 65.6433 138.769L65.2363 138.164ZM69.3736 138.395C68.2516 138.395 67.4706 137.581 67.3496 136.47H72.0026C72.0026 134.479 71.0236 133.181 69.3076 133.181C67.7786 133.181 66.5026 134.446 66.5026 136.14C66.5026 137.889 67.8666 139.132 69.3846 139.132C70.1766 139.132 71.1776 138.791 71.6726 138.252L71.1666 137.713C70.8146 138.098 70.0446 138.395 69.3736 138.395ZM69.3406 133.918C70.4736 133.918 71.0786 134.71 71.1886 135.733H67.3606C67.5146 134.633 68.3286 133.918 69.3406 133.918ZM74.2546 134.424V133.313H73.4296V139H74.2546V135.821C74.2546 134.71 75.1676 133.918 76.4546 133.918V133.181C75.4096 133.181 74.5956 133.665 74.2546 134.424ZM78.0028 132.279C78.2998 132.279 78.5418 132.026 78.5418 131.729C78.5418 131.443 78.2998 131.19 78.0028 131.19C77.6948 131.19 77.4528 131.443 77.4528 131.729C77.4528 132.026 77.6948 132.279 78.0028 132.279ZM77.5848 139H78.4098V133.313H77.5848V139ZM82.3765 133.181C81.8265 133.181 81.1445 133.324 80.3305 133.731L80.6605 134.402C81.1775 134.138 81.7495 133.885 82.3215 133.885C83.5535 133.885 83.8615 134.765 83.8615 135.535V135.744C83.2785 135.557 82.6295 135.425 82.0135 135.425C80.7925 135.425 79.7805 136.184 79.7805 137.317C79.7805 138.439 80.6605 139.132 81.8595 139.132C82.6075 139.132 83.4545 138.78 83.8615 138.109V139H84.6865V135.535C84.6865 134.16 83.9275 133.181 82.3765 133.181ZM82.0025 138.406C81.1995 138.406 80.5835 137.988 80.5835 137.284C80.5835 136.602 81.2985 136.118 82.1455 136.118C82.7615 136.118 83.3445 136.206 83.8615 136.349V137.218C83.6415 138.021 82.7505 138.406 82.0025 138.406Z" fill="#737373"/>
<rect x="18" y="123" width="156" height="1" fill="#9A9A9A"/>
<path d="M159.8 110.745L163 114.056L166.2 110.745C166.381 110.557 166.375 110.258 166.187 110.076C165.999 109.895 165.7 109.901 165.519 110.089L163 112.697L160.478 110.089C160.297 109.901 159.997 109.895 159.81 110.076C159.622 110.258 159.616 110.557 159.797 110.745H159.8Z" fill="black"/>
<mask id="mask1" mask-type="alpha" maskUnits="userSpaceOnUse" x="159" y="109" width="8" height="6">
<path d="M159.8 110.745L163 114.056L166.2 110.745C166.381 110.557 166.375 110.258 166.187 110.076C165.999 109.895 165.7 109.901 165.519 110.089L163 112.697L160.478 110.089C160.297 109.901 159.997 109.895 159.81 110.076C159.622 110.258 159.616 110.557 159.797 110.745H159.8Z" fill="white"/>
</mask>
<g mask="url(#mask1)">
<rect x="168" y="117" width="10" height="10" transform="rotate(-180 168 117)" fill="#737373"/>
</g>
<path d="M25.027 114H26.041V110.789H28.654C30.5 110.789 31.943 109.606 31.943 107.929C31.943 106.252 30.5 105.069 28.654 105.069H25.027V114ZM26.041 109.827V106.031H28.472C29.928 106.031 30.916 106.733 30.916 107.929C30.916 109.125 29.928 109.827 28.472 109.827H26.041ZM34.4202 108.592V107.279H33.4452V114H34.4202V110.243C34.4202 108.93 35.4992 107.994 37.0202 107.994V107.123C35.7852 107.123 34.8232 107.695 34.4202 108.592ZM41.273 114.156C43.158 114.156 44.744 112.544 44.744 110.633C44.744 108.722 43.158 107.123 41.273 107.123C39.388 107.123 37.789 108.722 37.789 110.633C37.789 112.544 39.388 114.156 41.273 114.156ZM41.273 113.285C39.934 113.285 38.816 112.076 38.816 110.633C38.816 109.203 39.934 107.994 41.273 107.994C42.599 107.994 43.717 109.203 43.717 110.633C43.717 112.076 42.599 113.285 41.273 113.285ZM49.8642 107.123C48.7852 107.123 47.9272 107.656 47.4202 108.54V107.279H46.4452V116.236H47.4202V112.739C47.9272 113.623 48.7852 114.156 49.8642 114.156C51.6322 114.156 52.9582 112.7 52.9582 110.633C52.9582 108.579 51.6322 107.123 49.8642 107.123ZM49.6822 113.285C48.3562 113.285 47.4202 112.18 47.4202 110.633C47.4202 109.086 48.3562 107.994 49.6822 107.994C50.9952 107.994 51.9312 109.086 51.9312 110.633C51.9312 112.18 50.9952 113.285 49.6822 113.285ZM57.6733 113.285C56.3473 113.285 55.4243 112.323 55.2812 111.01H60.7803C60.7803 108.657 59.6233 107.123 57.5953 107.123C55.7883 107.123 54.2803 108.618 54.2803 110.62C54.2803 112.687 55.8923 114.156 57.6863 114.156C58.6223 114.156 59.8053 113.753 60.3903 113.116L59.7923 112.479C59.3763 112.934 58.4663 113.285 57.6733 113.285ZM57.6343 107.994C58.9733 107.994 59.6883 108.93 59.8183 110.139H55.2943C55.4763 108.839 56.4383 107.994 57.6343 107.994ZM63.4417 108.592V107.279H62.4667V114H63.4417V110.243C63.4417 108.93 64.5207 107.994 66.0417 107.994V107.123C64.8067 107.123 63.8447 107.695 63.4417 108.592ZM70.3413 113.012C70.1983 113.168 69.9383 113.285 69.6393 113.285C69.2493 113.285 68.9113 112.934 68.9113 112.44V108.15H70.5623V107.279H68.9113V105.433H67.9363V107.279H66.8833V108.15H67.9363V112.44C67.9363 113.441 68.6123 114.156 69.5743 114.156C70.0293 114.156 70.4713 114 70.8223 113.727L70.3413 113.012ZM73.2029 116.34C74.1259 116.327 74.7759 115.898 75.2439 114.754L78.3119 107.279H77.2589L75.0359 112.869L72.6829 107.279H71.6039L74.5289 114.026L74.1389 114.858C73.8789 115.313 73.5929 115.456 73.1639 115.456C72.8779 115.456 72.6049 115.404 72.3709 115.287L72.1369 116.119C72.4489 116.262 72.8129 116.34 73.2029 116.34Z" fill="black"/>
<path d="M369.487 139.121C371.247 139.121 372.149 138.142 372.149 136.943C372.149 135.612 371.115 135.095 369.674 134.754C368.387 134.446 367.639 134.171 367.639 133.39C367.639 132.697 368.321 132.081 369.256 132.081C370.048 132.081 370.796 132.444 371.423 133.049L371.951 132.378C371.258 131.74 370.422 131.3 369.3 131.3C367.848 131.3 366.77 132.246 366.77 133.456C366.77 134.765 367.727 135.238 369.245 135.59C370.565 135.898 371.28 136.217 371.28 137.02C371.28 137.702 370.686 138.34 369.52 138.34C368.464 138.34 367.683 137.889 367.045 137.251L366.506 137.922C367.265 138.67 368.244 139.121 369.487 139.121ZM376.145 138.395C375.023 138.395 374.242 137.581 374.121 136.47H378.774C378.774 134.479 377.795 133.181 376.079 133.181C374.55 133.181 373.274 134.446 373.274 136.14C373.274 137.889 374.638 139.132 376.156 139.132C376.948 139.132 377.949 138.791 378.444 138.252L377.938 137.713C377.586 138.098 376.816 138.395 376.145 138.395ZM376.112 133.918C377.245 133.918 377.85 134.71 377.96 135.733H374.132C374.286 134.633 375.1 133.918 376.112 133.918ZM380.124 139H380.949V131.311H380.124V139ZM385.179 138.395C384.057 138.395 383.276 137.581 383.155 136.47H387.808C387.808 134.479 386.829 133.181 385.113 133.181C383.584 133.181 382.308 134.446 382.308 136.14C382.308 137.889 383.672 139.132 385.19 139.132C385.982 139.132 386.983 138.791 387.478 138.252L386.972 137.713C386.62 138.098 385.85 138.395 385.179 138.395ZM385.146 133.918C386.279 133.918 386.884 134.71 386.994 135.733H383.166C383.32 134.633 384.134 133.918 385.146 133.918ZM391.798 139.132C392.59 139.132 393.316 138.802 393.855 138.263L393.283 137.702C392.898 138.131 392.37 138.395 391.798 138.395C390.665 138.395 389.719 137.372 389.719 136.151C389.719 134.941 390.665 133.918 391.798 133.918C392.359 133.918 392.876 134.171 393.25 134.578L393.822 134.017C393.283 133.5 392.568 133.181 391.798 133.181C390.203 133.181 388.85 134.534 388.85 136.151C388.85 137.768 390.203 139.132 391.798 139.132ZM397.617 138.164C397.496 138.296 397.276 138.395 397.023 138.395C396.693 138.395 396.407 138.098 396.407 137.68V134.05H397.804V133.313H396.407V131.751H395.582V133.313H394.691V134.05H395.582V137.68C395.582 138.527 396.154 139.132 396.968 139.132C397.353 139.132 397.727 139 398.024 138.769L397.617 138.164ZM405.99 139.132C407.035 139.132 408.003 138.681 408.707 137.977L408.124 137.383C407.574 137.966 406.815 138.34 405.99 138.34C404.362 138.34 402.987 136.91 402.987 135.216C402.987 133.533 404.362 132.103 405.99 132.103C406.815 132.103 407.574 132.477 408.124 133.06L408.707 132.466C408.003 131.751 407.035 131.311 405.99 131.311C403.9 131.311 402.118 133.093 402.118 135.216C402.118 137.339 403.9 139.132 405.99 139.132ZM412.498 139.132C414.093 139.132 415.435 137.768 415.435 136.151C415.435 134.534 414.093 133.181 412.498 133.181C410.903 133.181 409.55 134.534 409.55 136.151C409.55 137.768 410.903 139.132 412.498 139.132ZM412.498 138.395C411.365 138.395 410.419 137.372 410.419 136.151C410.419 134.941 411.365 133.918 412.498 133.918C413.62 133.918 414.566 134.941 414.566 136.151C414.566 137.372 413.62 138.395 412.498 138.395ZM419.504 133.181C418.701 133.181 417.964 133.621 417.634 134.226V133.313H416.809V139H417.634V135.381C417.634 134.589 418.437 133.918 419.394 133.918C420.23 133.918 420.813 134.567 420.813 135.491V139H421.638V135.381C421.638 134.094 420.758 133.181 419.504 133.181ZM427.752 131.311V134.38C427.323 133.632 426.597 133.181 425.684 133.181C424.188 133.181 423.066 134.413 423.066 136.151C423.066 137.9 424.188 139.132 425.684 139.132C426.597 139.132 427.323 138.681 427.752 137.933V139H428.577V131.311H427.752ZM425.838 138.395C424.727 138.395 423.935 137.46 423.935 136.151C423.935 134.842 424.727 133.918 425.838 133.918C426.96 133.918 427.752 134.842 427.752 136.151C427.752 137.46 426.96 138.395 425.838 138.395ZM430.729 132.279C431.026 132.279 431.268 132.026 431.268 131.729C431.268 131.443 431.026 131.19 430.729 131.19C430.421 131.19 430.179 131.443 430.179 131.729C430.179 132.026 430.421 132.279 430.729 132.279ZM430.311 139H431.136V133.313H430.311V139ZM435.29 138.164C435.169 138.296 434.949 138.395 434.696 138.395C434.366 138.395 434.08 138.098 434.08 137.68V134.05H435.477V133.313H434.08V131.751H433.255V133.313H432.364V134.05H433.255V137.68C433.255 138.527 433.827 139.132 434.641 139.132C435.026 139.132 435.4 139 435.697 138.769L435.29 138.164ZM437.271 132.279C437.568 132.279 437.81 132.026 437.81 131.729C437.81 131.443 437.568 131.19 437.271 131.19C436.963 131.19 436.721 131.443 436.721 131.729C436.721 132.026 436.963 132.279 437.271 132.279ZM436.853 139H437.678V133.313H436.853V139ZM441.975 139.132C443.57 139.132 444.912 137.768 444.912 136.151C444.912 134.534 443.57 133.181 441.975 133.181C440.38 133.181 439.027 134.534 439.027 136.151C439.027 137.768 440.38 139.132 441.975 139.132ZM441.975 138.395C440.842 138.395 439.896 137.372 439.896 136.151C439.896 134.941 440.842 133.918 441.975 133.918C443.097 133.918 444.043 134.941 444.043 136.151C444.043 137.372 443.097 138.395 441.975 138.395ZM448.98 133.181C448.177 133.181 447.44 133.621 447.11 134.226V133.313H446.285V139H447.11V135.381C447.11 134.589 447.913 133.918 448.87 133.918C449.706 133.918 450.289 134.567 450.289 135.491V139H451.114V135.381C451.114 134.094 450.234 133.181 448.98 133.181Z" fill="#737373"/>
<rect x="366" y="123" width="174" height="1" fill="#9A9A9A"/>
<path d="M525.8 110.745L529 114.056L532.2 110.745C532.381 110.557 532.375 110.258 532.187 110.076C531.999 109.895 531.7 109.901 531.519 110.089L529 112.697L526.478 110.089C526.297 109.901 525.997 109.895 525.81 110.076C525.622 110.258 525.616 110.557 525.797 110.745H525.8Z" fill="black"/>
<mask id="mask2" mask-type="alpha" maskUnits="userSpaceOnUse" x="525" y="109" width="8" height="6">
<path d="M525.8 110.745L529 114.056L532.2 110.745C532.381 110.557 532.375 110.258 532.187 110.076C531.999 109.895 531.7 109.901 531.519 110.089L529 112.697L526.478 110.089C526.297 109.901 525.997 109.895 525.81 110.076C525.622 110.258 525.616 110.557 525.797 110.745H525.8Z" fill="white"/>
</mask>
<g mask="url(#mask2)">
<rect x="534" y="117" width="10" height="10" transform="rotate(-180 534 117)" fill="#737373"/>
</g>
<path d="M373.027 114H374.041V105.069H373.027V114ZM378.439 114.156C379.83 114.156 380.896 113.363 380.896 112.128C380.896 110.854 379.778 110.49 378.699 110.152C377.451 109.749 376.957 109.567 376.957 108.982C376.957 108.332 377.581 107.994 378.335 107.994C378.933 107.994 379.596 108.202 380.272 108.631L380.74 107.877C380.025 107.409 379.167 107.123 378.335 107.123C376.996 107.123 375.982 107.877 375.982 109.099C375.982 110.061 376.606 110.542 378.231 111.01C379.141 111.27 379.921 111.504 379.921 112.232C379.921 112.869 379.323 113.285 378.439 113.285C377.698 113.285 376.931 112.999 376.164 112.44L375.657 113.155C376.463 113.805 377.503 114.156 378.439 114.156Z" fill="black"/>
<path d="M564.869 139H565.727V136.283H567.938C569.5 136.283 570.721 135.282 570.721 133.863C570.721 132.444 569.5 131.443 567.938 131.443H564.869V139ZM565.727 135.469V132.257H567.784C569.016 132.257 569.852 132.851 569.852 133.863C569.852 134.875 569.016 135.469 567.784 135.469H565.727ZM572.817 134.424V133.313H571.992V139H572.817V135.821C572.817 134.71 573.73 133.918 575.017 133.918V133.181C573.972 133.181 573.158 133.665 572.817 134.424ZM578.616 139.132C580.211 139.132 581.553 137.768 581.553 136.151C581.553 134.534 580.211 133.181 578.616 133.181C577.021 133.181 575.668 134.534 575.668 136.151C575.668 137.768 577.021 139.132 578.616 139.132ZM578.616 138.395C577.483 138.395 576.537 137.372 576.537 136.151C576.537 134.941 577.483 133.918 578.616 133.918C579.738 133.918 580.684 134.941 580.684 136.151C580.684 137.372 579.738 138.395 578.616 138.395ZM585.885 133.181C584.972 133.181 584.246 133.632 583.817 134.38V133.313H582.992V140.892H583.817V137.933C584.246 138.681 584.972 139.132 585.885 139.132C587.381 139.132 588.503 137.9 588.503 136.151C588.503 134.413 587.381 133.181 585.885 133.181ZM585.731 138.395C584.609 138.395 583.817 137.46 583.817 136.151C583.817 134.842 584.609 133.918 585.731 133.918C586.842 133.918 587.634 134.842 587.634 136.151C587.634 137.46 586.842 138.395 585.731 138.395ZM592.493 138.395C591.371 138.395 590.59 137.581 590.469 136.47H595.122C595.122 134.479 594.143 133.181 592.427 133.181C590.898 133.181 589.622 134.446 589.622 136.14C589.622 137.889 590.986 139.132 592.504 139.132C593.296 139.132 594.297 138.791 594.792 138.252L594.286 137.713C593.934 138.098 593.164 138.395 592.493 138.395ZM592.46 133.918C593.593 133.918 594.198 134.71 594.308 135.733H590.48C590.634 134.633 591.448 133.918 592.46 133.918ZM597.374 134.424V133.313H596.549V139H597.374V135.821C597.374 134.71 598.287 133.918 599.574 133.918V133.181C598.529 133.181 597.715 133.665 597.374 134.424ZM603.212 138.164C603.091 138.296 602.871 138.395 602.618 138.395C602.288 138.395 602.002 138.098 602.002 137.68V134.05H603.399V133.313H602.002V131.751H601.177V133.313H600.286V134.05H601.177V137.68C601.177 138.527 601.749 139.132 602.563 139.132C602.948 139.132 603.322 139 603.619 138.769L603.212 138.164ZM605.633 140.98C606.414 140.969 606.964 140.606 607.36 139.638L609.956 133.313H609.065L607.184 138.043L605.193 133.313H604.28L606.755 139.022L606.425 139.726C606.205 140.111 605.963 140.232 605.6 140.232C605.358 140.232 605.127 140.188 604.929 140.089L604.731 140.793C604.995 140.914 605.303 140.98 605.633 140.98ZM620.679 131.443L617.819 137.944L614.948 131.443H614.013L617.346 139H618.281L621.614 131.443H620.679ZM624.778 133.181C624.228 133.181 623.546 133.324 622.732 133.731L623.062 134.402C623.579 134.138 624.151 133.885 624.723 133.885C625.955 133.885 626.263 134.765 626.263 135.535V135.744C625.68 135.557 625.031 135.425 624.415 135.425C623.194 135.425 622.182 136.184 622.182 137.317C622.182 138.439 623.062 139.132 624.261 139.132C625.009 139.132 625.856 138.78 626.263 138.109V139H627.088V135.535C627.088 134.16 626.329 133.181 624.778 133.181ZM624.404 138.406C623.601 138.406 622.985 137.988 622.985 137.284C622.985 136.602 623.7 136.118 624.547 136.118C625.163 136.118 625.746 136.206 626.263 136.349V137.218C626.043 138.021 625.152 138.406 624.404 138.406ZM628.774 139H629.599V131.311H628.774V139ZM635.27 133.313V136.932C635.27 137.724 634.467 138.395 633.51 138.395C632.674 138.395 632.091 137.746 632.091 136.822V133.313H631.266V136.932C631.266 138.219 632.146 139.132 633.4 139.132C634.203 139.132 634.94 138.692 635.27 138.087V139H636.095V133.313H635.27ZM640.338 138.395C639.216 138.395 638.435 137.581 638.314 136.47H642.967C642.967 134.479 641.988 133.181 640.272 133.181C638.743 133.181 637.467 134.446 637.467 136.14C637.467 137.889 638.831 139.132 640.349 139.132C641.141 139.132 642.142 138.791 642.637 138.252L642.131 137.713C641.779 138.098 641.009 138.395 640.338 138.395ZM640.305 133.918C641.438 133.918 642.043 134.71 642.153 135.733H638.325C638.479 134.633 639.293 133.918 640.305 133.918Z" fill="#737373"/>
<rect x="564" y="123" width="160" height="1" fill="#9A9A9A"/>
<path d="M572.054 108.592V107.279H571.079V114H572.054V110.243C572.054 108.93 573.133 107.994 574.654 107.994V107.123C573.419 107.123 572.457 107.695 572.054 108.592ZM576.484 106.057C576.835 106.057 577.121 105.758 577.121 105.407C577.121 105.069 576.835 104.77 576.484 104.77C576.12 104.77 575.834 105.069 575.834 105.407C575.834 105.758 576.12 106.057 576.484 106.057ZM575.99 114H576.965V107.279H575.99V114ZM584.149 107.279V108.436C583.629 107.617 582.771 107.123 581.705 107.123C579.898 107.123 578.611 108.436 578.611 110.308C578.611 112.18 579.898 113.506 581.705 113.506C582.771 113.506 583.629 113.012 584.149 112.193V113.285C584.149 114.598 583.239 115.365 581.692 115.365C580.86 115.365 580.054 115.066 579.534 114.572L579.105 115.339C579.716 115.859 580.73 116.236 581.822 116.236C583.759 116.236 585.124 115.014 585.124 113.285V107.279H584.149ZM581.887 112.635C580.574 112.635 579.638 111.673 579.638 110.308C579.638 108.956 580.574 107.994 581.887 107.994C583.213 107.994 584.149 108.956 584.149 110.308C584.149 111.673 583.213 112.635 581.887 112.635ZM590.385 107.123C589.436 107.123 588.565 107.643 588.175 108.358V104.913H587.2V114H588.175V109.723C588.175 108.787 589.124 107.994 590.255 107.994C591.243 107.994 591.932 108.761 591.932 109.853V114H592.907V109.723C592.907 108.202 591.867 107.123 590.385 107.123ZM597.832 113.012C597.689 113.168 597.429 113.285 597.13 113.285C596.74 113.285 596.402 112.934 596.402 112.44V108.15H598.053V107.279H596.402V105.433H595.427V107.279H594.374V108.15H595.427V112.44C595.427 113.441 596.103 114.156 597.065 114.156C597.52 114.156 597.962 114 598.313 113.727L597.832 113.012ZM602.071 114.156C603.462 114.156 604.528 113.363 604.528 112.128C604.528 110.854 603.41 110.49 602.331 110.152C601.083 109.749 600.589 109.567 600.589 108.982C600.589 108.332 601.213 107.994 601.967 107.994C602.565 107.994 603.228 108.202 603.904 108.631L604.372 107.877C603.657 107.409 602.799 107.123 601.967 107.123C600.628 107.123 599.614 107.877 599.614 109.099C599.614 110.061 600.238 110.542 601.863 111.01C602.773 111.27 603.553 111.504 603.553 112.232C603.553 112.869 602.955 113.285 602.071 113.285C601.33 113.285 600.563 112.999 599.796 112.44L599.289 113.155C600.095 113.805 601.135 114.156 602.071 114.156ZM606.622 106.057C606.973 106.057 607.259 105.758 607.259 105.407C607.259 105.069 606.973 104.77 606.622 104.77C606.258 104.77 605.972 105.069 605.972 105.407C605.972 105.758 606.258 106.057 606.622 106.057ZM606.128 114H607.103V107.279H606.128V114ZM608.775 114H614.079V113.077H610.075L614.053 108.046V107.279H608.853V108.202H612.74L608.775 113.233V114ZM616.22 106.057C616.571 106.057 616.857 105.758 616.857 105.407C616.857 105.069 616.571 104.77 616.22 104.77C615.856 104.77 615.57 105.069 615.57 105.407C615.57 105.758 615.856 106.057 616.22 106.057ZM615.726 114H616.701V107.279H615.726V114ZM621.857 107.123C620.908 107.123 620.037 107.643 619.647 108.358V107.279H618.672V114H619.647V109.723C619.647 108.787 620.596 107.994 621.727 107.994C622.715 107.994 623.404 108.761 623.404 109.853V114H624.379V109.723C624.379 108.202 623.339 107.123 621.857 107.123ZM631.578 107.279V108.436C631.058 107.617 630.2 107.123 629.134 107.123C627.327 107.123 626.04 108.436 626.04 110.308C626.04 112.18 627.327 113.506 629.134 113.506C630.2 113.506 631.058 113.012 631.578 112.193V113.285C631.578 114.598 630.668 115.365 629.121 115.365C628.289 115.365 627.483 115.066 626.963 114.572L626.534 115.339C627.145 115.859 628.159 116.236 629.251 116.236C631.188 116.236 632.553 115.014 632.553 113.285V107.279H631.578ZM629.316 112.635C628.003 112.635 627.067 111.673 627.067 110.308C627.067 108.956 628.003 107.994 629.316 107.994C630.642 107.994 631.578 108.956 631.578 110.308C631.578 111.673 630.642 112.635 629.316 112.635ZM634.357 110.945H637.724V109.996H634.357V110.945ZM642.171 107.123C641.521 107.123 640.715 107.292 639.753 107.773L640.143 108.566C640.754 108.254 641.43 107.955 642.106 107.955C643.562 107.955 643.926 108.995 643.926 109.905V110.152C643.237 109.931 642.47 109.775 641.742 109.775C640.299 109.775 639.103 110.672 639.103 112.011C639.103 113.337 640.143 114.156 641.56 114.156C642.444 114.156 643.445 113.74 643.926 112.947V114H644.901V109.905C644.901 108.28 644.004 107.123 642.171 107.123ZM641.729 113.298C640.78 113.298 640.052 112.804 640.052 111.972C640.052 111.166 640.897 110.594 641.898 110.594C642.626 110.594 643.315 110.698 643.926 110.867V111.894C643.666 112.843 642.613 113.298 641.729 113.298ZM650.403 107.123C649.324 107.123 648.466 107.656 647.959 108.54V107.279H646.984V116.236H647.959V112.739C648.466 113.623 649.324 114.156 650.403 114.156C652.171 114.156 653.497 112.7 653.497 110.633C653.497 108.579 652.171 107.123 650.403 107.123ZM650.221 113.285C648.895 113.285 647.959 112.18 647.959 110.633C647.959 109.086 648.895 107.994 650.221 107.994C651.534 107.994 652.47 109.086 652.47 110.633C652.47 112.18 651.534 113.285 650.221 113.285ZM658.693 107.123C657.614 107.123 656.756 107.656 656.249 108.54V107.279H655.274V116.236H656.249V112.739C656.756 113.623 657.614 114.156 658.693 114.156C660.461 114.156 661.787 112.7 661.787 110.633C661.787 108.579 660.461 107.123 658.693 107.123ZM658.511 113.285C657.185 113.285 656.249 112.18 656.249 110.633C656.249 109.086 657.185 107.994 658.511 107.994C659.824 107.994 660.76 109.086 660.76 110.633C660.76 112.18 659.824 113.285 658.511 113.285ZM664.539 108.592V107.279H663.564V114H664.539V110.243C664.539 108.93 665.618 107.994 667.139 107.994V107.123C665.904 107.123 664.942 107.695 664.539 108.592ZM671.392 114.156C673.277 114.156 674.863 112.544 674.863 110.633C674.863 108.722 673.277 107.123 671.392 107.123C669.507 107.123 667.908 108.722 667.908 110.633C667.908 112.544 669.507 114.156 671.392 114.156ZM671.392 113.285C670.053 113.285 668.935 112.076 668.935 110.633C668.935 109.203 670.053 107.994 671.392 107.994C672.718 107.994 673.836 109.203 673.836 110.633C673.836 112.076 672.718 113.285 671.392 113.285ZM678.442 114H679.378L682.199 107.279H681.107L678.91 112.856L676.674 107.279H675.582L678.442 114ZM686.117 113.285C684.791 113.285 683.868 112.323 683.725 111.01H689.224C689.224 108.657 688.067 107.123 686.039 107.123C684.232 107.123 682.724 108.618 682.724 110.62C682.724 112.687 684.336 114.156 686.13 114.156C687.066 114.156 688.249 113.753 688.834 113.116L688.236 112.479C687.82 112.934 686.91 113.285 686.117 113.285ZM686.078 107.994C687.417 107.994 688.132 108.93 688.262 110.139H683.738C683.92 108.839 684.882 107.994 686.078 107.994ZM696.071 104.913V108.54C695.564 107.656 694.706 107.123 693.627 107.123C691.859 107.123 690.533 108.579 690.533 110.633C690.533 112.7 691.859 114.156 693.627 114.156C694.706 114.156 695.564 113.623 696.071 112.739V114H697.046V104.913H696.071ZM693.809 113.285C692.496 113.285 691.56 112.18 691.56 110.633C691.56 109.086 692.496 107.994 693.809 107.994C695.135 107.994 696.071 109.086 696.071 110.633C696.071 112.18 695.135 113.285 693.809 113.285Z" fill="black"/>
<path d="M757.705 121L761.35 117.355C761.52 117.157 761.508 116.861 761.324 116.676C761.139 116.492 760.843 116.48 760.645 116.65L757 120.295L753.355 116.645C753.157 116.475 752.861 116.487 752.676 116.671C752.492 116.856 752.48 117.152 752.65 117.35L756.295 121L752.645 124.645C752.502 124.767 752.44 124.959 752.484 125.142C752.528 125.324 752.671 125.467 752.853 125.511C753.036 125.555 753.228 125.493 753.35 125.35L757 121.705L760.645 125.35C760.843 125.52 761.139 125.509 761.324 125.324C761.508 125.139 761.52 124.844 761.35 124.645L757.705 121Z" fill="#737373"/>
<path d="M24.292 213.257V212.443H18.869V220H19.738V216.557H23.841V215.743H19.738V213.257H24.292ZM25.9461 213.279C26.2431 213.279 26.4851 213.026 26.4851 212.729C26.4851 212.443 26.2431 212.19 25.9461 212.19C25.6381 212.19 25.3961 212.443 25.3961 212.729C25.3961 213.026 25.6381 213.279 25.9461 213.279ZM25.5281 220H26.3531V214.313H25.5281V220ZM28.0098 220H28.8348V212.311H28.0098V220ZM32.999 219.164C32.878 219.296 32.658 219.395 32.405 219.395C32.075 219.395 31.789 219.098 31.789 218.68V215.05H33.186V214.313H31.789V212.751H30.964V214.313H30.073V215.05H30.964V218.68C30.964 219.527 31.536 220.132 32.35 220.132C32.735 220.132 33.109 220 33.406 219.769L32.999 219.164ZM37.1363 219.395C36.0143 219.395 35.2333 218.581 35.1123 217.47H39.7653C39.7653 215.479 38.7863 214.181 37.0703 214.181C35.5413 214.181 34.2653 215.446 34.2653 217.14C34.2653 218.889 35.6293 220.132 37.1473 220.132C37.9393 220.132 38.9403 219.791 39.4353 219.252L38.9293 218.713C38.5773 219.098 37.8073 219.395 37.1363 219.395ZM37.1033 214.918C38.2363 214.918 38.8413 215.71 38.9513 216.733H35.1233C35.2773 215.633 36.0913 214.918 37.1033 214.918ZM42.0173 215.424V214.313H41.1923V220H42.0173V216.821C42.0173 215.71 42.9303 214.918 44.2173 214.918V214.181C43.1723 214.181 42.3583 214.665 42.0173 215.424ZM52.1569 220.132C53.2019 220.132 54.1699 219.681 54.8739 218.977L54.2909 218.383C53.7409 218.966 52.9819 219.34 52.1569 219.34C50.5289 219.34 49.1539 217.91 49.1539 216.216C49.1539 214.533 50.5289 213.103 52.1569 213.103C52.9819 213.103 53.7409 213.477 54.2909 214.06L54.8739 213.466C54.1699 212.751 53.2019 212.311 52.1569 212.311C50.0669 212.311 48.2849 214.093 48.2849 216.216C48.2849 218.339 50.0669 220.132 52.1569 220.132ZM56.9275 215.424V214.313H56.1025V220H56.9275V216.821C56.9275 215.71 57.8405 214.918 59.1275 214.918V214.181C58.0825 214.181 57.2685 214.665 56.9275 215.424ZM60.6756 213.279C60.9726 213.279 61.2146 213.026 61.2146 212.729C61.2146 212.443 60.9726 212.19 60.6756 212.19C60.3676 212.19 60.1256 212.443 60.1256 212.729C60.1256 213.026 60.3676 213.279 60.6756 213.279ZM60.2576 220H61.0826V214.313H60.2576V220ZM65.2363 219.164C65.1153 219.296 64.8953 219.395 64.6423 219.395C64.3123 219.395 64.0263 219.098 64.0263 218.68V215.05H65.4233V214.313H64.0263V212.751H63.2013V214.313H62.3103V215.05H63.2013V218.68C63.2013 219.527 63.7733 220.132 64.5873 220.132C64.9723 220.132 65.3463 220 65.6433 219.769L65.2363 219.164ZM69.3736 219.395C68.2516 219.395 67.4706 218.581 67.3496 217.47H72.0026C72.0026 215.479 71.0236 214.181 69.3076 214.181C67.7786 214.181 66.5026 215.446 66.5026 217.14C66.5026 218.889 67.8666 220.132 69.3846 220.132C70.1766 220.132 71.1776 219.791 71.6726 219.252L71.1666 218.713C70.8146 219.098 70.0446 219.395 69.3736 219.395ZM69.3406 214.918C70.4736 214.918 71.0786 215.71 71.1886 216.733H67.3606C67.5146 215.633 68.3286 214.918 69.3406 214.918ZM74.2546 215.424V214.313H73.4296V220H74.2546V216.821C74.2546 215.71 75.1676 214.918 76.4546 214.918V214.181C75.4096 214.181 74.5956 214.665 74.2546 215.424ZM78.0028 213.279C78.2998 213.279 78.5418 213.026 78.5418 212.729C78.5418 212.443 78.2998 212.19 78.0028 212.19C77.6948 212.19 77.4528 212.443 77.4528 212.729C77.4528 213.026 77.6948 213.279 78.0028 213.279ZM77.5848 220H78.4098V214.313H77.5848V220ZM82.3765 214.181C81.8265 214.181 81.1445 214.324 80.3305 214.731L80.6605 215.402C81.1775 215.138 81.7495 214.885 82.3215 214.885C83.5535 214.885 83.8615 215.765 83.8615 216.535V216.744C83.2785 216.557 82.6295 216.425 82.0135 216.425C80.7925 216.425 79.7805 217.184 79.7805 218.317C79.7805 219.439 80.6605 220.132 81.8595 220.132C82.6075 220.132 83.4545 219.78 83.8615 219.109V220H84.6865V216.535C84.6865 215.16 83.9275 214.181 82.3765 214.181ZM82.0025 219.406C81.1995 219.406 80.5835 218.988 80.5835 218.284C80.5835 217.602 81.2985 217.118 82.1455 217.118C82.7615 217.118 83.3445 217.206 83.8615 217.349V218.218C83.6415 219.021 82.7505 219.406 82.0025 219.406Z" fill="#737373"/>
<rect x="18" y="204" width="156" height="1" fill="#9A9A9A"/>
<path d="M159.8 191.745L163 195.056L166.2 191.745C166.381 191.557 166.375 191.258 166.187 191.076C165.999 190.895 165.7 190.901 165.519 191.089L163 193.697L160.478 191.089C160.297 190.901 159.997 190.895 159.81 191.076C159.622 191.258 159.616 191.557 159.797 191.745H159.8Z" fill="black"/>
<mask id="mask3" mask-type="alpha" maskUnits="userSpaceOnUse" x="159" y="190" width="8" height="6">
<path d="M159.8 191.745L163 195.056L166.2 191.745C166.381 191.557 166.375 191.258 166.187 191.076C165.999 190.895 165.7 190.901 165.519 191.089L163 193.697L160.478 191.089C160.297 190.901 159.997 190.895 159.81 191.076C159.622 191.258 159.616 191.557 159.797 191.745H159.8Z" fill="white"/>
</mask>
<g mask="url(#mask3)">
<rect x="168" y="198" width="10" height="10" transform="rotate(-180 168 198)" fill="#737373"/>
</g>
<path d="M29.252 195.156C31.735 195.156 33.815 193.037 33.815 190.528C33.815 188.019 31.735 185.913 29.252 185.913C26.782 185.913 24.676 188.019 24.676 190.528C24.676 193.037 26.782 195.156 29.252 195.156ZM29.252 194.22C27.328 194.22 25.703 192.53 25.703 190.528C25.703 188.539 27.328 186.849 29.252 186.849C31.176 186.849 32.788 188.539 32.788 190.528C32.788 192.53 31.176 194.22 29.252 194.22ZM38.9843 188.123C37.9053 188.123 37.0473 188.656 36.5403 189.54V185.913H35.5653V195H36.5403V193.739C37.0473 194.623 37.9053 195.156 38.9843 195.156C40.7523 195.156 42.0783 193.7 42.0783 191.633C42.0783 189.579 40.7523 188.123 38.9843 188.123ZM38.8023 194.285C37.4763 194.285 36.5403 193.18 36.5403 191.633C36.5403 190.086 37.4763 188.994 38.8023 188.994C40.1153 188.994 41.0513 190.086 41.0513 191.633C41.0513 193.18 40.1153 194.285 38.8023 194.285ZM44.2454 187.057C44.5964 187.057 44.8824 186.758 44.8824 186.407C44.8824 186.069 44.5964 185.77 44.2454 185.77C43.8814 185.77 43.5954 186.069 43.5954 186.407C43.5954 186.758 43.8814 187.057 44.2454 187.057ZM43.0884 197.314C44.0504 197.314 44.7264 196.599 44.7264 195.598V188.279H43.7514V195.598C43.7514 196.092 43.4524 196.443 43.0234 196.443C42.7504 196.443 42.3994 196.378 42.1914 196.3L42.0354 197.106C42.2954 197.223 42.7244 197.314 43.0884 197.314ZM49.7133 194.285C48.3873 194.285 47.4643 193.323 47.3213 192.01H52.8203C52.8203 189.657 51.6633 188.123 49.6353 188.123C47.8283 188.123 46.3203 189.618 46.3203 191.62C46.3203 193.687 47.9323 195.156 49.7263 195.156C50.6623 195.156 51.8453 194.753 52.4303 194.116L51.8323 193.479C51.4163 193.934 50.5063 194.285 49.7133 194.285ZM49.6743 188.994C51.0133 188.994 51.7283 189.93 51.8583 191.139H47.3343C47.5163 189.839 48.4783 188.994 49.6743 188.994ZM57.5357 195.156C58.4717 195.156 59.3297 194.766 59.9667 194.129L59.2907 193.466C58.8357 193.973 58.2117 194.285 57.5357 194.285C56.1967 194.285 55.0787 193.076 55.0787 191.633C55.0787 190.203 56.1967 188.994 57.5357 188.994C58.1987 188.994 58.8097 189.293 59.2517 189.774L59.9277 189.111C59.2907 188.5 58.4457 188.123 57.5357 188.123C55.6507 188.123 54.0517 189.722 54.0517 191.633C54.0517 193.544 55.6507 195.156 57.5357 195.156ZM64.4126 194.012C64.2696 194.168 64.0096 194.285 63.7106 194.285C63.3206 194.285 62.9826 193.934 62.9826 193.44V189.15H64.6336V188.279H62.9826V186.433H62.0076V188.279H60.9546V189.15H62.0076V193.44C62.0076 194.441 62.6836 195.156 63.6456 195.156C64.1006 195.156 64.5426 195 64.8936 194.727L64.4126 194.012ZM70.2777 195H71.2917V187.733L76.8297 195H77.8437V186.069H76.8297V193.336L71.2917 186.069H70.2777V195ZM82.7776 188.123C82.1276 188.123 81.3216 188.292 80.3596 188.773L80.7496 189.566C81.3606 189.254 82.0366 188.955 82.7126 188.955C84.1686 188.955 84.5326 189.995 84.5326 190.905V191.152C83.8436 190.931 83.0766 190.775 82.3486 190.775C80.9056 190.775 79.7096 191.672 79.7096 193.011C79.7096 194.337 80.7496 195.156 82.1666 195.156C83.0506 195.156 84.0516 194.74 84.5326 193.947V195H85.5076V190.905C85.5076 189.28 84.6106 188.123 82.7776 188.123ZM82.3356 194.298C81.3866 194.298 80.6586 193.804 80.6586 192.972C80.6586 192.166 81.5036 191.594 82.5046 191.594C83.2326 191.594 83.9216 191.698 84.5326 191.867V192.894C84.2726 193.843 83.2196 194.298 82.3356 194.298ZM94.7667 188.123C93.7527 188.123 92.8687 188.682 92.5957 189.553C92.2317 188.682 91.4387 188.123 90.4247 188.123C89.5407 188.123 88.8127 188.565 88.4747 189.267V188.279H87.4997V195H88.4747V190.723C88.4747 189.709 89.2287 188.994 90.2947 188.994C91.2047 188.994 91.8417 189.761 91.8417 190.853V195H92.8167V190.723C92.8167 189.709 93.5707 188.994 94.6367 188.994C95.5467 188.994 96.1837 189.761 96.1837 190.853V195H97.1587V190.723C97.1587 189.202 96.1707 188.123 94.7667 188.123ZM102.158 194.285C100.832 194.285 99.9086 193.323 99.7656 192.01H105.265C105.265 189.657 104.108 188.123 102.08 188.123C100.273 188.123 98.7646 189.618 98.7646 191.62C98.7646 193.687 100.377 195.156 102.171 195.156C103.107 195.156 104.29 194.753 104.875 194.116L104.277 193.479C103.861 193.934 102.951 194.285 102.158 194.285ZM102.119 188.994C103.458 188.994 104.173 189.93 104.303 191.139H99.7786C99.9606 189.839 100.923 188.994 102.119 188.994Z" fill="black"/>
<path d="M201.487 220.121C203.247 220.121 204.149 219.142 204.149 217.943C204.149 216.612 203.115 216.095 201.674 215.754C200.387 215.446 199.639 215.171 199.639 214.39C199.639 213.697 200.321 213.081 201.256 213.081C202.048 213.081 202.796 213.444 203.423 214.049L203.951 213.378C203.258 212.74 202.422 212.3 201.3 212.3C199.848 212.3 198.77 213.246 198.77 214.456C198.77 215.765 199.727 216.238 201.245 216.59C202.565 216.898 203.28 217.217 203.28 218.02C203.28 218.702 202.686 219.34 201.52 219.34C200.464 219.34 199.683 218.889 199.045 218.251L198.506 218.922C199.265 219.67 200.244 220.121 201.487 220.121ZM208.145 219.395C207.023 219.395 206.242 218.581 206.121 217.47H210.774C210.774 215.479 209.795 214.181 208.079 214.181C206.55 214.181 205.274 215.446 205.274 217.14C205.274 218.889 206.638 220.132 208.156 220.132C208.948 220.132 209.949 219.791 210.444 219.252L209.938 218.713C209.586 219.098 208.816 219.395 208.145 219.395ZM208.112 214.918C209.245 214.918 209.85 215.71 209.96 216.733H206.132C206.286 215.633 207.1 214.918 208.112 214.918ZM212.124 220H212.949V212.311H212.124V220ZM217.179 219.395C216.057 219.395 215.276 218.581 215.155 217.47H219.808C219.808 215.479 218.829 214.181 217.113 214.181C215.584 214.181 214.308 215.446 214.308 217.14C214.308 218.889 215.672 220.132 217.19 220.132C217.982 220.132 218.983 219.791 219.478 219.252L218.972 218.713C218.62 219.098 217.85 219.395 217.179 219.395ZM217.146 214.918C218.279 214.918 218.884 215.71 218.994 216.733H215.166C215.32 215.633 216.134 214.918 217.146 214.918ZM223.798 220.132C224.59 220.132 225.316 219.802 225.855 219.263L225.283 218.702C224.898 219.131 224.37 219.395 223.798 219.395C222.665 219.395 221.719 218.372 221.719 217.151C221.719 215.941 222.665 214.918 223.798 214.918C224.359 214.918 224.876 215.171 225.25 215.578L225.822 215.017C225.283 214.5 224.568 214.181 223.798 214.181C222.203 214.181 220.85 215.534 220.85 217.151C220.85 218.768 222.203 220.132 223.798 220.132ZM229.617 219.164C229.496 219.296 229.276 219.395 229.023 219.395C228.693 219.395 228.407 219.098 228.407 218.68V215.05H229.804V214.313H228.407V212.751H227.582V214.313H226.691V215.05H227.582V218.68C227.582 219.527 228.154 220.132 228.968 220.132C229.353 220.132 229.727 220 230.024 219.769L229.617 219.164ZM237.99 220.132C239.035 220.132 240.003 219.681 240.707 218.977L240.124 218.383C239.574 218.966 238.815 219.34 237.99 219.34C236.362 219.34 234.987 217.91 234.987 216.216C234.987 214.533 236.362 213.103 237.99 213.103C238.815 213.103 239.574 213.477 240.124 214.06L240.707 213.466C240.003 212.751 239.035 212.311 237.99 212.311C235.9 212.311 234.118 214.093 234.118 216.216C234.118 218.339 235.9 220.132 237.99 220.132ZM244.498 220.132C246.093 220.132 247.435 218.768 247.435 217.151C247.435 215.534 246.093 214.181 244.498 214.181C242.903 214.181 241.55 215.534 241.55 217.151C241.55 218.768 242.903 220.132 244.498 220.132ZM244.498 219.395C243.365 219.395 242.419 218.372 242.419 217.151C242.419 215.941 243.365 214.918 244.498 214.918C245.62 214.918 246.566 215.941 246.566 217.151C246.566 218.372 245.62 219.395 244.498 219.395ZM251.504 214.181C250.701 214.181 249.964 214.621 249.634 215.226V214.313H248.809V220H249.634V216.381C249.634 215.589 250.437 214.918 251.394 214.918C252.23 214.918 252.813 215.567 252.813 216.491V220H253.638V216.381C253.638 215.094 252.758 214.181 251.504 214.181ZM259.752 212.311V215.38C259.323 214.632 258.597 214.181 257.684 214.181C256.188 214.181 255.066 215.413 255.066 217.151C255.066 218.9 256.188 220.132 257.684 220.132C258.597 220.132 259.323 219.681 259.752 218.933V220H260.577V212.311H259.752ZM257.838 219.395C256.727 219.395 255.935 218.46 255.935 217.151C255.935 215.842 256.727 214.918 257.838 214.918C258.96 214.918 259.752 215.842 259.752 217.151C259.752 218.46 258.96 219.395 257.838 219.395ZM262.729 213.279C263.026 213.279 263.268 213.026 263.268 212.729C263.268 212.443 263.026 212.19 262.729 212.19C262.421 212.19 262.179 212.443 262.179 212.729C262.179 213.026 262.421 213.279 262.729 213.279ZM262.311 220H263.136V214.313H262.311V220ZM267.29 219.164C267.169 219.296 266.949 219.395 266.696 219.395C266.366 219.395 266.08 219.098 266.08 218.68V215.05H267.477V214.313H266.08V212.751H265.255V214.313H264.364V215.05H265.255V218.68C265.255 219.527 265.827 220.132 266.641 220.132C267.026 220.132 267.4 220 267.697 219.769L267.29 219.164ZM269.271 213.279C269.568 213.279 269.81 213.026 269.81 212.729C269.81 212.443 269.568 212.19 269.271 212.19C268.963 212.19 268.721 212.443 268.721 212.729C268.721 213.026 268.963 213.279 269.271 213.279ZM268.853 220H269.678V214.313H268.853V220ZM273.975 220.132C275.57 220.132 276.912 218.768 276.912 217.151C276.912 215.534 275.57 214.181 273.975 214.181C272.38 214.181 271.027 215.534 271.027 217.151C271.027 218.768 272.38 220.132 273.975 220.132ZM273.975 219.395C272.842 219.395 271.896 218.372 271.896 217.151C271.896 215.941 272.842 214.918 273.975 214.918C275.097 214.918 276.043 215.941 276.043 217.151C276.043 218.372 275.097 219.395 273.975 219.395ZM280.98 214.181C280.177 214.181 279.44 214.621 279.11 215.226V214.313H278.285V220H279.11V216.381C279.11 215.589 279.913 214.918 280.87 214.918C281.706 214.918 282.289 215.567 282.289 216.491V220H283.114V216.381C283.114 215.094 282.234 214.181 280.98 214.181Z" fill="#737373"/>
<rect x="198" y="204" width="174" height="1" fill="#9A9A9A"/>
<path d="M357.8 191.745L361 195.056L364.2 191.745C364.381 191.557 364.375 191.258 364.187 191.076C363.999 190.895 363.7 190.901 363.519 191.089L361 193.697L358.478 191.089C358.297 190.901 357.997 190.895 357.81 191.076C357.622 191.258 357.616 191.557 357.797 191.745H357.8Z" fill="black"/>
<mask id="mask4" mask-type="alpha" maskUnits="userSpaceOnUse" x="357" y="190" width="8" height="6">
<path d="M357.8 191.745L361 195.056L364.2 191.745C364.381 191.557 364.375 191.258 364.187 191.076C363.999 190.895 363.7 190.901 363.519 191.089L361 193.697L358.478 191.089C358.297 190.901 357.997 190.895 357.81 191.076C357.622 191.258 357.616 191.557 357.797 191.745H357.8Z" fill="white"/>
</mask>
<g mask="url(#mask4)">
<rect x="366" y="198" width="10" height="10" transform="rotate(-180 366 198)" fill="#737373"/>
</g>
<path d="M205.222 195H208.238C211.072 195 213.074 193.141 213.074 190.528C213.074 187.915 211.072 186.069 208.238 186.069H205.222V195ZM206.236 194.077V186.992H208.238C210.474 186.992 212.047 188.461 212.047 190.528C212.047 192.608 210.474 194.077 208.238 194.077H206.236ZM218.01 195.156C219.895 195.156 221.481 193.544 221.481 191.633C221.481 189.722 219.895 188.123 218.01 188.123C216.125 188.123 214.526 189.722 214.526 191.633C214.526 193.544 216.125 195.156 218.01 195.156ZM218.01 194.285C216.671 194.285 215.553 193.076 215.553 191.633C215.553 190.203 216.671 188.994 218.01 188.994C219.336 188.994 220.454 190.203 220.454 191.633C220.454 193.076 219.336 194.285 218.01 194.285ZM226.121 194.285C224.795 194.285 223.872 193.323 223.729 192.01H229.228C229.228 189.657 228.071 188.123 226.043 188.123C224.236 188.123 222.728 189.618 222.728 191.62C222.728 193.687 224.34 195.156 226.134 195.156C227.07 195.156 228.253 194.753 228.838 194.116L228.24 193.479C227.824 193.934 226.914 194.285 226.121 194.285ZM226.082 188.994C227.421 188.994 228.136 189.93 228.266 191.139H223.742C223.924 189.839 224.886 188.994 226.082 188.994ZM233.202 195.156C234.593 195.156 235.659 194.363 235.659 193.128C235.659 191.854 234.541 191.49 233.462 191.152C232.214 190.749 231.72 190.567 231.72 189.982C231.72 189.332 232.344 188.994 233.098 188.994C233.696 188.994 234.359 189.202 235.035 189.631L235.503 188.877C234.788 188.409 233.93 188.123 233.098 188.123C231.759 188.123 230.745 188.877 230.745 190.099C230.745 191.061 231.369 191.542 232.994 192.01C233.904 192.27 234.684 192.504 234.684 193.232C234.684 193.869 234.086 194.285 233.202 194.285C232.461 194.285 231.694 193.999 230.927 193.44L230.42 194.155C231.226 194.805 232.266 195.156 233.202 195.156ZM241.277 195H242.291V187.733L247.829 195H248.843V186.069H247.829V193.336L242.291 186.069H241.277V195ZM254.167 195.156C256.052 195.156 257.638 193.544 257.638 191.633C257.638 189.722 256.052 188.123 254.167 188.123C252.282 188.123 250.683 189.722 250.683 191.633C250.683 193.544 252.282 195.156 254.167 195.156ZM254.167 194.285C252.828 194.285 251.71 193.076 251.71 191.633C251.71 190.203 252.828 188.994 254.167 188.994C255.493 188.994 256.611 190.203 256.611 191.633C256.611 193.076 255.493 194.285 254.167 194.285ZM262.199 194.012C262.056 194.168 261.796 194.285 261.497 194.285C261.107 194.285 260.769 193.934 260.769 193.44V189.15H262.42V188.279H260.769V186.433H259.794V188.279H258.741V189.15H259.794V193.44C259.794 194.441 260.47 195.156 261.432 195.156C261.887 195.156 262.329 195 262.68 194.727L262.199 194.012ZM272.094 195.156C273.329 195.156 274.473 194.623 275.305 193.791L274.616 193.089C273.966 193.778 273.069 194.22 272.094 194.22C270.17 194.22 268.545 192.53 268.545 190.528C268.545 188.539 270.17 186.849 272.094 186.849C273.069 186.849 273.966 187.291 274.616 187.98L275.305 187.278C274.473 186.433 273.329 185.913 272.094 185.913C269.624 185.913 267.518 188.019 267.518 190.528C267.518 193.037 269.624 195.156 272.094 195.156ZM279.786 195.156C281.671 195.156 283.257 193.544 283.257 191.633C283.257 189.722 281.671 188.123 279.786 188.123C277.901 188.123 276.302 189.722 276.302 191.633C276.302 193.544 277.901 195.156 279.786 195.156ZM279.786 194.285C278.447 194.285 277.329 193.076 277.329 191.633C277.329 190.203 278.447 188.994 279.786 188.994C281.112 188.994 282.23 190.203 282.23 191.633C282.23 193.076 281.112 194.285 279.786 194.285ZM288.065 188.123C287.116 188.123 286.245 188.643 285.855 189.358V188.279H284.88V195H285.855V190.723C285.855 189.787 286.804 188.994 287.935 188.994C288.923 188.994 289.612 189.761 289.612 190.853V195H290.587V190.723C290.587 189.202 289.547 188.123 288.065 188.123ZM295.511 194.012C295.368 194.168 295.108 194.285 294.809 194.285C294.419 194.285 294.081 193.934 294.081 193.44V189.15H295.732V188.279H294.081V186.433H293.106V188.279H292.053V189.15H293.106V193.44C293.106 194.441 293.782 195.156 294.744 195.156C295.199 195.156 295.641 195 295.992 194.727L295.511 194.012ZM300.102 188.123C299.452 188.123 298.646 188.292 297.684 188.773L298.074 189.566C298.685 189.254 299.361 188.955 300.037 188.955C301.493 188.955 301.857 189.995 301.857 190.905V191.152C301.168 190.931 300.401 190.775 299.673 190.775C298.23 190.775 297.034 191.672 297.034 193.011C297.034 194.337 298.074 195.156 299.491 195.156C300.375 195.156 301.376 194.74 301.857 193.947V195H302.832V190.905C302.832 189.28 301.935 188.123 300.102 188.123ZM299.66 194.298C298.711 194.298 297.983 193.804 297.983 192.972C297.983 192.166 298.828 191.594 299.829 191.594C300.557 191.594 301.246 191.698 301.857 191.867V192.894C301.597 193.843 300.544 194.298 299.66 194.298ZM305.305 187.057C305.656 187.057 305.942 186.758 305.942 186.407C305.942 186.069 305.656 185.77 305.305 185.77C304.941 185.77 304.655 186.069 304.655 186.407C304.655 186.758 304.941 187.057 305.305 187.057ZM304.811 195H305.786V188.279H304.811V195ZM310.942 188.123C309.993 188.123 309.122 188.643 308.732 189.358V188.279H307.757V195H308.732V190.723C308.732 189.787 309.681 188.994 310.812 188.994C311.8 188.994 312.489 189.761 312.489 190.853V195H313.464V190.723C313.464 189.202 312.424 188.123 310.942 188.123Z" fill="black"/>
<path d="M400.444 220.132C402.545 220.132 404.305 218.339 404.305 216.216C404.305 214.093 402.545 212.311 400.444 212.311C398.354 212.311 396.572 214.093 396.572 216.216C396.572 218.339 398.354 220.132 400.444 220.132ZM400.444 219.34C398.816 219.34 397.441 217.91 397.441 216.216C397.441 214.533 398.816 213.103 400.444 213.103C402.072 213.103 403.436 214.533 403.436 216.216C403.436 217.91 402.072 219.34 400.444 219.34ZM408.679 214.181C407.766 214.181 407.04 214.632 406.611 215.38V212.311H405.786V220H406.611V218.933C407.04 219.681 407.766 220.132 408.679 220.132C410.175 220.132 411.297 218.9 411.297 217.151C411.297 215.413 410.175 214.181 408.679 214.181ZM408.525 219.395C407.403 219.395 406.611 218.46 406.611 217.151C406.611 215.842 407.403 214.918 408.525 214.918C409.636 214.918 410.428 215.842 410.428 217.151C410.428 218.46 409.636 219.395 408.525 219.395ZM413.131 213.279C413.428 213.279 413.67 213.026 413.67 212.729C413.67 212.443 413.428 212.19 413.131 212.19C412.823 212.19 412.581 212.443 412.581 212.729C412.581 213.026 412.823 213.279 413.131 213.279ZM412.152 221.958C412.966 221.958 413.538 221.353 413.538 220.506V214.313H412.713V220.506C412.713 220.924 412.46 221.221 412.097 221.221C411.866 221.221 411.569 221.166 411.393 221.1L411.261 221.782C411.481 221.881 411.844 221.958 412.152 221.958ZM417.757 219.395C416.635 219.395 415.854 218.581 415.733 217.47H420.386C420.386 215.479 419.407 214.181 417.691 214.181C416.162 214.181 414.886 215.446 414.886 217.14C414.886 218.889 416.25 220.132 417.768 220.132C418.56 220.132 419.561 219.791 420.056 219.252L419.55 218.713C419.198 219.098 418.428 219.395 417.757 219.395ZM417.724 214.918C418.857 214.918 419.462 215.71 419.572 216.733H415.744C415.898 215.633 416.712 214.918 417.724 214.918ZM424.376 220.132C425.168 220.132 425.894 219.802 426.433 219.263L425.861 218.702C425.476 219.131 424.948 219.395 424.376 219.395C423.243 219.395 422.297 218.372 422.297 217.151C422.297 215.941 423.243 214.918 424.376 214.918C424.937 214.918 425.454 215.171 425.828 215.578L426.4 215.017C425.861 214.5 425.146 214.181 424.376 214.181C422.781 214.181 421.428 215.534 421.428 217.151C421.428 218.768 422.781 220.132 424.376 220.132ZM430.195 219.164C430.074 219.296 429.854 219.395 429.601 219.395C429.271 219.395 428.985 219.098 428.985 218.68V215.05H430.382V214.313H428.985V212.751H428.16V214.313H427.269V215.05H428.16V218.68C428.16 219.527 428.732 220.132 429.546 220.132C429.931 220.132 430.305 220 430.602 219.769L430.195 219.164ZM435.158 220H436.016V213.851L440.702 220H441.56V212.443H440.702V218.592L436.016 212.443H435.158V220ZM445.735 214.181C445.185 214.181 444.503 214.324 443.689 214.731L444.019 215.402C444.536 215.138 445.108 214.885 445.68 214.885C446.912 214.885 447.22 215.765 447.22 216.535V216.744C446.637 216.557 445.988 216.425 445.372 216.425C444.151 216.425 443.139 217.184 443.139 218.317C443.139 219.439 444.019 220.132 445.218 220.132C445.966 220.132 446.813 219.78 447.22 219.109V220H448.045V216.535C448.045 215.16 447.286 214.181 445.735 214.181ZM445.361 219.406C444.558 219.406 443.942 218.988 443.942 218.284C443.942 217.602 444.657 217.118 445.504 217.118C446.12 217.118 446.703 217.206 447.22 217.349V218.218C447 219.021 446.109 219.406 445.361 219.406ZM455.88 214.181C455.022 214.181 454.274 214.654 454.043 215.391C453.735 214.654 453.064 214.181 452.206 214.181C451.458 214.181 450.842 214.555 450.556 215.149V214.313H449.731V220H450.556V216.381C450.556 215.523 451.194 214.918 452.096 214.918C452.866 214.918 453.405 215.567 453.405 216.491V220H454.23V216.381C454.23 215.523 454.868 214.918 455.77 214.918C456.54 214.918 457.079 215.567 457.079 216.491V220H457.904V216.381C457.904 215.094 457.068 214.181 455.88 214.181ZM462.133 219.395C461.011 219.395 460.23 218.581 460.109 217.47H464.762C464.762 215.479 463.783 214.181 462.067 214.181C460.538 214.181 459.262 215.446 459.262 217.14C459.262 218.889 460.626 220.132 462.144 220.132C462.936 220.132 463.937 219.791 464.432 219.252L463.926 218.713C463.574 219.098 462.804 219.395 462.133 219.395ZM462.1 214.918C463.233 214.918 463.838 215.71 463.948 216.733H460.12C460.274 215.633 461.088 214.918 462.1 214.918ZM475.485 212.443L472.625 218.944L469.754 212.443H468.819L472.152 220H473.087L476.42 212.443H475.485ZM479.584 214.181C479.034 214.181 478.352 214.324 477.538 214.731L477.868 215.402C478.385 215.138 478.957 214.885 479.529 214.885C480.761 214.885 481.069 215.765 481.069 216.535V216.744C480.486 216.557 479.837 216.425 479.221 216.425C478 216.425 476.988 217.184 476.988 218.317C476.988 219.439 477.868 220.132 479.067 220.132C479.815 220.132 480.662 219.78 481.069 219.109V220H481.894V216.535C481.894 215.16 481.135 214.181 479.584 214.181ZM479.21 219.406C478.407 219.406 477.791 218.988 477.791 218.284C477.791 217.602 478.506 217.118 479.353 217.118C479.969 217.118 480.552 217.206 481.069 217.349V218.218C480.849 219.021 479.958 219.406 479.21 219.406ZM483.579 220H484.404V212.311H483.579V220ZM490.075 214.313V217.932C490.075 218.724 489.272 219.395 488.315 219.395C487.479 219.395 486.896 218.746 486.896 217.822V214.313H486.071V217.932C486.071 219.219 486.951 220.132 488.205 220.132C489.008 220.132 489.745 219.692 490.075 219.087V220H490.9V214.313H490.075ZM495.144 219.395C494.022 219.395 493.241 218.581 493.12 217.47H497.773C497.773 215.479 496.794 214.181 495.078 214.181C493.549 214.181 492.273 215.446 492.273 217.14C492.273 218.889 493.637 220.132 495.155 220.132C495.947 220.132 496.948 219.791 497.443 219.252L496.937 218.713C496.585 219.098 495.815 219.395 495.144 219.395ZM495.111 214.918C496.244 214.918 496.849 215.71 496.959 216.733H493.131C493.285 215.633 494.099 214.918 495.111 214.918Z" fill="#737373"/>
<rect x="396" y="204" width="256" height="1" fill="#9A9A9A"/>
<path d="M406.498 188.123C405.419 188.123 404.561 188.656 404.054 189.54V188.279H403.079V197.236H404.054V193.739C404.561 194.623 405.419 195.156 406.498 195.156C408.266 195.156 409.592 193.7 409.592 191.633C409.592 189.579 408.266 188.123 406.498 188.123ZM406.316 194.285C404.99 194.285 404.054 193.18 404.054 191.633C404.054 190.086 404.99 188.994 406.316 188.994C407.629 188.994 408.565 190.086 408.565 191.633C408.565 193.18 407.629 194.285 406.316 194.285ZM412.344 189.592V188.279H411.369V195H412.344V191.243C412.344 189.93 413.423 188.994 414.944 188.994V188.123C413.709 188.123 412.747 188.695 412.344 189.592ZM419.197 195.156C421.082 195.156 422.668 193.544 422.668 191.633C422.668 189.722 421.082 188.123 419.197 188.123C417.312 188.123 415.713 189.722 415.713 191.633C415.713 193.544 417.312 195.156 419.197 195.156ZM419.197 194.285C417.858 194.285 416.74 193.076 416.74 191.633C416.74 190.203 417.858 188.994 419.197 188.994C420.523 188.994 421.641 190.203 421.641 191.633C421.641 193.076 420.523 194.285 419.197 194.285ZM429.53 185.913V189.54C429.023 188.656 428.165 188.123 427.086 188.123C425.318 188.123 423.992 189.579 423.992 191.633C423.992 193.7 425.318 195.156 427.086 195.156C428.165 195.156 429.023 194.623 429.53 193.739V195H430.505V185.913H429.53ZM427.268 194.285C425.955 194.285 425.019 193.18 425.019 191.633C425.019 190.086 425.955 188.994 427.268 188.994C428.594 188.994 429.53 190.086 429.53 191.633C429.53 193.18 428.594 194.285 427.268 194.285Z" fill="black"/>
<path d="M685.705 202L689.35 198.355C689.52 198.157 689.508 197.861 689.324 197.676C689.139 197.492 688.843 197.48 688.645 197.65L685 201.295L681.355 197.645C681.157 197.475 680.861 197.487 680.676 197.671C680.492 197.856 680.48 198.152 680.65 198.35L684.295 202L680.645 205.645C680.502 205.767 680.44 205.959 680.484 206.142C680.528 206.324 680.671 206.467 680.853 206.511C681.036 206.555 681.228 206.493 681.35 206.35L685 202.705L688.645 206.35C688.843 206.52 689.139 206.509 689.324 206.324C689.508 206.139 689.52 205.844 689.35 205.645L685.705 202Z" fill="#737373"/>
<path d="M26.932 59.382L23.292 67.656L19.638 59.382H18.448L22.69 69H23.88L28.122 59.382H26.932ZM29.8844 69H30.9764V61.734L34.5464 68.44L38.1164 61.734V69H39.2084V59.382H38.1164L34.5464 66.088L30.9764 59.382H29.8844V69ZM44.1436 69.168C45.6416 69.168 46.7896 68.314 46.7896 66.984C46.7896 65.612 45.5856 65.22 44.4236 64.856C43.0796 64.422 42.5476 64.226 42.5476 63.596C42.5476 62.896 43.2196 62.532 44.0316 62.532C44.6756 62.532 45.3896 62.756 46.1176 63.218L46.6216 62.406C45.8516 61.902 44.9276 61.594 44.0316 61.594C42.5896 61.594 41.4976 62.406 41.4976 63.722C41.4976 64.758 42.1696 65.276 43.9196 65.78C44.8996 66.06 45.7396 66.312 45.7396 67.096C45.7396 67.782 45.0956 68.23 44.1436 68.23C43.3456 68.23 42.5196 67.922 41.6936 67.32L41.1476 68.09C42.0156 68.79 43.1356 69.168 44.1436 69.168ZM60.4134 61.594C59.3214 61.594 58.3694 62.196 58.0754 63.134C57.6834 62.196 56.8294 61.594 55.7374 61.594C54.7854 61.594 54.0014 62.07 53.6374 62.826V61.762H52.5874V69H53.6374V64.394C53.6374 63.302 54.4494 62.532 55.5974 62.532C56.5774 62.532 57.2634 63.358 57.2634 64.534V69H58.3134V64.394C58.3134 63.302 59.1254 62.532 60.2734 62.532C61.2534 62.532 61.9394 63.358 61.9394 64.534V69H62.9894V64.394C62.9894 62.756 61.9254 61.594 60.4134 61.594ZM70.2069 61.762V66.368C70.2069 67.376 69.1849 68.23 67.9669 68.23C66.9029 68.23 66.1609 67.404 66.1609 66.228V61.762H65.1109V66.368C65.1109 68.006 66.2309 69.168 67.8269 69.168C68.8489 69.168 69.7869 68.608 70.2069 67.838V69H71.2569V61.762H70.2069ZM75.958 69.168C77.456 69.168 78.604 68.314 78.604 66.984C78.604 65.612 77.4 65.22 76.238 64.856C74.894 64.422 74.362 64.226 74.362 63.596C74.362 62.896 75.034 62.532 75.846 62.532C76.49 62.532 77.204 62.756 77.932 63.218L78.436 62.406C77.666 61.902 76.742 61.594 75.846 61.594C74.404 61.594 73.312 62.406 73.312 63.722C73.312 64.758 73.984 65.276 75.734 65.78C76.714 66.06 77.554 66.312 77.554 67.096C77.554 67.782 76.91 68.23 75.958 68.23C75.16 68.23 74.334 67.922 73.508 67.32L72.962 68.09C73.83 68.79 74.95 69.168 75.958 69.168ZM83.5193 67.936C83.3653 68.104 83.0853 68.23 82.7633 68.23C82.3433 68.23 81.9793 67.852 81.9793 67.32V62.7H83.7573V61.762H81.9793V59.774H80.9293V61.762H79.7953V62.7H80.9293V67.32C80.9293 68.398 81.6573 69.168 82.6933 69.168C83.1833 69.168 83.6593 69 84.0373 68.706L83.5193 67.936ZM97.4095 61.594C96.3175 61.594 95.3655 62.196 95.0715 63.134C94.6795 62.196 93.8255 61.594 92.7335 61.594C91.7815 61.594 90.9975 62.07 90.6335 62.826V61.762H89.5835V69H90.6335V64.394C90.6335 63.302 91.4455 62.532 92.5935 62.532C93.5735 62.532 94.2595 63.358 94.2595 64.534V69H95.3095V64.394C95.3095 63.302 96.1215 62.532 97.2695 62.532C98.2495 62.532 98.9355 63.358 98.9355 64.534V69H99.9855V64.394C99.9855 62.756 98.9215 61.594 97.4095 61.594ZM105.369 68.23C103.941 68.23 102.947 67.194 102.793 65.78H108.715C108.715 63.246 107.469 61.594 105.285 61.594C103.339 61.594 101.715 63.204 101.715 65.36C101.715 67.586 103.451 69.168 105.383 69.168C106.391 69.168 107.665 68.734 108.295 68.048L107.651 67.362C107.203 67.852 106.223 68.23 105.369 68.23ZM105.327 62.532C106.769 62.532 107.539 63.54 107.679 64.842H102.807C103.003 63.442 104.039 62.532 105.327 62.532ZM113.695 68.23C112.267 68.23 111.273 67.194 111.119 65.78H117.041C117.041 63.246 115.795 61.594 113.611 61.594C111.665 61.594 110.041 63.204 110.041 65.36C110.041 67.586 111.777 69.168 113.709 69.168C114.717 69.168 115.991 68.734 116.621 68.048L115.977 67.362C115.529 67.852 114.549 68.23 113.695 68.23ZM113.653 62.532C115.095 62.532 115.865 63.54 116.005 64.842H111.133C111.329 63.442 112.365 62.532 113.653 62.532ZM121.937 67.936C121.783 68.104 121.503 68.23 121.181 68.23C120.761 68.23 120.397 67.852 120.397 67.32V62.7H122.175V61.762H120.397V59.774H119.347V61.762H118.213V62.7H119.347V67.32C119.347 68.398 120.075 69.168 121.111 69.168C121.601 69.168 122.077 69 122.455 68.706L121.937 67.936Z" fill="#565656"/>
<path d="M209.424 69.168C210.432 69.168 211.356 68.748 212.042 68.062L211.314 67.348C210.824 67.894 210.152 68.23 209.424 68.23C207.982 68.23 206.778 66.928 206.778 65.374C206.778 63.834 207.982 62.532 209.424 62.532C210.138 62.532 210.796 62.854 211.272 63.372L212 62.658C211.314 62 210.404 61.594 209.424 61.594C207.394 61.594 205.672 63.316 205.672 65.374C205.672 67.432 207.394 69.168 209.424 69.168ZM216.862 69.168C218.892 69.168 220.6 67.432 220.6 65.374C220.6 63.316 218.892 61.594 216.862 61.594C214.832 61.594 213.11 63.316 213.11 65.374C213.11 67.432 214.832 69.168 216.862 69.168ZM216.862 68.23C215.42 68.23 214.216 66.928 214.216 65.374C214.216 63.834 215.42 62.532 216.862 62.532C218.29 62.532 219.494 63.834 219.494 65.374C219.494 66.928 218.29 68.23 216.862 68.23ZM225.778 61.594C224.756 61.594 223.818 62.154 223.398 62.924V61.762H222.348V69H223.398V64.394C223.398 63.386 224.42 62.532 225.638 62.532C226.702 62.532 227.444 63.358 227.444 64.534V69H228.494V64.394C228.494 62.756 227.374 61.594 225.778 61.594ZM236.275 59.214V63.12C235.729 62.168 234.805 61.594 233.643 61.594C231.739 61.594 230.311 63.162 230.311 65.374C230.311 67.6 231.739 69.168 233.643 69.168C234.805 69.168 235.729 68.594 236.275 67.642V69H237.325V59.214H236.275ZM233.839 68.23C232.425 68.23 231.417 67.04 231.417 65.374C231.417 63.708 232.425 62.532 233.839 62.532C235.267 62.532 236.275 63.708 236.275 65.374C236.275 67.04 235.267 68.23 233.839 68.23ZM240.064 60.446C240.442 60.446 240.75 60.124 240.75 59.746C240.75 59.382 240.442 59.06 240.064 59.06C239.672 59.06 239.364 59.382 239.364 59.746C239.364 60.124 239.672 60.446 240.064 60.446ZM239.532 69H240.582V61.762H239.532V69ZM245.869 67.936C245.715 68.104 245.435 68.23 245.113 68.23C244.693 68.23 244.329 67.852 244.329 67.32V62.7H246.107V61.762H244.329V59.774H243.279V61.762H242.145V62.7H243.279V67.32C243.279 68.398 244.007 69.168 245.043 69.168C245.533 69.168 246.009 69 246.387 68.706L245.869 67.936ZM248.391 60.446C248.769 60.446 249.077 60.124 249.077 59.746C249.077 59.382 248.769 59.06 248.391 59.06C247.999 59.06 247.691 59.382 247.691 59.746C247.691 60.124 247.999 60.446 248.391 60.446ZM247.859 69H248.909V61.762H247.859V69ZM254.377 69.168C256.407 69.168 258.115 67.432 258.115 65.374C258.115 63.316 256.407 61.594 254.377 61.594C252.347 61.594 250.625 63.316 250.625 65.374C250.625 67.432 252.347 69.168 254.377 69.168ZM254.377 68.23C252.935 68.23 251.731 66.928 251.731 65.374C251.731 63.834 252.935 62.532 254.377 62.532C255.805 62.532 257.009 63.834 257.009 65.374C257.009 66.928 255.805 68.23 254.377 68.23ZM263.293 61.594C262.271 61.594 261.333 62.154 260.913 62.924V61.762H259.863V69H260.913V64.394C260.913 63.386 261.935 62.532 263.153 62.532C264.217 62.532 264.959 63.358 264.959 64.534V69H266.009V64.394C266.009 62.756 264.889 61.594 263.293 61.594ZM270.696 69.168C272.194 69.168 273.342 68.314 273.342 66.984C273.342 65.612 272.138 65.22 270.976 64.856C269.632 64.422 269.1 64.226 269.1 63.596C269.1 62.896 269.772 62.532 270.584 62.532C271.228 62.532 271.942 62.756 272.67 63.218L273.174 62.406C272.404 61.902 271.48 61.594 270.584 61.594C269.142 61.594 268.05 62.406 268.05 63.722C268.05 64.758 268.722 65.276 270.472 65.78C271.452 66.06 272.292 66.312 272.292 67.096C272.292 67.782 271.648 68.23 270.696 68.23C269.898 68.23 269.072 67.922 268.246 67.32L267.7 68.09C268.568 68.79 269.688 69.168 270.696 69.168ZM282.318 67.936C282.164 68.104 281.884 68.23 281.562 68.23C281.142 68.23 280.778 67.852 280.778 67.32V62.7H282.556V61.762H280.778V59.774H279.728V61.762H278.594V62.7H279.728V67.32C279.728 68.398 280.456 69.168 281.492 69.168C281.982 69.168 282.458 69 282.836 68.706L282.318 67.936ZM287.682 69.168C289.712 69.168 291.42 67.432 291.42 65.374C291.42 63.316 289.712 61.594 287.682 61.594C285.652 61.594 283.93 63.316 283.93 65.374C283.93 67.432 285.652 69.168 287.682 69.168ZM287.682 68.23C286.24 68.23 285.036 66.928 285.036 65.374C285.036 63.834 286.24 62.532 287.682 62.532C289.11 62.532 290.314 63.834 290.314 65.374C290.314 66.928 289.11 68.23 287.682 68.23ZM300.994 61.594C299.832 61.594 298.908 62.168 298.362 63.12V59.214H297.312V69H298.362V67.642C298.908 68.594 299.832 69.168 300.994 69.168C302.898 69.168 304.326 67.6 304.326 65.374C304.326 63.162 302.898 61.594 300.994 61.594ZM300.798 68.23C299.37 68.23 298.362 67.04 298.362 65.374C298.362 63.708 299.37 62.532 300.798 62.532C302.212 62.532 303.22 63.708 303.22 65.374C303.22 67.04 302.212 68.23 300.798 68.23ZM309.404 68.23C307.976 68.23 306.982 67.194 306.828 65.78H312.75C312.75 63.246 311.504 61.594 309.32 61.594C307.374 61.594 305.75 63.204 305.75 65.36C305.75 67.586 307.486 69.168 309.418 69.168C310.426 69.168 311.7 68.734 312.33 68.048L311.686 67.362C311.238 67.852 310.258 68.23 309.404 68.23ZM309.362 62.532C310.804 62.532 311.574 63.54 311.714 64.842H306.842C307.038 63.442 308.074 62.532 309.362 62.532ZM321.469 61.594C320.769 61.594 319.901 61.776 318.865 62.294L319.285 63.148C319.943 62.812 320.671 62.49 321.399 62.49C322.967 62.49 323.359 63.61 323.359 64.59V64.856C322.617 64.618 321.791 64.45 321.007 64.45C319.453 64.45 318.165 65.416 318.165 66.858C318.165 68.286 319.285 69.168 320.811 69.168C321.763 69.168 322.841 68.72 323.359 67.866V69H324.409V64.59C324.409 62.84 323.443 61.594 321.469 61.594ZM320.993 68.244C319.971 68.244 319.187 67.712 319.187 66.816C319.187 65.948 320.097 65.332 321.175 65.332C321.959 65.332 322.701 65.444 323.359 65.626V66.732C323.079 67.754 321.945 68.244 320.993 68.244ZM331.65 61.762V66.368C331.65 67.376 330.628 68.23 329.41 68.23C328.346 68.23 327.604 67.404 327.604 66.228V61.762H326.554V66.368C326.554 68.006 327.674 69.168 329.27 69.168C330.292 69.168 331.23 68.608 331.65 67.838V69H332.7V61.762H331.65ZM338.017 67.936C337.863 68.104 337.583 68.23 337.261 68.23C336.841 68.23 336.477 67.852 336.477 67.32V62.7H338.255V61.762H336.477V59.774H335.427V61.762H334.293V62.7H335.427V67.32C335.427 68.398 336.155 69.168 337.191 69.168C337.681 69.168 338.157 69 338.535 68.706L338.017 67.936ZM343.381 69.168C345.411 69.168 347.119 67.432 347.119 65.374C347.119 63.316 345.411 61.594 343.381 61.594C341.351 61.594 339.629 63.316 339.629 65.374C339.629 67.432 341.351 69.168 343.381 69.168ZM343.381 68.23C341.939 68.23 340.735 66.928 340.735 65.374C340.735 63.834 341.939 62.532 343.381 62.532C344.809 62.532 346.013 63.834 346.013 65.374C346.013 66.928 344.809 68.23 343.381 68.23ZM356.679 61.594C355.587 61.594 354.635 62.196 354.341 63.134C353.949 62.196 353.095 61.594 352.003 61.594C351.051 61.594 350.267 62.07 349.903 62.826V61.762H348.853V69H349.903V64.394C349.903 63.302 350.715 62.532 351.863 62.532C352.843 62.532 353.529 63.358 353.529 64.534V69H354.579V64.394C354.579 63.302 355.391 62.532 356.539 62.532C357.519 62.532 358.205 63.358 358.205 64.534V69H359.255V64.394C359.255 62.756 358.191 61.594 356.679 61.594ZM364.317 61.594C363.617 61.594 362.749 61.776 361.713 62.294L362.133 63.148C362.791 62.812 363.519 62.49 364.247 62.49C365.815 62.49 366.207 63.61 366.207 64.59V64.856C365.465 64.618 364.639 64.45 363.855 64.45C362.301 64.45 361.013 65.416 361.013 66.858C361.013 68.286 362.133 69.168 363.659 69.168C364.611 69.168 365.689 68.72 366.207 67.866V69H367.257V64.59C367.257 62.84 366.291 61.594 364.317 61.594ZM363.841 68.244C362.819 68.244 362.035 67.712 362.035 66.816C362.035 65.948 362.945 65.332 364.023 65.332C364.807 65.332 365.549 65.444 366.207 65.626V66.732C365.927 67.754 364.793 68.244 363.841 68.244ZM372.58 67.936C372.426 68.104 372.146 68.23 371.824 68.23C371.404 68.23 371.04 67.852 371.04 67.32V62.7H372.818V61.762H371.04V59.774H369.99V61.762H368.856V62.7H369.99V67.32C369.99 68.398 370.718 69.168 371.754 69.168C372.244 69.168 372.72 69 373.098 68.706L372.58 67.936ZM377.846 68.23C376.418 68.23 375.424 67.194 375.27 65.78H381.192C381.192 63.246 379.946 61.594 377.762 61.594C375.816 61.594 374.192 63.204 374.192 65.36C374.192 67.586 375.928 69.168 377.86 69.168C378.868 69.168 380.142 68.734 380.772 68.048L380.128 67.362C379.68 67.852 378.7 68.23 377.846 68.23ZM377.804 62.532C379.246 62.532 380.016 63.54 380.156 64.842H375.284C375.48 63.442 376.516 62.532 377.804 62.532ZM388.566 59.214V63.12C388.02 62.168 387.096 61.594 385.934 61.594C384.03 61.594 382.602 63.162 382.602 65.374C382.602 67.6 384.03 69.168 385.934 69.168C387.096 69.168 388.02 68.594 388.566 67.642V69H389.616V59.214H388.566ZM386.13 68.23C384.716 68.23 383.708 67.04 383.708 65.374C383.708 63.708 384.716 62.532 386.13 62.532C387.558 62.532 388.566 63.708 388.566 65.374C388.566 67.04 387.558 68.23 386.13 68.23ZM392.565 69.168C392.971 69.168 393.307 68.818 393.307 68.398C393.307 68.006 392.971 67.656 392.565 67.656C392.131 67.656 391.795 68.006 391.795 68.398C391.795 68.818 392.131 69.168 392.565 69.168Z" fill="#565656"/>
<rect x="129" y="78" width="58" height="1" fill="#9A9A9A"/>
<path d="M172.8 65.7446L176 69.0557L179.2 65.7446C179.381 65.5566 179.375 65.2575 179.187 65.0765C178.999 64.8955 178.7 64.9011 178.519 65.089L176 67.6973L173.478 65.089C173.297 64.9011 172.997 64.8955 172.81 65.0765C172.622 65.2575 172.616 65.5566 172.797 65.7446H172.8Z" fill="black"/>
<mask id="mask5" mask-type="alpha" maskUnits="userSpaceOnUse" x="172" y="64" width="8" height="6">
<path d="M172.8 65.7446L176 69.0557L179.2 65.7446C179.381 65.5566 179.375 65.2575 179.187 65.0765C178.999 64.8955 178.7 64.9011 178.519 65.089L176 67.6973L173.478 65.089C173.297 64.9011 172.997 64.8955 172.81 65.0765C172.622 65.2575 172.616 65.5566 172.797 65.7446H172.8Z" fill="white"/>
</mask>
<g mask="url(#mask5)">
<rect x="181" y="72" width="10" height="10" transform="rotate(-180 181 72)" fill="#737373"/>
</g>
<path d="M143.294 69H144.399L140.46 60.069H139.355L135.416 69H136.521L137.418 66.972H142.397L143.294 69ZM137.834 66.01L139.914 61.317L141.981 66.01H137.834ZM145.801 69H146.776V59.913H145.801V69ZM148.747 69H149.722V59.913H148.747V69Z" fill="black"/>
</g>
<defs>
<clipPath id="clip0">
<rect width="782" height="258" fill="white"/>
</clipPath>
</defs>
</svg>
