<svg width="442" height="323" viewBox="0 0 442 323" fill="none" xmlns="http://www.w3.org/2000/svg">
<g clip-path="url(#clip0)">
<path d="M854 -82H-586V1911H854V-82Z" fill="url(#paint0_radial)"/>
<path d="M438.26 243.445L876 -192.999L1048.04 -192.999L604.33 243.445H438.26Z" fill="url(#paint1_linear)"/>
<path d="M437.64 242.743L972.51 552.604L1017.04 718.786L480.62 403.156L437.64 242.743Z" fill="url(#paint2_linear)"/>
<path d="M342.998 286.889L-47.502 679.002H-186.502V642.502L176.926 286.889H342.998Z" fill="url(#paint3_linear)"/>
<path d="M437.74 242.555L0.00195312 678.999L49.812 460.777L271.666 242.555H437.74Z" fill="url(#paint4_linear)"/>
<path d="M392.114 147.002L0.000976562 -243.498V-382.498H36.501L392.114 -19.07V147.002Z" fill="url(#paint5_linear)"/>
<path d="M436.44 241.738L0 -195.998V-368.043L436.44 75.666V241.738Z" fill="url(#paint6_linear)"/>
<path d="M442 -82L442 240L-168 240L-168 -82L442 -82Z" fill="url(#paint7_linear)"/>
<path d="M914 243H438V737H914V243Z" fill="url(#paint8_linear)"/>
<path d="M436 731L436 243L-35 243L-35 731H436Z" fill="url(#paint9_linear)"/>
<path d="M45.2715 94.216C48.7095 94.216 51.5896 91.282 51.5896 87.808C51.5896 84.334 48.7095 81.418 45.2715 81.418C41.8515 81.418 38.9355 84.334 38.9355 87.808C38.9355 91.282 41.8515 94.216 45.2715 94.216ZM45.2715 93.136C42.4635 93.136 40.1056 90.706 40.1056 87.808C40.1056 84.928 42.4635 82.498 45.2715 82.498C48.0795 82.498 50.4196 84.928 50.4196 87.808C50.4196 90.706 48.0795 93.136 45.2715 93.136ZM57.0735 94H58.0636L62.0956 84.694H60.8536L57.5596 92.578L54.2476 84.694H53.0056L57.0735 94ZM67.4666 93.19C65.5586 93.19 64.1366 91.714 63.9386 89.788H71.8046C71.8046 86.584 70.1486 84.478 67.3946 84.478C64.8746 84.478 62.8046 86.566 62.8046 89.32C62.8046 92.11 64.9826 94.216 67.4666 94.216C68.8346 94.216 70.4726 93.64 71.2646 92.776L70.5626 92.02C69.9146 92.722 68.6366 93.19 67.4666 93.19ZM67.4306 85.504C69.3926 85.504 70.5446 86.89 70.6886 88.762H63.9565C64.1905 86.836 65.6126 85.504 67.4306 85.504ZM75.2556 86.602V84.694H74.1396V94H75.2556V88.798C75.2556 86.872 76.7496 85.504 78.8556 85.504V84.478C77.1456 84.478 75.7776 85.342 75.2556 86.602ZM84.4546 84.478C83.5366 84.478 82.3846 84.73 81.1606 85.378L81.6106 86.296C82.4566 85.828 83.4286 85.468 84.3646 85.468C86.4526 85.468 87.0646 86.962 87.0646 88.33V88.708C86.0746 88.384 84.9586 88.15 83.9506 88.15C81.8626 88.15 80.2606 89.41 80.2606 91.246C80.2606 93.046 81.7006 94.216 83.6446 94.216C84.9046 94.216 86.3806 93.622 87.0646 92.524V94H88.1806V88.33C88.1806 86.08 86.9026 84.478 84.4546 84.478ZM83.8246 93.208C82.4386 93.208 81.3586 92.434 81.3586 91.192C81.3586 89.986 82.5645 89.122 84.1125 89.122C85.1565 89.122 86.1826 89.32 87.0646 89.59V91.084C86.7046 92.524 85.1206 93.208 83.8246 93.208ZM90.9416 94H92.0576V81.418H90.9416V94ZM94.7916 94H95.9076V81.418H94.7916V94ZM113.978 94H115.238L109.784 81.634H108.524L103.07 94H104.33L105.608 91.084H112.7L113.978 94ZM106.112 89.968L109.154 83.056L112.196 89.968H106.112ZM117.24 94H118.392V89.428H122.316C124.854 89.428 126.78 87.826 126.78 85.54C126.78 83.254 124.854 81.634 122.316 81.634H117.24V94ZM118.392 88.33V82.732H122.118C124.188 82.732 125.628 83.812 125.628 85.54C125.628 87.25 124.188 88.33 122.118 88.33H118.392ZM128.789 94H129.941V81.634H128.789V94ZM146.694 81.634V87.142H139.152V81.634H138V94H139.152V88.258H146.694V94H147.846V81.634H146.694ZM154.796 93.19C152.888 93.19 151.466 91.714 151.268 89.788H159.134C159.134 86.584 157.478 84.478 154.724 84.478C152.204 84.478 150.134 86.566 150.134 89.32C150.134 92.11 152.312 94.216 154.796 94.216C156.164 94.216 157.802 93.64 158.594 92.776L157.892 92.02C157.244 92.722 155.966 93.19 154.796 93.19ZM154.76 85.504C156.722 85.504 157.874 86.89 158.018 88.762H151.286C151.52 86.836 152.942 85.504 154.76 85.504ZM165.069 84.478C164.151 84.478 162.999 84.73 161.775 85.378L162.225 86.296C163.071 85.828 164.043 85.468 164.979 85.468C167.067 85.468 167.679 86.962 167.679 88.33V88.708C166.689 88.384 165.573 88.15 164.565 88.15C162.477 88.15 160.875 89.41 160.875 91.246C160.875 93.046 162.315 94.216 164.259 94.216C165.519 94.216 166.995 93.622 167.679 92.524V94H168.795V88.33C168.795 86.08 167.517 84.478 165.069 84.478ZM164.439 93.208C163.053 93.208 161.973 92.434 161.973 91.192C161.973 89.986 163.179 89.122 164.727 89.122C165.771 89.122 166.797 89.32 167.679 89.59V91.084C167.319 92.524 165.735 93.208 164.439 93.208ZM171.556 94H172.672V81.418H171.556V94ZM179.527 92.794C179.275 93.028 178.879 93.19 178.447 93.19C177.835 93.19 177.331 92.632 177.331 91.84V85.72H179.671V84.694H177.331V82.138H176.215V84.694H174.703V85.72H176.215V91.84C176.215 93.226 177.115 94.216 178.375 94.216C178.987 94.216 179.617 94 180.103 93.622L179.527 92.794ZM186.208 84.478C184.84 84.478 183.652 85.198 183.148 86.224V81.418H182.032V94H183.148V88.078C183.148 86.638 184.426 85.504 186.064 85.504C187.54 85.504 188.584 86.602 188.584 88.168V94H189.7V88.024C189.7 85.954 188.26 84.478 186.208 84.478Z" fill="#D9E4EA"/>
<path d="M40.9262 67H42.0372V60.477H44.5232V59.443H38.4512V60.477H40.9262V67ZM51.5222 59.443V62.633H47.3972V59.443H46.2862V67H47.3972V63.667H51.5222V67H52.6332V59.443H51.5222ZM60.3332 60.477V59.443H54.7782V67H60.3332V65.966H55.9002V63.667H59.9042V62.633H55.9002V60.477H60.3332ZM68.2122 61.907C68.2122 60.466 67.0022 59.443 65.4072 59.443H62.2282V67H63.3392V64.371H65.0772L66.9252 67H68.2012L66.2762 64.261C67.4202 63.964 68.2122 63.073 68.2122 61.907ZM63.3392 60.477H65.2532C66.3422 60.477 67.0792 61.016 67.0792 61.907C67.0792 62.798 66.3422 63.337 65.2532 63.337H63.3392V60.477ZM70.1112 67H71.2222V61.621L73.8732 66.56L76.5242 61.621V67H77.6352V59.443H76.5242L73.8732 64.382L71.2222 59.443H70.1112V67ZM83.5522 67.132C85.6752 67.132 87.4572 65.339 87.4572 63.216C87.4572 61.093 85.6752 59.311 83.5522 59.311C81.4292 59.311 79.6252 61.093 79.6252 63.216C79.6252 65.339 81.4292 67.132 83.5522 67.132ZM83.5522 66.109C82.0452 66.109 80.7692 64.789 80.7692 63.216C80.7692 61.654 82.0452 60.334 83.5522 60.334C85.0592 60.334 86.3242 61.654 86.3242 63.216C86.3242 64.789 85.0592 66.109 83.5522 66.109ZM89.4482 67H90.5592V61.621L93.2102 66.56L95.8612 61.621V67H96.9722V59.443H95.8612L93.2102 64.382L90.5592 59.443H89.4482V67ZM104.814 60.477V59.443H99.2592V67H104.814V65.966H100.381V63.667H104.385V62.633H100.381V60.477H104.814ZM108.81 67H109.921V60.477H112.407V59.443H106.335V60.477H108.81V67ZM119.725 60.477V59.443H114.17V67H119.725V65.966H115.292V63.667H119.296V62.633H115.292V60.477H119.725ZM127.604 61.907C127.604 60.466 126.394 59.443 124.799 59.443H121.62V67H122.731V64.371H124.469L126.317 67H127.593L125.668 64.261C126.812 63.964 127.604 63.073 127.604 61.907ZM122.731 60.477H124.645C125.734 60.477 126.471 61.016 126.471 61.907C126.471 62.798 125.734 63.337 124.645 63.337H122.731V60.477Z" fill="#C1CDD4"/>
<g filter="url(#filter0_d)">
<path d="M401 116H41C39.3431 116 38 117.343 38 119V256C38 257.657 39.3431 259 41 259H401C402.657 259 404 257.657 404 256V119C404 117.343 402.657 116 401 116Z" fill="url(#paint10_linear)"/>
</g>
<path d="M100.932 201H102.122L97.8802 191.382H96.6902L92.4482 201H93.6382L94.6042 198.816H99.9662L100.932 201ZM95.0522 197.78L97.2922 192.726L99.5182 197.78H95.0522ZM106.026 201H107.034L110.072 193.762H108.896L106.53 199.768L104.122 193.762H102.946L106.026 201ZM114.291 200.23C112.863 200.23 111.869 199.194 111.715 197.78H117.637C117.637 195.246 116.391 193.594 114.207 193.594C112.261 193.594 110.637 195.204 110.637 197.36C110.637 199.586 112.373 201.168 114.305 201.168C115.313 201.168 116.587 200.734 117.217 200.048L116.573 199.362C116.125 199.852 115.145 200.23 114.291 200.23ZM114.249 194.532C115.691 194.532 116.461 195.54 116.601 196.842H111.729C111.925 195.442 112.961 194.532 114.249 194.532ZM120.503 195.176V193.762H119.453V201H120.503V196.954C120.503 195.54 121.665 194.532 123.303 194.532V193.594C121.973 193.594 120.937 194.21 120.503 195.176ZM127.695 193.594C126.995 193.594 126.127 193.776 125.091 194.294L125.511 195.148C126.169 194.812 126.897 194.49 127.625 194.49C129.193 194.49 129.585 195.61 129.585 196.59V196.856C128.843 196.618 128.017 196.45 127.233 196.45C125.679 196.45 124.391 197.416 124.391 198.858C124.391 200.286 125.511 201.168 127.037 201.168C127.989 201.168 129.067 200.72 129.585 199.866V201H130.635V196.59C130.635 194.84 129.669 193.594 127.695 193.594ZM127.219 200.244C126.197 200.244 125.413 199.712 125.413 198.816C125.413 197.948 126.323 197.332 127.401 197.332C128.185 197.332 128.927 197.444 129.585 197.626V198.732C129.305 199.754 128.171 200.244 127.219 200.244ZM138.409 193.762V195.008C137.849 194.126 136.925 193.594 135.777 193.594C133.831 193.594 132.445 195.008 132.445 197.024C132.445 199.04 133.831 200.468 135.777 200.468C136.925 200.468 137.849 199.936 138.409 199.054V200.23C138.409 201.644 137.429 202.47 135.763 202.47C134.867 202.47 133.999 202.148 133.439 201.616L132.977 202.442C133.635 203.002 134.727 203.408 135.903 203.408C137.989 203.408 139.459 202.092 139.459 200.23V193.762H138.409ZM135.973 199.53C134.559 199.53 133.551 198.494 133.551 197.024C133.551 195.568 134.559 194.532 135.973 194.532C137.401 194.532 138.409 195.568 138.409 197.024C138.409 198.494 137.401 199.53 135.973 199.53ZM144.943 200.23C143.515 200.23 142.521 199.194 142.367 197.78H148.289C148.289 195.246 147.043 193.594 144.859 193.594C142.913 193.594 141.289 195.204 141.289 197.36C141.289 199.586 143.025 201.168 144.957 201.168C145.965 201.168 147.239 200.734 147.869 200.048L147.225 199.362C146.777 199.852 145.797 200.23 144.943 200.23ZM144.901 194.532C146.343 194.532 147.113 195.54 147.253 196.842H142.381C142.577 195.442 143.613 194.532 144.901 194.532ZM161.936 201H163.126L158.884 191.382H157.694L153.452 201H154.642L155.608 198.816H160.97L161.936 201ZM156.056 197.78L158.296 192.726L160.522 197.78H156.056ZM164.678 201H165.77V197.542H168.584C170.572 197.542 172.126 196.268 172.126 194.462C172.126 192.656 170.572 191.382 168.584 191.382H164.678V201ZM165.77 196.506V192.418H168.388C169.956 192.418 171.02 193.174 171.02 194.462C171.02 195.75 169.956 196.506 168.388 196.506H165.77ZM173.688 201H174.78V191.382H173.688V201ZM97.6562 225.168C98.9863 225.168 100.218 224.594 101.114 223.698L100.372 222.942C99.6723 223.684 98.7062 224.16 97.6562 224.16C95.5842 224.16 93.8342 222.34 93.8342 220.184C93.8342 218.042 95.5842 216.222 97.6562 216.222C98.7062 216.222 99.6723 216.698 100.372 217.44L101.114 216.684C100.218 215.774 98.9863 215.214 97.6562 215.214C94.9962 215.214 92.7283 217.482 92.7283 220.184C92.7283 222.886 94.9962 225.168 97.6562 225.168ZM105.94 225.168C107.97 225.168 109.678 223.432 109.678 221.374C109.678 219.316 107.97 217.594 105.94 217.594C103.91 217.594 102.188 219.316 102.188 221.374C102.188 223.432 103.91 225.168 105.94 225.168ZM105.94 224.23C104.498 224.23 103.294 222.928 103.294 221.374C103.294 219.834 104.498 218.532 105.94 218.532C107.368 218.532 108.572 219.834 108.572 221.374C108.572 222.928 107.368 224.23 105.94 224.23ZM119.238 217.594C118.146 217.594 117.194 218.196 116.9 219.134C116.508 218.196 115.654 217.594 114.562 217.594C113.61 217.594 112.826 218.07 112.462 218.826V217.762H111.412V225H112.462V220.394C112.462 219.302 113.274 218.532 114.422 218.532C115.402 218.532 116.088 219.358 116.088 220.534V225H117.138V220.394C117.138 219.302 117.95 218.532 119.098 218.532C120.078 218.532 120.764 219.358 120.764 220.534V225H121.814V220.394C121.814 218.756 120.75 217.594 119.238 217.594ZM127.715 217.594C126.553 217.594 125.629 218.168 125.083 219.12V217.762H124.033V227.408H125.083V223.642C125.629 224.594 126.553 225.168 127.715 225.168C129.619 225.168 131.047 223.6 131.047 221.374C131.047 219.162 129.619 217.594 127.715 217.594ZM127.519 224.23C126.091 224.23 125.083 223.04 125.083 221.374C125.083 219.708 126.091 218.532 127.519 218.532C128.933 218.532 129.941 219.708 129.941 221.374C129.941 223.04 128.933 224.23 127.519 224.23ZM132.863 225H133.913V215.214H132.863V225ZM139.297 224.23C137.869 224.23 136.875 223.194 136.721 221.78H142.643C142.643 219.246 141.397 217.594 139.213 217.594C137.267 217.594 135.643 219.204 135.643 221.36C135.643 223.586 137.379 225.168 139.311 225.168C140.319 225.168 141.593 224.734 142.223 224.048L141.579 223.362C141.131 223.852 140.151 224.23 139.297 224.23ZM139.255 218.532C140.697 218.532 141.467 219.54 141.607 220.842H136.735C136.931 219.442 137.967 218.532 139.255 218.532ZM150.563 225L147.777 221.304L150.451 217.762H149.219L147.161 220.492L145.089 217.762H143.857L146.545 221.304L143.745 225H144.977L147.161 222.116L149.331 225H150.563ZM152.59 216.446C152.968 216.446 153.276 216.124 153.276 215.746C153.276 215.382 152.968 215.06 152.59 215.06C152.198 215.06 151.89 215.382 151.89 215.746C151.89 216.124 152.198 216.446 152.59 216.446ZM152.058 225H153.108V217.762H152.058V225ZM158.394 223.936C158.24 224.104 157.96 224.23 157.638 224.23C157.218 224.23 156.854 223.852 156.854 223.32V218.7H158.632V217.762H156.854V215.774H155.804V217.762H154.67V218.7H155.804V223.32C155.804 224.398 156.532 225.168 157.568 225.168C158.058 225.168 158.534 225 158.912 224.706L158.394 223.936ZM161.476 227.52C162.47 227.506 163.17 227.044 163.674 225.812L166.978 217.762H165.844L163.45 223.782L160.916 217.762H159.754L162.904 225.028L162.484 225.924C162.204 226.414 161.896 226.568 161.434 226.568C161.126 226.568 160.832 226.512 160.58 226.386L160.328 227.282C160.664 227.436 161.056 227.52 161.476 227.52ZM176.131 225.154C178.371 225.154 179.519 223.908 179.519 222.382C179.519 220.688 178.203 220.03 176.369 219.596C174.731 219.204 173.779 218.854 173.779 217.86C173.779 216.978 174.647 216.194 175.837 216.194C176.845 216.194 177.797 216.656 178.595 217.426L179.267 216.572C178.385 215.76 177.321 215.2 175.893 215.2C174.045 215.2 172.673 216.404 172.673 217.944C172.673 219.61 173.891 220.212 175.823 220.66C177.503 221.052 178.413 221.458 178.413 222.48C178.413 223.348 177.657 224.16 176.173 224.16C174.829 224.16 173.835 223.586 173.023 222.774L172.337 223.628C173.303 224.58 174.549 225.154 176.131 225.154ZM184.703 225.168C185.711 225.168 186.635 224.748 187.321 224.062L186.593 223.348C186.103 223.894 185.431 224.23 184.703 224.23C183.261 224.23 182.057 222.928 182.057 221.374C182.057 219.834 183.261 218.532 184.703 218.532C185.417 218.532 186.075 218.854 186.551 219.372L187.279 218.658C186.593 218 185.683 217.594 184.703 217.594C182.673 217.594 180.951 219.316 180.951 221.374C180.951 223.432 182.673 225.168 184.703 225.168ZM192.141 225.168C194.171 225.168 195.879 223.432 195.879 221.374C195.879 219.316 194.171 217.594 192.141 217.594C190.111 217.594 188.389 219.316 188.389 221.374C188.389 223.432 190.111 225.168 192.141 225.168ZM192.141 224.23C190.699 224.23 189.495 222.928 189.495 221.374C189.495 219.834 190.699 218.532 192.141 218.532C193.569 218.532 194.773 219.834 194.773 221.374C194.773 222.928 193.569 224.23 192.141 224.23ZM198.761 219.176V217.762H197.711V225H198.761V220.954C198.761 219.54 199.923 218.532 201.561 218.532V217.594C200.231 217.594 199.195 218.21 198.761 219.176ZM206.275 224.23C204.847 224.23 203.853 223.194 203.699 221.78H209.621C209.621 219.246 208.375 217.594 206.191 217.594C204.245 217.594 202.621 219.204 202.621 221.36C202.621 223.586 204.357 225.168 206.289 225.168C207.297 225.168 208.571 224.734 209.201 224.048L208.557 223.362C208.109 223.852 207.129 224.23 206.275 224.23ZM206.233 218.532C207.675 218.532 208.445 219.54 208.585 220.842H203.713C203.909 219.442 204.945 218.532 206.233 218.532Z" fill="#A9B6BE"/>
<path d="M276.424 201.168C278.454 201.168 280.162 199.432 280.162 197.374C280.162 195.316 278.454 193.594 276.424 193.594C274.394 193.594 272.672 195.316 272.672 197.374C272.672 199.432 274.394 201.168 276.424 201.168ZM276.424 200.23C274.982 200.23 273.778 198.928 273.778 197.374C273.778 195.834 274.982 194.532 276.424 194.532C277.852 194.532 279.056 195.834 279.056 197.374C279.056 198.928 277.852 200.23 276.424 200.23ZM283.534 192.768C283.534 192.236 283.898 191.858 284.318 191.858C284.64 191.858 284.92 191.984 285.074 192.152L285.592 191.382C285.214 191.088 284.738 190.92 284.248 190.92C283.212 190.92 282.484 191.69 282.484 192.768V193.762H281.35V194.7H282.484V201H283.534V194.7H285.312V193.762H283.534V192.768ZM298.733 201H299.923L295.681 191.382H294.491L290.249 201H291.439L292.405 198.816H297.767L298.733 201ZM292.853 197.78L295.093 192.726L297.319 197.78H292.853ZM301.475 201H302.567V197.542H305.381C307.369 197.542 308.923 196.268 308.923 194.462C308.923 192.656 307.369 191.382 305.381 191.382H301.475V201ZM302.567 196.506V192.418H305.185C306.753 192.418 307.817 193.174 307.817 194.462C307.817 195.75 306.753 196.506 305.185 196.506H302.567ZM310.485 201H311.577V191.382H310.485V201ZM316.314 201.168C317.812 201.168 318.96 200.314 318.96 198.984C318.96 197.612 317.756 197.22 316.594 196.856C315.25 196.422 314.718 196.226 314.718 195.596C314.718 194.896 315.39 194.532 316.202 194.532C316.846 194.532 317.56 194.756 318.288 195.218L318.792 194.406C318.022 193.902 317.098 193.594 316.202 193.594C314.76 193.594 313.668 194.406 313.668 195.722C313.668 196.758 314.34 197.276 316.09 197.78C317.07 198.06 317.91 198.312 317.91 199.096C317.91 199.782 317.266 200.23 316.314 200.23C315.516 200.23 314.69 199.922 313.864 199.32L313.318 200.09C314.186 200.79 315.306 201.168 316.314 201.168ZM327.697 193.594C326.997 193.594 326.129 193.776 325.093 194.294L325.513 195.148C326.171 194.812 326.899 194.49 327.627 194.49C329.195 194.49 329.587 195.61 329.587 196.59V196.856C328.845 196.618 328.019 196.45 327.235 196.45C325.681 196.45 324.393 197.416 324.393 198.858C324.393 200.286 325.513 201.168 327.039 201.168C327.991 201.168 329.069 200.72 329.587 199.866V201H330.637V196.59C330.637 194.84 329.671 193.594 327.697 193.594ZM327.221 200.244C326.199 200.244 325.415 199.712 325.415 198.816C325.415 197.948 326.325 197.332 327.403 197.332C328.187 197.332 328.929 197.444 329.587 197.626V198.732C329.307 199.754 328.173 200.244 327.221 200.244ZM333.931 195.176V193.762H332.881V201H333.931V196.954C333.931 195.54 335.093 194.532 336.731 194.532V193.594C335.401 193.594 334.365 194.21 333.931 195.176ZM341.445 200.23C340.017 200.23 339.023 199.194 338.869 197.78H344.791C344.791 195.246 343.545 193.594 341.361 193.594C339.415 193.594 337.791 195.204 337.791 197.36C337.791 199.586 339.527 201.168 341.459 201.168C342.467 201.168 343.741 200.734 344.371 200.048L343.727 199.362C343.279 199.852 342.299 200.23 341.445 200.23ZM341.403 194.532C342.845 194.532 343.615 195.54 343.755 196.842H338.883C339.079 195.442 340.115 194.532 341.403 194.532ZM278.72 215.214V219.12C278.174 218.168 277.25 217.594 276.088 217.594C274.184 217.594 272.756 219.162 272.756 221.374C272.756 223.6 274.184 225.168 276.088 225.168C277.25 225.168 278.174 224.594 278.72 223.642V225H279.77V215.214H278.72ZM276.284 224.23C274.87 224.23 273.862 223.04 273.862 221.374C273.862 219.708 274.87 218.532 276.284 218.532C277.712 218.532 278.72 219.708 278.72 221.374C278.72 223.04 277.712 224.23 276.284 224.23ZM285.352 225.168C287.382 225.168 289.09 223.432 289.09 221.374C289.09 219.316 287.382 217.594 285.352 217.594C283.322 217.594 281.6 219.316 281.6 221.374C281.6 223.432 283.322 225.168 285.352 225.168ZM285.352 224.23C283.91 224.23 282.706 222.928 282.706 221.374C282.706 219.834 283.91 218.532 285.352 218.532C286.78 218.532 287.984 219.834 287.984 221.374C287.984 222.928 286.78 224.23 285.352 224.23ZM294.184 225.168C295.192 225.168 296.116 224.748 296.802 224.062L296.074 223.348C295.584 223.894 294.912 224.23 294.184 224.23C292.742 224.23 291.538 222.928 291.538 221.374C291.538 219.834 292.742 218.532 294.184 218.532C294.898 218.532 295.556 218.854 296.032 219.372L296.76 218.658C296.074 218 295.164 217.594 294.184 217.594C292.154 217.594 290.432 219.316 290.432 221.374C290.432 223.432 292.154 225.168 294.184 225.168ZM303.508 217.762V222.368C303.508 223.376 302.486 224.23 301.268 224.23C300.204 224.23 299.462 223.404 299.462 222.228V217.762H298.412V222.368C298.412 224.006 299.532 225.168 301.128 225.168C302.15 225.168 303.088 224.608 303.508 223.838V225H304.558V217.762H303.508ZM314.523 217.594C313.431 217.594 312.479 218.196 312.185 219.134C311.793 218.196 310.939 217.594 309.847 217.594C308.895 217.594 308.111 218.07 307.747 218.826V217.762H306.697V225H307.747V220.394C307.747 219.302 308.559 218.532 309.707 218.532C310.687 218.532 311.373 219.358 311.373 220.534V225H312.423V220.394C312.423 219.302 313.235 218.532 314.383 218.532C315.363 218.532 316.049 219.358 316.049 220.534V225H317.099V220.394C317.099 218.756 316.035 217.594 314.523 217.594ZM322.482 224.23C321.054 224.23 320.06 223.194 319.906 221.78H325.828C325.828 219.246 324.582 217.594 322.398 217.594C320.452 217.594 318.828 219.204 318.828 221.36C318.828 223.586 320.564 225.168 322.496 225.168C323.504 225.168 324.778 224.734 325.408 224.048L324.764 223.362C324.316 223.852 323.336 224.23 322.482 224.23ZM322.44 218.532C323.882 218.532 324.652 219.54 324.792 220.842H319.92C320.116 219.442 321.152 218.532 322.44 218.532ZM330.99 217.594C329.968 217.594 329.03 218.154 328.61 218.924V217.762H327.56V225H328.61V220.394C328.61 219.386 329.632 218.532 330.85 218.532C331.914 218.532 332.656 219.358 332.656 220.534V225H333.706V220.394C333.706 218.756 332.586 217.594 330.99 217.594ZM339.01 223.936C338.856 224.104 338.576 224.23 338.254 224.23C337.834 224.23 337.47 223.852 337.47 223.32V218.7H339.248V217.762H337.47V215.774H336.42V217.762H335.286V218.7H336.42V223.32C336.42 224.398 337.148 225.168 338.184 225.168C338.674 225.168 339.15 225 339.528 224.706L339.01 223.936ZM344.275 224.23C342.847 224.23 341.853 223.194 341.699 221.78H347.621C347.621 219.246 346.375 217.594 344.191 217.594C342.245 217.594 340.621 219.204 340.621 221.36C340.621 223.586 342.357 225.168 344.289 225.168C345.297 225.168 346.571 224.734 347.201 224.048L346.557 223.362C346.109 223.852 345.129 224.23 344.275 224.23ZM344.233 218.532C345.675 218.532 346.445 219.54 346.585 220.842H341.713C341.909 219.442 342.945 218.532 344.233 218.532ZM354.995 215.214V219.12C354.449 218.168 353.525 217.594 352.363 217.594C350.459 217.594 349.031 219.162 349.031 221.374C349.031 223.6 350.459 225.168 352.363 225.168C353.525 225.168 354.449 224.594 354.995 223.642V225H356.045V215.214H354.995ZM352.559 224.23C351.145 224.23 350.137 223.04 350.137 221.374C350.137 219.708 351.145 218.532 352.559 218.532C353.987 218.532 354.995 219.708 354.995 221.374C354.995 223.04 353.987 224.23 352.559 224.23Z" fill="#A9B6BE"/>
<path d="M104.15 172.36C107.09 172.36 109.79 171.1 111.74 169.12L109.61 167.08C108.23 168.58 106.28 169.57 104.15 169.57C100.04 169.57 96.5604 165.97 96.5604 161.68C96.5604 157.42 100.04 153.82 104.15 153.82C106.28 153.82 108.23 154.81 109.61 156.31L111.74 154.27C109.79 152.26 107.09 151.03 104.15 151.03C98.3605 151.03 93.4404 155.89 93.4404 161.68C93.4404 167.47 98.3605 172.36 104.15 172.36ZM114.097 165.16H122.017V162.46H114.097V165.16Z" fill="#D9E4EA"/>
<path d="M280.97 170.36C285.44 170.36 288.59 167.63 288.59 163.46C288.59 159.35 285.47 157.01 281.78 157.01C279.95 157.01 278.57 157.61 277.49 158.33L277.67 152.21H287.48V149.39H274.79L274.49 160.16L276.62 161.12C277.85 160.19 279.32 159.62 281.03 159.62C283.7 159.62 285.53 161.21 285.53 163.58C285.53 165.89 283.73 167.69 281.06 167.69C278.87 167.69 276.95 166.61 275.36 164.96L273.47 167.12C275.24 169.04 277.7 170.36 280.97 170.36ZM294.064 170H297.544L306.214 151.67V149.39H291.814V152.21H302.644L294.064 170ZM314.392 159.59C317.272 159.59 319.312 157.34 319.312 154.4C319.312 151.52 317.362 149.21 314.422 149.21C311.512 149.21 309.502 151.49 309.502 154.46C309.502 157.28 311.452 159.59 314.392 159.59ZM312.082 170H314.452L328.642 149.39H326.242L312.082 170ZM314.422 157.67C312.892 157.67 311.752 156.29 311.752 154.43C311.752 152.51 312.832 151.16 314.392 151.16C315.922 151.16 317.062 152.54 317.062 154.43C317.062 156.32 315.952 157.67 314.422 157.67ZM326.212 170.3C329.092 170.3 331.132 168.05 331.132 165.08C331.132 162.26 329.182 159.92 326.242 159.92C323.332 159.92 321.322 162.26 321.322 165.11C321.322 168.05 323.362 170.3 326.212 170.3ZM326.242 168.35C324.682 168.35 323.572 166.97 323.572 165.08C323.572 163.25 324.652 161.84 326.212 161.84C327.742 161.84 328.882 163.22 328.882 165.11C328.882 167 327.802 168.35 326.242 168.35Z" fill="#D9E4EA"/>
<path d="M68 139C68 137.343 69.343 136 71 136C72.657 136 74 137.343 74 139V233H68V139Z" fill="#314351"/>
<path d="M248 139C248 137.343 249.343 136 251 136C252.657 136 254 137.343 254 139V233H248V139Z" fill="#314351"/>
<path d="M68 195V227H74V195H68Z" fill="#F52F22"/>
<path d="M248 195V227H254V195H248Z" fill="#F52F22"/>
<path d="M71 233C74.3137 233 77 230.314 77 227C77 223.686 74.3137 221 71 221C67.6863 221 65 223.686 65 227C65 230.314 67.6863 233 71 233Z" fill="#C92100"/>
<path d="M251 233C254.314 233 257 230.314 257 227C257 223.686 254.314 221 251 221C247.686 221 245 223.686 245 227C245 230.314 247.686 233 251 233Z" fill="#C92100"/>
<path fill-rule="evenodd" clip-rule="evenodd" d="M205 89C205 84.582 208.582 81 213 81C215.122 81 217.157 81.843 218.657 83.343C220.157 84.843 221 86.878 221 89C221 93.418 217.418 97 213 97C208.582 97 205 93.418 205 89ZM213.887 84.933C213.887 85.449 213.469 85.867 212.953 85.867C212.438 85.867 212.02 85.449 212.02 84.933C212.02 84.418 212.438 84 212.953 84C213.469 84 213.887 84.418 213.887 84.933ZM213 95.667C209.318 95.667 206.333 92.682 206.333 89C206.333 85.318 209.318 82.333 213 82.333C216.682 82.333 219.667 85.318 219.667 89C219.667 90.768 218.964 92.464 217.714 93.714C216.464 94.964 214.768 95.667 213 95.667ZM213.667 92.333H215C215.368 92.333 215.667 92.632 215.667 93C215.667 93.368 215.368 93.667 215 93.667H211C210.632 93.667 210.333 93.368 210.333 93C210.333 92.632 210.632 92.333 211 92.333H212.333V88.333H211.667C211.298 88.333 211 88.035 211 87.667C211 87.298 211.298 87 211.667 87H213.667V92.333Z" fill="#61717D"/>
<g filter="url(#filter1_d)">
</g>
</g>
<defs>
<filter id="filter0_d" x="20" y="110" width="402" height="179" filterUnits="userSpaceOnUse" color-interpolation-filters="sRGB">
<feFlood flood-opacity="0" result="BackgroundImageFix"/>
<feColorMatrix in="SourceAlpha" type="matrix" values="0 0 0 0 0 0 0 0 0 0 0 0 0 0 0 0 0 0 127 0"/>
<feOffset dy="12"/>
<feGaussianBlur stdDeviation="9"/>
<feColorMatrix type="matrix" values="0 0 0 0 0.00479167 0 0 0 0 0.00758578 0 0 0 0 0.0166667 0 0 0 0.6 0"/>
<feBlend mode="normal" in2="BackgroundImageFix" result="effect1_dropShadow"/>
<feBlend mode="normal" in="SourceGraphic" in2="effect1_dropShadow" result="shape"/>
</filter>
<filter id="filter1_d" x="428" y="110" width="384" height="179" filterUnits="userSpaceOnUse" color-interpolation-filters="sRGB">
<feFlood flood-opacity="0" result="BackgroundImageFix"/>
<feColorMatrix in="SourceAlpha" type="matrix" values="0 0 0 0 0 0 0 0 0 0 0 0 0 0 0 0 0 0 127 0"/>
<feOffset dy="12"/>
<feGaussianBlur stdDeviation="9"/>
<feColorMatrix type="matrix" values="0 0 0 0 0.00479167 0 0 0 0 0.00758578 0 0 0 0 0.0166667 0 0 0 0.6 0"/>
<feBlend mode="normal" in2="BackgroundImageFix" result="effect1_dropShadow"/>
<feBlend mode="normal" in="SourceGraphic" in2="effect1_dropShadow" result="shape"/>
</filter>
<radialGradient id="paint0_radial" cx="0" cy="0" r="1" gradientUnits="userSpaceOnUse" gradientTransform="translate(134 1911) rotate(-90) scale(1435.91 1037.49)">
<stop stop-color="#1C2029"/>
<stop offset="1" stop-color="#060D19"/>
</radialGradient>
<linearGradient id="paint1_linear" x1="520" y1="208.5" x2="1001" y2="-260.5" gradientUnits="userSpaceOnUse">
<stop stop-color="#333752"/>
<stop offset="1" stop-color="#1F2434"/>
</linearGradient>
<linearGradient id="paint2_linear" x1="501.55" y1="408.071" x2="745.64" y2="555.935" gradientUnits="userSpaceOnUse">
<stop stop-color="#3D415C"/>
<stop offset="1" stop-color="#8E93A6"/>
</linearGradient>
<linearGradient id="paint3_linear" x1="260.498" y1="303.002" x2="203.498" y2="414.502" gradientUnits="userSpaceOnUse">
<stop stop-color="#717892"/>
<stop offset="1" stop-color="#0B0C1E"/>
</linearGradient>
<linearGradient id="paint4_linear" x1="261.502" y1="261.499" x2="55.5019" y2="458.999" gradientUnits="userSpaceOnUse">
<stop stop-color="#3D415C"/>
<stop offset="1" stop-color="#8E93A6"/>
</linearGradient>
<linearGradient id="paint5_linear" x1="376.001" y1="64.502" x2="264.501" y2="7.502" gradientUnits="userSpaceOnUse">
<stop stop-color="#717892"/>
<stop offset="1" stop-color="#0B0C1E"/>
</linearGradient>
<linearGradient id="paint6_linear" x1="417.5" y1="65.502" x2="220" y2="-140.498" gradientUnits="userSpaceOnUse">
<stop stop-color="#3D415C"/>
<stop offset="1" stop-color="#8E93A6"/>
</linearGradient>
<linearGradient id="paint7_linear" x1="143.961" y1="-72.659" x2="196.931" y2="272.081" gradientUnits="userSpaceOnUse">
<stop stop-color="#070E1A"/>
<stop offset="0.694799" stop-color="#060D19" stop-opacity="0.8"/>
<stop offset="1" stop-color="#060D19" stop-opacity="0.4"/>
</linearGradient>
<linearGradient id="paint8_linear" x1="697.81" y1="584.773" x2="442.03" y2="246.18" gradientUnits="userSpaceOnUse">
<stop stop-color="#070E1A"/>
<stop offset="0.600966" stop-color="#060D19" stop-opacity="0.8"/>
<stop offset="1" stop-color="#060D19" stop-opacity="0"/>
</linearGradient>
<linearGradient id="paint9_linear" x1="221.345" y1="648.51" x2="425.802" y2="246.26" gradientUnits="userSpaceOnUse">
<stop offset="0.386396" stop-color="#070E1A"/>
<stop offset="0.708684" stop-color="#060D19" stop-opacity="0.8"/>
<stop offset="1" stop-color="#060D19" stop-opacity="0.4"/>
</linearGradient>
<linearGradient id="paint10_linear" x1="307.5" y1="116" x2="45" y2="279.5" gradientUnits="userSpaceOnUse">
<stop stop-color="#070F1C"/>
<stop offset="1" stop-color="#070F1C" stop-opacity="0"/>
</linearGradient>
<clipPath id="clip0">
<rect width="442" height="323" fill="white"/>
</clipPath>
</defs>
</svg>
