<svg width="1167" height="275" viewBox="0 0 1167 275" fill="none" xmlns="http://www.w3.org/2000/svg">
<g clip-path="url(#clip0)">
<rect width="1167" height="275" fill="#FAFAFA"/>
<path d="M38.632 52H45.156C51.148 52 55.376 47.996 55.376 42.368C55.376 36.74 51.148 32.764 45.156 32.764H38.632V52ZM40.424 50.348V34.416H45.156C50.084 34.416 53.584 37.72 53.584 42.368C53.584 47.044 50.084 50.348 45.156 50.348H40.424ZM60.1321 34.696C60.8041 34.696 61.3361 34.164 61.3361 33.492C61.3361 32.848 60.8041 32.288 60.1321 32.288C59.4601 32.288 58.9281 32.848 58.9281 33.492C58.9281 34.164 59.4601 34.696 60.1321 34.696ZM59.2641 52H61.0001V37.524H59.2641V52ZM71.0217 37.188C69.5937 37.188 67.8017 37.58 65.8977 38.588L66.5977 40.016C67.9137 39.288 69.4257 38.728 70.8817 38.728C74.1297 38.728 75.0817 41.052 75.0817 43.18V43.768C73.5417 43.264 71.8057 42.9 70.2377 42.9C66.9897 42.9 64.4977 44.86 64.4977 47.716C64.4977 50.516 66.7377 52.336 69.7617 52.336C71.7217 52.336 74.0177 51.412 75.0817 49.704V52H76.8177V43.18C76.8177 39.68 74.8297 37.188 71.0217 37.188ZM70.0417 50.768C67.8857 50.768 66.2057 49.564 66.2057 47.632C66.2057 45.756 68.0817 44.412 70.4897 44.412C72.1137 44.412 73.7097 44.72 75.0817 45.14V47.464C74.5217 49.704 72.0577 50.768 70.0417 50.768ZM92.3684 37.524V40.268C91.2484 38.308 89.2884 37.188 86.8524 37.188C83.1004 37.188 80.3004 40.128 80.3004 44.048C80.3004 47.996 83.1004 50.936 86.8524 50.936C89.2604 50.936 91.2484 49.788 92.3684 47.828V50.46C92.3684 53.4 90.2684 55.22 86.9644 55.22C85.1444 55.22 83.2684 54.548 82.0924 53.484L81.3084 54.884C82.6244 56.004 84.8924 56.816 87.1604 56.816C91.2484 56.816 94.1044 54.184 94.1044 50.46V37.524H92.3684ZM87.1604 49.34C84.2764 49.34 82.0924 47.072 82.0924 44.048C82.0924 41.052 84.2764 38.784 87.1604 38.784C90.1844 38.784 92.3684 40.968 92.3684 44.048C92.3684 47.156 90.1844 49.34 87.1604 49.34ZM105.082 37.188C102.954 37.188 101.106 38.308 100.322 39.904V37.524H98.5857V52H100.322V42.788C100.322 40.548 102.31 38.784 104.858 38.784C107.154 38.784 108.778 40.492 108.778 42.928V52H110.514V42.704C110.514 39.484 108.274 37.188 105.082 37.188ZM121.493 52.336C125.553 52.336 128.969 48.864 128.969 44.748C128.969 40.632 125.553 37.188 121.493 37.188C117.433 37.188 113.989 40.632 113.989 44.748C113.989 48.864 117.433 52.336 121.493 52.336ZM121.493 50.74C118.385 50.74 115.809 48.024 115.809 44.748C115.809 41.5 118.385 38.784 121.493 38.784C124.573 38.784 127.149 41.5 127.149 44.748C127.149 48.024 124.573 50.74 121.493 50.74ZM137.561 52.336C140.473 52.336 142.769 50.628 142.769 48.164C142.769 45.644 140.697 44.72 138.037 43.88C135.209 42.956 134.089 42.368 134.089 41.052C134.089 39.652 135.573 38.784 137.337 38.784C138.681 38.784 140.193 39.26 141.649 40.156L142.517 38.812C140.977 37.804 139.101 37.188 137.337 37.188C134.537 37.188 132.353 38.84 132.353 41.248C132.353 43.292 133.725 44.384 137.197 45.392C139.493 46.092 141.033 46.764 141.033 48.332C141.033 49.732 139.549 50.74 137.561 50.74C135.937 50.74 134.173 50.096 132.493 48.892L131.569 50.18C133.277 51.552 135.517 52.336 137.561 52.336ZM152.657 50.124C152.265 50.488 151.649 50.74 150.977 50.74C150.025 50.74 149.241 49.872 149.241 48.64V39.12H152.881V37.524H149.241V33.548H147.505V37.524H145.153V39.12H147.505V48.64C147.505 50.796 148.905 52.336 150.865 52.336C151.817 52.336 152.797 52 153.553 51.412L152.657 50.124ZM157.366 34.696C158.038 34.696 158.57 34.164 158.57 33.492C158.57 32.848 158.038 32.288 157.366 32.288C156.694 32.288 156.162 32.848 156.162 33.492C156.162 34.164 156.694 34.696 157.366 34.696ZM156.498 52H158.234V37.524H156.498V52ZM169.096 52.336C171.056 52.336 172.876 51.496 174.22 50.152L173.016 48.976C172.008 50.068 170.608 50.74 169.096 50.74C165.96 50.74 163.496 48.108 163.496 44.748C163.496 41.416 165.96 38.784 169.096 38.784C170.58 38.784 171.952 39.428 172.96 40.492L174.164 39.316C172.82 38 171.028 37.188 169.096 37.188C164.98 37.188 161.676 40.52 161.676 44.748C161.676 48.976 164.98 52.336 169.096 52.336ZM182.568 52.336C185.48 52.336 187.776 50.628 187.776 48.164C187.776 45.644 185.704 44.72 183.044 43.88C180.216 42.956 179.096 42.368 179.096 41.052C179.096 39.652 180.58 38.784 182.344 38.784C183.688 38.784 185.2 39.26 186.656 40.156L187.524 38.812C185.984 37.804 184.108 37.188 182.344 37.188C179.544 37.188 177.36 38.84 177.36 41.248C177.36 43.292 178.732 44.384 182.204 45.392C184.5 46.092 186.04 46.764 186.04 48.332C186.04 49.732 184.556 50.74 182.568 50.74C180.944 50.74 179.18 50.096 177.5 48.892L176.576 50.18C178.284 51.552 180.524 52.336 182.568 52.336Z" fill="#314351"/>
<path d="M39.864 84H40.956V75.418H44.19V74.382H36.63V75.418H39.864V84ZM49.3264 76.594C48.3044 76.594 47.3664 77.154 46.9464 77.924V74.214H45.8964V84H46.9464V79.394C46.9464 78.386 47.9684 77.532 49.1864 77.532C50.2504 77.532 50.9924 78.358 50.9924 79.534V84H52.0424V79.394C52.0424 77.756 50.9224 76.594 49.3264 76.594ZM57.4295 83.23C56.0015 83.23 55.0075 82.194 54.8535 80.78H60.7755C60.7755 78.246 59.5295 76.594 57.3455 76.594C55.3995 76.594 53.7755 78.204 53.7755 80.36C53.7755 82.586 55.5115 84.168 57.4435 84.168C58.4515 84.168 59.7255 83.734 60.3555 83.048L59.7115 82.362C59.2635 82.852 58.2835 83.23 57.4295 83.23ZM57.3875 77.532C58.8295 77.532 59.5995 78.54 59.7395 79.842H54.8675C55.0635 78.442 56.0995 77.532 57.3875 77.532ZM65.0557 84.168C66.5537 84.168 67.7017 83.314 67.7017 81.984C67.7017 80.612 66.4977 80.22 65.3357 79.856C63.9917 79.422 63.4597 79.226 63.4597 78.596C63.4597 77.896 64.1317 77.532 64.9437 77.532C65.5877 77.532 66.3017 77.756 67.0297 78.218L67.5337 77.406C66.7637 76.902 65.8397 76.594 64.9437 76.594C63.5017 76.594 62.4097 77.406 62.4097 78.722C62.4097 79.758 63.0817 80.276 64.8317 80.78C65.8117 81.06 66.6517 81.312 66.6517 82.096C66.6517 82.782 66.0077 83.23 65.0557 83.23C64.2577 83.23 63.4317 82.922 62.6057 82.32L62.0597 83.09C62.9277 83.79 64.0477 84.168 65.0557 84.168ZM72.701 83.23C71.273 83.23 70.279 82.194 70.125 80.78H76.047C76.047 78.246 74.801 76.594 72.617 76.594C70.671 76.594 69.047 78.204 69.047 80.36C69.047 82.586 70.783 84.168 72.715 84.168C73.723 84.168 74.997 83.734 75.627 83.048L74.983 82.362C74.535 82.852 73.555 83.23 72.701 83.23ZM72.659 77.532C74.101 77.532 74.871 78.54 75.011 79.842H70.139C70.335 78.442 71.371 77.532 72.659 77.532ZM84.7657 76.594C84.0657 76.594 83.1977 76.776 82.1617 77.294L82.5817 78.148C83.2397 77.812 83.9677 77.49 84.6957 77.49C86.2637 77.49 86.6557 78.61 86.6557 79.59V79.856C85.9137 79.618 85.0877 79.45 84.3037 79.45C82.7497 79.45 81.4617 80.416 81.4617 81.858C81.4617 83.286 82.5817 84.168 84.1077 84.168C85.0597 84.168 86.1377 83.72 86.6557 82.866V84H87.7057V79.59C87.7057 77.84 86.7397 76.594 84.7657 76.594ZM84.2897 83.244C83.2677 83.244 82.4837 82.712 82.4837 81.816C82.4837 80.948 83.3937 80.332 84.4717 80.332C85.2557 80.332 85.9977 80.444 86.6557 80.626V81.732C86.3757 82.754 85.2417 83.244 84.2897 83.244ZM90.9991 78.176V76.762H89.9491V84H90.9991V79.954C90.9991 78.54 92.1611 77.532 93.7991 77.532V76.594C92.4691 76.594 91.4331 77.21 90.9991 78.176ZM98.5135 83.23C97.0855 83.23 96.0915 82.194 95.9375 80.78H101.86C101.86 78.246 100.614 76.594 98.4295 76.594C96.4835 76.594 94.8595 78.204 94.8595 80.36C94.8595 82.586 96.5955 84.168 98.5275 84.168C99.5355 84.168 100.81 83.734 101.44 83.048L100.796 82.362C100.348 82.852 99.3675 83.23 98.5135 83.23ZM98.4715 77.532C99.9135 77.532 100.684 78.54 100.824 79.842H95.9515C96.1475 78.442 97.1835 77.532 98.4715 77.532ZM110.816 82.936C110.662 83.104 110.382 83.23 110.06 83.23C109.64 83.23 109.276 82.852 109.276 82.32V77.7H111.054V76.762H109.276V74.774H108.226V76.762H107.092V77.7H108.226V82.32C108.226 83.398 108.954 84.168 109.99 84.168C110.48 84.168 110.956 84 111.334 83.706L110.816 82.936ZM116.264 76.594C115.242 76.594 114.304 77.154 113.884 77.924V74.214H112.834V84H113.884V79.394C113.884 78.386 114.906 77.532 116.124 77.532C117.188 77.532 117.93 78.358 117.93 79.534V84H118.98V79.394C118.98 77.756 117.86 76.594 116.264 76.594ZM124.367 83.23C122.939 83.23 121.945 82.194 121.791 80.78H127.713C127.713 78.246 126.467 76.594 124.283 76.594C122.337 76.594 120.713 78.204 120.713 80.36C120.713 82.586 122.449 84.168 124.381 84.168C125.389 84.168 126.663 83.734 127.293 83.048L126.649 82.362C126.201 82.852 125.221 83.23 124.367 83.23ZM124.325 77.532C125.767 77.532 126.537 78.54 126.677 79.842H121.805C122.001 78.442 123.037 77.532 124.325 77.532ZM135.13 75.768C135.13 75.236 135.494 74.858 135.914 74.858C136.236 74.858 136.516 74.984 136.67 75.152L137.188 74.382C136.81 74.088 136.334 73.92 135.844 73.92C134.808 73.92 134.08 74.69 134.08 75.768V76.762H132.946V77.7H134.08V84H135.13V77.7H136.908V76.762H135.13V75.768ZM141.76 84.168C143.79 84.168 145.498 82.432 145.498 80.374C145.498 78.316 143.79 76.594 141.76 76.594C139.73 76.594 138.008 78.316 138.008 80.374C138.008 82.432 139.73 84.168 141.76 84.168ZM141.76 83.23C140.318 83.23 139.114 81.928 139.114 80.374C139.114 78.834 140.318 77.532 141.76 77.532C143.188 77.532 144.392 78.834 144.392 80.374C144.392 81.928 143.188 83.23 141.76 83.23ZM147.232 84H148.282V74.214H147.232V84ZM150.404 84H151.454V74.214H150.404V84ZM156.936 84.168C158.966 84.168 160.674 82.432 160.674 80.374C160.674 78.316 158.966 76.594 156.936 76.594C154.906 76.594 153.184 78.316 153.184 80.374C153.184 82.432 154.906 84.168 156.936 84.168ZM156.936 83.23C155.494 83.23 154.29 81.928 154.29 80.374C154.29 78.834 155.494 77.532 156.936 77.532C158.364 77.532 159.568 78.834 159.568 80.374C159.568 81.928 158.364 83.23 156.936 83.23ZM163.982 84H164.976L166.922 78.218L168.84 84H169.834L172.27 76.762H171.15L169.344 82.6L167.37 76.762H166.46L164.486 82.6L162.68 76.762H161.56L163.982 84ZM174.314 75.446C174.692 75.446 175 75.124 175 74.746C175 74.382 174.692 74.06 174.314 74.06C173.922 74.06 173.614 74.382 173.614 74.746C173.614 75.124 173.922 75.446 174.314 75.446ZM173.782 84H174.832V76.762H173.782V84ZM180.385 76.594C179.363 76.594 178.425 77.154 178.005 77.924V76.762H176.955V84H178.005V79.394C178.005 78.386 179.027 77.532 180.245 77.532C181.309 77.532 182.051 78.358 182.051 79.534V84H183.101V79.394C183.101 77.756 181.981 76.594 180.385 76.594ZM190.854 76.762V78.008C190.294 77.126 189.37 76.594 188.222 76.594C186.276 76.594 184.89 78.008 184.89 80.024C184.89 82.04 186.276 83.468 188.222 83.468C189.37 83.468 190.294 82.936 190.854 82.054V83.23C190.854 84.644 189.874 85.47 188.208 85.47C187.312 85.47 186.444 85.148 185.884 84.616L185.422 85.442C186.08 86.002 187.172 86.408 188.348 86.408C190.434 86.408 191.904 85.092 191.904 83.23V76.762H190.854ZM188.418 82.53C187.004 82.53 185.996 81.494 185.996 80.024C185.996 78.568 187.004 77.532 188.418 77.532C189.846 77.532 190.854 78.568 190.854 80.024C190.854 81.494 189.846 82.53 188.418 82.53ZM201.127 76.594C200.427 76.594 199.559 76.776 198.523 77.294L198.943 78.148C199.601 77.812 200.329 77.49 201.057 77.49C202.625 77.49 203.017 78.61 203.017 79.59V79.856C202.275 79.618 201.449 79.45 200.665 79.45C199.111 79.45 197.823 80.416 197.823 81.858C197.823 83.286 198.943 84.168 200.469 84.168C201.421 84.168 202.499 83.72 203.017 82.866V84H204.067V79.59C204.067 77.84 203.101 76.594 201.127 76.594ZM200.651 83.244C199.629 83.244 198.845 82.712 198.845 81.816C198.845 80.948 199.755 80.332 200.833 80.332C201.617 80.332 202.359 80.444 203.017 80.626V81.732C202.737 82.754 201.603 83.244 200.651 83.244ZM207.36 78.176V76.762H206.31V84H207.36V79.954C207.36 78.54 208.522 77.532 210.16 77.532V76.594C208.83 76.594 207.794 77.21 207.36 78.176ZM214.875 83.23C213.447 83.23 212.453 82.194 212.299 80.78H218.221C218.221 78.246 216.975 76.594 214.791 76.594C212.845 76.594 211.221 78.204 211.221 80.36C211.221 82.586 212.957 84.168 214.889 84.168C215.897 84.168 217.171 83.734 217.801 83.048L217.157 82.362C216.709 82.852 215.729 83.23 214.875 83.23ZM214.833 77.532C216.275 77.532 217.045 78.54 217.185 79.842H212.313C212.509 78.442 213.545 77.532 214.833 77.532ZM222.879 76.594C222.179 76.594 221.311 76.776 220.275 77.294L220.695 78.148C221.353 77.812 222.081 77.49 222.809 77.49C224.377 77.49 224.769 78.61 224.769 79.59V79.856C224.027 79.618 223.201 79.45 222.417 79.45C220.863 79.45 219.575 80.416 219.575 81.858C219.575 83.286 220.695 84.168 222.221 84.168C223.173 84.168 224.251 83.72 224.769 82.866V84H225.819V79.59C225.819 77.84 224.853 76.594 222.879 76.594ZM222.403 83.244C221.381 83.244 220.597 82.712 220.597 81.816C220.597 80.948 221.507 80.332 222.585 80.332C223.369 80.332 224.111 80.444 224.769 80.626V81.732C224.489 82.754 223.355 83.244 222.403 83.244ZM230.526 84.168C232.024 84.168 233.172 83.314 233.172 81.984C233.172 80.612 231.968 80.22 230.806 79.856C229.462 79.422 228.93 79.226 228.93 78.596C228.93 77.896 229.602 77.532 230.414 77.532C231.058 77.532 231.772 77.756 232.5 78.218L233.004 77.406C232.234 76.902 231.31 76.594 230.414 76.594C228.972 76.594 227.88 77.406 227.88 78.722C227.88 79.758 228.552 80.276 230.302 80.78C231.282 81.06 232.122 81.312 232.122 82.096C232.122 82.782 231.478 83.23 230.526 83.23C229.728 83.23 228.902 82.922 228.076 82.32L227.53 83.09C228.398 83.79 229.518 84.168 230.526 84.168ZM240.818 84H241.812L243.758 78.218L245.676 84H246.67L249.106 76.762H247.986L246.18 82.6L244.206 76.762H243.296L241.322 82.6L239.516 76.762H238.396L240.818 84ZM253.539 83.23C252.111 83.23 251.117 82.194 250.963 80.78H256.885C256.885 78.246 255.639 76.594 253.455 76.594C251.509 76.594 249.885 78.204 249.885 80.36C249.885 82.586 251.621 84.168 253.553 84.168C254.561 84.168 255.835 83.734 256.465 83.048L255.821 82.362C255.373 82.852 254.393 83.23 253.539 83.23ZM253.497 77.532C254.939 77.532 255.709 78.54 255.849 79.842H250.977C251.173 78.442 252.209 77.532 253.497 77.532ZM265.926 83.23C264.498 83.23 263.504 82.194 263.35 80.78H269.272C269.272 78.246 268.026 76.594 265.842 76.594C263.896 76.594 262.272 78.204 262.272 80.36C262.272 82.586 264.008 84.168 265.94 84.168C266.948 84.168 268.222 83.734 268.852 83.048L268.208 82.362C267.76 82.852 266.78 83.23 265.926 83.23ZM265.884 77.532C267.326 77.532 268.096 78.54 268.236 79.842H263.364C263.56 78.442 264.596 77.532 265.884 77.532ZM273.384 84H274.392L277.43 76.762H276.254L273.888 82.768L271.48 76.762H270.304L273.384 84ZM281.258 76.594C280.558 76.594 279.69 76.776 278.654 77.294L279.074 78.148C279.732 77.812 280.46 77.49 281.188 77.49C282.756 77.49 283.148 78.61 283.148 79.59V79.856C282.406 79.618 281.58 79.45 280.796 79.45C279.242 79.45 277.954 80.416 277.954 81.858C277.954 83.286 279.074 84.168 280.6 84.168C281.552 84.168 282.63 83.72 283.148 82.866V84H284.198V79.59C284.198 77.84 283.232 76.594 281.258 76.594ZM280.782 83.244C279.76 83.244 278.976 82.712 278.976 81.816C278.976 80.948 279.886 80.332 280.964 80.332C281.748 80.332 282.49 80.444 283.148 80.626V81.732C282.868 82.754 281.734 83.244 280.782 83.244ZM286.343 84H287.393V74.214H286.343V84ZM294.611 76.762V81.368C294.611 82.376 293.589 83.23 292.371 83.23C291.307 83.23 290.565 82.404 290.565 81.228V76.762H289.515V81.368C289.515 83.006 290.635 84.168 292.231 84.168C293.253 84.168 294.191 83.608 294.611 82.838V84H295.661V76.762H294.611ZM300.74 76.594C300.04 76.594 299.172 76.776 298.136 77.294L298.556 78.148C299.214 77.812 299.942 77.49 300.67 77.49C302.238 77.49 302.63 78.61 302.63 79.59V79.856C301.888 79.618 301.062 79.45 300.278 79.45C298.724 79.45 297.436 80.416 297.436 81.858C297.436 83.286 298.556 84.168 300.082 84.168C301.034 84.168 302.112 83.72 302.63 82.866V84H303.68V79.59C303.68 77.84 302.714 76.594 300.74 76.594ZM300.264 83.244C299.242 83.244 298.458 82.712 298.458 81.816C298.458 80.948 299.368 80.332 300.446 80.332C301.23 80.332 301.972 80.444 302.63 80.626V81.732C302.35 82.754 301.216 83.244 300.264 83.244ZM309.004 82.936C308.85 83.104 308.57 83.23 308.248 83.23C307.828 83.23 307.464 82.852 307.464 82.32V77.7H309.242V76.762H307.464V74.774H306.414V76.762H305.28V77.7H306.414V82.32C306.414 83.398 307.142 84.168 308.178 84.168C308.668 84.168 309.144 84 309.522 83.706L309.004 82.936ZM314.269 83.23C312.841 83.23 311.847 82.194 311.693 80.78H317.615C317.615 78.246 316.369 76.594 314.185 76.594C312.239 76.594 310.615 78.204 310.615 80.36C310.615 82.586 312.351 84.168 314.283 84.168C315.291 84.168 316.565 83.734 317.195 83.048L316.551 82.362C316.103 82.852 315.123 83.23 314.269 83.23ZM314.227 77.532C315.669 77.532 316.439 78.54 316.579 79.842H311.707C311.903 78.442 312.939 77.532 314.227 77.532ZM324.472 86.52C325.466 86.506 326.166 86.044 326.67 84.812L329.974 76.762H328.84L326.446 82.782L323.912 76.762H322.75L325.9 84.028L325.48 84.924C325.2 85.414 324.892 85.568 324.43 85.568C324.122 85.568 323.828 85.512 323.576 85.386L323.324 86.282C323.66 86.436 324.052 86.52 324.472 86.52ZM334.779 84.168C336.809 84.168 338.517 82.432 338.517 80.374C338.517 78.316 336.809 76.594 334.779 76.594C332.749 76.594 331.027 78.316 331.027 80.374C331.027 82.432 332.749 84.168 334.779 84.168ZM334.779 83.23C333.337 83.23 332.133 81.928 332.133 80.374C332.133 78.834 333.337 77.532 334.779 77.532C336.207 77.532 337.411 78.834 337.411 80.374C337.411 81.928 336.207 83.23 334.779 83.23ZM345.348 76.762V81.368C345.348 82.376 344.326 83.23 343.108 83.23C342.044 83.23 341.302 82.404 341.302 81.228V76.762H340.252V81.368C340.252 83.006 341.372 84.168 342.968 84.168C343.99 84.168 344.928 83.608 345.348 82.838V84H346.398V76.762H345.348ZM349.685 78.176V76.762H348.635V84H349.685V79.954C349.685 78.54 350.847 77.532 352.485 77.532V76.594C351.155 76.594 350.119 77.21 349.685 78.176ZM360.56 84.168C362.058 84.168 363.206 83.314 363.206 81.984C363.206 80.612 362.002 80.22 360.84 79.856C359.496 79.422 358.964 79.226 358.964 78.596C358.964 77.896 359.636 77.532 360.448 77.532C361.092 77.532 361.806 77.756 362.534 78.218L363.038 77.406C362.268 76.902 361.344 76.594 360.448 76.594C359.006 76.594 357.914 77.406 357.914 78.722C357.914 79.758 358.586 80.276 360.336 80.78C361.316 81.06 362.156 81.312 362.156 82.096C362.156 82.782 361.512 83.23 360.56 83.23C359.762 83.23 358.936 82.922 358.11 82.32L357.564 83.09C358.432 83.79 359.552 84.168 360.56 84.168ZM368.723 76.594C367.561 76.594 366.637 77.168 366.091 78.12V76.762H365.041V86.408H366.091V82.642C366.637 83.594 367.561 84.168 368.723 84.168C370.627 84.168 372.055 82.6 372.055 80.374C372.055 78.162 370.627 76.594 368.723 76.594ZM368.527 83.23C367.099 83.23 366.091 82.04 366.091 80.374C366.091 78.708 367.099 77.532 368.527 77.532C369.941 77.532 370.949 78.708 370.949 80.374C370.949 82.04 369.941 83.23 368.527 83.23ZM377.133 83.23C375.705 83.23 374.711 82.194 374.557 80.78H380.479C380.479 78.246 379.233 76.594 377.049 76.594C375.103 76.594 373.479 78.204 373.479 80.36C373.479 82.586 375.215 84.168 377.147 84.168C378.155 84.168 379.429 83.734 380.059 83.048L379.415 82.362C378.967 82.852 377.987 83.23 377.133 83.23ZM377.091 77.532C378.533 77.532 379.303 78.54 379.443 79.842H374.571C374.767 78.442 375.803 77.532 377.091 77.532ZM385.557 84.168C386.565 84.168 387.489 83.748 388.175 83.062L387.447 82.348C386.957 82.894 386.285 83.23 385.557 83.23C384.115 83.23 382.911 81.928 382.911 80.374C382.911 78.834 384.115 77.532 385.557 77.532C386.271 77.532 386.929 77.854 387.405 78.372L388.133 77.658C387.447 77 386.537 76.594 385.557 76.594C383.527 76.594 381.805 78.316 381.805 80.374C381.805 82.432 383.527 84.168 385.557 84.168ZM397.023 82.936C396.869 83.104 396.589 83.23 396.267 83.23C395.847 83.23 395.483 82.852 395.483 82.32V77.7H397.261V76.762H395.483V74.774H394.433V76.762H393.299V77.7H394.433V82.32C394.433 83.398 395.161 84.168 396.197 84.168C396.687 84.168 397.163 84 397.541 83.706L397.023 82.936ZM402.387 84.168C404.417 84.168 406.125 82.432 406.125 80.374C406.125 78.316 404.417 76.594 402.387 76.594C400.357 76.594 398.635 78.316 398.635 80.374C398.635 82.432 400.357 84.168 402.387 84.168ZM402.387 83.23C400.945 83.23 399.741 81.928 399.741 80.374C399.741 78.834 400.945 77.532 402.387 77.532C403.815 77.532 405.019 78.834 405.019 80.374C405.019 81.928 403.815 83.23 402.387 83.23ZM417.547 76.762V78.008C416.987 77.126 416.063 76.594 414.915 76.594C412.969 76.594 411.583 78.008 411.583 80.024C411.583 82.04 412.969 83.468 414.915 83.468C416.063 83.468 416.987 82.936 417.547 82.054V83.23C417.547 84.644 416.567 85.47 414.901 85.47C414.005 85.47 413.137 85.148 412.577 84.616L412.115 85.442C412.773 86.002 413.865 86.408 415.041 86.408C417.127 86.408 418.597 85.092 418.597 83.23V76.762H417.547ZM415.111 82.53C413.697 82.53 412.689 81.494 412.689 80.024C412.689 78.568 413.697 77.532 415.111 77.532C416.539 77.532 417.547 78.568 417.547 80.024C417.547 81.494 416.539 82.53 415.111 82.53ZM421.338 75.446C421.716 75.446 422.024 75.124 422.024 74.746C422.024 74.382 421.716 74.06 421.338 74.06C420.946 74.06 420.638 74.382 420.638 74.746C420.638 75.124 420.946 75.446 421.338 75.446ZM420.806 84H421.856V76.762H420.806V84ZM426.358 84H427.366L430.404 76.762H429.228L426.862 82.768L424.454 76.762H423.278L426.358 84ZM434.623 83.23C433.195 83.23 432.201 82.194 432.047 80.78H437.969C437.969 78.246 436.723 76.594 434.539 76.594C432.593 76.594 430.969 78.204 430.969 80.36C430.969 82.586 432.705 84.168 434.637 84.168C435.645 84.168 436.919 83.734 437.549 83.048L436.905 82.362C436.457 82.852 435.477 83.23 434.623 83.23ZM434.581 77.532C436.023 77.532 436.793 78.54 436.933 79.842H432.061C432.257 78.442 433.293 77.532 434.581 77.532ZM444.826 86.52C445.82 86.506 446.52 86.044 447.024 84.812L450.328 76.762H449.194L446.8 82.782L444.266 76.762H443.104L446.254 84.028L445.834 84.924C445.554 85.414 445.246 85.568 444.784 85.568C444.476 85.568 444.182 85.512 443.93 85.386L443.678 86.282C444.014 86.436 444.406 86.52 444.826 86.52ZM455.133 84.168C457.163 84.168 458.871 82.432 458.871 80.374C458.871 78.316 457.163 76.594 455.133 76.594C453.103 76.594 451.381 78.316 451.381 80.374C451.381 82.432 453.103 84.168 455.133 84.168ZM455.133 83.23C453.691 83.23 452.487 81.928 452.487 80.374C452.487 78.834 453.691 77.532 455.133 77.532C456.561 77.532 457.765 78.834 457.765 80.374C457.765 81.928 456.561 83.23 455.133 83.23ZM465.701 76.762V81.368C465.701 82.376 464.679 83.23 463.461 83.23C462.397 83.23 461.655 82.404 461.655 81.228V76.762H460.605V81.368C460.605 83.006 461.725 84.168 463.321 84.168C464.343 84.168 465.281 83.608 465.701 82.838V84H466.751V76.762H465.701ZM475.891 76.594C475.191 76.594 474.323 76.776 473.287 77.294L473.707 78.148C474.365 77.812 475.093 77.49 475.821 77.49C477.389 77.49 477.781 78.61 477.781 79.59V79.856C477.039 79.618 476.213 79.45 475.429 79.45C473.875 79.45 472.587 80.416 472.587 81.858C472.587 83.286 473.707 84.168 475.233 84.168C476.185 84.168 477.263 83.72 477.781 82.866V84H478.831V79.59C478.831 77.84 477.865 76.594 475.891 76.594ZM475.415 83.244C474.393 83.244 473.609 82.712 473.609 81.816C473.609 80.948 474.519 80.332 475.597 80.332C476.381 80.332 477.123 80.444 477.781 80.626V81.732C477.501 82.754 476.367 83.244 475.415 83.244ZM484.42 76.594C483.398 76.594 482.46 77.154 482.04 77.924V76.762H480.99V84H482.04V79.394C482.04 78.386 483.062 77.532 484.28 77.532C485.344 77.532 486.086 78.358 486.086 79.534V84H487.136V79.394C487.136 77.756 486.016 76.594 484.42 76.594ZM496.682 84.168C498.712 84.168 500.42 82.432 500.42 80.374C500.42 78.316 498.712 76.594 496.682 76.594C494.652 76.594 492.93 78.316 492.93 80.374C492.93 82.432 494.652 84.168 496.682 84.168ZM496.682 83.23C495.24 83.23 494.036 81.928 494.036 80.374C494.036 78.834 495.24 77.532 496.682 77.532C498.11 77.532 499.314 78.834 499.314 80.374C499.314 81.928 498.11 83.23 496.682 83.23ZM504.274 84H505.282L508.32 76.762H507.144L504.778 82.768L502.37 76.762H501.194L504.274 84ZM512.539 83.23C511.111 83.23 510.117 82.194 509.963 80.78H515.885C515.885 78.246 514.639 76.594 512.455 76.594C510.509 76.594 508.885 78.204 508.885 80.36C508.885 82.586 510.621 84.168 512.553 84.168C513.561 84.168 514.835 83.734 515.465 83.048L514.821 82.362C514.373 82.852 513.393 83.23 512.539 83.23ZM512.497 77.532C513.939 77.532 514.709 78.54 514.849 79.842H509.977C510.173 78.442 511.209 77.532 512.497 77.532ZM518.751 78.176V76.762H517.701V84H518.751V79.954C518.751 78.54 519.913 77.532 521.551 77.532V76.594C520.221 76.594 519.185 77.21 518.751 78.176ZM525.943 76.594C525.243 76.594 524.375 76.776 523.339 77.294L523.759 78.148C524.417 77.812 525.145 77.49 525.873 77.49C527.441 77.49 527.833 78.61 527.833 79.59V79.856C527.091 79.618 526.265 79.45 525.481 79.45C523.927 79.45 522.639 80.416 522.639 81.858C522.639 83.286 523.759 84.168 525.285 84.168C526.237 84.168 527.315 83.72 527.833 82.866V84H528.883V79.59C528.883 77.84 527.917 76.594 525.943 76.594ZM525.467 83.244C524.445 83.244 523.661 82.712 523.661 81.816C523.661 80.948 524.571 80.332 525.649 80.332C526.433 80.332 527.175 80.444 527.833 80.626V81.732C527.553 82.754 526.419 83.244 525.467 83.244ZM531.029 84H532.079V74.214H531.029V84ZM534.201 84H535.251V74.214H534.201V84ZM543.995 84.168C545.493 84.168 546.641 83.314 546.641 81.984C546.641 80.612 545.437 80.22 544.275 79.856C542.931 79.422 542.399 79.226 542.399 78.596C542.399 77.896 543.071 77.532 543.883 77.532C544.527 77.532 545.241 77.756 545.969 78.218L546.473 77.406C545.703 76.902 544.779 76.594 543.883 76.594C542.441 76.594 541.349 77.406 541.349 78.722C541.349 79.758 542.021 80.276 543.771 80.78C544.751 81.06 545.591 81.312 545.591 82.096C545.591 82.782 544.947 83.23 543.995 83.23C543.197 83.23 542.371 82.922 541.545 82.32L540.999 83.09C541.867 83.79 542.987 84.168 543.995 84.168ZM551.738 84.168C552.746 84.168 553.67 83.748 554.356 83.062L553.628 82.348C553.138 82.894 552.466 83.23 551.738 83.23C550.296 83.23 549.092 81.928 549.092 80.374C549.092 78.834 550.296 77.532 551.738 77.532C552.452 77.532 553.11 77.854 553.586 78.372L554.314 77.658C553.628 77 552.718 76.594 551.738 76.594C549.708 76.594 547.986 78.316 547.986 80.374C547.986 82.432 549.708 84.168 551.738 84.168ZM559.176 84.168C561.206 84.168 562.914 82.432 562.914 80.374C562.914 78.316 561.206 76.594 559.176 76.594C557.146 76.594 555.424 78.316 555.424 80.374C555.424 82.432 557.146 84.168 559.176 84.168ZM559.176 83.23C557.734 83.23 556.53 81.928 556.53 80.374C556.53 78.834 557.734 77.532 559.176 77.532C560.604 77.532 561.808 78.834 561.808 80.374C561.808 81.928 560.604 83.23 559.176 83.23ZM565.796 78.176V76.762H564.746V84H565.796V79.954C565.796 78.54 566.958 77.532 568.596 77.532V76.594C567.266 76.594 566.23 77.21 565.796 78.176ZM573.31 83.23C571.882 83.23 570.888 82.194 570.734 80.78H576.656C576.656 78.246 575.41 76.594 573.226 76.594C571.28 76.594 569.656 78.204 569.656 80.36C569.656 82.586 571.392 84.168 573.324 84.168C574.332 84.168 575.606 83.734 576.236 83.048L575.592 82.362C575.144 82.852 574.164 83.23 573.31 83.23ZM573.268 77.532C574.71 77.532 575.48 78.54 575.62 79.842H570.748C570.944 78.442 571.98 77.532 573.268 77.532ZM579.103 84.168C579.509 84.168 579.845 83.818 579.845 83.398C579.845 83.006 579.509 82.656 579.103 82.656C578.669 82.656 578.333 83.006 578.333 83.398C578.333 83.818 578.669 84.168 579.103 84.168Z" fill="#314351"/>
<rect x="321" y="265" width="280" height="32" fill="white"/>
<g filter="url(#filter0_d)">
<path fill-rule="evenodd" clip-rule="evenodd" d="M320 119C320 117.343 321.343 116 323 116H599C600.657 116 602 117.343 602 119V269C602 270.657 600.657 272 599 272H323C321.343 272 320 270.657 320 269V119Z" fill="white"/>
<path d="M323 116.5H599C600.381 116.5 601.5 117.619 601.5 119V269C601.5 270.381 600.381 271.5 599 271.5H323C321.619 271.5 320.5 270.381 320.5 269V119C320.5 117.619 321.619 116.5 323 116.5Z" stroke="url(#paint0_linear)"/>
</g>
<line y1="-0.5" x2="157" y2="-0.49999" transform="matrix(-4.37114e-08 1 1 4.37114e-08 885 117)" stroke="#C1CDD4"/>
<path d="M111.402 241.216C113.112 241.216 114.696 240.478 115.848 239.326L114.894 238.354C113.994 239.308 112.752 239.92 111.402 239.92C108.738 239.92 106.488 237.58 106.488 234.808C106.488 232.054 108.738 229.714 111.402 229.714C112.752 229.714 113.994 230.326 114.894 231.28L115.848 230.308C114.696 229.138 113.112 228.418 111.402 228.418C107.982 228.418 105.066 231.334 105.066 234.808C105.066 238.282 107.982 241.216 111.402 241.216ZM119.208 233.512V231.694H117.858V241H119.208V235.798C119.208 233.98 120.702 232.684 122.808 232.684V231.478C121.098 231.478 119.766 232.27 119.208 233.512ZM125.342 230.002C125.828 230.002 126.224 229.588 126.224 229.102C126.224 228.634 125.828 228.22 125.342 228.22C124.838 228.22 124.442 228.634 124.442 229.102C124.442 229.588 124.838 230.002 125.342 230.002ZM124.658 241H126.008V231.694H124.658V241ZM132.805 239.632C132.607 239.848 132.247 240.01 131.833 240.01C131.293 240.01 130.825 239.524 130.825 238.84V232.9H133.111V231.694H130.825V229.138H129.475V231.694H128.017V232.9H129.475V238.84C129.475 240.226 130.411 241.216 131.743 241.216C132.373 241.216 132.985 241 133.471 240.622L132.805 239.632ZM136.047 230.002C136.533 230.002 136.929 229.588 136.929 229.102C136.929 228.634 136.533 228.22 136.047 228.22C135.543 228.22 135.147 228.634 135.147 229.102C135.147 229.588 135.543 230.002 136.047 230.002ZM135.363 241H136.713V231.694H135.363V241ZM143.744 241.216C145.04 241.216 146.228 240.676 147.11 239.794L146.174 238.876C145.544 239.578 144.68 240.01 143.744 240.01C141.89 240.01 140.342 238.336 140.342 236.338C140.342 234.358 141.89 232.684 143.744 232.684C144.662 232.684 145.508 233.098 146.12 233.764L147.056 232.846C146.174 232 145.004 231.478 143.744 231.478C141.134 231.478 138.92 233.692 138.92 236.338C138.92 238.984 141.134 241.216 143.744 241.216ZM152.96 231.478C152.06 231.478 150.944 231.712 149.612 232.378L150.152 233.476C150.998 233.044 151.934 232.63 152.87 232.63C154.886 232.63 155.39 234.07 155.39 235.33V235.672C154.436 235.366 153.374 235.15 152.366 235.15C150.368 235.15 148.712 236.392 148.712 238.246C148.712 240.082 150.152 241.216 152.114 241.216C153.338 241.216 154.724 240.64 155.39 239.542V241H156.74V235.33C156.74 233.08 155.498 231.478 152.96 231.478ZM152.348 240.028C151.034 240.028 150.026 239.344 150.026 238.192C150.026 237.076 151.196 236.284 152.582 236.284C153.59 236.284 154.544 236.428 155.39 236.662V238.084C155.03 239.398 153.572 240.028 152.348 240.028ZM159.498 241H160.848V228.418H159.498V241ZM172.325 241H173.711L177.167 230.47L180.605 241H181.991L186.221 228.634H184.637L181.217 238.642L177.941 228.634H176.375L173.099 238.642L169.679 228.634H168.095L172.325 241ZM192.036 231.478C191.136 231.478 190.02 231.712 188.688 232.378L189.228 233.476C190.074 233.044 191.01 232.63 191.946 232.63C193.962 232.63 194.466 234.07 194.466 235.33V235.672C193.512 235.366 192.45 235.15 191.442 235.15C189.444 235.15 187.788 236.392 187.788 238.246C187.788 240.082 189.228 241.216 191.19 241.216C192.414 241.216 193.8 240.64 194.466 239.542V241H195.816V235.33C195.816 233.08 194.574 231.478 192.036 231.478ZM191.424 240.028C190.11 240.028 189.102 239.344 189.102 238.192C189.102 237.076 190.272 236.284 191.658 236.284C192.666 236.284 193.62 236.428 194.466 236.662V238.084C194.106 239.398 192.648 240.028 191.424 240.028ZM200.05 233.512V231.694H198.7V241H200.05V235.798C200.05 233.98 201.544 232.684 203.65 232.684V231.478C201.94 231.478 200.608 232.27 200.05 233.512ZM209.945 231.478C208.631 231.478 207.425 232.198 206.885 233.188V231.694H205.535V241H206.885V235.078C206.885 233.782 208.199 232.684 209.765 232.684C211.133 232.684 212.087 233.746 212.087 235.258V241H213.437V235.078C213.437 232.972 211.997 231.478 209.945 231.478ZM216.836 230.002C217.322 230.002 217.718 229.588 217.718 229.102C217.718 228.634 217.322 228.22 216.836 228.22C216.332 228.22 215.936 228.634 215.936 229.102C215.936 229.588 216.332 230.002 216.836 230.002ZM216.152 241H217.502V231.694H216.152V241ZM224.641 231.478C223.327 231.478 222.121 232.198 221.581 233.188V231.694H220.231V241H221.581V235.078C221.581 233.782 222.895 232.684 224.461 232.684C225.829 232.684 226.783 233.746 226.783 235.258V241H228.133V235.078C228.133 232.972 226.693 231.478 224.641 231.478ZM238.101 231.694V233.296C237.381 232.162 236.193 231.478 234.717 231.478C232.215 231.478 230.433 233.296 230.433 235.888C230.433 238.48 232.215 240.316 234.717 240.316C236.193 240.316 237.381 239.632 238.101 238.498V240.01C238.101 241.828 236.841 242.89 234.699 242.89C233.547 242.89 232.431 242.476 231.711 241.792L231.117 242.854C231.963 243.574 233.367 244.096 234.879 244.096C237.561 244.096 239.451 242.404 239.451 240.01V231.694H238.101ZM234.969 239.11C233.151 239.11 231.855 237.778 231.855 235.888C231.855 234.016 233.151 232.684 234.969 232.684C236.805 232.684 238.101 234.016 238.101 235.888C238.101 237.778 236.805 239.11 234.969 239.11ZM245.602 241.216C247.528 241.216 249.004 240.118 249.004 238.408C249.004 236.644 247.456 236.14 245.962 235.672C244.234 235.114 243.55 234.862 243.55 234.052C243.55 233.152 244.414 232.684 245.458 232.684C246.286 232.684 247.204 232.972 248.14 233.566L248.788 232.522C247.798 231.874 246.61 231.478 245.458 231.478C243.604 231.478 242.2 232.522 242.2 234.214C242.2 235.546 243.064 236.212 245.314 236.86C246.574 237.22 247.654 237.544 247.654 238.552C247.654 239.434 246.826 240.01 245.602 240.01C244.576 240.01 243.514 239.614 242.452 238.84L241.75 239.83C242.866 240.73 244.306 241.216 245.602 241.216Z" fill="#314351"/>
<path d="M634.837 241H639.013C642.937 241 645.709 238.426 645.709 234.808C645.709 231.19 642.937 228.634 639.013 228.634H634.837V241ZM636.241 239.722V229.912H639.013C642.109 229.912 644.287 231.946 644.287 234.808C644.287 237.688 642.109 239.722 639.013 239.722H636.241ZM652.543 241.216C655.153 241.216 657.349 238.984 657.349 236.338C657.349 233.692 655.153 231.478 652.543 231.478C649.933 231.478 647.719 233.692 647.719 236.338C647.719 238.984 649.933 241.216 652.543 241.216ZM652.543 240.01C650.689 240.01 649.141 238.336 649.141 236.338C649.141 234.358 650.689 232.684 652.543 232.684C654.379 232.684 655.927 234.358 655.927 236.338C655.927 238.336 654.379 240.01 652.543 240.01ZM663.899 241.216C665.195 241.216 666.383 240.676 667.265 239.794L666.329 238.876C665.699 239.578 664.835 240.01 663.899 240.01C662.045 240.01 660.497 238.336 660.497 236.338C660.497 234.358 662.045 232.684 663.899 232.684C664.817 232.684 665.663 233.098 666.275 233.764L667.211 232.846C666.329 232 665.159 231.478 663.899 231.478C661.289 231.478 659.075 233.692 659.075 236.338C659.075 238.984 661.289 241.216 663.899 241.216ZM675.887 231.694V237.616C675.887 238.912 674.573 240.01 673.007 240.01C671.639 240.01 670.685 238.948 670.685 237.436V231.694H669.335V237.616C669.335 239.722 670.775 241.216 672.827 241.216C674.141 241.216 675.347 240.496 675.887 239.506V241H677.237V231.694H675.887ZM690.049 231.478C688.645 231.478 687.421 232.252 687.043 233.458C686.539 232.252 685.441 231.478 684.037 231.478C682.813 231.478 681.805 232.09 681.337 233.062V231.694H679.987V241H681.337V235.078C681.337 233.674 682.381 232.684 683.857 232.684C685.117 232.684 685.999 233.746 685.999 235.258V241H687.349V235.078C687.349 233.674 688.393 232.684 689.869 232.684C691.129 232.684 692.011 233.746 692.011 235.258V241H693.361V235.078C693.361 232.972 691.993 231.478 690.049 231.478ZM700.283 240.01C698.447 240.01 697.169 238.678 696.971 236.86H704.585C704.585 233.602 702.983 231.478 700.175 231.478C697.673 231.478 695.585 233.548 695.585 236.32C695.585 239.182 697.817 241.216 700.301 241.216C701.597 241.216 703.235 240.658 704.045 239.776L703.217 238.894C702.641 239.524 701.381 240.01 700.283 240.01ZM700.229 232.684C702.083 232.684 703.073 233.98 703.253 235.654H696.989C697.241 233.854 698.573 232.684 700.229 232.684ZM711.222 231.478C709.908 231.478 708.702 232.198 708.162 233.188V231.694H706.812V241H708.162V235.078C708.162 233.782 709.476 232.684 711.042 232.684C712.41 232.684 713.364 233.746 713.364 235.258V241H714.714V235.078C714.714 232.972 713.274 231.478 711.222 231.478ZM721.532 239.632C721.334 239.848 720.974 240.01 720.56 240.01C720.02 240.01 719.552 239.524 719.552 238.84V232.9H721.838V231.694H719.552V229.138H718.202V231.694H716.744V232.9H718.202V238.84C718.202 240.226 719.138 241.216 720.47 241.216C721.1 241.216 721.712 241 722.198 240.622L721.532 239.632ZM727.888 231.478C726.988 231.478 725.872 231.712 724.54 232.378L725.08 233.476C725.926 233.044 726.862 232.63 727.798 232.63C729.814 232.63 730.318 234.07 730.318 235.33V235.672C729.364 235.366 728.302 235.15 727.294 235.15C725.296 235.15 723.64 236.392 723.64 238.246C723.64 240.082 725.08 241.216 727.042 241.216C728.266 241.216 729.652 240.64 730.318 239.542V241H731.668V235.33C731.668 233.08 730.426 231.478 727.888 231.478ZM727.276 240.028C725.962 240.028 724.954 239.344 724.954 238.192C724.954 237.076 726.124 236.284 727.51 236.284C728.518 236.284 729.472 236.428 730.318 236.662V238.084C729.958 239.398 728.5 240.028 727.276 240.028ZM738.513 239.632C738.315 239.848 737.955 240.01 737.541 240.01C737.001 240.01 736.533 239.524 736.533 238.84V232.9H738.819V231.694H736.533V229.138H735.183V231.694H733.725V232.9H735.183V238.84C735.183 240.226 736.119 241.216 737.451 241.216C738.081 241.216 738.693 241 739.179 240.622L738.513 239.632ZM741.755 230.002C742.241 230.002 742.637 229.588 742.637 229.102C742.637 228.634 742.241 228.22 741.755 228.22C741.251 228.22 740.855 228.634 740.855 229.102C740.855 229.588 741.251 230.002 741.755 230.002ZM741.071 241H742.421V231.694H741.071V241ZM749.452 241.216C752.062 241.216 754.258 238.984 754.258 236.338C754.258 233.692 752.062 231.478 749.452 231.478C746.842 231.478 744.628 233.692 744.628 236.338C744.628 238.984 746.842 241.216 749.452 241.216ZM749.452 240.01C747.598 240.01 746.05 238.336 746.05 236.338C746.05 234.358 747.598 232.684 749.452 232.684C751.288 232.684 752.836 234.358 752.836 236.338C752.836 238.336 751.288 240.01 749.452 240.01ZM760.915 231.478C759.601 231.478 758.395 232.198 757.855 233.188V231.694H756.505V241H757.855V235.078C757.855 233.782 759.169 232.684 760.735 232.684C762.103 232.684 763.057 233.746 763.057 235.258V241H764.407V235.078C764.407 232.972 762.967 231.478 760.915 231.478ZM778.264 241.216C779.974 241.216 781.558 240.478 782.71 239.326L781.756 238.354C780.856 239.308 779.614 239.92 778.264 239.92C775.6 239.92 773.35 237.58 773.35 234.808C773.35 232.054 775.6 229.714 778.264 229.714C779.614 229.714 780.856 230.326 781.756 231.28L782.71 230.308C781.558 229.138 779.974 228.418 778.264 228.418C774.844 228.418 771.928 231.334 771.928 234.808C771.928 238.282 774.844 241.216 778.264 241.216ZM788.915 241.216C791.525 241.216 793.721 238.984 793.721 236.338C793.721 233.692 791.525 231.478 788.915 231.478C786.305 231.478 784.091 233.692 784.091 236.338C784.091 238.984 786.305 241.216 788.915 241.216ZM788.915 240.01C787.061 240.01 785.513 238.336 785.513 236.338C785.513 234.358 787.061 232.684 788.915 232.684C790.751 232.684 792.299 234.358 792.299 236.338C792.299 238.336 790.751 240.01 788.915 240.01ZM798.676 241H799.972L803.878 231.694H802.366L799.324 239.416L796.228 231.694H794.716L798.676 241ZM809.302 240.01C807.466 240.01 806.188 238.678 805.99 236.86H813.604C813.604 233.602 812.002 231.478 809.194 231.478C806.692 231.478 804.604 233.548 804.604 236.32C804.604 239.182 806.836 241.216 809.32 241.216C810.616 241.216 812.254 240.658 813.064 239.776L812.236 238.894C811.66 239.524 810.4 240.01 809.302 240.01ZM809.248 232.684C811.102 232.684 812.092 233.98 812.272 235.654H806.008C806.26 233.854 807.592 232.684 809.248 232.684ZM817.289 233.512V231.694H815.939V241H817.289V235.798C817.289 233.98 818.783 232.684 820.889 232.684V231.478C819.179 231.478 817.847 232.27 817.289 233.512ZM826.537 231.478C825.637 231.478 824.521 231.712 823.189 232.378L823.729 233.476C824.575 233.044 825.511 232.63 826.447 232.63C828.463 232.63 828.967 234.07 828.967 235.33V235.672C828.013 235.366 826.951 235.15 825.943 235.15C823.945 235.15 822.289 236.392 822.289 238.246C822.289 240.082 823.729 241.216 825.691 241.216C826.915 241.216 828.301 240.64 828.967 239.542V241H830.317V235.33C830.317 233.08 829.075 231.478 826.537 231.478ZM825.925 240.028C824.611 240.028 823.603 239.344 823.603 238.192C823.603 237.076 824.773 236.284 826.159 236.284C827.167 236.284 828.121 236.428 828.967 236.662V238.084C828.607 239.398 827.149 240.028 825.925 240.028ZM840.311 231.694V233.296C839.591 232.162 838.403 231.478 836.927 231.478C834.425 231.478 832.643 233.296 832.643 235.888C832.643 238.48 834.425 240.316 836.927 240.316C838.403 240.316 839.591 239.632 840.311 238.498V240.01C840.311 241.828 839.051 242.89 836.909 242.89C835.757 242.89 834.641 242.476 833.921 241.792L833.327 242.854C834.173 243.574 835.577 244.096 837.089 244.096C839.771 244.096 841.661 242.404 841.661 240.01V231.694H840.311ZM837.179 239.11C835.361 239.11 834.065 237.778 834.065 235.888C834.065 234.016 835.361 232.684 837.179 232.684C839.015 232.684 840.311 234.016 840.311 235.888C840.311 237.778 839.015 239.11 837.179 239.11ZM848.712 240.01C846.876 240.01 845.598 238.678 845.4 236.86H853.014C853.014 233.602 851.412 231.478 848.604 231.478C846.102 231.478 844.014 233.548 844.014 236.32C844.014 239.182 846.246 241.216 848.73 241.216C850.026 241.216 851.664 240.658 852.474 239.776L851.646 238.894C851.07 239.524 849.81 240.01 848.712 240.01ZM848.658 232.684C850.512 232.684 851.502 233.98 851.682 235.654H845.418C845.67 233.854 847.002 232.684 848.658 232.684Z" fill="#314351"/>
<path d="M957.738 241.216C959.448 241.216 961.032 240.478 962.184 239.326L961.23 238.354C960.33 239.308 959.088 239.92 957.738 239.92C955.074 239.92 952.824 237.58 952.824 234.808C952.824 232.054 955.074 229.714 957.738 229.714C959.088 229.714 960.33 230.326 961.23 231.28L962.184 230.308C961.032 229.138 959.448 228.418 957.738 228.418C954.318 228.418 951.402 231.334 951.402 234.808C951.402 238.282 954.318 241.216 957.738 241.216ZM968.388 241.216C970.998 241.216 973.194 238.984 973.194 236.338C973.194 233.692 970.998 231.478 968.388 231.478C965.778 231.478 963.564 233.692 963.564 236.338C963.564 238.984 965.778 241.216 968.388 241.216ZM968.388 240.01C966.534 240.01 964.986 238.336 964.986 236.338C964.986 234.358 966.534 232.684 968.388 232.684C970.224 232.684 971.772 234.358 971.772 236.338C971.772 238.336 970.224 240.01 968.388 240.01ZM985.486 231.478C984.082 231.478 982.858 232.252 982.48 233.458C981.976 232.252 980.878 231.478 979.474 231.478C978.25 231.478 977.242 232.09 976.774 233.062V231.694H975.424V241H976.774V235.078C976.774 233.674 977.818 232.684 979.294 232.684C980.554 232.684 981.436 233.746 981.436 235.258V241H982.786V235.078C982.786 233.674 983.83 232.684 985.306 232.684C986.566 232.684 987.448 233.746 987.448 235.258V241H988.798V235.078C988.798 232.972 987.43 231.478 985.486 231.478ZM996.385 231.478C994.891 231.478 993.703 232.216 993.001 233.44V231.694H991.651V244.096H993.001V239.254C993.703 240.478 994.891 241.216 996.385 241.216C998.833 241.216 1000.67 239.2 1000.67 236.338C1000.67 233.494 998.833 231.478 996.385 231.478ZM996.133 240.01C994.297 240.01 993.001 238.48 993.001 236.338C993.001 234.196 994.297 232.684 996.133 232.684C997.951 232.684 999.247 234.196 999.247 236.338C999.247 238.48 997.951 240.01 996.133 240.01ZM1003 241H1004.35V228.418H1003V241ZM1011.28 240.01C1009.44 240.01 1008.16 238.678 1007.96 236.86H1015.58C1015.58 233.602 1013.98 231.478 1011.17 231.478C1008.67 231.478 1006.58 233.548 1006.58 236.32C1006.58 239.182 1008.81 241.216 1011.29 241.216C1012.59 241.216 1014.23 240.658 1015.04 239.776L1014.21 238.894C1013.63 239.524 1012.37 240.01 1011.28 240.01ZM1011.22 232.684C1013.08 232.684 1014.07 233.98 1014.25 235.654H1007.98C1008.23 233.854 1009.57 232.684 1011.22 232.684ZM1025.76 241L1022.18 236.248L1025.62 231.694H1024.03L1021.39 235.204L1018.72 231.694H1017.14L1020.59 236.248L1016.99 241H1018.58L1021.39 237.292L1024.18 241H1025.76ZM1028.37 230.002C1028.85 230.002 1029.25 229.588 1029.25 229.102C1029.25 228.634 1028.85 228.22 1028.37 228.22C1027.86 228.22 1027.47 228.634 1027.47 229.102C1027.47 229.588 1027.86 230.002 1028.37 230.002ZM1027.68 241H1029.03V231.694H1027.68V241ZM1035.83 239.632C1035.63 239.848 1035.27 240.01 1034.86 240.01C1034.32 240.01 1033.85 239.524 1033.85 238.84V232.9H1036.14V231.694H1033.85V229.138H1032.5V231.694H1031.04V232.9H1032.5V238.84C1032.5 240.226 1033.44 241.216 1034.77 241.216C1035.4 241.216 1036.01 241 1036.5 240.622L1035.83 239.632ZM1039.79 244.24C1041.07 244.222 1041.97 243.628 1042.62 242.044L1046.87 231.694H1045.41L1042.33 239.434L1039.07 231.694H1037.58L1041.63 241.036L1041.09 242.188C1040.73 242.818 1040.33 243.016 1039.74 243.016C1039.34 243.016 1038.96 242.944 1038.64 242.782L1038.32 243.934C1038.75 244.132 1039.25 244.24 1039.79 244.24ZM1058.63 241.198C1061.51 241.198 1062.99 239.596 1062.99 237.634C1062.99 235.456 1061.3 234.61 1058.94 234.052C1056.83 233.548 1055.61 233.098 1055.61 231.82C1055.61 230.686 1056.73 229.678 1058.26 229.678C1059.55 229.678 1060.78 230.272 1061.8 231.262L1062.67 230.164C1061.53 229.12 1060.16 228.4 1058.33 228.4C1055.95 228.4 1054.19 229.948 1054.19 231.928C1054.19 234.07 1055.75 234.844 1058.24 235.42C1060.4 235.924 1061.57 236.446 1061.57 237.76C1061.57 238.876 1060.6 239.92 1058.69 239.92C1056.96 239.92 1055.68 239.182 1054.64 238.138L1053.76 239.236C1055 240.46 1056.6 241.198 1058.63 241.198ZM1069.66 241.216C1070.95 241.216 1072.14 240.676 1073.02 239.794L1072.09 238.876C1071.46 239.578 1070.59 240.01 1069.66 240.01C1067.8 240.01 1066.25 238.336 1066.25 236.338C1066.25 234.358 1067.8 232.684 1069.66 232.684C1070.57 232.684 1071.42 233.098 1072.03 233.764L1072.97 232.846C1072.09 232 1070.92 231.478 1069.66 231.478C1067.05 231.478 1064.83 233.692 1064.83 236.338C1064.83 238.984 1067.05 241.216 1069.66 241.216ZM1079.22 241.216C1081.83 241.216 1084.02 238.984 1084.02 236.338C1084.02 233.692 1081.83 231.478 1079.22 231.478C1076.61 231.478 1074.39 233.692 1074.39 236.338C1074.39 238.984 1076.61 241.216 1079.22 241.216ZM1079.22 240.01C1077.36 240.01 1075.82 238.336 1075.82 236.338C1075.82 234.358 1077.36 232.684 1079.22 232.684C1081.05 232.684 1082.6 234.358 1082.6 236.338C1082.6 238.336 1081.05 240.01 1079.22 240.01ZM1087.73 233.512V231.694H1086.38V241H1087.73V235.798C1087.73 233.98 1089.22 232.684 1091.33 232.684V231.478C1089.62 231.478 1088.29 232.27 1087.73 233.512ZM1097.39 240.01C1095.56 240.01 1094.28 238.678 1094.08 236.86H1101.69C1101.69 233.602 1100.09 231.478 1097.28 231.478C1094.78 231.478 1092.69 233.548 1092.69 236.32C1092.69 239.182 1094.93 241.216 1097.41 241.216C1098.71 241.216 1100.34 240.658 1101.15 239.776L1100.33 238.894C1099.75 239.524 1098.49 240.01 1097.39 240.01ZM1097.34 232.684C1099.19 232.684 1100.18 233.98 1100.36 235.654H1094.1C1094.35 233.854 1095.68 232.684 1097.34 232.684Z" fill="#314351"/>
<path d="M179.015 201H183.227V195.564H186.431V191.856H183.227V176.988H177.431L167.567 192.18V195.564H179.015V201ZM179.015 180.768V191.856H171.707L179.015 180.768Z" fill="#E62700"/>
<path d="M709.285 194.844C709.285 199.164 713.569 201.432 718.501 201.432C723.397 201.432 727.681 199.128 727.681 194.844C727.681 191.784 725.197 189.588 722.281 188.616C724.981 187.752 727.321 185.988 727.321 182.928C727.321 178.5 722.713 176.628 718.501 176.628C714.217 176.628 709.681 178.5 709.681 182.928C709.681 185.988 711.985 187.752 714.685 188.616C711.769 189.588 709.285 191.784 709.285 194.844ZM723.037 183.576C723.037 185.844 719.977 186.708 718.501 186.96C717.025 186.708 713.929 185.844 713.929 183.576C713.929 181.56 715.873 180.372 718.501 180.372C721.057 180.372 723.037 181.56 723.037 183.576ZM723.433 194.304C723.433 196.392 721.165 197.688 718.501 197.688C715.765 197.688 713.533 196.392 713.533 194.304C713.533 191.82 716.989 190.704 718.501 190.524C719.977 190.704 723.433 191.82 723.433 194.304ZM730.66 189.012C730.66 195.06 733.54 201.432 740.272 201.432C747.004 201.432 749.884 195.06 749.884 189.012C749.884 182.964 747.004 176.628 740.272 176.628C733.54 176.628 730.66 182.964 730.66 189.012ZM745.6 189.012C745.6 193.584 744.196 197.688 740.272 197.688C736.348 197.688 734.944 193.584 734.944 189.012C734.944 184.44 736.348 180.372 740.272 180.372C744.196 180.372 745.6 184.44 745.6 189.012ZM752.375 182.64C752.375 185.988 754.751 188.544 758.315 188.544C761.915 188.544 764.327 185.988 764.327 182.64C764.327 179.256 761.915 176.628 758.315 176.628C754.751 176.628 752.375 179.256 752.375 182.64ZM756.011 201H758.387L773.759 176.988H771.347L756.011 201ZM761.519 182.64C761.519 184.692 760.187 186.168 758.315 186.168C756.479 186.168 755.147 184.692 755.147 182.64C755.147 180.48 756.479 179.04 758.315 179.04C760.187 179.04 761.519 180.48 761.519 182.64ZM765.299 195.528C765.299 198.876 767.675 201.432 771.239 201.432C774.803 201.432 777.215 198.876 777.215 195.528C777.215 192.144 774.803 189.516 771.239 189.516C767.675 189.516 765.299 192.144 765.299 195.528ZM774.443 195.528C774.443 197.616 773.111 199.056 771.239 199.056C769.367 199.056 768.071 197.616 768.071 195.528C768.071 193.368 769.367 191.928 771.239 191.928C773.111 191.928 774.443 193.368 774.443 195.528Z" fill="#62A420"/>
<path d="M1013.79 201H1018V195.564H1021.21V191.856H1018V176.988H1012.21L1002.34 192.18V195.564H1013.79V201ZM1013.79 180.768V191.856H1006.48L1013.79 180.768ZM1024.09 198.876C1024.09 200.244 1025.24 201.396 1026.61 201.396C1027.98 201.396 1029.13 200.244 1029.13 198.876C1029.13 197.508 1027.98 196.356 1026.61 196.356C1025.24 196.356 1024.09 197.508 1024.09 198.876ZM1032.52 189.048C1032.52 195.708 1035.36 201.432 1042.42 201.432C1047.78 201.432 1051.27 197.832 1051.27 193.368C1051.27 188.256 1047.57 185.628 1043.25 185.628C1040.4 185.628 1037.88 187.356 1036.8 188.976C1036.77 188.76 1036.77 188.544 1036.77 188.292C1036.77 184.08 1039.11 180.372 1043.1 180.372C1045.41 180.372 1046.77 181.164 1048.03 182.496L1050.01 179.292C1048.39 177.708 1046.09 176.628 1043.1 176.628C1036.15 176.628 1032.52 182.1 1032.52 189.048ZM1047.03 193.512C1047.03 195.456 1045.37 197.688 1042.2 197.688C1038.49 197.688 1037.09 194.664 1036.84 192.072C1038.06 190.344 1040.04 189.228 1042.09 189.228C1044.72 189.228 1047.03 190.56 1047.03 193.512Z" fill="#E62700"/>
<path fill-rule="evenodd" clip-rule="evenodd" d="M154 150C154 145.582 157.582 142 162 142H198C202.418 142 206 145.582 206 150V150C206 154.418 202.418 158 198 158H162C157.582 158 154 154.418 154 150V150Z" stroke="#C92100"/>
<path d="M181.507 154H182.618V152.262H183.707V151.283H182.618V146.443H181.298L177.635 151.371L177.756 152.262H181.507V154ZM178.856 151.283L181.507 147.708V151.283H178.856ZM185.664 154.132C186.06 154.132 186.379 153.791 186.379 153.384C186.379 153.01 186.06 152.669 185.664 152.669C185.246 152.669 184.927 153.01 184.927 153.384C184.927 153.791 185.246 154.132 185.664 154.132ZM190.929 154.132C192.81 154.132 194.152 152.515 194.152 150.216C194.152 147.928 192.81 146.311 190.929 146.311C189.026 146.311 187.695 147.928 187.695 150.216C187.695 152.515 189.026 154.132 190.929 154.132ZM190.929 153.109C189.697 153.109 188.828 151.91 188.828 150.216C188.828 148.522 189.697 147.334 190.929 147.334C192.15 147.334 193.008 148.522 193.008 150.216C193.008 151.91 192.15 153.109 190.929 153.109Z" fill="#C92100"/>
<path d="M165.78 150.797L169 154L172.22 150.797C172.324 150.718 172.372 150.585 172.343 150.458C172.315 150.331 172.214 150.232 172.087 150.205C171.959 150.178 171.828 150.228 171.75 150.333L169.333 152.73L169.333 146.353C169.333 146.169 169.184 146.02 169 146.02C168.816 146.02 168.667 146.169 168.667 146.353L168.667 152.73L166.25 150.333C166.119 150.204 165.908 150.204 165.778 150.335C165.649 150.466 165.649 150.677 165.78 150.807L165.78 150.797Z" fill="#C92100"/>
<path d="M405.077 239.668V228.634H403.673V241H411.827V239.668H405.077ZM414.468 230.002C414.954 230.002 415.35 229.588 415.35 229.102C415.35 228.634 414.954 228.22 414.468 228.22C413.964 228.22 413.568 228.634 413.568 229.102C413.568 229.588 413.964 230.002 414.468 230.002ZM413.784 241H415.134V231.694H413.784V241ZM422.273 231.478C420.959 231.478 419.753 232.198 419.213 233.188V231.694H417.863V241H419.213V235.078C419.213 233.782 420.527 232.684 422.093 232.684C423.461 232.684 424.415 233.746 424.415 235.258V241H425.765V235.078C425.765 232.972 424.325 231.478 422.273 231.478ZM432.583 239.632C432.385 239.848 432.025 240.01 431.611 240.01C431.071 240.01 430.603 239.524 430.603 238.84V232.9H432.889V231.694H430.603V229.138H429.253V231.694H427.795V232.9H429.253V238.84C429.253 240.226 430.189 241.216 431.521 241.216C432.151 241.216 432.763 241 433.249 240.622L432.583 239.632ZM435.825 230.002C436.311 230.002 436.707 229.588 436.707 229.102C436.707 228.634 436.311 228.22 435.825 228.22C435.321 228.22 434.925 228.634 434.925 229.102C434.925 229.588 435.321 230.002 435.825 230.002ZM435.141 241H436.491V231.694H435.141V241ZM443.63 231.478C442.316 231.478 441.11 232.198 440.57 233.188V231.694H439.22V241H440.57V235.078C440.57 233.782 441.884 232.684 443.45 232.684C444.818 232.684 445.772 233.746 445.772 235.258V241H447.122V235.078C447.122 232.972 445.682 231.478 443.63 231.478ZM457.09 231.694V233.296C456.37 232.162 455.182 231.478 453.706 231.478C451.204 231.478 449.422 233.296 449.422 235.888C449.422 238.48 451.204 240.316 453.706 240.316C455.182 240.316 456.37 239.632 457.09 238.498V240.01C457.09 241.828 455.83 242.89 453.688 242.89C452.536 242.89 451.42 242.476 450.7 241.792L450.106 242.854C450.952 243.574 452.356 244.096 453.868 244.096C456.55 244.096 458.44 242.404 458.44 240.01V231.694H457.09ZM453.958 239.11C452.14 239.11 450.844 237.778 450.844 235.888C450.844 234.016 452.14 232.684 453.958 232.684C455.794 232.684 457.09 234.016 457.09 235.888C457.09 237.778 455.794 239.11 453.958 239.11ZM466.572 241H467.976V228.634H466.572V241ZM474.066 241.216C475.992 241.216 477.468 240.118 477.468 238.408C477.468 236.644 475.92 236.14 474.426 235.672C472.698 235.114 472.014 234.862 472.014 234.052C472.014 233.152 472.878 232.684 473.922 232.684C474.75 232.684 475.668 232.972 476.604 233.566L477.252 232.522C476.262 231.874 475.074 231.478 473.922 231.478C472.068 231.478 470.664 232.522 470.664 234.214C470.664 235.546 471.528 236.212 473.778 236.86C475.038 237.22 476.118 237.544 476.118 238.552C476.118 239.434 475.29 240.01 474.066 240.01C473.04 240.01 471.978 239.614 470.916 238.84L470.214 239.83C471.33 240.73 472.77 241.216 474.066 241.216ZM482.996 241.216C484.922 241.216 486.398 240.118 486.398 238.408C486.398 236.644 484.85 236.14 483.356 235.672C481.628 235.114 480.944 234.862 480.944 234.052C480.944 233.152 481.808 232.684 482.852 232.684C483.68 232.684 484.598 232.972 485.534 233.566L486.182 232.522C485.192 231.874 484.004 231.478 482.852 231.478C480.998 231.478 479.594 232.522 479.594 234.214C479.594 235.546 480.458 236.212 482.708 236.86C483.968 237.22 485.048 237.544 485.048 238.552C485.048 239.434 484.22 240.01 482.996 240.01C481.97 240.01 480.908 239.614 479.846 238.84L479.144 239.83C480.26 240.73 481.7 241.216 482.996 241.216ZM495.184 231.694V237.616C495.184 238.912 493.87 240.01 492.304 240.01C490.936 240.01 489.982 238.948 489.982 237.436V231.694H488.632V237.616C488.632 239.722 490.072 241.216 492.124 241.216C493.438 241.216 494.644 240.496 495.184 239.506V241H496.534V231.694H495.184ZM503.478 240.01C501.642 240.01 500.364 238.678 500.166 236.86H507.78C507.78 233.602 506.178 231.478 503.37 231.478C500.868 231.478 498.78 233.548 498.78 236.32C498.78 239.182 501.012 241.216 503.496 241.216C504.792 241.216 506.43 240.658 507.24 239.776L506.412 238.894C505.836 239.524 504.576 240.01 503.478 240.01ZM503.424 232.684C505.278 232.684 506.268 233.98 506.448 235.654H500.184C500.436 233.854 501.768 232.684 503.424 232.684ZM513.283 241.216C515.209 241.216 516.685 240.118 516.685 238.408C516.685 236.644 515.137 236.14 513.643 235.672C511.915 235.114 511.231 234.862 511.231 234.052C511.231 233.152 512.095 232.684 513.139 232.684C513.967 232.684 514.885 232.972 515.821 233.566L516.469 232.522C515.479 231.874 514.291 231.478 513.139 231.478C511.285 231.478 509.881 232.522 509.881 234.214C509.881 235.546 510.745 236.212 512.995 236.86C514.255 237.22 515.335 237.544 515.335 238.552C515.335 239.434 514.507 240.01 513.283 240.01C512.257 240.01 511.195 239.614 510.133 238.84L509.431 239.83C510.547 240.73 511.987 241.216 513.283 241.216Z" fill="#314351"/>
<path d="M438.576 201H442.788V176.988H439.116L432.204 183.972L434.652 186.528L438.576 182.46V201ZM447.14 201H464.528V197.292H453.872C460.316 192.432 464.384 188.472 464.384 184.044C464.384 179.256 460.316 176.628 455.672 176.628C452.324 176.628 448.94 177.924 446.816 180.48L449.264 183.252C450.776 181.524 452.936 180.372 455.744 180.372C457.94 180.372 460.1 181.524 460.1 184.044C460.1 187.5 456.464 190.632 447.14 197.688V201ZM468.766 197.724C470.71 200.028 473.554 201.432 477.694 201.432C483.058 201.432 486.838 198.3 486.838 193.296C486.838 188.4 483.202 185.556 479.17 185.556C476.866 185.556 474.886 186.492 473.734 187.644V180.696H485.254V176.988H469.522V190.416L472.51 191.28C474.022 189.84 475.714 189.192 477.766 189.192C480.718 189.192 482.59 190.884 482.59 193.476C482.59 195.816 480.682 197.688 477.658 197.688C474.958 197.688 472.798 196.68 471.178 194.844L468.766 197.724Z" fill="#E62700"/>
<path fill-rule="evenodd" clip-rule="evenodd" d="M434 150C434 145.582 437.582 142 442 142H478C482.418 142 486 145.582 486 150V150C486 154.418 482.418 158 478 158H442C437.582 158 434 154.418 434 150V150Z" stroke="#C92100"/>
<path d="M459.728 154H465.107V152.966H461.488L463.259 151.47C464.557 150.414 465.041 149.611 465.041 148.599C465.041 147.224 463.919 146.311 462.511 146.311C461.312 146.311 460.421 146.861 459.761 147.774L460.509 148.434C461.037 147.752 461.642 147.312 462.467 147.312C463.215 147.312 463.897 147.796 463.897 148.621C463.897 149.303 463.512 149.952 462.5 150.799L459.728 153.087V154ZM467.238 154.132C467.634 154.132 467.953 153.791 467.953 153.384C467.953 153.01 467.634 152.669 467.238 152.669C466.82 152.669 466.501 153.01 466.501 153.384C466.501 153.791 466.82 154.132 467.238 154.132ZM470.688 154H471.81V146.443H470.908L468.917 147.796L469.379 148.599L470.688 147.763V154Z" fill="#C92100"/>
<path d="M445.78 150.797L449 154L452.22 150.797C452.324 150.718 452.372 150.585 452.343 150.458C452.315 150.331 452.214 150.232 452.087 150.205C451.959 150.178 451.828 150.228 451.75 150.333L449.333 152.73L449.333 146.353C449.333 146.169 449.184 146.02 449 146.02C448.816 146.02 448.667 146.169 448.667 146.353L448.667 152.73L446.25 150.333C446.119 150.204 445.908 150.204 445.778 150.335C445.649 150.466 445.649 150.677 445.78 150.807L445.78 150.797Z" fill="#C92100"/>
<path fill-rule="evenodd" clip-rule="evenodd" d="M720 150C720 145.582 723.582 142 728 142H758C762.418 142 766 145.582 766 150V150C766 154.418 762.418 158 758 158H728C723.582 158 720 154.418 720 150V150Z" stroke="#62A420"/>
<path d="M734.318 151.335H737.222V150.345H734.318V151.335ZM739.82 153.843H740.942V146.286H740.04L738.049 147.639L738.511 148.442L739.82 147.606V153.843ZM743.395 153.975C743.791 153.975 744.11 153.634 744.11 153.227C744.11 152.853 743.791 152.512 743.395 152.512C742.977 152.512 742.658 152.853 742.658 153.227C742.658 153.634 742.977 153.975 743.395 153.975ZM748.66 153.975C750.541 153.975 751.883 152.358 751.883 150.059C751.883 147.771 750.541 146.154 748.66 146.154C746.757 146.154 745.426 147.771 745.426 150.059C745.426 152.358 746.757 153.975 748.66 153.975ZM748.66 152.952C747.428 152.952 746.559 151.753 746.559 150.059C746.559 148.365 747.428 147.177 748.66 147.177C749.881 147.177 750.739 148.365 750.739 150.059C750.739 151.753 749.881 152.952 748.66 152.952Z" fill="#62A420"/>
<path fill-rule="evenodd" clip-rule="evenodd" d="M1001 150C1001 145.582 1004.58 142 1009 142H1045C1049.42 142 1053 145.582 1053 150V150C1053 154.418 1049.42 158 1045 158H1009C1004.58 158 1001 154.418 1001 150V150Z" stroke="#C92100"/>
<path d="M1026.73 154H1032.11V152.966H1028.49L1030.26 151.47C1031.56 150.414 1032.04 149.611 1032.04 148.599C1032.04 147.224 1030.92 146.311 1029.51 146.311C1028.31 146.311 1027.42 146.861 1026.76 147.774L1027.51 148.434C1028.04 147.752 1028.64 147.312 1029.47 147.312C1030.21 147.312 1030.9 147.796 1030.9 148.621C1030.9 149.303 1030.51 149.952 1029.5 150.799L1026.73 153.087V154ZM1034.24 154.132C1034.63 154.132 1034.95 153.791 1034.95 153.384C1034.95 153.01 1034.63 152.669 1034.24 152.669C1033.82 152.669 1033.5 153.01 1033.5 153.384C1033.5 153.791 1033.82 154.132 1034.24 154.132ZM1037.69 154H1038.81V146.443H1037.91L1035.92 147.796L1036.38 148.599L1037.69 147.763V154Z" fill="#C92100"/>
<path d="M1012.78 150.797L1016 154L1019.22 150.797C1019.32 150.718 1019.37 150.585 1019.34 150.458C1019.31 150.331 1019.21 150.232 1019.09 150.205C1018.96 150.178 1018.83 150.228 1018.75 150.333L1016.33 152.73L1016.33 146.353C1016.33 146.169 1016.18 146.02 1016 146.02C1015.82 146.02 1015.67 146.169 1015.67 146.353L1015.67 152.73L1013.25 150.333C1013.12 150.204 1012.91 150.204 1012.78 150.335C1012.65 150.466 1012.65 150.677 1012.78 150.807L1012.78 150.797Z" fill="#C92100"/>
<rect x="321" y="265" width="280" height="32" fill="white"/>
<g filter="url(#filter1_d)">
<path fill-rule="evenodd" clip-rule="evenodd" d="M36 277C36 275.343 37.3431 274 39 274H1164C1165.66 274 1167 275.343 1167 277V1103C1167 1104.66 1165.66 1106 1164 1106H39C37.3432 1106 36 1104.66 36 1103V277Z" fill="white"/>
<path d="M39 274.5H1164C1165.38 274.5 1166.5 275.619 1166.5 277V1103C1166.5 1104.38 1165.38 1105.5 1164 1105.5H39C37.6193 1105.5 36.5 1104.38 36.5 1103V277C36.5 275.619 37.6193 274.5 39 274.5Z" stroke="#D7D7D7"/>
</g>
<rect x="321" y="265" width="280" height="32" fill="white"/>
</g>
<defs>
<filter id="filter0_d" x="320" y="116" width="282" height="159" filterUnits="userSpaceOnUse" color-interpolation-filters="sRGB">
<feFlood flood-opacity="0" result="BackgroundImageFix"/>
<feColorMatrix in="SourceAlpha" type="matrix" values="0 0 0 0 0 0 0 0 0 0 0 0 0 0 0 0 0 0 127 0"/>
<feOffset dy="3"/>
<feColorMatrix type="matrix" values="0 0 0 0 0.843137 0 0 0 0 0.843137 0 0 0 0 0.843137 0 0 0 1 0"/>
<feBlend mode="normal" in2="BackgroundImageFix" result="effect1_dropShadow"/>
<feBlend mode="normal" in="SourceGraphic" in2="effect1_dropShadow" result="shape"/>
</filter>
<filter id="filter1_d" x="36" y="274" width="1131" height="835" filterUnits="userSpaceOnUse" color-interpolation-filters="sRGB">
<feFlood flood-opacity="0" result="BackgroundImageFix"/>
<feColorMatrix in="SourceAlpha" type="matrix" values="0 0 0 0 0 0 0 0 0 0 0 0 0 0 0 0 0 0 127 0"/>
<feOffset dy="3"/>
<feColorMatrix type="matrix" values="0 0 0 0 0.843137 0 0 0 0 0.843137 0 0 0 0 0.843137 0 0 0 1 0"/>
<feBlend mode="normal" in2="BackgroundImageFix" result="effect1_dropShadow"/>
<feBlend mode="normal" in="SourceGraphic" in2="effect1_dropShadow" result="shape"/>
</filter>
<linearGradient id="paint0_linear" x1="461" y1="116" x2="461" y2="272" gradientUnits="userSpaceOnUse">
<stop stop-color="#0065AB"/>
<stop offset="1" stop-color="#D7D7D7"/>
</linearGradient>
<clipPath id="clip0">
<rect width="1167" height="275" fill="white"/>
</clipPath>
</defs>
</svg>
